<svg xmlns="http://www.w3.org/2000/svg" xmlns:xlink="http://www.w3.org/1999/xlink" width="525" height="769" viewBox="0 0 525 769">
  <defs>
    <linearGradient id="linear-gradient" x1="0.668" y1="1" x2="0.672" gradientUnits="objectBoundingBox">
      <stop offset="0" stop-color="#b2fdd0"/>
      <stop offset="1" stop-color="#fff"/>
    </linearGradient>
  </defs>
  <g id="Grupo_953699" data-name="Grupo 953699" transform="translate(-350 10641)">
    <g id="Grupo_953599" data-name="Grupo 953599">
      <rect id="Rectángulo_45148" data-name="Rectángulo 45148" width="525" height="769" transform="translate(350 -10641)" fill="none"/>
      <rect id="Rectángulo_45155" data-name="Rectángulo 45155" width="154" height="65" rx="32.5" transform="translate(363 -10623)" fill="#d5cef8"/>
      <rect id="Rectángulo_45156" data-name="Rectángulo 45156" width="279" height="86" rx="43" transform="translate(474 -10532)" fill="#d1f1f6"/>
      <path id="Trazado_658509" data-name="Trazado 658509" d="M7.919,13.451h1.37v1.934H7.919V18H5.52V15.385H.564L.457,13.875,5.5,5.914H7.919Zm-5.072,0H5.52V9.185l-.158.274Zm7.952,3.37a1.208,1.208,0,0,1,.386-.93,1.5,1.5,0,0,1,1.942,0,1.208,1.208,0,0,1,.386.93,1.191,1.191,0,0,1-.382.917,1.525,1.525,0,0,1-1.951,0A1.191,1.191,0,0,1,10.8,16.821ZM21.341,18h-2.4V8.753l-2.864.888V7.69L21.084,5.9h.257Zm10.31-4.731V18H30.057V5.914h4.458a4.478,4.478,0,0,1,3.109,1.013,3.433,3.433,0,0,1,1.125,2.681,3.388,3.388,0,0,1-1.1,2.71,4.678,4.678,0,0,1-3.15.95Zm0-1.3h2.864a2.867,2.867,0,0,0,1.959-.6,2.2,2.2,0,0,0,.681-1.739A2.271,2.271,0,0,0,36.474,7.9a2.685,2.685,0,0,0-1.868-.672H31.651ZM44.882,10.4a4.6,4.6,0,0,0-.755-.058,2.024,2.024,0,0,0-2.05,1.287V18H40.541V9.019h1.494l.025,1.038a2.391,2.391,0,0,1,2.142-1.2,1.569,1.569,0,0,1,.681.116Zm3.08,7.6H46.426V9.019h1.536ZM46.3,6.636a.917.917,0,0,1,.228-.631.857.857,0,0,1,.677-.257.87.87,0,0,1,.681.257.907.907,0,0,1,.232.631.877.877,0,0,1-.232.623.886.886,0,0,1-.681.249.872.872,0,0,1-.677-.249A.886.886,0,0,1,46.3,6.636Zm5.57,2.382.05,1.129a3.273,3.273,0,0,1,2.689-1.295q2.847,0,2.872,3.212V18H55.947V12.057a2.068,2.068,0,0,0-.444-1.436,1.78,1.78,0,0,0-1.357-.465,2.216,2.216,0,0,0-1.312.4,2.706,2.706,0,0,0-.88,1.046V18H50.419V9.019ZM63.4,16.913a2.212,2.212,0,0,0,1.436-.5,1.752,1.752,0,0,0,.681-1.245h1.453a2.785,2.785,0,0,1-.531,1.469,3.5,3.5,0,0,1-1.307,1.112,3.772,3.772,0,0,1-1.731.415,3.7,3.7,0,0,1-2.918-1.224A4.877,4.877,0,0,1,59.4,13.592v-.257A5.407,5.407,0,0,1,59.882,11a3.667,3.667,0,0,1,1.382-1.585,3.926,3.926,0,0,1,2.129-.564,3.6,3.6,0,0,1,2.511.9,3.234,3.234,0,0,1,1.067,2.349H65.518a2.116,2.116,0,0,0-.66-1.432,2.053,2.053,0,0,0-1.465-.56,2.149,2.149,0,0,0-1.814.843,3.957,3.957,0,0,0-.643,2.436v.291a3.878,3.878,0,0,0,.639,2.391A2.16,2.16,0,0,0,63.4,16.913ZM70.366,18H68.83V9.019h1.536ZM68.706,6.636a.917.917,0,0,1,.228-.631.857.857,0,0,1,.677-.257.87.87,0,0,1,.681.257.907.907,0,0,1,.232.631.877.877,0,0,1-.232.623.886.886,0,0,1-.681.249.872.872,0,0,1-.677-.249A.886.886,0,0,1,68.706,6.636Zm11.7,6.973a5.378,5.378,0,0,1-.938,3.3,3.006,3.006,0,0,1-2.54,1.253,3.294,3.294,0,0,1-2.573-1.038v4.325H72.823V9.019h1.4l.075,1a3.163,3.163,0,0,1,2.606-1.162,3.063,3.063,0,0,1,2.561,1.22,5.437,5.437,0,0,1,.942,3.4Zm-1.536-.174a3.968,3.968,0,0,0-.647-2.4,2.086,2.086,0,0,0-1.776-.88,2.257,2.257,0,0,0-2.092,1.237v4.292a2.262,2.262,0,0,0,2.108,1.229,2.076,2.076,0,0,0,1.756-.876A4.332,4.332,0,0,0,78.874,13.435ZM84.029,18H82.493V9.019h1.536ZM82.369,6.636a.917.917,0,0,1,.228-.631.857.857,0,0,1,.677-.257.87.87,0,0,1,.681.257.907.907,0,0,1,.232.631.877.877,0,0,1-.232.623.886.886,0,0,1-.681.249.872.872,0,0,1-.677-.249A.886.886,0,0,1,82.369,6.636Zm3.71,6.79a5.3,5.3,0,0,1,.519-2.374,3.87,3.87,0,0,1,1.444-1.627,3.932,3.932,0,0,1,2.113-.573,3.788,3.788,0,0,1,2.968,1.27A4.886,4.886,0,0,1,94.255,13.5v.108a5.351,5.351,0,0,1-.5,2.353,3.813,3.813,0,0,1-1.436,1.623,3.977,3.977,0,0,1-2.146.581,3.778,3.778,0,0,1-2.959-1.27,4.861,4.861,0,0,1-1.133-3.362Zm1.544.183a3.842,3.842,0,0,0,.693,2.4A2.349,2.349,0,0,0,92.031,16a4.2,4.2,0,0,0,.689-2.569,3.836,3.836,0,0,0-.7-2.395,2.23,2.23,0,0,0-1.864-.917,2.205,2.205,0,0,0-1.834.9A4.17,4.17,0,0,0,87.623,13.609Zm13.788,2.009a1.131,1.131,0,0,0-.469-.967,4.514,4.514,0,0,0-1.635-.594,7.731,7.731,0,0,1-1.851-.6,2.633,2.633,0,0,1-1.013-.83,1.986,1.986,0,0,1-.328-1.146,2.33,2.33,0,0,1,.934-1.868,3.647,3.647,0,0,1,2.386-.764,3.753,3.753,0,0,1,2.478.789,2.5,2.5,0,0,1,.95,2.017h-1.544a1.386,1.386,0,0,0-.535-1.087,2.006,2.006,0,0,0-1.349-.457,2.1,2.1,0,0,0-1.312.365,1.15,1.15,0,0,0-.473.955.932.932,0,0,0,.44.838,5.413,5.413,0,0,0,1.59.54,8.283,8.283,0,0,1,1.864.614,2.718,2.718,0,0,1,1.058.859,2.112,2.112,0,0,1,.344,1.224,2.3,2.3,0,0,1-.963,1.93,4.039,4.039,0,0,1-2.5.726,4.523,4.523,0,0,1-1.909-.382,3.105,3.105,0,0,1-1.3-1.067,2.571,2.571,0,0,1-.469-1.482h1.536a1.59,1.59,0,0,0,.618,1.224,2.4,2.4,0,0,0,1.523.452,2.476,2.476,0,0,0,1.4-.353A1.084,1.084,0,0,0,101.411,15.618Z" transform="translate(391 -10602)" fill="#12263f"/>
      <path id="Trazado_658510" data-name="Trazado 658510" d="M7.919,13.451h1.37v1.934H7.919V18H5.52V15.385H.564L.457,13.875,5.5,5.914H7.919Zm-5.072,0H5.52V9.185l-.158.274Zm7.952,3.37a1.208,1.208,0,0,1,.386-.93,1.5,1.5,0,0,1,1.942,0,1.208,1.208,0,0,1,.386.93,1.191,1.191,0,0,1-.382.917,1.525,1.525,0,0,1-1.951,0A1.191,1.191,0,0,1,10.8,16.821ZM23.8,18H15.514V16.356l3.91-4.167a9.645,9.645,0,0,0,1.191-1.536A2.467,2.467,0,0,0,21,9.409a1.846,1.846,0,0,0-.407-1.266,1.468,1.468,0,0,0-1.162-.461,1.584,1.584,0,0,0-1.282.56,2.219,2.219,0,0,0-.469,1.473H15.273A3.962,3.962,0,0,1,15.8,7.7a3.715,3.715,0,0,1,1.49-1.432,4.529,4.529,0,0,1,2.183-.519,4.288,4.288,0,0,1,2.9.9,3.172,3.172,0,0,1,1.033,2.532A4.064,4.064,0,0,1,22.943,11a10.148,10.148,0,0,1-1.594,2.167l-2.748,2.9h5.2ZM32.116,5.914l3.951,9.861,3.951-9.861h2.067V18H40.491V13.293l.149-5.08L36.673,18h-1.22L31.493,8.238l.158,5.055V18H30.057V5.914ZM50.2,18a3.226,3.226,0,0,1-.216-.946,3.426,3.426,0,0,1-2.557,1.112,3.17,3.17,0,0,1-2.179-.751A2.43,2.43,0,0,1,44.4,15.51a2.539,2.539,0,0,1,1.067-2.179,5.029,5.029,0,0,1,3-.776h1.494v-.706a1.725,1.725,0,0,0-.481-1.282,1.935,1.935,0,0,0-1.419-.477,2.239,2.239,0,0,0-1.378.415,1.223,1.223,0,0,0-.556,1H44.583a2.119,2.119,0,0,1,.477-1.3,3.258,3.258,0,0,1,1.295-.992,4.356,4.356,0,0,1,1.8-.365,3.551,3.551,0,0,1,2.432.776,2.8,2.8,0,0,1,.913,2.137V15.9a5.054,5.054,0,0,0,.315,1.967V18Zm-2.548-1.17a2.7,2.7,0,0,0,1.37-.374,2.259,2.259,0,0,0,.938-.971V13.642h-1.2q-2.822,0-2.822,1.652a1.4,1.4,0,0,0,.481,1.129A1.85,1.85,0,0,0,47.655,16.83Zm7.7-7.811.05,1.129A3.273,3.273,0,0,1,58.1,8.853q2.847,0,2.872,3.212V18H59.434V12.057a2.068,2.068,0,0,0-.444-1.436,1.78,1.78,0,0,0-1.357-.465,2.216,2.216,0,0,0-1.312.4,2.706,2.706,0,0,0-.88,1.046V18H53.905V9.019Zm7.554,4.416a5.261,5.261,0,0,1,.979-3.324,3.333,3.333,0,0,1,5.063-.178V5.25H70.49V18H69.079L69,17.037a3.127,3.127,0,0,1-2.565,1.129A3.068,3.068,0,0,1,63.9,16.888a5.321,5.321,0,0,1-.984-3.337Zm1.536.174A3.984,3.984,0,0,0,65.078,16a2.039,2.039,0,0,0,1.743.863,2.24,2.24,0,0,0,2.133-1.312V11.426a2.257,2.257,0,0,0-2.117-1.27,2.049,2.049,0,0,0-1.76.872A4.386,4.386,0,0,0,64.447,13.609ZM78.417,18a3.226,3.226,0,0,1-.216-.946,3.426,3.426,0,0,1-2.557,1.112,3.17,3.17,0,0,1-2.179-.751,2.43,2.43,0,0,1-.851-1.905,2.539,2.539,0,0,1,1.067-2.179,5.029,5.029,0,0,1,3-.776h1.494v-.706a1.725,1.725,0,0,0-.481-1.282,1.935,1.935,0,0,0-1.419-.477A2.239,2.239,0,0,0,74.9,10.5a1.223,1.223,0,0,0-.556,1H72.8a2.119,2.119,0,0,1,.477-1.3,3.258,3.258,0,0,1,1.295-.992,4.356,4.356,0,0,1,1.8-.365,3.551,3.551,0,0,1,2.432.776,2.8,2.8,0,0,1,.913,2.137V15.9a5.054,5.054,0,0,0,.315,1.967V18Zm-2.548-1.17a2.7,2.7,0,0,0,1.37-.374,2.259,2.259,0,0,0,.938-.971V13.642h-1.2q-2.822,0-2.822,1.652a1.4,1.4,0,0,0,.481,1.129A1.85,1.85,0,0,0,75.869,16.83ZM84.2,6.844V9.019H85.88v1.187H84.2v5.57a1.244,1.244,0,0,0,.224.809.944.944,0,0,0,.764.27,3.718,3.718,0,0,0,.73-.1V18a4.452,4.452,0,0,1-1.179.166,1.912,1.912,0,0,1-1.552-.623,2.675,2.675,0,0,1-.523-1.768v-5.57H81.032V9.019h1.635V6.844Zm2.9,6.583a5.3,5.3,0,0,1,.519-2.374,3.87,3.87,0,0,1,1.444-1.627,3.932,3.932,0,0,1,2.113-.573,3.788,3.788,0,0,1,2.968,1.27A4.886,4.886,0,0,1,95.276,13.5v.108a5.351,5.351,0,0,1-.5,2.353,3.813,3.813,0,0,1-1.436,1.623,3.977,3.977,0,0,1-2.146.581,3.778,3.778,0,0,1-2.959-1.27A4.861,4.861,0,0,1,87.1,13.534Zm1.544.183a3.842,3.842,0,0,0,.693,2.4A2.349,2.349,0,0,0,93.052,16a4.2,4.2,0,0,0,.689-2.569,3.836,3.836,0,0,0-.7-2.395,2.23,2.23,0,0,0-1.864-.917,2.205,2.205,0,0,0-1.834.9A4.17,4.17,0,0,0,88.644,13.609Zm15.705,2.142,2.092-6.732h1.644l-3.611,10.368q-.838,2.241-2.665,2.241l-.291-.025-.573-.108V20.25l.415.033a2.043,2.043,0,0,0,1.216-.315,2.283,2.283,0,0,0,.718-1.154l.34-.913-3.2-8.882h1.677Zm12.916,1.162a2.212,2.212,0,0,0,1.436-.5,1.752,1.752,0,0,0,.681-1.245h1.453a2.785,2.785,0,0,1-.531,1.469A3.5,3.5,0,0,1,119,17.751a3.772,3.772,0,0,1-1.731.415,3.7,3.7,0,0,1-2.918-1.224,4.877,4.877,0,0,1-1.083-3.349v-.257A5.407,5.407,0,0,1,113.746,11a3.667,3.667,0,0,1,1.382-1.585,3.926,3.926,0,0,1,2.129-.564,3.6,3.6,0,0,1,2.511.9,3.234,3.234,0,0,1,1.067,2.349h-1.453a2.116,2.116,0,0,0-.66-1.432,2.053,2.053,0,0,0-1.465-.56,2.149,2.149,0,0,0-1.814.843,3.957,3.957,0,0,0-.643,2.436v.291a3.878,3.878,0,0,0,.639,2.391A2.16,2.16,0,0,0,117.265,16.913Zm4.889-3.486a5.3,5.3,0,0,1,.519-2.374,3.87,3.87,0,0,1,1.444-1.627,3.932,3.932,0,0,1,2.113-.573,3.788,3.788,0,0,1,2.968,1.27,4.886,4.886,0,0,1,1.133,3.378v.108a5.351,5.351,0,0,1-.5,2.353,3.813,3.813,0,0,1-1.436,1.623,3.977,3.977,0,0,1-2.146.581,3.778,3.778,0,0,1-2.959-1.27,4.861,4.861,0,0,1-1.133-3.362Zm1.544.183a3.842,3.842,0,0,0,.693,2.4A2.349,2.349,0,0,0,128.106,16a4.2,4.2,0,0,0,.689-2.569,3.836,3.836,0,0,0-.7-2.395,2.23,2.23,0,0,0-1.864-.917,2.205,2.205,0,0,0-1.834.9A4.17,4.17,0,0,0,123.7,13.609Zm10-4.59.042,1a3.317,3.317,0,0,1,2.665-1.162,2.568,2.568,0,0,1,2.565,1.444,3.4,3.4,0,0,1,1.166-1.046,3.445,3.445,0,0,1,1.7-.4q2.955,0,3,3.129V18H143.3V12.073a2.062,2.062,0,0,0-.44-1.44,1.937,1.937,0,0,0-1.478-.477,2.036,2.036,0,0,0-1.419.51,2.071,2.071,0,0,0-.656,1.374V18h-1.544V12.115a1.713,1.713,0,0,0-1.917-1.959,2.055,2.055,0,0,0-2.067,1.287V18h-1.536V9.019Zm21.042,4.59a5.378,5.378,0,0,1-.938,3.3,3.006,3.006,0,0,1-2.54,1.253,3.294,3.294,0,0,1-2.573-1.038v4.325h-1.536V9.019h1.4l.075,1a3.163,3.163,0,0,1,2.606-1.162,3.063,3.063,0,0,1,2.561,1.22,5.437,5.437,0,0,1,.942,3.4Zm-1.536-.174a3.968,3.968,0,0,0-.647-2.4,2.086,2.086,0,0,0-1.776-.88,2.257,2.257,0,0,0-2.092,1.237v4.292a2.262,2.262,0,0,0,2.108,1.229,2.076,2.076,0,0,0,1.756-.876A4.332,4.332,0,0,0,153.208,13.435Zm7.828-3.038a4.6,4.6,0,0,0-.755-.058,2.024,2.024,0,0,0-2.05,1.287V18h-1.536V9.019h1.494l.025,1.038a2.391,2.391,0,0,1,2.142-1.2,1.569,1.569,0,0,1,.681.116Zm.838,3.03a5.3,5.3,0,0,1,.519-2.374,3.87,3.87,0,0,1,1.444-1.627,3.932,3.932,0,0,1,2.113-.573,3.788,3.788,0,0,1,2.968,1.27A4.886,4.886,0,0,1,170.05,13.5v.108a5.351,5.351,0,0,1-.5,2.353,3.813,3.813,0,0,1-1.436,1.623,3.977,3.977,0,0,1-2.146.581,3.778,3.778,0,0,1-2.959-1.27,4.861,4.861,0,0,1-1.133-3.362Zm1.544.183a3.842,3.842,0,0,0,.693,2.4A2.349,2.349,0,0,0,167.825,16a4.2,4.2,0,0,0,.689-2.569,3.836,3.836,0,0,0-.7-2.395,2.23,2.23,0,0,0-1.864-.917,2.205,2.205,0,0,0-1.834.9A4.17,4.17,0,0,0,163.417,13.609Zm10-4.59.042,1a3.317,3.317,0,0,1,2.665-1.162,2.568,2.568,0,0,1,2.565,1.444,3.4,3.4,0,0,1,1.166-1.046,3.445,3.445,0,0,1,1.7-.4q2.955,0,3,3.129V18h-1.536V12.073a2.062,2.062,0,0,0-.44-1.44,1.937,1.937,0,0,0-1.478-.477,2.036,2.036,0,0,0-1.419.51,2.071,2.071,0,0,0-.656,1.374V18h-1.544V12.115a1.713,1.713,0,0,0-1.917-1.959,2.055,2.055,0,0,0-2.067,1.287V18h-1.536V9.019ZM188.544,18h-1.536V9.019h1.536Zm-1.66-11.364a.917.917,0,0,1,.228-.631.857.857,0,0,1,.677-.257.87.87,0,0,1,.681.257.907.907,0,0,1,.232.631.877.877,0,0,1-.232.623.886.886,0,0,1-.681.249.872.872,0,0,1-.677-.249A.886.886,0,0,1,186.884,6.636Zm9.347,8.981a1.13,1.13,0,0,0-.469-.967,4.514,4.514,0,0,0-1.635-.594,7.731,7.731,0,0,1-1.851-.6,2.633,2.633,0,0,1-1.013-.83,1.986,1.986,0,0,1-.328-1.146,2.33,2.33,0,0,1,.934-1.868,3.647,3.647,0,0,1,2.386-.764,3.753,3.753,0,0,1,2.478.789,2.5,2.5,0,0,1,.95,2.017h-1.544a1.386,1.386,0,0,0-.535-1.087,2.006,2.006,0,0,0-1.349-.457,2.1,2.1,0,0,0-1.312.365,1.15,1.15,0,0,0-.473.955.932.932,0,0,0,.44.838,5.413,5.413,0,0,0,1.59.54,8.283,8.283,0,0,1,1.864.614,2.718,2.718,0,0,1,1.058.859,2.112,2.112,0,0,1,.344,1.224,2.3,2.3,0,0,1-.963,1.93,4.039,4.039,0,0,1-2.5.726,4.523,4.523,0,0,1-1.909-.382,3.105,3.105,0,0,1-1.3-1.067,2.571,2.571,0,0,1-.469-1.482h1.536a1.59,1.59,0,0,0,.618,1.224,2.4,2.4,0,0,0,1.523.452,2.476,2.476,0,0,0,1.4-.353A1.084,1.084,0,0,0,196.23,15.618Zm3.129-2.191a5.3,5.3,0,0,1,.519-2.374,3.87,3.87,0,0,1,1.444-1.627,3.932,3.932,0,0,1,2.113-.573,3.788,3.788,0,0,1,2.968,1.27,4.886,4.886,0,0,1,1.133,3.378v.108a5.351,5.351,0,0,1-.5,2.353,3.813,3.813,0,0,1-1.436,1.623,3.977,3.977,0,0,1-2.146.581,3.778,3.778,0,0,1-2.959-1.27,4.861,4.861,0,0,1-1.133-3.362Zm1.544.183a3.842,3.842,0,0,0,.693,2.4A2.349,2.349,0,0,0,205.312,16,4.2,4.2,0,0,0,206,13.426a3.836,3.836,0,0,0-.7-2.395,2.23,2.23,0,0,0-1.864-.917,2.205,2.205,0,0,0-1.834.9A4.17,4.17,0,0,0,200.9,13.609Z" transform="translate(506 -10499)" fill="#12263f"/>
      <path id="Trazado_658228" data-name="Trazado 658228" d="M-965.232-10806H-998v-66.343" transform="translate(1426.972 317.074)" fill="none" stroke="#36257b" stroke-width="2"/>
      <path id="Trazado_658229" data-name="Trazado 658229" d="M5,0l5,10L5,9,0,10Z" transform="translate(469.401 -10494) rotate(90)" fill="#36257b"/>
      <path id="Trazado_658230" data-name="Trazado 658230" d="M-982.629-10695.5h25.172" transform="translate(-10082.5 -9452) rotate(90)" fill="none" stroke="#36257b" stroke-width="2"/>
      <path id="Trazado_658231" data-name="Trazado 658231" d="M5,0l5,10L5,9,0,10Z" transform="translate(618 -10402.5) rotate(180)" fill="#36257b"/>
      <rect id="Rectángulo_45158" data-name="Rectángulo 45158" width="193" height="140" rx="16" transform="translate(667 -10276)" fill="#d1f1f6"/>
      <rect id="Rectángulo_45160" data-name="Rectángulo 45160" width="193" height="140" rx="16" transform="translate(363 -10276)" fill="#d1f1f6"/>
      <path id="Trazado_658513" data-name="Trazado 658513" d="M7.919,13.451h1.37v1.934H7.919V18H5.52V15.385H.564L.457,13.875,5.5,5.914H7.919Zm-5.072,0H5.52V9.185l-.158.274Zm7.952,3.37a1.208,1.208,0,0,1,.386-.93,1.5,1.5,0,0,1,1.942,0,1.208,1.208,0,0,1,.386.93,1.191,1.191,0,0,1-.382.917,1.525,1.525,0,0,1-1.951,0A1.191,1.191,0,0,1,10.8,16.821Zm11.812-3.37h1.37v1.934h-1.37V18h-2.4V15.385H15.257l-.108-1.511,5.039-7.96h2.424Zm-5.072,0h2.673V9.185l-.158.274ZM3.113,42H1.519V29.914H3.113ZM7.23,33.019l.042,1a3.317,3.317,0,0,1,2.665-1.162A2.568,2.568,0,0,1,12.5,34.3a3.4,3.4,0,0,1,1.166-1.046,3.445,3.445,0,0,1,1.7-.4q2.955,0,3,3.129V42H16.834V36.073a2.062,2.062,0,0,0-.44-1.44,1.937,1.937,0,0,0-1.478-.477,2.036,2.036,0,0,0-1.419.51,2.071,2.071,0,0,0-.656,1.374V42H11.3V36.115A1.713,1.713,0,0,0,9.38,34.156a2.055,2.055,0,0,0-2.067,1.287V42H5.777V33.019Zm21.042,4.59a5.378,5.378,0,0,1-.938,3.3,3.006,3.006,0,0,1-2.54,1.253,3.294,3.294,0,0,1-2.573-1.038v4.325H20.686V33.019h1.4l.075,1a3.163,3.163,0,0,1,2.606-1.162,3.063,3.063,0,0,1,2.561,1.22,5.437,5.437,0,0,1,.942,3.4Zm-1.536-.174a3.968,3.968,0,0,0-.647-2.4,2.086,2.086,0,0,0-1.776-.88,2.257,2.257,0,0,0-2.092,1.237v4.292a2.262,2.262,0,0,0,2.108,1.229,2.076,2.076,0,0,0,1.756-.876A4.332,4.332,0,0,0,26.737,37.435ZM31.892,42H30.356V29.25h1.536Zm6.184.166a3.924,3.924,0,0,1-2.972-1.2,4.452,4.452,0,0,1-1.146-3.208v-.282a5.39,5.39,0,0,1,.51-2.386A3.982,3.982,0,0,1,35.9,33.446a3.59,3.59,0,0,1,1.988-.594,3.364,3.364,0,0,1,2.723,1.154,5,5,0,0,1,.971,3.3v.639H35.494a3.193,3.193,0,0,0,.776,2.146,2.44,2.44,0,0,0,1.888.818,2.675,2.675,0,0,0,1.378-.332,3.462,3.462,0,0,0,.988-.88l.938.73A3.772,3.772,0,0,1,38.076,42.166Zm-.191-8.052a2.048,2.048,0,0,0-1.561.677,3.288,3.288,0,0,0-.78,1.9h4.5v-.116a2.925,2.925,0,0,0-.631-1.814A1.928,1.928,0,0,0,37.885,34.114Zm6.915-1.1.042,1a3.317,3.317,0,0,1,2.665-1.162A2.568,2.568,0,0,1,50.07,34.3a3.4,3.4,0,0,1,1.166-1.046,3.445,3.445,0,0,1,1.7-.4q2.955,0,3,3.129V42H54.4V36.073a2.062,2.062,0,0,0-.44-1.44,1.937,1.937,0,0,0-1.478-.477,2.036,2.036,0,0,0-1.419.51,2.071,2.071,0,0,0-.656,1.374V42H48.867V36.115a1.713,1.713,0,0,0-1.917-1.959,2.055,2.055,0,0,0-2.067,1.287V42H43.347V33.019Zm17.183,9.147a3.924,3.924,0,0,1-2.972-1.2,4.452,4.452,0,0,1-1.146-3.208v-.282a5.39,5.39,0,0,1,.51-2.386A3.982,3.982,0,0,1,59.8,33.446a3.59,3.59,0,0,1,1.988-.594,3.364,3.364,0,0,1,2.723,1.154,5,5,0,0,1,.971,3.3v.639H59.4a3.193,3.193,0,0,0,.776,2.146,2.44,2.44,0,0,0,1.888.818,2.675,2.675,0,0,0,1.378-.332,3.462,3.462,0,0,0,.988-.88l.938.73A3.772,3.772,0,0,1,61.982,42.166Zm-.191-8.052a2.048,2.048,0,0,0-1.561.677,3.288,3.288,0,0,0-.78,1.9h4.5v-.116a2.925,2.925,0,0,0-.631-1.814A1.928,1.928,0,0,0,61.791,34.114Zm6.923-1.1.05,1.129a3.273,3.273,0,0,1,2.689-1.295q2.847,0,2.872,3.212V42H72.79V36.057a2.068,2.068,0,0,0-.444-1.436,1.78,1.78,0,0,0-1.357-.465,2.216,2.216,0,0,0-1.312.4A2.706,2.706,0,0,0,68.8,35.6V42H67.261V33.019Zm10.011-2.175v2.175H80.4v1.187H78.725v5.57a1.244,1.244,0,0,0,.224.809.944.944,0,0,0,.764.27,3.718,3.718,0,0,0,.73-.1V42a4.452,4.452,0,0,1-1.179.166,1.912,1.912,0,0,1-1.552-.623,2.675,2.675,0,0,1-.523-1.768v-5.57H75.554V33.019h1.635V30.844ZM87.739,42a3.226,3.226,0,0,1-.216-.946,3.426,3.426,0,0,1-2.557,1.112,3.17,3.17,0,0,1-2.179-.751,2.43,2.43,0,0,1-.851-1.905A2.539,2.539,0,0,1,83,37.331a5.029,5.029,0,0,1,3-.776H87.5v-.706a1.725,1.725,0,0,0-.481-1.282,1.935,1.935,0,0,0-1.419-.477,2.239,2.239,0,0,0-1.378.415,1.223,1.223,0,0,0-.556,1H82.12a2.119,2.119,0,0,1,.477-1.3,3.258,3.258,0,0,1,1.295-.992,4.356,4.356,0,0,1,1.8-.365,3.551,3.551,0,0,1,2.432.776,2.8,2.8,0,0,1,.913,2.137V39.9a5.054,5.054,0,0,0,.315,1.967V42Zm-2.548-1.17a2.7,2.7,0,0,0,1.37-.374,2.259,2.259,0,0,0,.938-.971V37.642h-1.2q-2.822,0-2.822,1.652a1.4,1.4,0,0,0,.481,1.129A1.85,1.85,0,0,0,85.191,40.83Zm9.853.083a2.212,2.212,0,0,0,1.436-.5,1.752,1.752,0,0,0,.681-1.245h1.453a2.785,2.785,0,0,1-.531,1.469,3.5,3.5,0,0,1-1.307,1.112,3.772,3.772,0,0,1-1.731.415,3.7,3.7,0,0,1-2.918-1.224,4.877,4.877,0,0,1-1.083-3.349v-.257A5.407,5.407,0,0,1,91.524,35a3.667,3.667,0,0,1,1.382-1.585,3.926,3.926,0,0,1,2.129-.564,3.6,3.6,0,0,1,2.511.9,3.234,3.234,0,0,1,1.067,2.349H97.161a2.116,2.116,0,0,0-.66-1.432,2.053,2.053,0,0,0-1.465-.56,2.149,2.149,0,0,0-1.814.843,3.957,3.957,0,0,0-.643,2.436v.291a3.878,3.878,0,0,0,.639,2.391A2.16,2.16,0,0,0,95.044,40.913ZM102.008,42h-1.536V33.019h1.536Zm-1.66-11.364a.917.917,0,0,1,.228-.631.857.857,0,0,1,.677-.257.87.87,0,0,1,.681.257.907.907,0,0,1,.232.631.877.877,0,0,1-.232.623.886.886,0,0,1-.681.249.872.872,0,0,1-.677-.249A.886.886,0,0,1,100.348,30.636Zm3.71,6.79a5.3,5.3,0,0,1,.519-2.374,3.87,3.87,0,0,1,1.444-1.627,3.932,3.932,0,0,1,2.113-.573,3.788,3.788,0,0,1,2.968,1.27,4.886,4.886,0,0,1,1.133,3.378v.108a5.351,5.351,0,0,1-.5,2.353,3.813,3.813,0,0,1-1.436,1.623,3.977,3.977,0,0,1-2.146.581,3.778,3.778,0,0,1-2.959-1.27,4.861,4.861,0,0,1-1.133-3.362Zm1.544.183a3.842,3.842,0,0,0,.693,2.4A2.349,2.349,0,0,0,110.01,40a4.2,4.2,0,0,0,.689-2.569,3.836,3.836,0,0,0-.7-2.395,2.23,2.23,0,0,0-1.864-.917,2.205,2.205,0,0,0-1.834.9A4.17,4.17,0,0,0,105.6,37.609Zm3.229-8.359h1.859l-2.225,2.44h-1.237Zm6.782,3.769.05,1.129a3.273,3.273,0,0,1,2.689-1.295q2.847,0,2.872,3.212V42h-1.536V36.057a2.068,2.068,0,0,0-.444-1.436,1.78,1.78,0,0,0-1.357-.465,2.216,2.216,0,0,0-1.312.4,2.706,2.706,0,0,0-.88,1.046V42h-1.536V33.019ZM.789,61.435a5.261,5.261,0,0,1,.979-3.324,3.1,3.1,0,0,1,2.565-1.258,3.115,3.115,0,0,1,2.5,1.079V53.25H8.367V66H6.956l-.075-.963a3.127,3.127,0,0,1-2.565,1.129,3.068,3.068,0,0,1-2.544-1.278,5.321,5.321,0,0,1-.984-3.337Zm1.536.174A3.984,3.984,0,0,0,2.955,64a2.039,2.039,0,0,0,1.743.863,2.24,2.24,0,0,0,2.133-1.312V59.426a2.257,2.257,0,0,0-2.117-1.27,2.049,2.049,0,0,0-1.76.872A4.386,4.386,0,0,0,2.324,61.609Zm12.152,4.557a3.924,3.924,0,0,1-2.972-1.2,4.452,4.452,0,0,1-1.146-3.208v-.282a5.39,5.39,0,0,1,.51-2.386A3.982,3.982,0,0,1,12.3,57.446a3.59,3.59,0,0,1,1.988-.594,3.364,3.364,0,0,1,2.723,1.154,5,5,0,0,1,.971,3.3v.639H11.9a3.193,3.193,0,0,0,.776,2.146,2.44,2.44,0,0,0,1.888.818,2.675,2.675,0,0,0,1.378-.332,3.462,3.462,0,0,0,.988-.88l.938.73A3.772,3.772,0,0,1,14.477,66.166Zm-.191-8.052a2.048,2.048,0,0,0-1.561.677,3.288,3.288,0,0,0-.78,1.9h4.5v-.116a2.925,2.925,0,0,0-.631-1.814A1.928,1.928,0,0,0,14.286,58.114ZM25.633,66H24.1V53.25h1.536Zm8,0a3.226,3.226,0,0,1-.216-.946,3.426,3.426,0,0,1-2.557,1.112,3.17,3.17,0,0,1-2.179-.751,2.43,2.43,0,0,1-.851-1.905A2.539,2.539,0,0,1,28.9,61.331a5.029,5.029,0,0,1,3-.776h1.494v-.706a1.725,1.725,0,0,0-.481-1.282,1.935,1.935,0,0,0-1.419-.477,2.239,2.239,0,0,0-1.378.415,1.223,1.223,0,0,0-.556,1H28.015a2.119,2.119,0,0,1,.477-1.3,3.258,3.258,0,0,1,1.295-.992,4.356,4.356,0,0,1,1.8-.365,3.551,3.551,0,0,1,2.432.776,2.8,2.8,0,0,1,.913,2.137V63.9a5.054,5.054,0,0,0,.315,1.967V66Zm-2.548-1.17a2.7,2.7,0,0,0,1.37-.374,2.259,2.259,0,0,0,.938-.971V61.642h-1.2q-2.822,0-2.822,1.652a1.4,1.4,0,0,0,.481,1.129A1.85,1.85,0,0,0,31.086,64.83Zm10.094-3.4a5.279,5.279,0,0,1,.971-3.341,3.348,3.348,0,0,1,5.138-.079l.075-1h1.4v8.766a3.654,3.654,0,0,1-1.033,2.748,3.814,3.814,0,0,1-2.777,1,4.619,4.619,0,0,1-1.9-.415,3.272,3.272,0,0,1-1.419-1.137l.8-.921a3,3,0,0,0,2.416,1.22,2.353,2.353,0,0,0,1.747-.631,2.411,2.411,0,0,0,.627-1.776V65.1a3.156,3.156,0,0,1-2.515,1.063,3.068,3.068,0,0,1-2.552-1.27A5.55,5.55,0,0,1,41.18,61.435Zm1.544.174A4.027,4.027,0,0,0,43.347,64a2.023,2.023,0,0,0,1.743.867,2.249,2.249,0,0,0,2.133-1.32v-4.1a2.276,2.276,0,0,0-2.117-1.287,2.041,2.041,0,0,0-1.751.872A4.386,4.386,0,0,0,42.724,61.609ZM54.81,66.166a3.924,3.924,0,0,1-2.972-1.2,4.452,4.452,0,0,1-1.146-3.208v-.282a5.39,5.39,0,0,1,.51-2.386,3.982,3.982,0,0,1,1.428-1.644,3.59,3.59,0,0,1,1.988-.594,3.364,3.364,0,0,1,2.723,1.154,5,5,0,0,1,.971,3.3v.639H52.229A3.193,3.193,0,0,0,53,64.095a2.44,2.44,0,0,0,1.888.818,2.675,2.675,0,0,0,1.378-.332,3.462,3.462,0,0,0,.988-.88l.938.73A3.772,3.772,0,0,1,54.81,66.166Zm-.191-8.052a2.048,2.048,0,0,0-1.561.677,3.288,3.288,0,0,0-.78,1.9h4.5v-.116a2.925,2.925,0,0,0-.631-1.814A1.928,1.928,0,0,0,54.619,58.114Zm10.7,5.5a1.131,1.131,0,0,0-.469-.967,4.514,4.514,0,0,0-1.635-.594,7.731,7.731,0,0,1-1.851-.6,2.633,2.633,0,0,1-1.013-.83,1.986,1.986,0,0,1-.328-1.146,2.33,2.33,0,0,1,.934-1.868,3.647,3.647,0,0,1,2.386-.764,3.753,3.753,0,0,1,2.478.789,2.5,2.5,0,0,1,.95,2.017H65.228a1.386,1.386,0,0,0-.535-1.087,2.006,2.006,0,0,0-1.349-.457,2.1,2.1,0,0,0-1.312.365,1.15,1.15,0,0,0-.473.955.932.932,0,0,0,.44.838,5.413,5.413,0,0,0,1.59.54,8.283,8.283,0,0,1,1.864.614,2.718,2.718,0,0,1,1.058.859,2.112,2.112,0,0,1,.344,1.224,2.3,2.3,0,0,1-.963,1.93,4.039,4.039,0,0,1-2.5.726,4.523,4.523,0,0,1-1.909-.382,3.105,3.105,0,0,1-1.3-1.067,2.571,2.571,0,0,1-.469-1.482h1.536a1.59,1.59,0,0,0,.618,1.224,2.4,2.4,0,0,0,1.523.452,2.476,2.476,0,0,0,1.4-.353A1.084,1.084,0,0,0,65.319,63.618Zm5.62-8.774v2.175h1.677v1.187H70.938v5.57a1.244,1.244,0,0,0,.224.809.944.944,0,0,0,.764.27,3.718,3.718,0,0,0,.73-.1V66a4.452,4.452,0,0,1-1.179.166,1.912,1.912,0,0,1-1.552-.623,2.675,2.675,0,0,1-.523-1.768v-5.57H67.768V57.019H69.4V54.844ZM76.077,66H74.541V57.019h1.536Zm-1.66-11.364a.917.917,0,0,1,.228-.631.857.857,0,0,1,.677-.257.87.87,0,0,1,.681.257.907.907,0,0,1,.232.631.877.877,0,0,1-.232.623.886.886,0,0,1-.681.249.872.872,0,0,1-.677-.249A.886.886,0,0,1,74.417,54.636Zm3.71,6.79a5.3,5.3,0,0,1,.519-2.374,3.87,3.87,0,0,1,1.444-1.627,3.932,3.932,0,0,1,2.113-.573,3.788,3.788,0,0,1,2.968,1.27A4.886,4.886,0,0,1,86.3,61.5v.108a5.351,5.351,0,0,1-.5,2.353,3.813,3.813,0,0,1-1.436,1.623,3.977,3.977,0,0,1-2.146.581A3.778,3.778,0,0,1,79.26,64.9a4.861,4.861,0,0,1-1.133-3.362Zm1.544.183a3.842,3.842,0,0,0,.693,2.4A2.349,2.349,0,0,0,84.079,64a4.2,4.2,0,0,0,.689-2.569,3.836,3.836,0,0,0-.7-2.395,2.23,2.23,0,0,0-1.864-.917,2.205,2.205,0,0,0-1.834.9A4.17,4.17,0,0,0,79.671,61.609ZM82.9,53.25h1.859l-2.225,2.44H81.3Zm6.782,3.769.05,1.129a3.273,3.273,0,0,1,2.689-1.295q2.847,0,2.872,3.212V66H93.757V60.057a2.068,2.068,0,0,0-.444-1.436,1.78,1.78,0,0,0-1.357-.465,2.216,2.216,0,0,0-1.312.4,2.706,2.706,0,0,0-.88,1.046V66H88.229V57.019Zm11.762,4.416a5.261,5.261,0,0,1,.979-3.324,3.333,3.333,0,0,1,5.063-.178V53.25h1.536V66h-1.411l-.075-.963a3.127,3.127,0,0,1-2.565,1.129,3.068,3.068,0,0,1-2.544-1.278,5.321,5.321,0,0,1-.984-3.337Zm1.536.174A3.984,3.984,0,0,0,103.61,64a2.039,2.039,0,0,0,1.743.863,2.24,2.24,0,0,0,2.133-1.312V59.426a2.257,2.257,0,0,0-2.117-1.27,2.049,2.049,0,0,0-1.76.872A4.386,4.386,0,0,0,102.979,61.609Zm12.152,4.557a3.924,3.924,0,0,1-2.972-1.2,4.452,4.452,0,0,1-1.146-3.208v-.282a5.39,5.39,0,0,1,.51-2.386,3.982,3.982,0,0,1,1.428-1.644,3.59,3.59,0,0,1,1.988-.594,3.364,3.364,0,0,1,2.723,1.154,5,5,0,0,1,.971,3.3v.639H112.55a3.193,3.193,0,0,0,.776,2.146,2.44,2.44,0,0,0,1.888.818,2.675,2.675,0,0,0,1.378-.332,3.462,3.462,0,0,0,.988-.88l.938.73A3.772,3.772,0,0,1,115.132,66.166Zm-.191-8.052a2.048,2.048,0,0,0-1.561.677,3.288,3.288,0,0,0-.78,1.9h4.5v-.116a2.925,2.925,0,0,0-.631-1.814A1.928,1.928,0,0,0,114.941,58.114ZM5.5,82.4a4.6,4.6,0,0,0-.755-.058A2.024,2.024,0,0,0,2.7,83.625V90H1.162V81.019H2.656l.025,1.038a2.391,2.391,0,0,1,2.142-1.2,1.569,1.569,0,0,1,.681.116ZM8.583,90H7.047V81.019H8.583ZM6.923,78.636a.917.917,0,0,1,.228-.631.857.857,0,0,1,.677-.257.87.87,0,0,1,.681.257.907.907,0,0,1,.232.631.877.877,0,0,1-.232.623.886.886,0,0,1-.681.249.872.872,0,0,1-.677-.249A.886.886,0,0,1,6.923,78.636Zm7.844,11.53a3.924,3.924,0,0,1-2.972-1.2,4.452,4.452,0,0,1-1.146-3.208v-.282a5.39,5.39,0,0,1,.51-2.386,3.982,3.982,0,0,1,1.428-1.644,3.59,3.59,0,0,1,1.988-.594A3.364,3.364,0,0,1,17.3,82.006a5,5,0,0,1,.971,3.3v.639H12.186a3.193,3.193,0,0,0,.776,2.146,2.44,2.44,0,0,0,1.888.818,2.675,2.675,0,0,0,1.378-.332,3.462,3.462,0,0,0,.988-.88l.938.73A3.772,3.772,0,0,1,14.767,90.166Zm-.191-8.052a2.048,2.048,0,0,0-1.561.677,3.288,3.288,0,0,0-.78,1.9h4.5v-.116a2.925,2.925,0,0,0-.631-1.814A1.929,1.929,0,0,0,14.576,82.114Zm10.7,5.5a1.13,1.13,0,0,0-.469-.967,4.514,4.514,0,0,0-1.635-.594,7.731,7.731,0,0,1-1.851-.6,2.633,2.633,0,0,1-1.013-.83,1.986,1.986,0,0,1-.328-1.146,2.33,2.33,0,0,1,.934-1.868,3.647,3.647,0,0,1,2.386-.764,3.753,3.753,0,0,1,2.478.789,2.5,2.5,0,0,1,.95,2.017H25.185a1.386,1.386,0,0,0-.535-1.087,2.006,2.006,0,0,0-1.349-.457,2.1,2.1,0,0,0-1.312.365,1.15,1.15,0,0,0-.473.955.932.932,0,0,0,.44.838,5.413,5.413,0,0,0,1.59.54,8.283,8.283,0,0,1,1.864.614,2.718,2.718,0,0,1,1.058.859,2.112,2.112,0,0,1,.344,1.224,2.3,2.3,0,0,1-.963,1.93,4.039,4.039,0,0,1-2.5.726,4.523,4.523,0,0,1-1.909-.382,3.105,3.105,0,0,1-1.3-1.067,2.571,2.571,0,0,1-.469-1.482h1.536a1.59,1.59,0,0,0,.618,1.224,2.4,2.4,0,0,0,1.523.452,2.476,2.476,0,0,0,1.4-.353A1.084,1.084,0,0,0,25.276,87.618Zm3.171-2.183a5.279,5.279,0,0,1,.971-3.341,3.348,3.348,0,0,1,5.138-.079l.075-1h1.4v8.766A3.654,3.654,0,0,1,35,92.532a3.814,3.814,0,0,1-2.777,1,4.619,4.619,0,0,1-1.9-.415A3.272,3.272,0,0,1,28.9,91.984l.8-.921a3,3,0,0,0,2.416,1.22,2.353,2.353,0,0,0,1.747-.631,2.411,2.411,0,0,0,.627-1.776V89.1a3.156,3.156,0,0,1-2.515,1.063,3.068,3.068,0,0,1-2.552-1.27A5.55,5.55,0,0,1,28.447,85.435Zm1.544.174A4.027,4.027,0,0,0,30.613,88a2.023,2.023,0,0,0,1.743.867,2.249,2.249,0,0,0,2.133-1.32v-4.1a2.276,2.276,0,0,0-2.117-1.287,2.041,2.041,0,0,0-1.751.872A4.386,4.386,0,0,0,29.991,85.609Zm7.952-.183a5.3,5.3,0,0,1,.519-2.374,3.87,3.87,0,0,1,1.444-1.627,3.932,3.932,0,0,1,2.113-.573,3.788,3.788,0,0,1,2.968,1.27A4.886,4.886,0,0,1,46.119,85.5v.108a5.351,5.351,0,0,1-.5,2.353,3.813,3.813,0,0,1-1.436,1.623,3.977,3.977,0,0,1-2.146.581,3.778,3.778,0,0,1-2.959-1.27,4.861,4.861,0,0,1-1.133-3.362Zm1.544.183a3.842,3.842,0,0,0,.693,2.4A2.349,2.349,0,0,0,43.895,88a4.2,4.2,0,0,0,.689-2.569,3.836,3.836,0,0,0-.7-2.395,2.23,2.23,0,0,0-1.864-.917,2.205,2.205,0,0,0-1.834.9A4.17,4.17,0,0,0,39.487,85.609Zm13.788,2.009a1.13,1.13,0,0,0-.469-.967,4.514,4.514,0,0,0-1.635-.594,7.731,7.731,0,0,1-1.851-.6,2.633,2.633,0,0,1-1.013-.83,1.986,1.986,0,0,1-.328-1.146,2.33,2.33,0,0,1,.934-1.868,3.647,3.647,0,0,1,2.386-.764,3.753,3.753,0,0,1,2.478.789,2.5,2.5,0,0,1,.95,2.017H53.183a1.386,1.386,0,0,0-.535-1.087,2.006,2.006,0,0,0-1.349-.457,2.1,2.1,0,0,0-1.312.365,1.15,1.15,0,0,0-.473.955.932.932,0,0,0,.44.838,5.413,5.413,0,0,0,1.59.54,8.283,8.283,0,0,1,1.864.614,2.718,2.718,0,0,1,1.058.859,2.112,2.112,0,0,1,.344,1.224,2.3,2.3,0,0,1-.963,1.93,4.039,4.039,0,0,1-2.5.726,4.523,4.523,0,0,1-1.909-.382,3.105,3.105,0,0,1-1.3-1.067,2.571,2.571,0,0,1-.469-1.482h1.536a1.59,1.59,0,0,0,.618,1.224,2.4,2.4,0,0,0,1.523.452,2.476,2.476,0,0,0,1.4-.353A1.084,1.084,0,0,0,53.274,87.618Z" transform="translate(699 -10255)" fill="#12263f"/>
      <path id="Trazado_658512" data-name="Trazado 658512" d="M7.919,13.451h1.37v1.934H7.919V18H5.52V15.385H.564L.457,13.875,5.5,5.914H7.919Zm-5.072,0H5.52V9.185l-.158.274Zm7.952,3.37a1.208,1.208,0,0,1,.386-.93,1.5,1.5,0,0,1,1.942,0,1.208,1.208,0,0,1,.386.93,1.191,1.191,0,0,1-.382.917,1.525,1.525,0,0,1-1.951,0A1.191,1.191,0,0,1,10.8,16.821ZM22.022,5.79V7.765H21.79a4.075,4.075,0,0,0-2.619.847,3.44,3.44,0,0,0-1.191,2.283,3.267,3.267,0,0,1,2.432-.979,3.078,3.078,0,0,1,2.507,1.129,4.525,4.525,0,0,1,.93,2.972,4.451,4.451,0,0,1-.51,2.133,3.661,3.661,0,0,1-1.444,1.486,4.2,4.2,0,0,1-2.113.531A3.919,3.919,0,0,1,16.7,16.838a5.155,5.155,0,0,1-1.175-3.544V12.43a7.758,7.758,0,0,1,.743-3.474A5.447,5.447,0,0,1,18.4,6.624a6.251,6.251,0,0,1,3.225-.834Zm-2.341,6.051a1.914,1.914,0,0,0-1.054.3,1.824,1.824,0,0,0-.7.8v.73a3.241,3.241,0,0,0,.473,1.88,1.528,1.528,0,0,0,1.328.677,1.511,1.511,0,0,0,1.249-.61,2.492,2.492,0,0,0,.477-1.581,2.487,2.487,0,0,0-.481-1.594A1.568,1.568,0,0,0,19.681,11.841ZM3.461,29.914l3.951,9.861,3.951-9.861h2.067V42H11.837V37.293l.149-5.08L8.019,42H6.8L2.839,32.238,3,37.293V42H1.4V29.914Zm16.27,12.252a3.924,3.924,0,0,1-2.972-1.2,4.452,4.452,0,0,1-1.146-3.208v-.282a5.39,5.39,0,0,1,.51-2.386,3.982,3.982,0,0,1,1.428-1.644,3.59,3.59,0,0,1,1.988-.594,3.364,3.364,0,0,1,2.723,1.154,5,5,0,0,1,.971,3.3v.639H17.149a3.193,3.193,0,0,0,.776,2.146,2.44,2.44,0,0,0,1.888.818,2.675,2.675,0,0,0,1.378-.332,3.462,3.462,0,0,0,.988-.88l.938.73A3.772,3.772,0,0,1,19.731,42.166Zm-.191-8.052a2.048,2.048,0,0,0-1.561.677,3.288,3.288,0,0,0-.78,1.9h4.5v-.116a2.925,2.925,0,0,0-.631-1.814A1.928,1.928,0,0,0,19.54,34.114Zm7.056-1.1V43.038q0,2.59-2.349,2.59a2.849,2.849,0,0,1-.938-.149V44.25a2.969,2.969,0,0,0,.7.066,1.044,1.044,0,0,0,.784-.278,1.375,1.375,0,0,0,.27-.967V33.019ZM24.9,30.636a.921.921,0,0,1,.228-.627.839.839,0,0,1,.668-.261.87.87,0,0,1,.681.257.907.907,0,0,1,.232.631.877.877,0,0,1-.232.623.886.886,0,0,1-.681.249.859.859,0,0,1-.672-.249A.9.9,0,0,1,24.9,30.636Zm3.76,6.79a5.3,5.3,0,0,1,.519-2.374,3.87,3.87,0,0,1,1.444-1.627,3.932,3.932,0,0,1,2.113-.573,3.788,3.788,0,0,1,2.968,1.27A4.886,4.886,0,0,1,36.839,37.5v.108a5.351,5.351,0,0,1-.5,2.353A3.813,3.813,0,0,1,34.9,41.585a3.977,3.977,0,0,1-2.146.581A3.778,3.778,0,0,1,29.8,40.9a4.861,4.861,0,0,1-1.133-3.362Zm1.544.183a3.842,3.842,0,0,0,.693,2.4A2.349,2.349,0,0,0,34.614,40a4.2,4.2,0,0,0,.689-2.569,3.836,3.836,0,0,0-.7-2.395,2.23,2.23,0,0,0-1.864-.917,2.205,2.205,0,0,0-1.834.9A4.17,4.17,0,0,0,30.207,37.609Zm12.9-3.212a4.6,4.6,0,0,0-.755-.058,2.024,2.024,0,0,0-2.05,1.287V42H38.765V33.019h1.494l.025,1.038a2.391,2.391,0,0,1,2.142-1.2,1.569,1.569,0,0,1,.681.116ZM49.73,42a3.226,3.226,0,0,1-.216-.946,3.426,3.426,0,0,1-2.557,1.112,3.17,3.17,0,0,1-2.179-.751,2.43,2.43,0,0,1-.851-1.905,2.539,2.539,0,0,1,1.067-2.179,5.029,5.029,0,0,1,3-.776h1.494v-.706a1.725,1.725,0,0,0-.481-1.282,1.935,1.935,0,0,0-1.419-.477,2.239,2.239,0,0,0-1.378.415,1.223,1.223,0,0,0-.556,1H44.11a2.119,2.119,0,0,1,.477-1.3,3.258,3.258,0,0,1,1.295-.992,4.356,4.356,0,0,1,1.8-.365,3.551,3.551,0,0,1,2.432.776,2.8,2.8,0,0,1,.913,2.137V39.9a5.054,5.054,0,0,0,.315,1.967V42Zm-2.548-1.17a2.7,2.7,0,0,0,1.37-.374,2.259,2.259,0,0,0,.938-.971V37.642h-1.2q-2.822,0-2.822,1.652a1.4,1.4,0,0,0,.481,1.129A1.85,1.85,0,0,0,47.182,40.83Zm14.062.083a2.212,2.212,0,0,0,1.436-.5,1.752,1.752,0,0,0,.681-1.245h1.453a2.785,2.785,0,0,1-.531,1.469,3.5,3.5,0,0,1-1.307,1.112,3.772,3.772,0,0,1-1.731.415,3.7,3.7,0,0,1-2.918-1.224,4.877,4.877,0,0,1-1.083-3.349v-.257A5.407,5.407,0,0,1,57.724,35a3.667,3.667,0,0,1,1.382-1.585,3.926,3.926,0,0,1,2.129-.564,3.6,3.6,0,0,1,2.511.9,3.234,3.234,0,0,1,1.067,2.349H63.36a2.116,2.116,0,0,0-.66-1.432,2.053,2.053,0,0,0-1.465-.56,2.149,2.149,0,0,0-1.814.843,3.957,3.957,0,0,0-.643,2.436v.291a3.878,3.878,0,0,0,.639,2.391A2.16,2.16,0,0,0,61.243,40.913Zm4.889-3.486a5.3,5.3,0,0,1,.519-2.374A3.87,3.87,0,0,1,68.1,33.425a3.932,3.932,0,0,1,2.113-.573,3.788,3.788,0,0,1,2.968,1.27A4.886,4.886,0,0,1,74.309,37.5v.108a5.351,5.351,0,0,1-.5,2.353,3.813,3.813,0,0,1-1.436,1.623,3.977,3.977,0,0,1-2.146.581,3.778,3.778,0,0,1-2.959-1.27,4.861,4.861,0,0,1-1.133-3.362Zm1.544.183a3.842,3.842,0,0,0,.693,2.4A2.349,2.349,0,0,0,72.084,40a4.2,4.2,0,0,0,.689-2.569,3.836,3.836,0,0,0-.7-2.395,2.23,2.23,0,0,0-1.864-.917,2.205,2.205,0,0,0-1.834.9A4.17,4.17,0,0,0,67.676,37.609Zm10.011-4.59.05,1.129a3.273,3.273,0,0,1,2.689-1.295q2.847,0,2.872,3.212V42H81.763V36.057a2.068,2.068,0,0,0-.444-1.436,1.78,1.78,0,0,0-1.357-.465,2.216,2.216,0,0,0-1.312.4,2.706,2.706,0,0,0-.88,1.046V42H76.234V33.019ZM87.7,30.844v2.175h1.677v1.187H87.7v5.57a1.244,1.244,0,0,0,.224.809.944.944,0,0,0,.764.27,3.718,3.718,0,0,0,.73-.1V42a4.452,4.452,0,0,1-1.179.166,1.912,1.912,0,0,1-1.552-.623,2.675,2.675,0,0,1-.523-1.768v-5.57H84.527V33.019h1.635V30.844ZM92.836,42H91.3V33.019h1.536Zm-1.66-11.364a.917.917,0,0,1,.228-.631.857.857,0,0,1,.677-.257.87.87,0,0,1,.681.257.907.907,0,0,1,.232.631.877.877,0,0,1-.232.623.886.886,0,0,1-.681.249.872.872,0,0,1-.677-.249A.886.886,0,0,1,91.176,30.636Zm5.57,2.382.05,1.129a3.273,3.273,0,0,1,2.689-1.295q2.847,0,2.872,3.212V42h-1.536V36.057a2.068,2.068,0,0,0-.444-1.436,1.78,1.78,0,0,0-1.357-.465,2.216,2.216,0,0,0-1.312.4,2.706,2.706,0,0,0-.88,1.046V42H95.293V33.019Zm13.472,8.093a3.262,3.262,0,0,1-2.631,1.054,2.792,2.792,0,0,1-2.187-.834,3.611,3.611,0,0,1-.76-2.469V33.019h1.536v5.8q0,2.042,1.66,2.042a2.3,2.3,0,0,0,2.341-1.312V33.019h1.536V42h-1.461Zm9.372.888a3.226,3.226,0,0,1-.216-.946,3.426,3.426,0,0,1-2.557,1.112,3.17,3.17,0,0,1-2.179-.751,2.43,2.43,0,0,1-.851-1.905,2.539,2.539,0,0,1,1.067-2.179,5.029,5.029,0,0,1,3-.776h1.494v-.706a1.725,1.725,0,0,0-.481-1.282,1.935,1.935,0,0,0-1.419-.477,2.239,2.239,0,0,0-1.378.415,1.223,1.223,0,0,0-.556,1H113.97a2.119,2.119,0,0,1,.477-1.3,3.258,3.258,0,0,1,1.295-.992,4.356,4.356,0,0,1,1.8-.365,3.551,3.551,0,0,1,2.432.776,2.8,2.8,0,0,1,.913,2.137V39.9a5.054,5.054,0,0,0,.315,1.967V42Zm-2.548-1.17a2.7,2.7,0,0,0,1.37-.374,2.259,2.259,0,0,0,.938-.971V37.642h-1.2q-2.822,0-2.822,1.652a1.4,1.4,0,0,0,.481,1.129A1.85,1.85,0,0,0,117.041,40.83ZM.789,61.435a5.261,5.261,0,0,1,.979-3.324,3.1,3.1,0,0,1,2.565-1.258,3.115,3.115,0,0,1,2.5,1.079V53.25H8.367V66H6.956l-.075-.963a3.127,3.127,0,0,1-2.565,1.129,3.068,3.068,0,0,1-2.544-1.278,5.321,5.321,0,0,1-.984-3.337Zm1.536.174A3.984,3.984,0,0,0,2.955,64a2.039,2.039,0,0,0,1.743.863,2.24,2.24,0,0,0,2.133-1.312V59.426a2.257,2.257,0,0,0-2.117-1.27,2.049,2.049,0,0,0-1.76.872A4.386,4.386,0,0,0,2.324,61.609Zm12.152,4.557a3.924,3.924,0,0,1-2.972-1.2,4.452,4.452,0,0,1-1.146-3.208v-.282a5.39,5.39,0,0,1,.51-2.386A3.982,3.982,0,0,1,12.3,57.446a3.59,3.59,0,0,1,1.988-.594,3.364,3.364,0,0,1,2.723,1.154,5,5,0,0,1,.971,3.3v.639H11.9a3.193,3.193,0,0,0,.776,2.146,2.44,2.44,0,0,0,1.888.818,2.675,2.675,0,0,0,1.378-.332,3.462,3.462,0,0,0,.988-.88l.938.73A3.772,3.772,0,0,1,14.477,66.166Zm-.191-8.052a2.048,2.048,0,0,0-1.561.677,3.288,3.288,0,0,0-.78,1.9h4.5v-.116a2.925,2.925,0,0,0-.631-1.814A1.928,1.928,0,0,0,14.286,58.114ZM21.424,66H19.889V53.25h1.536Zm8.11-8.981.042,1a3.317,3.317,0,0,1,2.665-1.162A2.568,2.568,0,0,1,34.805,58.3a3.4,3.4,0,0,1,1.166-1.046,3.445,3.445,0,0,1,1.7-.4q2.955,0,3,3.129V66H39.138V60.073a2.062,2.062,0,0,0-.44-1.44,1.937,1.937,0,0,0-1.478-.477,2.036,2.036,0,0,0-1.419.51,2.071,2.071,0,0,0-.656,1.374V66H33.6V60.115a1.713,1.713,0,0,0-1.917-1.959,2.055,2.055,0,0,0-2.067,1.287V66H28.082V57.019Zm19,8.981a3.226,3.226,0,0,1-.216-.946,3.426,3.426,0,0,1-2.557,1.112,3.17,3.17,0,0,1-2.179-.751,2.43,2.43,0,0,1-.851-1.905A2.539,2.539,0,0,1,43.8,61.331a5.029,5.029,0,0,1,3-.776h1.494v-.706a1.725,1.725,0,0,0-.481-1.282,1.935,1.935,0,0,0-1.419-.477,2.239,2.239,0,0,0-1.378.415,1.223,1.223,0,0,0-.556,1H42.915a2.119,2.119,0,0,1,.477-1.3,3.258,3.258,0,0,1,1.295-.992,4.356,4.356,0,0,1,1.8-.365,3.551,3.551,0,0,1,2.432.776,2.8,2.8,0,0,1,.913,2.137V63.9a5.054,5.054,0,0,0,.315,1.967V66Zm-2.548-1.17a2.7,2.7,0,0,0,1.37-.374,2.259,2.259,0,0,0,.938-.971V61.642h-1.2q-2.822,0-2.822,1.652a1.4,1.4,0,0,0,.481,1.129A1.85,1.85,0,0,0,45.986,64.83ZM56.578,58.4a4.6,4.6,0,0,0-.755-.058,2.024,2.024,0,0,0-2.05,1.287V66H52.237V57.019h1.494l.025,1.038a2.391,2.391,0,0,1,2.142-1.2,1.569,1.569,0,0,1,.681.116Zm4.856,6.516a2.212,2.212,0,0,0,1.436-.5,1.752,1.752,0,0,0,.681-1.245H65a2.785,2.785,0,0,1-.531,1.469,3.5,3.5,0,0,1-1.307,1.112,3.772,3.772,0,0,1-1.731.415,3.7,3.7,0,0,1-2.918-1.224,4.877,4.877,0,0,1-1.083-3.349v-.257A5.407,5.407,0,0,1,57.915,59,3.667,3.667,0,0,1,59.3,57.417a3.926,3.926,0,0,1,2.129-.564,3.6,3.6,0,0,1,2.511.9A3.234,3.234,0,0,1,65,60.106H63.551a2.116,2.116,0,0,0-.66-1.432,2.053,2.053,0,0,0-1.465-.56,2.149,2.149,0,0,0-1.814.843,3.957,3.957,0,0,0-.643,2.436v.291a3.878,3.878,0,0,0,.639,2.391A2.16,2.16,0,0,0,61.434,64.913Zm4.889-3.486a5.3,5.3,0,0,1,.519-2.374,3.87,3.87,0,0,1,1.444-1.627,3.932,3.932,0,0,1,2.113-.573,3.788,3.788,0,0,1,2.968,1.27A4.886,4.886,0,0,1,74.5,61.5v.108a5.351,5.351,0,0,1-.5,2.353,3.813,3.813,0,0,1-1.436,1.623,3.977,3.977,0,0,1-2.146.581,3.778,3.778,0,0,1-2.959-1.27,4.861,4.861,0,0,1-1.133-3.362Zm1.544.183a3.842,3.842,0,0,0,.693,2.4A2.349,2.349,0,0,0,72.275,64a4.2,4.2,0,0,0,.689-2.569,3.836,3.836,0,0,0-.7-2.395,2.23,2.23,0,0,0-1.864-.917,2.205,2.205,0,0,0-1.834.9A4.17,4.17,0,0,0,67.867,61.609Z" transform="translate(389 -10244)" fill="#12263f"/>
      <path id="Trazado_658232" data-name="Trazado 658232" d="M-998-10806h207.5v70.238" transform="translate(1615.25 452.615)" fill="none" stroke="#36257b" stroke-width="2"/>
      <path id="Trazado_658235" data-name="Trazado 658235" d="M-939.334-10806H-998v72.238" transform="translate(1392 452.615)" fill="none" stroke="#36257b" stroke-width="2"/>
      <path id="Trazado_658238" data-name="Trazado 658238" d="M-966.4-10806H-998v74" transform="translate(-196.504 -20859) rotate(180)" fill="none" stroke="#36257b" stroke-width="2"/>
      <path id="Trazado_658241" data-name="Trazado 658241" d="M31.6,74H0V0" transform="translate(424.254 -10127.003)" fill="none" stroke="#36257b" stroke-width="2"/>
      <path id="Trazado_658233" data-name="Trazado 658233" d="M5,10,10,0,5,1,0,0Z" transform="translate(819.75 -10288.146)" fill="#36257b"/>
      <path id="Trazado_658234" data-name="Trazado 658234" d="M5,10,0,0,5,1l5-1Z" transform="translate(450 -10348) rotate(-90)" fill="#36257b"/>
      <rect id="Rectángulo_45157" data-name="Rectángulo 45157" width="301" height="86" rx="43" transform="translate(462 -10398)" fill="#d5cef8"/>
      <rect id="Rectángulo_45161" data-name="Rectángulo 45161" width="301" height="86" rx="43" transform="translate(462 -10096)" fill="#d5cef8"/>
      <path id="Trazado_658511" data-name="Trazado 658511" d="M7.919,13.451h1.37v1.934H7.919V18H5.52V15.385H.564L.457,13.875,5.5,5.914H7.919Zm-5.072,0H5.52V9.185l-.158.274Zm7.952,3.37a1.208,1.208,0,0,1,.386-.93,1.5,1.5,0,0,1,1.942,0,1.208,1.208,0,0,1,.386.93,1.191,1.191,0,0,1-.382.917,1.525,1.525,0,0,1-1.951,0A1.191,1.191,0,0,1,10.8,16.821Zm7.155-5.927h1.278a1.8,1.8,0,0,0,1.353-.457,1.673,1.673,0,0,0,.44-1.212,1.479,1.479,0,0,0-.436-1.137,1.689,1.689,0,0,0-1.2-.407,1.77,1.77,0,0,0-1.154.378,1.208,1.208,0,0,0-.465.984h-2.4a2.95,2.95,0,0,1,.51-1.7,3.4,3.4,0,0,1,1.428-1.175,4.765,4.765,0,0,1,2.021-.423,4.519,4.519,0,0,1,3,.917,3.13,3.13,0,0,1,1.087,2.528,2.543,2.543,0,0,1-.506,1.527,3.29,3.29,0,0,1-1.328,1.071,3,3,0,0,1,1.523,1.1,2.972,2.972,0,0,1,.5,1.727,3.181,3.181,0,0,1-1.175,2.582,4.723,4.723,0,0,1-3.109.971,4.478,4.478,0,0,1-2.959-.955,3.118,3.118,0,0,1-1.15-2.523h2.4a1.39,1.39,0,0,0,.51,1.112,2.13,2.13,0,0,0,2.6-.021,1.562,1.562,0,0,0,.486-1.2q0-1.81-1.992-1.81h-1.27ZM30.082,18V5.914h3.412a5.492,5.492,0,0,1,2.789.7A4.716,4.716,0,0,1,38.155,8.6a6.457,6.457,0,0,1,.668,2.955v.772a6.48,6.48,0,0,1-.66,3,4.642,4.642,0,0,1-1.884,1.976A5.842,5.842,0,0,1,33.427,18ZM31.676,7.226V16.7h1.677a3.65,3.65,0,0,0,2.868-1.146,4.73,4.73,0,0,0,1.025-3.262v-.706a4.8,4.8,0,0,0-.967-3.2,3.443,3.443,0,0,0-2.743-1.158ZM42.658,18H41.122V9.019h1.536ZM41,6.636a.917.917,0,0,1,.228-.631.857.857,0,0,1,.677-.257.87.87,0,0,1,.681.257.907.907,0,0,1,.232.631.877.877,0,0,1-.232.623.886.886,0,0,1-.681.249.872.872,0,0,1-.677-.249A.886.886,0,0,1,41,6.636Zm9.347,8.981a1.13,1.13,0,0,0-.469-.967,4.514,4.514,0,0,0-1.635-.594,7.731,7.731,0,0,1-1.851-.6,2.633,2.633,0,0,1-1.013-.83,1.986,1.986,0,0,1-.328-1.146,2.33,2.33,0,0,1,.934-1.868,3.647,3.647,0,0,1,2.386-.764,3.753,3.753,0,0,1,2.478.789,2.5,2.5,0,0,1,.95,2.017H50.253a1.386,1.386,0,0,0-.535-1.087,2.006,2.006,0,0,0-1.349-.457,2.1,2.1,0,0,0-1.312.365,1.15,1.15,0,0,0-.473.955.932.932,0,0,0,.44.838,5.413,5.413,0,0,0,1.59.54,8.283,8.283,0,0,1,1.864.614,2.718,2.718,0,0,1,1.058.859,2.112,2.112,0,0,1,.344,1.224,2.3,2.3,0,0,1-.963,1.93,4.039,4.039,0,0,1-2.5.726,4.523,4.523,0,0,1-1.909-.382,3.105,3.105,0,0,1-1.3-1.067,2.571,2.571,0,0,1-.469-1.482h1.536A1.59,1.59,0,0,0,46.9,16.46a2.4,2.4,0,0,0,1.523.452,2.476,2.476,0,0,0,1.4-.353A1.084,1.084,0,0,0,50.344,15.618Zm7.263,2.548a3.924,3.924,0,0,1-2.972-1.2,4.452,4.452,0,0,1-1.146-3.208v-.282A5.39,5.39,0,0,1,54,11.09a3.982,3.982,0,0,1,1.428-1.644,3.59,3.59,0,0,1,1.988-.594,3.364,3.364,0,0,1,2.723,1.154,5,5,0,0,1,.971,3.3v.639H55.026a3.193,3.193,0,0,0,.776,2.146,2.44,2.44,0,0,0,1.888.818,2.675,2.675,0,0,0,1.378-.332,3.462,3.462,0,0,0,.988-.88l.938.73A3.772,3.772,0,0,1,57.607,18.166Zm-.191-8.052a2.048,2.048,0,0,0-1.561.677,3.288,3.288,0,0,0-.78,1.9h4.5v-.116a2.925,2.925,0,0,0-.631-1.814A1.928,1.928,0,0,0,57.417,10.114Zm6.923-1.1.05,1.129a3.273,3.273,0,0,1,2.689-1.295q2.847,0,2.872,3.212V18H68.415V12.057a2.068,2.068,0,0,0-.444-1.436,1.78,1.78,0,0,0-1.357-.465,2.216,2.216,0,0,0-1.312.4,2.706,2.706,0,0,0-.88,1.046V18H62.887V9.019Zm5.08-3.5a2.064,2.064,0,0,1-.51,1.453,1.658,1.658,0,0,1-1.274.556,1.869,1.869,0,0,1-.589-.083,3.18,3.18,0,0,1-.652-.34,2.822,2.822,0,0,0-.581-.311,1.422,1.422,0,0,0-.411-.054A.762.762,0,0,0,64.821,7a.948.948,0,0,0-.241.668l-1.029-.058a2.167,2.167,0,0,1,.5-1.469,1.611,1.611,0,0,1,1.274-.581,1.548,1.548,0,0,1,.523.083,3.811,3.811,0,0,1,.631.324,3.712,3.712,0,0,0,.61.315,1.4,1.4,0,0,0,.469.075.743.743,0,0,0,.594-.282.99.99,0,0,0,.237-.656Zm2.44,7.911a5.3,5.3,0,0,1,.519-2.374,3.87,3.87,0,0,1,1.444-1.627,3.932,3.932,0,0,1,2.113-.573,3.788,3.788,0,0,1,2.968,1.27A4.886,4.886,0,0,1,80.036,13.5v.108a5.351,5.351,0,0,1-.5,2.353A3.813,3.813,0,0,1,78.1,17.585a3.977,3.977,0,0,1-2.146.581,3.778,3.778,0,0,1-2.959-1.27,4.861,4.861,0,0,1-1.133-3.362Zm1.544.183a3.842,3.842,0,0,0,.693,2.4A2.349,2.349,0,0,0,77.812,16a4.2,4.2,0,0,0,.689-2.569,3.836,3.836,0,0,0-.7-2.395,2.23,2.23,0,0,0-1.864-.917,2.205,2.205,0,0,0-1.834.9A4.17,4.17,0,0,0,73.4,13.609ZM85.8,13.435a5.261,5.261,0,0,1,.979-3.324,3.333,3.333,0,0,1,5.063-.178V5.25h1.536V18H91.964l-.075-.963a3.127,3.127,0,0,1-2.565,1.129,3.068,3.068,0,0,1-2.544-1.278,5.321,5.321,0,0,1-.984-3.337Zm1.536.174A3.984,3.984,0,0,0,87.963,16a2.039,2.039,0,0,0,1.743.863,2.24,2.24,0,0,0,2.133-1.312V11.426a2.257,2.257,0,0,0-2.117-1.27,2.049,2.049,0,0,0-1.76.872A4.386,4.386,0,0,0,87.333,13.609Zm12.152,4.557a3.924,3.924,0,0,1-2.972-1.2,4.452,4.452,0,0,1-1.146-3.208v-.282a5.39,5.39,0,0,1,.51-2.386,3.982,3.982,0,0,1,1.428-1.644,3.59,3.59,0,0,1,1.988-.594,3.364,3.364,0,0,1,2.723,1.154,5,5,0,0,1,.971,3.3v.639H96.9a3.193,3.193,0,0,0,.776,2.146,2.44,2.44,0,0,0,1.888.818,2.675,2.675,0,0,0,1.378-.332,3.462,3.462,0,0,0,.988-.88l.938.73A3.772,3.772,0,0,1,99.485,18.166Zm-.191-8.052a2.048,2.048,0,0,0-1.561.677,3.288,3.288,0,0,0-.78,1.9h4.5v-.116a2.925,2.925,0,0,0-.631-1.814A1.928,1.928,0,0,0,99.294,10.114ZM106.433,18H104.9V5.25h1.536Zm8.11-8.981.042,1a3.317,3.317,0,0,1,2.665-1.162,2.568,2.568,0,0,1,2.565,1.444,3.4,3.4,0,0,1,1.166-1.046,3.445,3.445,0,0,1,1.7-.4q2.955,0,3,3.129V18h-1.536V12.073a2.062,2.062,0,0,0-.44-1.44,1.937,1.937,0,0,0-1.478-.477,2.036,2.036,0,0,0-1.419.51,2.071,2.071,0,0,0-.656,1.374V18H118.61V12.115a1.713,1.713,0,0,0-1.917-1.959,2.055,2.055,0,0,0-2.067,1.287V18H113.09V9.019Zm19,8.981a3.226,3.226,0,0,1-.216-.946,3.426,3.426,0,0,1-2.557,1.112,3.17,3.17,0,0,1-2.179-.751,2.43,2.43,0,0,1-.851-1.905,2.539,2.539,0,0,1,1.067-2.179,5.029,5.029,0,0,1,3-.776H133.3v-.706a1.725,1.725,0,0,0-.481-1.282,1.935,1.935,0,0,0-1.419-.477,2.239,2.239,0,0,0-1.378.415,1.223,1.223,0,0,0-.556,1h-1.544a2.119,2.119,0,0,1,.477-1.3,3.258,3.258,0,0,1,1.295-.992,4.356,4.356,0,0,1,1.8-.365,3.551,3.551,0,0,1,2.432.776,2.8,2.8,0,0,1,.913,2.137V15.9a5.054,5.054,0,0,0,.315,1.967V18Zm-2.548-1.17a2.7,2.7,0,0,0,1.37-.374,2.259,2.259,0,0,0,.938-.971V13.642h-1.2q-2.822,0-2.822,1.652a1.4,1.4,0,0,0,.481,1.129A1.85,1.85,0,0,0,130.995,16.83ZM141.586,10.4a4.6,4.6,0,0,0-.755-.058,2.024,2.024,0,0,0-2.05,1.287V18h-1.536V9.019h1.494l.025,1.038a2.391,2.391,0,0,1,2.142-1.2,1.569,1.569,0,0,1,.681.116Zm4.856,6.516a2.212,2.212,0,0,0,1.436-.5,1.752,1.752,0,0,0,.681-1.245h1.453a2.785,2.785,0,0,1-.531,1.469,3.5,3.5,0,0,1-1.307,1.112,3.772,3.772,0,0,1-1.731.415,3.7,3.7,0,0,1-2.918-1.224,4.877,4.877,0,0,1-1.083-3.349v-.257A5.407,5.407,0,0,1,142.923,11,3.667,3.667,0,0,1,144.3,9.417a3.926,3.926,0,0,1,2.129-.564,3.6,3.6,0,0,1,2.511.9,3.234,3.234,0,0,1,1.067,2.349h-1.453a2.116,2.116,0,0,0-.66-1.432,2.053,2.053,0,0,0-1.465-.56,2.149,2.149,0,0,0-1.814.843,3.957,3.957,0,0,0-.643,2.436v.291a3.878,3.878,0,0,0,.639,2.391A2.16,2.16,0,0,0,146.442,16.913Zm4.889-3.486a5.3,5.3,0,0,1,.519-2.374,3.87,3.87,0,0,1,1.444-1.627,3.932,3.932,0,0,1,2.113-.573,3.788,3.788,0,0,1,2.968,1.27,4.886,4.886,0,0,1,1.133,3.378v.108a5.351,5.351,0,0,1-.5,2.353,3.813,3.813,0,0,1-1.436,1.623,3.977,3.977,0,0,1-2.146.581,3.778,3.778,0,0,1-2.959-1.27,4.861,4.861,0,0,1-1.133-3.362Zm1.544.183a3.842,3.842,0,0,0,.693,2.4A2.349,2.349,0,0,0,157.283,16a4.2,4.2,0,0,0,.689-2.569,3.836,3.836,0,0,0-.7-2.395,2.23,2.23,0,0,0-1.864-.917,2.205,2.205,0,0,0-1.834.9A4.17,4.17,0,0,0,152.875,13.609Zm12.393-.174a5.261,5.261,0,0,1,.979-3.324,3.333,3.333,0,0,1,5.063-.178V5.25h1.536V18h-1.411l-.075-.963a3.127,3.127,0,0,1-2.565,1.129,3.068,3.068,0,0,1-2.544-1.278,5.321,5.321,0,0,1-.984-3.337Zm1.536.174A3.984,3.984,0,0,0,167.435,16a2.039,2.039,0,0,0,1.743.863,2.24,2.24,0,0,0,2.133-1.312V11.426a2.257,2.257,0,0,0-2.117-1.27,2.049,2.049,0,0,0-1.76.872A4.386,4.386,0,0,0,166.8,13.609Zm12.152,4.557a3.924,3.924,0,0,1-2.972-1.2,4.452,4.452,0,0,1-1.146-3.208v-.282a5.39,5.39,0,0,1,.51-2.386,3.982,3.982,0,0,1,1.428-1.644,3.59,3.59,0,0,1,1.988-.594,3.364,3.364,0,0,1,2.723,1.154,5,5,0,0,1,.971,3.3v.639h-6.084a3.193,3.193,0,0,0,.776,2.146,2.44,2.44,0,0,0,1.888.818,2.675,2.675,0,0,0,1.378-.332,3.462,3.462,0,0,0,.988-.88l.938.73A3.772,3.772,0,0,1,178.957,18.166Zm-.191-8.052a2.048,2.048,0,0,0-1.561.677,3.288,3.288,0,0,0-.78,1.9h4.5v-.116a2.925,2.925,0,0,0-.631-1.814A1.928,1.928,0,0,0,178.766,10.114Zm11.762-3.271V9.019H192.2v1.187h-1.677v5.57a1.244,1.244,0,0,0,.224.809.944.944,0,0,0,.764.27,3.718,3.718,0,0,0,.73-.1V18a4.452,4.452,0,0,1-1.179.166,1.912,1.912,0,0,1-1.552-.623,2.675,2.675,0,0,1-.523-1.768v-5.57h-1.635V9.019h1.635V6.844Zm7.811,3.553a4.6,4.6,0,0,0-.755-.058,2.024,2.024,0,0,0-2.05,1.287V18H194V9.019h1.494l.025,1.038a2.391,2.391,0,0,1,2.142-1.2,1.569,1.569,0,0,1,.681.116Zm6.624,7.6a3.226,3.226,0,0,1-.216-.946,3.426,3.426,0,0,1-2.557,1.112,3.17,3.17,0,0,1-2.179-.751,2.43,2.43,0,0,1-.851-1.905,2.539,2.539,0,0,1,1.067-2.179,5.029,5.029,0,0,1,3-.776h1.494v-.706a1.725,1.725,0,0,0-.481-1.282,1.935,1.935,0,0,0-1.419-.477,2.239,2.239,0,0,0-1.378.415,1.223,1.223,0,0,0-.556,1h-1.544a2.119,2.119,0,0,1,.477-1.3,3.258,3.258,0,0,1,1.295-.992,4.356,4.356,0,0,1,1.8-.365,3.551,3.551,0,0,1,2.432.776,2.8,2.8,0,0,1,.913,2.137V15.9a5.054,5.054,0,0,0,.315,1.967V18Zm-2.548-1.17a2.7,2.7,0,0,0,1.37-.374,2.259,2.259,0,0,0,.938-.971V13.642h-1.2q-2.822,0-2.822,1.652a1.4,1.4,0,0,0,.481,1.129A1.85,1.85,0,0,0,202.415,16.83Zm13.854-3.221a5.34,5.34,0,0,1-.946,3.308,3.024,3.024,0,0,1-2.54,1.249,3.131,3.131,0,0,1-2.631-1.2L210.076,18h-1.411V5.25H210.2v4.756a3.113,3.113,0,0,1,2.565-1.154,3.042,3.042,0,0,1,2.569,1.237,5.5,5.5,0,0,1,.934,3.387Zm-1.536-.174a4.15,4.15,0,0,0-.606-2.424,2.006,2.006,0,0,0-1.743-.855,2.255,2.255,0,0,0-2.183,1.411v3.885a2.318,2.318,0,0,0,2.2,1.411,2,2,0,0,0,1.718-.855A4.413,4.413,0,0,0,214.733,13.435ZM223.748,18a3.226,3.226,0,0,1-.216-.946,3.426,3.426,0,0,1-2.557,1.112,3.17,3.17,0,0,1-2.179-.751,2.43,2.43,0,0,1-.851-1.905,2.539,2.539,0,0,1,1.067-2.179,5.029,5.029,0,0,1,3-.776h1.494v-.706a1.725,1.725,0,0,0-.481-1.282,1.935,1.935,0,0,0-1.419-.477,2.239,2.239,0,0,0-1.378.415,1.223,1.223,0,0,0-.556,1h-1.544a2.119,2.119,0,0,1,.477-1.3,3.258,3.258,0,0,1,1.295-.992,4.356,4.356,0,0,1,1.8-.365,3.551,3.551,0,0,1,2.432.776,2.8,2.8,0,0,1,.913,2.137V15.9a5.054,5.054,0,0,0,.315,1.967V18ZM221.2,16.83a2.7,2.7,0,0,0,1.37-.374,2.259,2.259,0,0,0,.938-.971V13.642h-1.2q-2.822,0-2.822,1.652a1.4,1.4,0,0,0,.481,1.129A1.85,1.85,0,0,0,221.2,16.83Zm7.836-7.811V19.038q0,2.59-2.349,2.59a2.849,2.849,0,0,1-.938-.149V20.25a2.969,2.969,0,0,0,.7.066,1.044,1.044,0,0,0,.784-.278,1.374,1.374,0,0,0,.27-.967V9.019Zm-1.693-2.382a.921.921,0,0,1,.228-.627.839.839,0,0,1,.668-.261.87.87,0,0,1,.681.257.907.907,0,0,1,.232.631.877.877,0,0,1-.232.623.886.886,0,0,1-.681.249.859.859,0,0,1-.672-.249A.9.9,0,0,1,227.342,6.636Zm3.76,6.79a5.3,5.3,0,0,1,.519-2.374,3.87,3.87,0,0,1,1.444-1.627,3.932,3.932,0,0,1,2.113-.573,3.788,3.788,0,0,1,2.968,1.27,4.886,4.886,0,0,1,1.133,3.378v.108a5.351,5.351,0,0,1-.5,2.353,3.813,3.813,0,0,1-1.436,1.623,3.977,3.977,0,0,1-2.146.581,3.778,3.778,0,0,1-2.959-1.27,4.861,4.861,0,0,1-1.133-3.362Zm1.544.183a3.842,3.842,0,0,0,.693,2.4A2.349,2.349,0,0,0,237.054,16a4.2,4.2,0,0,0,.689-2.569,3.836,3.836,0,0,0-.7-2.395,2.23,2.23,0,0,0-1.864-.917,2.205,2.205,0,0,0-1.834.9A4.17,4.17,0,0,0,232.646,13.609Z" transform="translate(490 -10365)" fill="#12263f"/>
      <path id="Trazado_658514" data-name="Trazado 658514" d="M7.919,13.451h1.37v1.934H7.919V18H5.52V15.385H.564L.457,13.875,5.5,5.914H7.919Zm-5.072,0H5.52V9.185l-.158.274Zm7.952,3.37a1.208,1.208,0,0,1,.386-.93,1.5,1.5,0,0,1,1.942,0,1.208,1.208,0,0,1,.386.93,1.191,1.191,0,0,1-.382.917,1.525,1.525,0,0,1-1.951,0A1.191,1.191,0,0,1,10.8,16.821Zm7.155-5.927h1.278a1.8,1.8,0,0,0,1.353-.457,1.673,1.673,0,0,0,.44-1.212,1.479,1.479,0,0,0-.436-1.137,1.689,1.689,0,0,0-1.2-.407,1.77,1.77,0,0,0-1.154.378,1.208,1.208,0,0,0-.465.984h-2.4a2.95,2.95,0,0,1,.51-1.7,3.4,3.4,0,0,1,1.428-1.175,4.765,4.765,0,0,1,2.021-.423,4.519,4.519,0,0,1,3,.917,3.13,3.13,0,0,1,1.087,2.528,2.543,2.543,0,0,1-.506,1.527,3.29,3.29,0,0,1-1.328,1.071,3,3,0,0,1,1.523,1.1,2.972,2.972,0,0,1,.5,1.727,3.181,3.181,0,0,1-1.175,2.582,4.723,4.723,0,0,1-3.109.971,4.478,4.478,0,0,1-2.959-.955,3.118,3.118,0,0,1-1.15-2.523h2.4a1.39,1.39,0,0,0,.51,1.112,2.13,2.13,0,0,0,2.6-.021,1.562,1.562,0,0,0,.486-1.2q0-1.81-1.992-1.81h-1.27ZM30.082,18V5.914h3.412a5.492,5.492,0,0,1,2.789.7A4.716,4.716,0,0,1,38.155,8.6a6.457,6.457,0,0,1,.668,2.955v.772a6.48,6.48,0,0,1-.66,3,4.642,4.642,0,0,1-1.884,1.976A5.842,5.842,0,0,1,33.427,18ZM31.676,7.226V16.7h1.677a3.65,3.65,0,0,0,2.868-1.146,4.73,4.73,0,0,0,1.025-3.262v-.706a4.8,4.8,0,0,0-.967-3.2,3.443,3.443,0,0,0-2.743-1.158ZM42.658,18H41.122V9.019h1.536ZM41,6.636a.917.917,0,0,1,.228-.631.857.857,0,0,1,.677-.257.87.87,0,0,1,.681.257.907.907,0,0,1,.232.631.877.877,0,0,1-.232.623.886.886,0,0,1-.681.249.872.872,0,0,1-.677-.249A.886.886,0,0,1,41,6.636Zm9.347,8.981a1.13,1.13,0,0,0-.469-.967,4.514,4.514,0,0,0-1.635-.594,7.731,7.731,0,0,1-1.851-.6,2.633,2.633,0,0,1-1.013-.83,1.986,1.986,0,0,1-.328-1.146,2.33,2.33,0,0,1,.934-1.868,3.647,3.647,0,0,1,2.386-.764,3.753,3.753,0,0,1,2.478.789,2.5,2.5,0,0,1,.95,2.017H50.253a1.386,1.386,0,0,0-.535-1.087,2.006,2.006,0,0,0-1.349-.457,2.1,2.1,0,0,0-1.312.365,1.15,1.15,0,0,0-.473.955.932.932,0,0,0,.44.838,5.413,5.413,0,0,0,1.59.54,8.283,8.283,0,0,1,1.864.614,2.718,2.718,0,0,1,1.058.859,2.112,2.112,0,0,1,.344,1.224,2.3,2.3,0,0,1-.963,1.93,4.039,4.039,0,0,1-2.5.726,4.523,4.523,0,0,1-1.909-.382,3.105,3.105,0,0,1-1.3-1.067,2.571,2.571,0,0,1-.469-1.482h1.536A1.59,1.59,0,0,0,46.9,16.46a2.4,2.4,0,0,0,1.523.452,2.476,2.476,0,0,0,1.4-.353A1.084,1.084,0,0,0,50.344,15.618Zm7.263,2.548a3.924,3.924,0,0,1-2.972-1.2,4.452,4.452,0,0,1-1.146-3.208v-.282A5.39,5.39,0,0,1,54,11.09a3.982,3.982,0,0,1,1.428-1.644,3.59,3.59,0,0,1,1.988-.594,3.364,3.364,0,0,1,2.723,1.154,5,5,0,0,1,.971,3.3v.639H55.026a3.193,3.193,0,0,0,.776,2.146,2.44,2.44,0,0,0,1.888.818,2.675,2.675,0,0,0,1.378-.332,3.462,3.462,0,0,0,.988-.88l.938.73A3.772,3.772,0,0,1,57.607,18.166Zm-.191-8.052a2.048,2.048,0,0,0-1.561.677,3.288,3.288,0,0,0-.78,1.9h4.5v-.116a2.925,2.925,0,0,0-.631-1.814A1.928,1.928,0,0,0,57.417,10.114Zm6.923-1.1.05,1.129a3.273,3.273,0,0,1,2.689-1.295q2.847,0,2.872,3.212V18H68.415V12.057a2.068,2.068,0,0,0-.444-1.436,1.78,1.78,0,0,0-1.357-.465,2.216,2.216,0,0,0-1.312.4,2.706,2.706,0,0,0-.88,1.046V18H62.887V9.019Zm5.08-3.5a2.064,2.064,0,0,1-.51,1.453,1.658,1.658,0,0,1-1.274.556,1.869,1.869,0,0,1-.589-.083,3.18,3.18,0,0,1-.652-.34,2.822,2.822,0,0,0-.581-.311,1.422,1.422,0,0,0-.411-.054A.762.762,0,0,0,64.821,7a.948.948,0,0,0-.241.668l-1.029-.058a2.167,2.167,0,0,1,.5-1.469,1.611,1.611,0,0,1,1.274-.581,1.548,1.548,0,0,1,.523.083,3.811,3.811,0,0,1,.631.324,3.712,3.712,0,0,0,.61.315,1.4,1.4,0,0,0,.469.075.743.743,0,0,0,.594-.282.99.99,0,0,0,.237-.656Zm2.44,7.911a5.3,5.3,0,0,1,.519-2.374,3.87,3.87,0,0,1,1.444-1.627,3.932,3.932,0,0,1,2.113-.573,3.788,3.788,0,0,1,2.968,1.27A4.886,4.886,0,0,1,80.036,13.5v.108a5.351,5.351,0,0,1-.5,2.353A3.813,3.813,0,0,1,78.1,17.585a3.977,3.977,0,0,1-2.146.581,3.778,3.778,0,0,1-2.959-1.27,4.861,4.861,0,0,1-1.133-3.362Zm1.544.183a3.842,3.842,0,0,0,.693,2.4A2.349,2.349,0,0,0,77.812,16a4.2,4.2,0,0,0,.689-2.569,3.836,3.836,0,0,0-.7-2.395,2.23,2.23,0,0,0-1.864-.917,2.205,2.205,0,0,0-1.834.9A4.17,4.17,0,0,0,73.4,13.609ZM85.8,13.435a5.261,5.261,0,0,1,.979-3.324,3.333,3.333,0,0,1,5.063-.178V5.25h1.536V18H91.964l-.075-.963a3.127,3.127,0,0,1-2.565,1.129,3.068,3.068,0,0,1-2.544-1.278,5.321,5.321,0,0,1-.984-3.337Zm1.536.174A3.984,3.984,0,0,0,87.963,16a2.039,2.039,0,0,0,1.743.863,2.24,2.24,0,0,0,2.133-1.312V11.426a2.257,2.257,0,0,0-2.117-1.27,2.049,2.049,0,0,0-1.76.872A4.386,4.386,0,0,0,87.333,13.609Zm12.152,4.557a3.924,3.924,0,0,1-2.972-1.2,4.452,4.452,0,0,1-1.146-3.208v-.282a5.39,5.39,0,0,1,.51-2.386,3.982,3.982,0,0,1,1.428-1.644,3.59,3.59,0,0,1,1.988-.594,3.364,3.364,0,0,1,2.723,1.154,5,5,0,0,1,.971,3.3v.639H96.9a3.193,3.193,0,0,0,.776,2.146,2.44,2.44,0,0,0,1.888.818,2.675,2.675,0,0,0,1.378-.332,3.462,3.462,0,0,0,.988-.88l.938.73A3.772,3.772,0,0,1,99.485,18.166Zm-.191-8.052a2.048,2.048,0,0,0-1.561.677,3.288,3.288,0,0,0-.78,1.9h4.5v-.116a2.925,2.925,0,0,0-.631-1.814A1.928,1.928,0,0,0,99.294,10.114ZM106.433,18H104.9V5.25h1.536Zm8.11-8.981.042,1a3.317,3.317,0,0,1,2.665-1.162,2.568,2.568,0,0,1,2.565,1.444,3.4,3.4,0,0,1,1.166-1.046,3.445,3.445,0,0,1,1.7-.4q2.955,0,3,3.129V18h-1.536V12.073a2.062,2.062,0,0,0-.44-1.44,1.937,1.937,0,0,0-1.478-.477,2.036,2.036,0,0,0-1.419.51,2.071,2.071,0,0,0-.656,1.374V18H118.61V12.115a1.713,1.713,0,0,0-1.917-1.959,2.055,2.055,0,0,0-2.067,1.287V18H113.09V9.019Zm19,8.981a3.226,3.226,0,0,1-.216-.946,3.426,3.426,0,0,1-2.557,1.112,3.17,3.17,0,0,1-2.179-.751,2.43,2.43,0,0,1-.851-1.905,2.539,2.539,0,0,1,1.067-2.179,5.029,5.029,0,0,1,3-.776H133.3v-.706a1.725,1.725,0,0,0-.481-1.282,1.935,1.935,0,0,0-1.419-.477,2.239,2.239,0,0,0-1.378.415,1.223,1.223,0,0,0-.556,1h-1.544a2.119,2.119,0,0,1,.477-1.3,3.258,3.258,0,0,1,1.295-.992,4.356,4.356,0,0,1,1.8-.365,3.551,3.551,0,0,1,2.432.776,2.8,2.8,0,0,1,.913,2.137V15.9a5.054,5.054,0,0,0,.315,1.967V18Zm-2.548-1.17a2.7,2.7,0,0,0,1.37-.374,2.259,2.259,0,0,0,.938-.971V13.642h-1.2q-2.822,0-2.822,1.652a1.4,1.4,0,0,0,.481,1.129A1.85,1.85,0,0,0,130.995,16.83ZM141.586,10.4a4.6,4.6,0,0,0-.755-.058,2.024,2.024,0,0,0-2.05,1.287V18h-1.536V9.019h1.494l.025,1.038a2.391,2.391,0,0,1,2.142-1.2,1.569,1.569,0,0,1,.681.116Zm4.856,6.516a2.212,2.212,0,0,0,1.436-.5,1.752,1.752,0,0,0,.681-1.245h1.453a2.785,2.785,0,0,1-.531,1.469,3.5,3.5,0,0,1-1.307,1.112,3.772,3.772,0,0,1-1.731.415,3.7,3.7,0,0,1-2.918-1.224,4.877,4.877,0,0,1-1.083-3.349v-.257A5.407,5.407,0,0,1,142.923,11,3.667,3.667,0,0,1,144.3,9.417a3.926,3.926,0,0,1,2.129-.564,3.6,3.6,0,0,1,2.511.9,3.234,3.234,0,0,1,1.067,2.349h-1.453a2.116,2.116,0,0,0-.66-1.432,2.053,2.053,0,0,0-1.465-.56,2.149,2.149,0,0,0-1.814.843,3.957,3.957,0,0,0-.643,2.436v.291a3.878,3.878,0,0,0,.639,2.391A2.16,2.16,0,0,0,146.442,16.913Zm4.889-3.486a5.3,5.3,0,0,1,.519-2.374,3.87,3.87,0,0,1,1.444-1.627,3.932,3.932,0,0,1,2.113-.573,3.788,3.788,0,0,1,2.968,1.27,4.886,4.886,0,0,1,1.133,3.378v.108a5.351,5.351,0,0,1-.5,2.353,3.813,3.813,0,0,1-1.436,1.623,3.977,3.977,0,0,1-2.146.581,3.778,3.778,0,0,1-2.959-1.27,4.861,4.861,0,0,1-1.133-3.362Zm1.544.183a3.842,3.842,0,0,0,.693,2.4A2.349,2.349,0,0,0,157.283,16a4.2,4.2,0,0,0,.689-2.569,3.836,3.836,0,0,0-.7-2.395,2.23,2.23,0,0,0-1.864-.917,2.205,2.205,0,0,0-1.834.9A4.17,4.17,0,0,0,152.875,13.609Zm12.393-.174a5.261,5.261,0,0,1,.979-3.324,3.333,3.333,0,0,1,5.063-.178V5.25h1.536V18h-1.411l-.075-.963a3.127,3.127,0,0,1-2.565,1.129,3.068,3.068,0,0,1-2.544-1.278,5.321,5.321,0,0,1-.984-3.337Zm1.536.174A3.984,3.984,0,0,0,167.435,16a2.039,2.039,0,0,0,1.743.863,2.24,2.24,0,0,0,2.133-1.312V11.426a2.257,2.257,0,0,0-2.117-1.27,2.049,2.049,0,0,0-1.76.872A4.386,4.386,0,0,0,166.8,13.609Zm12.152,4.557a3.924,3.924,0,0,1-2.972-1.2,4.452,4.452,0,0,1-1.146-3.208v-.282a5.39,5.39,0,0,1,.51-2.386,3.982,3.982,0,0,1,1.428-1.644,3.59,3.59,0,0,1,1.988-.594,3.364,3.364,0,0,1,2.723,1.154,5,5,0,0,1,.971,3.3v.639h-6.084a3.193,3.193,0,0,0,.776,2.146,2.44,2.44,0,0,0,1.888.818,2.675,2.675,0,0,0,1.378-.332,3.462,3.462,0,0,0,.988-.88l.938.73A3.772,3.772,0,0,1,178.957,18.166Zm-.191-8.052a2.048,2.048,0,0,0-1.561.677,3.288,3.288,0,0,0-.78,1.9h4.5v-.116a2.925,2.925,0,0,0-.631-1.814A1.928,1.928,0,0,0,178.766,10.114Zm11.762-3.271V9.019H192.2v1.187h-1.677v5.57a1.244,1.244,0,0,0,.224.809.944.944,0,0,0,.764.27,3.718,3.718,0,0,0,.73-.1V18a4.452,4.452,0,0,1-1.179.166,1.912,1.912,0,0,1-1.552-.623,2.675,2.675,0,0,1-.523-1.768v-5.57h-1.635V9.019h1.635V6.844Zm7.811,3.553a4.6,4.6,0,0,0-.755-.058,2.024,2.024,0,0,0-2.05,1.287V18H194V9.019h1.494l.025,1.038a2.391,2.391,0,0,1,2.142-1.2,1.569,1.569,0,0,1,.681.116Zm6.624,7.6a3.226,3.226,0,0,1-.216-.946,3.426,3.426,0,0,1-2.557,1.112,3.17,3.17,0,0,1-2.179-.751,2.43,2.43,0,0,1-.851-1.905,2.539,2.539,0,0,1,1.067-2.179,5.029,5.029,0,0,1,3-.776h1.494v-.706a1.725,1.725,0,0,0-.481-1.282,1.935,1.935,0,0,0-1.419-.477,2.239,2.239,0,0,0-1.378.415,1.223,1.223,0,0,0-.556,1h-1.544a2.119,2.119,0,0,1,.477-1.3,3.258,3.258,0,0,1,1.295-.992,4.356,4.356,0,0,1,1.8-.365,3.551,3.551,0,0,1,2.432.776,2.8,2.8,0,0,1,.913,2.137V15.9a5.054,5.054,0,0,0,.315,1.967V18Zm-2.548-1.17a2.7,2.7,0,0,0,1.37-.374,2.259,2.259,0,0,0,.938-.971V13.642h-1.2q-2.822,0-2.822,1.652a1.4,1.4,0,0,0,.481,1.129A1.85,1.85,0,0,0,202.415,16.83Zm13.854-3.221a5.34,5.34,0,0,1-.946,3.308,3.024,3.024,0,0,1-2.54,1.249,3.131,3.131,0,0,1-2.631-1.2L210.076,18h-1.411V5.25H210.2v4.756a3.113,3.113,0,0,1,2.565-1.154,3.042,3.042,0,0,1,2.569,1.237,5.5,5.5,0,0,1,.934,3.387Zm-1.536-.174a4.15,4.15,0,0,0-.606-2.424,2.006,2.006,0,0,0-1.743-.855,2.255,2.255,0,0,0-2.183,1.411v3.885a2.318,2.318,0,0,0,2.2,1.411,2,2,0,0,0,1.718-.855A4.413,4.413,0,0,0,214.733,13.435ZM223.748,18a3.226,3.226,0,0,1-.216-.946,3.426,3.426,0,0,1-2.557,1.112,3.17,3.17,0,0,1-2.179-.751,2.43,2.43,0,0,1-.851-1.905,2.539,2.539,0,0,1,1.067-2.179,5.029,5.029,0,0,1,3-.776h1.494v-.706a1.725,1.725,0,0,0-.481-1.282,1.935,1.935,0,0,0-1.419-.477,2.239,2.239,0,0,0-1.378.415,1.223,1.223,0,0,0-.556,1h-1.544a2.119,2.119,0,0,1,.477-1.3,3.258,3.258,0,0,1,1.295-.992,4.356,4.356,0,0,1,1.8-.365,3.551,3.551,0,0,1,2.432.776,2.8,2.8,0,0,1,.913,2.137V15.9a5.054,5.054,0,0,0,.315,1.967V18ZM221.2,16.83a2.7,2.7,0,0,0,1.37-.374,2.259,2.259,0,0,0,.938-.971V13.642h-1.2q-2.822,0-2.822,1.652a1.4,1.4,0,0,0,.481,1.129A1.85,1.85,0,0,0,221.2,16.83Zm7.836-7.811V19.038q0,2.59-2.349,2.59a2.849,2.849,0,0,1-.938-.149V20.25a2.969,2.969,0,0,0,.7.066,1.044,1.044,0,0,0,.784-.278,1.374,1.374,0,0,0,.27-.967V9.019Zm-1.693-2.382a.921.921,0,0,1,.228-.627.839.839,0,0,1,.668-.261.87.87,0,0,1,.681.257.907.907,0,0,1,.232.631.877.877,0,0,1-.232.623.886.886,0,0,1-.681.249.859.859,0,0,1-.672-.249A.9.9,0,0,1,227.342,6.636Zm3.76,6.79a5.3,5.3,0,0,1,.519-2.374,3.87,3.87,0,0,1,1.444-1.627,3.932,3.932,0,0,1,2.113-.573,3.788,3.788,0,0,1,2.968,1.27,4.886,4.886,0,0,1,1.133,3.378v.108a5.351,5.351,0,0,1-.5,2.353,3.813,3.813,0,0,1-1.436,1.623,3.977,3.977,0,0,1-2.146.581,3.778,3.778,0,0,1-2.959-1.27,4.861,4.861,0,0,1-1.133-3.362Zm1.544.183a3.842,3.842,0,0,0,.693,2.4A2.349,2.349,0,0,0,237.054,16a4.2,4.2,0,0,0,.689-2.569,3.836,3.836,0,0,0-.7-2.395,2.23,2.23,0,0,0-1.864-.917,2.205,2.205,0,0,0-1.834.9A4.17,4.17,0,0,0,232.646,13.609Z" transform="translate(490 -10063)" fill="#12263f"/>
      <rect id="Rectángulo_45162" data-name="Rectángulo 45162" width="133" height="69" transform="translate(727 -9959.717)" fill="url(#linear-gradient)"/>
      <path id="Trazado_658515" data-name="Trazado 658515" d="M4.333,5.914l3.1,8.766,3.088-8.766H13.8V18H11.3V14.7l.249-5.7L8.284,18H6.574L3.32,9,3.569,14.7V18H1.079V5.914Zm18.461,9.6H18.428L17.6,18H14.95l4.5-12.086h2.308L26.28,18H23.632ZM19.1,13.493h3.021L20.6,8.969Zm17.872,2.98a4.322,4.322,0,0,1-1.9,1.249,7.961,7.961,0,0,1-2.723.444,5.393,5.393,0,0,1-2.752-.685,4.568,4.568,0,0,1-1.826-1.988,7,7,0,0,1-.66-3.063v-.822a7.431,7.431,0,0,1,.61-3.134,4.513,4.513,0,0,1,1.76-2.025,5.069,5.069,0,0,1,2.694-.7,5.048,5.048,0,0,1,3.362,1.025,4.381,4.381,0,0,1,1.436,2.984H34.548a2.41,2.41,0,0,0-.735-1.519,2.346,2.346,0,0,0-1.565-.481,2.208,2.208,0,0,0-1.934.955,5.019,5.019,0,0,0-.672,2.839v.772a4.778,4.778,0,0,0,.722,2.872,2.473,2.473,0,0,0,2.117.971,2.762,2.762,0,0,0,2-.6V13.484H32.215V11.65h4.756Zm9.289-3.71H41.479V16H47.09v2h-8.1V5.914h8.085V7.931H41.479v2.88H46.26Zm6.765.813H51.042V18h-2.49V5.914h4.491a5.076,5.076,0,0,1,3.3.955,3.3,3.3,0,0,1,1.162,2.7,3.718,3.718,0,0,1-.535,2.063,3.651,3.651,0,0,1-1.623,1.316l2.615,4.939V18H55.292Zm-1.984-2.017H53.05a2.057,2.057,0,0,0,1.453-.477,1.706,1.706,0,0,0,.515-1.316,1.826,1.826,0,0,0-.486-1.345,2.018,2.018,0,0,0-1.49-.49h-2ZM62.048,18h-2.49V5.914h2.49ZM73.454,7.931h-3.7V18h-2.49V7.931H63.609V5.914h9.845Z" transform="translate(756.5 -9921.717)" fill="#12263f"/>
      <g id="Grupo_953594" data-name="Grupo 953594" transform="translate(-328.802 -11210.43)">
        <path id="Trazado_599001" data-name="Trazado 599001" d="M29.753,25.011H0V8.137H29.753V0l28.7,16.574-28.7,16.574Z" transform="translate(1144.728 1141.822) rotate(-90)" fill="#644fb7"/>
        <path id="Trazado_599280" data-name="Trazado 599280" d="M29.753,25.011H0V8.137H29.753V0l28.7,16.574-28.7,16.574Z" transform="translate(1177.876 1221.603) rotate(90)" fill="#36257b"/>
        <path id="Trazado_599002" data-name="Trazado 599002" d="M1.938,10.784H31.691V3.357l25.8,14.895-25.8,14.9V25.72H1.938ZM29.753,0V8.846H0V27.658H29.753V36.5l2.907-1.678,25.8-14.9,2.906-1.678-2.906-1.677-25.8-14.9Z" transform="translate(1143.05 1142.791) rotate(-90)" fill="#d1f1f6"/>
        <path id="Trazado_599279" data-name="Trazado 599279" d="M-82.062,10.784H31.691V3.357l25.8,14.895-25.8,14.9V25.72H-82.062ZM29.753,0V8.846H-84V27.658H29.753V36.5l2.907-1.678,25.8-14.9,2.906-1.678-2.906-1.677-25.8-14.9Z" transform="translate(1179.554 1220.634) rotate(90)" fill="#d1f1f6"/>
        <path id="Trazado_599003" data-name="Trazado 599003" d="M55.549,0H0V7.468H29.753V14.9Z" transform="translate(1161.302 1140.854) rotate(-90)" fill="#36257b"/>
        <path id="Trazado_599281" data-name="Trazado 599281" d="M55.549,0H0V7.468H29.753V14.9Z" transform="translate(1161.302 1222.571) rotate(90)" fill="#644fb7"/>
        <path id="Trazado_599284" data-name="Trazado 599284" d="M0,0H114.617V7.468H0Z" transform="translate(1153.834 1248.945) rotate(-90)" fill="#644fb7"/>
        <rect id="Rectángulo_44651" data-name="Rectángulo 44651" width="114.617" height="7.468" transform="translate(1161.302 1248.945) rotate(-90)" fill="#36257b"/>
      </g>
      <path id="Trazado_658239" data-name="Trazado 658239" d="M5,10,10,0,5,1,0,0Z" transform="translate(776.75 -10058.002) rotate(90)" fill="#36257b"/>
      <path id="Trazado_658240" data-name="Trazado 658240" d="M5,0l5,10L5,9,0,10Z" transform="translate(419.254 -10130.002)" fill="#36257b"/>
    </g>
  </g>
</svg>
