<svg xmlns="http://www.w3.org/2000/svg" width="105" height="105" viewBox="0 0 105 105">
  <g id="Grupo_953695" data-name="Grupo 953695" transform="translate(6138 7941)">
    <rect id="Rectángulo_44594" data-name="Rectángulo 44594" width="105" height="105" transform="translate(-6138 -7941)" fill="#36257b"/>
    <g id="tecnologia_7_" data-name="tecnologia(7)" transform="translate(-6119 -7922)">
      <path id="Trazado_598970" data-name="Trazado 598970" d="M63.738,55.051h-1.08V19.4a5.408,5.408,0,0,0-5.4-5.4H54.015v2.161h3.241A3.245,3.245,0,0,1,60.5,19.4v35.65H6.482V19.4a3.245,3.245,0,0,1,3.241-3.241h3.241V14H9.723a5.408,5.408,0,0,0-5.4,5.4v35.65H3.241A3.245,3.245,0,0,0,0,58.292a7.572,7.572,0,0,0,7.562,7.562H59.416a7.572,7.572,0,0,0,7.562-7.562A3.245,3.245,0,0,0,63.738,55.051Zm-36.73,2.161H39.971v1.08a1.081,1.081,0,0,1-1.08,1.08h-10.8a1.081,1.081,0,0,1-1.08-1.08Zm22.686,6.482H47.533V61.533h2.161Zm8.642,0H56.176V61.533h2.161Zm2.161-.109V59.373H54.015v4.321H51.854V59.373H45.373v4.321H7.562a5.408,5.408,0,0,1-5.4-5.4,1.081,1.081,0,0,1,1.08-1.08H24.847v1.08a3.245,3.245,0,0,0,3.241,3.241h10.8a3.245,3.245,0,0,0,3.241-3.241v-1.08H63.738a1.081,1.081,0,0,1,1.08,1.08A5.412,5.412,0,0,1,60.5,63.585Z" transform="translate(0 1.124)" fill="#fff"/>
      <path id="Trazado_598971" data-name="Trazado 598971" d="M23.124,20.161V18H10.161A2.163,2.163,0,0,0,8,20.161V50.409a2.163,2.163,0,0,0,2.161,2.161H55.533a2.163,2.163,0,0,0,2.161-2.161V20.161A2.163,2.163,0,0,0,55.533,18H42.57v2.161H55.533V50.409H51.212V44.22l-2.954-.946a16.27,16.27,0,0,0-.993-2.408l1.417-2.754-5.7-5.7-2.754,1.417a16.318,16.318,0,0,0-2.408-.993l-.949-2.956H28.817l-.946,2.954a16.269,16.269,0,0,0-2.408.993l-2.754-1.417-5.7,5.7,1.417,2.754a16.318,16.318,0,0,0-.993,2.408l-2.955.949v6.189H10.161V20.161Zm0,28.088A9.723,9.723,0,1,1,42.3,50.409H37.794a5.4,5.4,0,1,0-9.893,0H23.394A9.73,9.73,0,0,1,23.124,48.248Zm6.482,0a3.241,3.241,0,1,1,5.631,2.161h-4.78a3.23,3.23,0,0,1-.85-2.161ZM16.642,45.8l2.545-.815.158-.559A13.925,13.925,0,0,1,20.591,41.4l.283-.507-1.221-2.37,3.47-3.47,2.37,1.221L26,35.991a13.925,13.925,0,0,1,3.022-1.246l.559-.158.813-2.544H35.3l.815,2.545.559.158a13.925,13.925,0,0,1,3.022,1.246l.507.283,2.37-1.221,3.47,3.47-1.221,2.37.283.507a13.925,13.925,0,0,1,1.246,3.022l.158.559,2.545.813v4.614H44.526a11.883,11.883,0,1,0-23.358,0H16.642Z" transform="translate(0.642 1.445)" fill="#fff"/>
      <path id="Trazado_598972" data-name="Trazado 598972" d="M13,4h4.321V6.161H13Z" transform="translate(1.044 0.321)" fill="#fff"/>
      <path id="Trazado_598973" data-name="Trazado 598973" d="M29,4h4.321V6.161H29Z" transform="translate(2.329 0.321)" fill="#fff"/>
      <path id="Trazado_598974" data-name="Trazado 598974" d="M45,4h4.321V6.161H45Z" transform="translate(3.613 0.321)" fill="#fff"/>
      <path id="Trazado_598975" data-name="Trazado 598975" d="M30.4,29.168h2.161V10.8h5.4V0H25V10.8h5.4ZM27.161,2.161H35.8V8.642H27.161Z" transform="translate(2.007)" fill="#fff"/>
      <path id="Trazado_598976" data-name="Trazado 598976" d="M46.8,15.124H36V29.168h2.161V17.285h10.8V10.8h5.4V0H41.4V10.8h5.4ZM43.562,2.161H52.2V8.642H43.562Z" transform="translate(2.891)" fill="#fff"/>
      <path id="Trazado_598977" data-name="Trazado 598977" d="M14.4,17.285H25.2V29.168h2.161V15.124h-10.8V10.8h5.4V0H9V10.8h5.4ZM11.161,2.161H19.8V8.642H11.161Z" transform="translate(0.723)" fill="#fff"/>
    </g>
  </g>
</svg>
