<svg xmlns="http://www.w3.org/2000/svg" width="400" height="198.285" viewBox="0 0 400 198.285">
  <g id="Grupo_156634" data-name="Grupo 156634" transform="translate(6517 9504.985)">
    <rect id="Rectángulo_44586" data-name="Rectángulo 44586" width="400" height="92" rx="46" transform="translate(-6517 -9398.7)" fill="#583ae2"/>
    <text id="Etapas_Evaluación_del_Riesgo_" data-name="Etapas
Evaluación del Riesgo
" transform="translate(-6432 -9370.7)" fill="#fff" font-size="20" font-family="Roboto-Black, Roboto" font-weight="800"><tspan x="84.604" y="19">Etapas</tspan><tspan x="16.23" y="43">Evaluación del Riesgo</tspan></text>
    <g id="Elipse_5377" data-name="Elipse 5377" transform="translate(-6283.832 -9442.7)" fill="none" stroke="#1dbbd2" stroke-width="15">
      <circle cx="36" cy="36" r="36" stroke="none"/>
      <circle cx="36" cy="36" r="28.5" fill="none"/>
    </g>
    <circle id="Elipse_5378" data-name="Elipse 5378" cx="9" cy="9" r="9" transform="translate(-6230 -9464.7)" fill="#40327b"/>
    <g id="Grupo_156633" data-name="Grupo 156633" transform="translate(-7420.517 -10139.989)">
      <path id="Trazado_113531" data-name="Trazado 113531" d="M1291.979,864.021v-5.381a4.424,4.424,0,0,1,4.423-4.424h47.1a4.425,4.425,0,0,1,4.425,4.424v95.117H1226.1V864.021Z" transform="translate(-176.968 -202.491)" fill="#fff"/>
      <path id="Trazado_113532" data-name="Trazado 113532" d="M1286.848,864.021v-5.381a4.423,4.423,0,0,1,4.423-4.424h47.1a4.425,4.425,0,0,1,4.425,4.424v95.117H1220.966V864.021Z" transform="translate(-172.228 -202.491)" fill="#40327b"/>
      <path id="Trazado_113533" data-name="Trazado 113533" d="M1397.948,1026.4v86.018H1285.094v-86.441Z" transform="translate(-231.465 -361.147)" fill="#ab9df1"/>
      <path id="Trazado_113534" data-name="Trazado 113534" d="M1316.715,1026.4v86.018H1203.86v-86.441Z" transform="translate(-156.427 -361.147)" fill="#826be9"/>
      <path id="Trazado_113535" data-name="Trazado 113535" d="M1072.9,982.777H1184.4a4.235,4.235,0,0,1,4.3,3.69v86.046H1067.016V988.65A6.049,6.049,0,0,1,1072.9,982.777Z" transform="translate(-30.021 -321.246)" fill="#d5cef8"/>
      <g id="Grupo_80123" data-name="Grupo 80123" transform="translate(1083.78 643.95)">
        <g id="Grupo_80122" data-name="Grupo 80122" transform="translate(0 0)">
          <rect id="Rectángulo_33785" data-name="Rectángulo 33785" width="65.163" height="49.523" transform="translate(65.163 49.705) rotate(-179.84)" fill="#d5cef8"/>
          <rect id="Rectángulo_33786" data-name="Rectángulo 33786" width="61.83" height="45.527" transform="translate(63.536 47.32) rotate(-179.84)" fill="#583ae2"/>
          <path id="Trazado_113536" data-name="Trazado 113536" d="M1963.852,1070.828l-39.734-.111,21.725-20.842Z" transform="translate(-1905.528 -1027.177)" fill="#e3eeff"/>
          <path id="Trazado_113537" data-name="Trazado 113537" d="M1803.866,1114.18l-33.385-.094,18.116-17.225Z" transform="translate(-1763.608 -1070.579)" fill="#e3eeff"/>
          <circle id="Elipse_4721" data-name="Elipse 4721" cx="4.601" cy="4.601" r="4.601" transform="translate(21.399 18.062) rotate(-45)" fill="#e3eeff"/>
        </g>
      </g>
      <g id="Grupo_80126" data-name="Grupo 80126" transform="translate(1075.1 635.004)">
        <g id="Grupo_80124" data-name="Grupo 80124" transform="translate(0 0)">
          <rect id="Rectángulo_33787" data-name="Rectángulo 33787" width="60.412" height="52.537" transform="matrix(-1, -0.003, 0.003, -1, 60.411, 52.73)" fill="#d5cef8"/>
          <rect id="Rectángulo_33788" data-name="Rectángulo 33788" width="56.981" height="48.297" transform="translate(58.738 50.2) rotate(-179.815)" fill="#583ae2"/>
        </g>
        <g id="Grupo_80125" data-name="Grupo 80125" transform="translate(7.126 8.571)">
          <rect id="Rectángulo_33789" data-name="Rectángulo 33789" width="22.694" height="1.994" transform="translate(23.477)" fill="#d5cef8"/>
          <rect id="Rectángulo_33790" data-name="Rectángulo 33790" width="46.17" height="1.994" transform="translate(46.17 7.378) rotate(180)" fill="#d5cef8"/>
          <rect id="Rectángulo_33791" data-name="Rectángulo 33791" width="46.17" height="1.994" transform="translate(46.17 12.859) rotate(180)" fill="#d5cef8"/>
        </g>
      </g>
      <path id="Trazado_113538" data-name="Trazado 113538" d="M1065.866,982.777h111.492a4.235,4.235,0,0,1,4.3,3.69v86.354H1059.978V988.65A6.049,6.049,0,0,1,1065.866,982.777Z" transform="translate(-23.52 -321.246)" fill="#36257b"/>
      <rect id="Rectángulo_33792" data-name="Rectángulo 33792" width="12.278" height="0.495" transform="translate(1170.956 751.266) rotate(180)" fill="#fff"/>
      <path id="Trazado_113539" data-name="Trazado 113539" d="M1200.977,1459.925l-4.472,2.918H1190.6l-1.9,1.459v-1.386H1067.017v-2.991Z" transform="translate(-30.022 -762)" opacity="0.5" style="mix-blend-mode: darken;isolation: isolate"/>
      <g id="Grupo_80128" data-name="Grupo 80128" transform="translate(1034.516 683.648)">
        <g id="Grupo_80127" data-name="Grupo 80127" transform="translate(0)">
          <rect id="Rectángulo_33793" data-name="Rectángulo 33793" width="138.168" height="15.611" transform="translate(138.168 15.611) rotate(180)" fill="#826be9"/>
          <rect id="Rectángulo_33794" data-name="Rectángulo 33794" width="125.73" height="15.611" transform="translate(125.73 15.611) rotate(180)" fill="#583ae2"/>
        </g>
      </g>
      <g id="Grupo_80137" data-name="Grupo 80137" transform="translate(1101.875 683.552)">
        <path id="Trazado_113540" data-name="Trazado 113540" d="M2094.895,1272.754v15.606H2083.97l7.66-15.606Z" transform="translate(-2071.283 -1272.658)" fill="#372a6b"/>
        <g id="Grupo_80133" data-name="Grupo 80133" transform="translate(19.836 0)">
          <g id="Grupo_80130" data-name="Grupo 80130" transform="translate(0 0.101)">
            <path id="Trazado_113541" data-name="Trazado 113541" d="M2177.7,1280.606a13.864,13.864,0,0,0,1.012,5.521c.619,1.44,1.479,2.3,2.43,2.3h2.9v-15.6h-2.9C2179.235,1272.823,2177.7,1276.32,2177.7,1280.606Zm2.748,2.572c-.543-.172-.966-1.234-.966-2.572,0-1.3.423-2.366.966-2.537.544.171.966,1.235.966,2.537C2181.409,1281.944,2180.986,1283.006,2180.443,1283.178Z" transform="translate(-2177.695 -1272.823)" fill="#583ae2"/>
            <g id="Grupo_80129" data-name="Grupo 80129" transform="translate(1.478)">
              <path id="Trazado_113542" data-name="Trazado 113542" d="M2197.072,1280.606a13.337,13.337,0,0,0,1.058,5.521c.648,1.44,1.548,2.3,2.543,2.3h1.264v-15.6h-1.264C2198.683,1272.823,2197.072,1276.32,2197.072,1280.606Zm1.39,0a2.792,2.792,0,0,1,1.39-2.537c.569.171,1.011,1.235,1.011,2.537,0,1.338-.442,2.4-1.011,2.572A2.811,2.811,0,0,1,2198.462,1280.606Z" transform="translate(-2197.072 -1272.823)" fill="#3f9ee6"/>
            </g>
          </g>
          <g id="Grupo_80132" data-name="Grupo 80132" transform="translate(1.381)">
            <path id="Trazado_113543" data-name="Trazado 113543" d="M2195.918,1280.606a13.869,13.869,0,0,0,1.012,5.521c.619,1.44,1.479,2.3,2.43,2.3h2.9v-15.6h-2.9C2197.458,1272.823,2195.918,1276.32,2195.918,1280.606Zm2.748,2.572c-.543-.172-.966-1.234-.966-2.572,0-1.3.423-2.366.966-2.537.544.171.967,1.235.967,2.537C2199.632,1281.944,2199.209,1283.006,2198.666,1283.178Z" transform="translate(-2195.909 -1272.722)" fill="#583ae2"/>
            <g id="Grupo_80131" data-name="Grupo 80131" transform="translate(1.487 0.101)">
              <path id="Trazado_113544" data-name="Trazado 113544" d="M2215.295,1280.606a13.341,13.341,0,0,0,1.058,5.521c.648,1.44,1.548,2.3,2.543,2.3h1.264v-15.6H2218.9C2216.906,1272.823,2215.295,1276.32,2215.295,1280.606Zm1.39,0c0-1.3.442-2.366,1.011-2.537.569.171,1.011,1.235,1.011,2.537,0,1.338-.442,2.4-1.011,2.572C2217.127,1283.006,2216.685,1281.944,2216.685,1280.606Z" transform="translate(-2215.295 -1272.823)" fill="#826be9"/>
            </g>
            <path id="Trazado_113545" data-name="Trazado 113545" d="M2199.234,1287.3a2.4,2.4,0,0,1-1.578-.75c-.848-.815-1.86-2.655-1.86-6.795,0-3.944.922-5.974,1.7-6.983a3.122,3.122,0,0,1,1.738-1.275.1.1,0,1,1,.035.2h0a3,3,0,0,0-1.625,1.216c-.749.985-1.641,2.972-1.641,6.841,0,4.059.973,5.851,1.79,6.641a2.2,2.2,0,0,0,1.455.7.1.1,0,0,1,.008.2Z" transform="translate(-2195.796 -1271.493)" fill="#40327b"/>
          </g>
        </g>
        <g id="Grupo_80134" data-name="Grupo 80134" transform="translate(3.806 5.523)">
          <path id="Trazado_113546" data-name="Trazado 113546" d="M2234.758,1351.306c.137.034.239.069.377.1-.034.034-.034.034,0,.034a13.381,13.381,0,0,1,9.6,12.789v13.033h4.389v-13.033a17.75,17.75,0,0,0-13.852-17.281,2.812,2.812,0,0,0-.514-.136C2233.489,1346.54,2233.386,1351.1,2234.758,1351.306Z" transform="translate(-2213.46 -1346.581)" fill="#e6e6e6"/>
          <path id="Trazado_113547" data-name="Trazado 113547" d="M1983.635,1343.9v4.364a13.474,13.474,0,0,0-11.44,10.41,1.445,1.445,0,0,0-.069.342,8,8,0,0,0-.137.891,13.252,13.252,0,0,0-.1,1.646v13.033h-4.355v-13.033A17.8,17.8,0,0,1,1983.635,1343.9Z" transform="translate(-1967.532 -1343.897)" fill="#e6e6e6"/>
          <path id="Trazado_113548" data-name="Trazado 113548" d="M2238.1,1387.446c10.291,1.8,11.616,13.009,11.616,13.009v14.24h-1.543v-13.032a13.425,13.425,0,0,0-9.968-12.92c-.437-.142-.709-1.422-.709-1.422S2237.769,1387.382,2238.1,1387.446Z" transform="translate(-2216.906 -1384.009)" fill="#999"/>
          <path id="Trazado_113549" data-name="Trazado 113549" d="M2040.11,1388.958v.927a13.474,13.474,0,0,0-11.439,10.41A12.814,12.814,0,0,1,2040.11,1388.958Z" transform="translate(-2024.008 -1385.521)" fill="gray"/>
          <path id="Trazado_113550" data-name="Trazado 113550" d="M2234.758,1351.306c.137.034.239.069.377.1a4.623,4.623,0,0,1-.729-2.2c-.069-1.338.385-2.242.867-2.258a2.812,2.812,0,0,0-.514-.136C2233.489,1346.54,2233.386,1351.1,2234.758,1351.306Z" transform="translate(-2213.46 -1346.581)" fill="#666"/>
        </g>
        <g id="Grupo_80136" data-name="Grupo 80136" transform="translate(0 32.653)">
          <rect id="Rectángulo_33795" data-name="Rectángulo 33795" width="43.236" height="35.342" transform="translate(0)" fill="#2ff980"/>
          <g id="Grupo_80135" data-name="Grupo 80135" transform="translate(16.508 8.696)">
            <path id="Trazado_113551" data-name="Trazado 113551" d="M2139.817,1813.627a1.661,1.661,0,0,0-.412-.035,5.352,5.352,0,0,0-5.349,5.365,5.436,5.436,0,0,0,3.155,4.915v9.1a2.22,2.22,0,0,0,2.194,2.216,1.161,1.161,0,0,0,.343-.035h.1a2.225,2.225,0,0,0,1.75-2.181v-9.1a5.4,5.4,0,0,0,3.154-4.915A5.318,5.318,0,0,0,2139.817,1813.627Z" transform="translate(-2134.056 -1813.592)" fill="#0dd25c"/>
            <path id="Trazado_113552" data-name="Trazado 113552" d="M2149.366,1814.046a5.323,5.323,0,0,0-4.972,5.33,5.437,5.437,0,0,0,3.155,4.915v9.1a2.225,2.225,0,0,0,1.749,2.181h.1a2.225,2.225,0,0,0,1.75-2.181v-9.1a5.4,5.4,0,0,0,3.154-4.915A5.318,5.318,0,0,0,2149.366,1814.046Z" transform="translate(-2143.605 -1814.011)" fill="#0c9442"/>
          </g>
          <path id="Trazado_113553" data-name="Trazado 113553" d="M1931.35,1734.929h-13.72v-35.343h3.806S1920.425,1725.664,1931.35,1734.929Z" transform="translate(-1917.63 -1699.586)" fill="#0dd25c"/>
          <path id="Trazado_113554" data-name="Trazado 113554" d="M2362.772,1734.929c3.277-7.011,2.666-25.861,2.666-35.343h4.354v35.343Z" transform="translate(-2328.819 -1699.586)" fill="#7af9ad"/>
        </g>
      </g>
    </g>
  </g>
</svg>
