<svg xmlns="http://www.w3.org/2000/svg" xmlns:xlink="http://www.w3.org/1999/xlink" width="190" height="431" viewBox="0 0 190 431">
  <defs>
    <clipPath id="clip-path">
      <rect id="Rectángulo_44678" data-name="Rectángulo 44678" width="106.022" height="370" fill="none"/>
    </clipPath>
  </defs>
  <g id="Grupo_156667" data-name="Grupo 156667" transform="translate(-180 -4001)">
    <g id="Grupo_156664" data-name="Grupo 156664" transform="translate(0 -50.87)">
      <g id="Grupo_156662" data-name="Grupo 156662" transform="translate(180 4051.417)">
        <rect id="Rectángulo_44663" data-name="Rectángulo 44663" width="190" height="431" transform="translate(0 0.453)" fill="none"/>
      </g>
    </g>
    <path id="Trazado_599081" data-name="Trazado 599081" d="M138.219,1252.091c0,7.407-30.942,13.411-69.11,13.411S0,1259.5,0,1252.091s30.942-13.409,69.109-13.409,69.11,6,69.11,13.409" transform="translate(207 3166.498)" fill="#ddd"/>
    <g id="Grupo_156666" data-name="Grupo 156666" transform="translate(214.519 4051.005)">
      <g id="Grupo_156663" data-name="Grupo 156663" transform="translate(0 -0.005)" clip-path="url(#clip-path)">
        <path id="Trazado_599081-2" data-name="Trazado 599081" d="M243.635,51.305c-1.3,1.3-1.792,3.255-2.422,4.986-4.869-6.42-8.449-19.029-1.517-24.808,10.417-8.685,10.626,13.164,3.939,19.822" transform="translate(-174.823 -21.846)" fill="#341e13"/>
        <path id="Trazado_599082" data-name="Trazado 599082" d="M345.61,779.553l.806,5.426-3.158,7.194s1.336,1.2,2.812-1.164l2.813-5.933-.4-6.111Z" transform="translate(-254.457 -577.445)" fill="#c67357"/>
        <path id="Trazado_599083" data-name="Trazado 599083" d="M353.236,786.188l1.1,5.372-2.747,7.361s1.4,1.118,2.741-1.322l2.479-6.08-.738-6.078Z" transform="translate(-260.636 -582.246)" fill="#c67357"/>
        <path id="Trazado_599084" data-name="Trazado 599084" d="M353.283,750.535l-.982-6.308-1.082-7.827-4.9-.678-1.683,8.253-.409,4.333-.491,5.919-.262,1.911s1.533.494,2.725-2.547l1.249-5.582,2.123,4.387-1.8,7.7s.461,4.021,1.666,2.5l4.05-10.811Z" transform="translate(-254.619 -545.389)" fill="#e28262"/>
        <path id="Trazado_599085" data-name="Trazado 599085" d="M308.551,517.967s10.839,42.712,11.88,52.631c0,0,4.209,5,4.9.678,1.377-8.623-.579-53.775-2.784-57.349s-13.993,4.039-13.993,4.039" transform="translate(-228.729 -380.266)" fill="#e28262"/>
        <path id="Trazado_599086" data-name="Trazado 599086" d="M282.947,333.359l3.556,1.16s5.635,43.812.866,53.6-10.253-.047-12.039-1.156-13.186-50.728-13.186-50.728Z" transform="translate(-194.328 -247.118)" fill="#e28262"/>
        <path id="Trazado_599087" data-name="Trazado 599087" d="M288.2,339.376l-2.275-54.886c-2.576-13.473-16.37-9.462-16.37-9.462-11.186,2.911-10.65,15.447-10.65,15.447l9.619,52.573s2.016,8.039,12.364,8.039c0,0,7.636-1.03,7.311-11.711" transform="translate(-191.921 -203.463)" fill="#101216"/>
        <path id="Trazado_599088" data-name="Trazado 599088" d="M346.609,740.146l.172,5,8.69-.3-.171-4.993Z" transform="translate(-256.941 -548.448)" fill="#fff"/>
        <path id="Trazado_599089" data-name="Trazado 599089" d="M299.564,519.407s4.8,32.264,11.683,52.027c0,0,5.906.553,9.268-.321,0,0,.514-46.262-3.3-61.23,0,0-19.024.4-17.654,9.524" transform="translate(-222.014 -377.975)" fill="#101216"/>
        <path id="Trazado_599090" data-name="Trazado 599090" d="M293.1,1334.967s1.941,7.557,4.327,9.605,11.487,5.064,11.487,5.064l5.043.725s3.5,2.513-6.116,5.157-26.5-5.334-26.5-5.334l3.8-15.446Z" transform="translate(-208.557 -989.439)" fill="#251110"/>
        <path id="Trazado_599091" data-name="Trazado 599091" d="M75.9,1366.379c-1.7-2.645-5.256-17.063-5.256-17.063l-7.859-.237-4.918,15.873s-.789,2.658.815,3.653c0,0,9.8,3.4,18.174-.162a5.8,5.8,0,0,0-.956-2.064" transform="translate(-42.749 -1000.069)" fill="#251110"/>
        <path id="Trazado_599092" data-name="Trazado 599092" d="M115.727,318.812l10.035-61.335s3.459-9.221-3.457-13.829L95.947,231.258H77.357L45.668,249.985l20.77,68.826Z" transform="translate(-33.854 -171.43)" fill="#f39672"/>
        <path id="Trazado_599093" data-name="Trazado 599093" d="M105.709,569.695s-5.691,13-7.065,42.874c0,0,42.841,13.437,56.278,0L155,569.695Z" transform="translate(-73.125 -422.313)" fill="#0d0f12"/>
        <path id="Trazado_599094" data-name="Trazado 599094" d="M133.8,683.278c.072,10.027-7.735,18.213-17.439,18.285s-17.636-8-17.71-18.026,7.735-18.21,17.441-18.282,17.634,8,17.708,18.022" transform="translate(-73.126 -493.152)" fill="#0d0f12"/>
        <path id="Trazado_599095" data-name="Trazado 599095" d="M85.359,721.333,80.7,797.682s8.249,19.856,22.855,7.649l15.854-78.541s-7.7-26.4-34.049-5.457" transform="translate(-59.822 -528.736)" fill="#0d0f12"/>
        <path id="Trazado_599096" data-name="Trazado 599096" d="M68.106,1021.94s-4.395,14.335-3.089,39.3l-1.306,46.669,16.174.321,11-78.4s-11.01-25.41-22.776-7.889" transform="translate(-47.229 -752.994)" fill="#0d0f12"/>
        <path id="Trazado_599097" data-name="Trazado 599097" d="M225.245,687.72c1.017,9.974-2.548,18.508-12.2,19.494s-18.309-6.3-19.327-16.277,5.986-18.859,15.641-19.843,14.871,6.654,15.889,16.627" transform="translate(-143.528 -497.417)" fill="#0d0f12"/>
        <path id="Trazado_599098" data-name="Trazado 599098" d="M209.926,740.989l8.872,70.342s19.235,8.528,22.651-3.405c0,0-.447-53.584-4.113-80.07,0,0-23.751-11.568-27.409,13.133" transform="translate(-155.618 -537.552)" fill="#0d0f12"/>
        <path id="Trazado_599099" data-name="Trazado 599099" d="M240.957,1025.843s-2.7,10.317.215,29.154l6.674,53.314,17.039-.9-1.277-84.927s-10.609-11.128-22.651,3.361" transform="translate(-177.777 -754.938)" fill="#0d0f12"/>
        <path id="Trazado_599100" data-name="Trazado 599100" d="M20.784,542.185c-3.623,36.325-2.137,38.73-1.759,53.3,0,0-1.934,5.127-5.225,2.247s-8.548-51.252-6.893-55.11c2.462-5.728,13.878-.436,13.878-.436" transform="translate(-4.886 -400.269)" fill="#f39672"/>
        <path id="Trazado_599101" data-name="Trazado 599101" d="M36.433,749l5.109,5.107,4.34,6.36c-2.148,1.446-4.4-2.114-4.4-2.114a49.951,49.951,0,0,0,4.13,10.554c.659,2.011-1.239,1.861-1.239,1.861-2.118-2.176-4.832-8.595-4.832-8.595a97.741,97.741,0,0,0,3.612,9.918c.245,1.748-1.508,1.251-1.508,1.251-3.606-2.134-4.8-9.919-4.8-9.919.359,2.954,2.686,9.019,2.686,9.019-.419,1.2-1,.792-1,.792-3.116-1.252-4.246-8.748-4.246-8.748l.5,2.8c1.019,3.767-1.315,2.8-1.315,2.8l-.842-1.889a22.766,22.766,0,0,1-1.72-11.015l.015-6.779Z" transform="translate(-22.829 -555.232)" fill="#f39672"/>
        <path id="Trazado_599102" data-name="Trazado 599102" d="M28.117,306.739c-12.234-2.785-16.414,8.522-16.414,8.522S5.56,352.9,5.635,369.029c.049,10.885,13.331,2.119,14.2.205,1.924-4.222,15.881-49.558,15.881-49.558s.727-10.652-7.6-12.937" transform="translate(-4.177 -227.057)" fill="#f39672"/>
        <path id="Trazado_599103" data-name="Trazado 599103" d="M18.969,362.266l15.866-51.439c-.357-12.788-12.869-14.7-12.869-14.7-11.767-1.127-14.345,9-14.345,9l-5.692,51.5S0,368.2,6.686,368.368c0,0,11.222,1.217,12.283-6.1" transform="translate(-1.238 -219.456)" fill="#13161a"/>
        <rect id="Rectángulo_44677" data-name="Rectángulo 44677" width="8.695" height="4.997" transform="matrix(0.981, -0.196, 0.196, 0.981, 6.393, 192.169)" fill="#fff"/>
        <path id="Trazado_599104" data-name="Trazado 599104" d="M18.693,525.785S16.639,569,15.9,577.834l-9.647,2.029s-8.722-43.308-5.561-56.6c0,0,12.606-6.878,18,2.519" transform="translate(0 -386.095)" fill="#13161a"/>
        <path id="Trazado_599105" data-name="Trazado 599105" d="M167.8,178.89v19.87h21.011s-5.167-7.877-2.582-19.87Z" transform="translate(-124.391 -132.61)" fill="#f39672"/>
        <path id="Trazado_599106" data-name="Trazado 599106" d="M178.46,195.763c1.893,1.218,5.918,3.812,8.215,2.295a2.172,2.172,0,0,0,1-1.542,29.1,29.1,0,0,1-1.442-17.626H167.8v1.8c2.3,5.817,5.248,11.584,10.659,15.072" transform="translate(-124.391 -132.61)" fill="#db765e"/>
        <path id="Trazado_599107" data-name="Trazado 599107" d="M130.278,63.956s-3.576-1.554-7.625-10.4c0,0-8.791-10.465-2.561-22.347,0,0,3.682-10.049,21.523-7.236,0,0,1.6,26.929-11.337,39.988" transform="translate(-87.37 -17.398)" fill="#f3906b"/>
        <path id="Trazado_599108" data-name="Trazado 599108" d="M163.9,69.325l1.191-3.113s3.283-11.593,3.283-11.595a12.007,12.007,0,0,0,.172-4.906,12.043,12.043,0,0,1-.048-5.052c2.071-8.337-2.2-13.069-2.2-13.069-4.708-7.861-16.3-8.124-16.3-8.124-14.349.373-15.876,14.213-15.876,14.213-2.541,9.171,4.62,17.023,4.634,17.04.572.625.2,3.654.356,4.521.672,3.7,4.141,6.044,7.226,7.675,3.39,1.792,7.5,3.709,11.323,4.148,1.451.17,5.557.049,6.238-1.738" transform="translate(-99.018 -17.393)" fill="#f39672"/>
        <path id="Trazado_599109" data-name="Trazado 599109" d="M63.026,317.146c.043,2.044-3.059,23.422-1.756,23.7.008,0,35.469,8.173,54.382,0l.076-22.03,10.035-61.335s3.459-9.221-3.457-13.829L95.947,231.258l1.779,5.343L93.914,247.44,77.357,231.258,45.668,249.986q2.654,8.8,5.3,17.608c3.267,10.819,6.446,21.668,9.813,32.457,0,0,2.784,11.7,2.244,17.1" transform="translate(-33.854 -171.43)" fill="#fff"/>
        <path id="Trazado_599110" data-name="Trazado 599110" d="M212.27,246.167l-.218,9.874-3.638-3.555Z" transform="translate(-154.497 -182.483)" fill="#d2d1d1"/>
        <path id="Trazado_599111" data-name="Trazado 599111" d="M233.148,303.685a1.41,1.41,0,1,1-1.41-1.408,1.409,1.409,0,0,1,1.41,1.408" transform="translate(-170.742 -224.076)" fill="#e8e8e8"/>
        <path id="Trazado_599112" data-name="Trazado 599112" d="M233.148,402.59a1.41,1.41,0,1,1-1.41-1.41,1.408,1.408,0,0,1,1.41,1.41" transform="translate(-170.742 -297.393)" fill="#e8e8e8"/>
        <path id="Trazado_599113" data-name="Trazado 599113" d="M233.148,501.491a1.41,1.41,0,1,1-1.41-1.409,1.41,1.41,0,0,1,1.41,1.409" transform="translate(-170.742 -370.709)" fill="#e8e8e8"/>
        <path id="Trazado_599114" data-name="Trazado 599114" d="M233.148,600.394a1.41,1.41,0,1,1-1.41-1.41,1.411,1.411,0,0,1,1.41,1.41" transform="translate(-170.742 -444.025)" fill="#e8e8e8"/>
        <line id="Línea_441" data-name="Línea 441" y2="97.105" transform="translate(57.773 74.685)" fill="none" stroke="#e8e8e8" stroke-miterlimit="10" stroke-width="2.948"/>
        <path id="Trazado_599115" data-name="Trazado 599115" d="M156.062,643.83s-18.111,8.486-55.18-.187c-.609-.144-.351-1.726-.351-1.726l.351-3.568c.163-1.144.8-1.089.8-1.089s35.468,8.172,54.38,0c0,0,.764-.133.8,1.012v4.448a1.173,1.173,0,0,1-.8,1.111" transform="translate(-74.484 -472.395)" fill="#3d1a0c"/>
        <path id="Trazado_599116" data-name="Trazado 599116" d="M217.822,655.259a1.012,1.012,0,0,1-1,1.024h-7.214a1.012,1.012,0,0,1-1-1.024v-5.2a1.012,1.012,0,0,1,1-1.024h7.214a1.012,1.012,0,0,1,1,1.024Z" transform="translate(-154.642 -481.131)" fill="none" stroke="#bababa" stroke-miterlimit="10" stroke-width="4.823"/>
        <line id="Línea_442" data-name="Línea 442" x2="3.818" transform="translate(53.967 171.202)" fill="none" stroke="#bababa" stroke-miterlimit="10" stroke-width="4.823"/>
        <path id="Trazado_599117" data-name="Trazado 599117" d="M172.318,219.478s-11.626-4.516-14.363-9.014l-3.436,6.55,12.258,11.756,5.541-9.069" transform="translate(-114.545 -156.016)" fill="#e8e8e8"/>
        <path id="Trazado_599118" data-name="Trazado 599118" d="M129.776,42.41c-.39.705-1.951,5.638-.029,8.108-4.051,3.111-2.095,9.416-2.095,9.416l-.983.056c-5.681-1.471-3.774,9.278-3.773,9.282-.043-.248-.988-.849-1.177-1.029a40.091,40.091,0,0,1-4.19-6.237c-4-7.333-3.622-7.709-4.695-12.036-.734-2.957-.417-10.965,3.885-14.99,0,0,5.015,0,13.057,7.43" transform="translate(-83.415 -25.929)" fill="#341e13"/>
        <path id="Trazado_599119" data-name="Trazado 599119" d="M143.305,124.587a3.2,3.2,0,0,1-2.02.722c-2.287.072-4.282-1.978-4.457-4.579s1.533-4.761,3.818-4.833a4.018,4.018,0,0,1,2.893,1.161c1.149,1.1,1.282,3.212,1.094,4.684a4.377,4.377,0,0,1-1.327,2.845" transform="translate(-101.421 -85.912)" fill="#f39672"/>
        <path id="Trazado_599120" data-name="Trazado 599120" d="M147.632,122.6c-.2-1.361-2.9.074-2.447.822a4.178,4.178,0,0,0,1.158,1.025,2.026,2.026,0,0,1,.917,1.453c.013.079.04.315-.038.376-.346.265-1.578-1.017-1.848-1.284a2.289,2.289,0,0,1-.433-2.168,1.37,1.37,0,0,1,1.47-1.094c.62.006,1.254.019,1.253.792,0,.019-.022.148-.032.079" transform="translate(-107.371 -90.236)" fill="#e47a5d"/>
        <path id="Trazado_599121" data-name="Trazado 599121" d="M148.218,130.307c.273-.3.557-.077.863.123a1.294,1.294,0,0,1,.533.782,3.206,3.206,0,0,1-.24,2.293,1.72,1.72,0,0,1-1.445.86c-.833.012-1.114-.711-1.179-1.414-.017-.186-.054-.634.127-.757s.348.168.487.3a1.16,1.16,0,0,0,.716.231,1.5,1.5,0,0,0,1.215-.609.816.816,0,0,0,.115-.218c.019.46,0,.566-.059.312a1.258,1.258,0,0,0-.173-.317c-.206-.31-.543-.513-.769-.806-.111-.135-.325-.62-.189-.775" transform="translate(-108.775 -96.486)" fill="#e47a5d"/>
        <path id="Trazado_599122" data-name="Trazado 599122" d="M72.092,243.289,86.186,292.8l-2.091,89.963s-21.9-1.341-31.472-10l6.75-52.547L45.668,258.9Z" transform="translate(-33.854 -180.349)" fill="#13161a"/>
        <path id="Trazado_599123" data-name="Trazado 599123" d="M131.814,243.289,145.907,292.8l-.058,2.352L128.1,276.983s-1.865-3.153.661-5.019l4.193-4.012-2.99-2.146s-4.2-2.034-3.686-5.848l1.2-14.338Z" transform="translate(-93.575 -180.349)" fill="#1d272c"/>
        <path id="Trazado_599124" data-name="Trazado 599124" d="M262.037,244.632l16.051,7.544s9.134,2.412,7.267,11.877l-5.278,52.432,2.644,55.558s2.262,10.324-16.348,8.574l-6.584-88.156Z" transform="translate(-192.581 -181.344)" fill="#13161a"/>
        <path id="Trazado_599125" data-name="Trazado 599125" d="M243.2,225.382s-1.069-4.137-6.311-7.632l.685,14.257s2.908-7.292,5.626-6.625" transform="translate(-175.603 -161.417)" fill="#e8e8e8"/>
        <path id="Trazado_599126" data-name="Trazado 599126" d="M249.726,253.745l-.476-6.625c-1.6-.393-3.033,1.847-4.2,3.684Z" transform="translate(-181.656 -183.155)" fill="#d2d1d1"/>
        <path id="Trazado_599127" data-name="Trazado 599127" d="M262.147,244.632l4.137,1.945,2.989,13.805s1.5,3.573-.671,4.508l-3.9,2.274,5.5,3.479s2.893,1.813,1.113,4.482l-11.027,21.53-.348-3.682Z" transform="translate(-192.691 -181.344)" fill="#1d272c"/>
        <path id="Trazado_599128" data-name="Trazado 599128" d="M160.2,143.372a31.366,31.366,0,0,0,16.826,7.7c5.52.578,6.265-1.784,6.265-1.784,1.708-3.069,4.135-13.8,4.135-13.8-.075.326-2.369-.836-2.607-.927a13.118,13.118,0,0,0-5.67-.358,11.087,11.087,0,0,0-5.29,1.443c-.184.118-1.6,1.517-1.725,1.5-.979-.129-3.274-.477-3.274-.477a7.326,7.326,0,0,1-6.3-5.223l-.983.056-1.535,6.7s-1.06,4.261.159,5.18m21.749,1.516c-2.132,1.458-6.341.3-7.642-1.956a6.471,6.471,0,0,1-.622-4.93c.621-1.661,2.507-1.859,4.028-2.051a19.452,19.452,0,0,1,5.837-.214c.955.176,1,.88,1.217,2,.408,2.106-1,5.912-2.818,7.156" transform="translate(-118.318 -97.433)" fill="#a96c53"/>
        <path id="Trazado_599129" data-name="Trazado 599129" d="M209.294,257.668l-.429-.8-2.924,4.487,2.513.9Z" transform="translate(-152.664 -190.414)" fill="#006ebd"/>
        <path id="Trazado_599130" data-name="Trazado 599130" d="M245.051,257.893l.822-1.256a3.373,3.373,0,0,1-.158,5.442,14.524,14.524,0,0,0-.664-4.186" transform="translate(-181.656 -190.244)" fill="#006ebd"/>
        <path id="Trazado_599131" data-name="Trazado 599131" d="M216.391,259.964s2.479,2.2,6.765.4a5.065,5.065,0,0,1,.664,4.186l-2.221,4.58h-3.1l-2.946-4.58s-.3-1.01.84-4.581" transform="translate(-159.761 -192.71)" fill="#006ebd"/>
        <path id="Trazado_599132" data-name="Trazado 599132" d="M219.861,295.375l-2.506,65.539,5.233,10.181,4.27-10.13-3.895-65.591Z" transform="translate(-161.125 -218.96)" fill="#005b9a"/>
        <path id="Trazado_599133" data-name="Trazado 599133" d="M142.615,15.578,137.83,13.2l-9.1-4.153s0-6.236,11.475-8.643c0,0,14.071-2.219,25.263,3.7,0,0,3.052,1.665,5.458.185,0,0-3.886,16.286-28.314,11.289" transform="translate(-95.43 0.005)" fill="#341e13"/>
      </g>
    </g>
  </g>
</svg>
