<svg xmlns="http://www.w3.org/2000/svg" width="1030" height="379" viewBox="0 0 1030 379">
  <g id="Grupo_953698" data-name="Grupo 953698" transform="translate(-285 -4997)">
    <g id="Grupo_156668" data-name="Grupo 156668" transform="translate(0 205)">
      <rect id="Rectángulo_44679" data-name="Rectángulo 44679" width="1030" height="379" transform="translate(285 4792)" fill="none"/>
      <rect id="Rectángulo_44680" data-name="Rectángulo 44680" width="315" height="87" rx="43.5" transform="translate(285 4937)" fill="#583ae2"/>
      <path id="Trazado_658470" data-name="Trazado 658470" d="M-111.4-2.391h-4.228L-116.367,0h-3.3l4.693-12.8h2.9L-107.341,0h-3.313Zm-3.489-2.382h2.751l-1.38-4.438Zm10.178,1.9a1.686,1.686,0,0,1,1.169.417,1.37,1.37,0,0,1,.466,1.068,1.37,1.37,0,0,1-.466,1.068A1.686,1.686,0,0,1-104.713.1a1.672,1.672,0,0,1-1.173-.422,1.379,1.379,0,0,1-.461-1.063,1.379,1.379,0,0,1,.461-1.063A1.672,1.672,0,0,1-104.713-2.874Zm3.735-3.384.782-6.539h7.479v2.3h-5.071l-.29,2.54a3.5,3.5,0,0,1,.831-.325A3.805,3.805,0,0,1-96.24-8.42a3.754,3.754,0,0,1,2.931,1.129,4.549,4.549,0,0,1,1.024,3.168,4.541,4.541,0,0,1-.549,2.228A3.776,3.776,0,0,1-94.377-.36a4.87,4.87,0,0,1-2.347.536,5.236,5.236,0,0,1-2.259-.5,4.053,4.053,0,0,1-1.652-1.362,3.312,3.312,0,0,1-.589-1.956h2.971A1.685,1.685,0,0,0-97.8-2.522a1.421,1.421,0,0,0,1.063.413q1.494,0,1.494-2.215,0-2.048-1.828-2.048a1.823,1.823,0,0,0-1.547.668Zm18,1.916V0h-3.085V-12.8h5.106a5.948,5.948,0,0,1,2.6.541,4.074,4.074,0,0,1,1.749,1.538,4.2,4.2,0,0,1,.62,2.263,3.7,3.7,0,0,1-1.34,2.993,5.561,5.561,0,0,1-3.678,1.121Zm0-2.382h2.021a1.906,1.906,0,0,0,1.367-.448,1.665,1.665,0,0,0,.47-1.266A2.059,2.059,0,0,0-79.6-9.87a1.712,1.712,0,0,0-1.318-.545h-2.057Zm8.007,1.881a5.613,5.613,0,0,1,.554-2.536,3.96,3.96,0,0,1,1.591-1.709,4.791,4.791,0,0,1,2.435-.6,4.373,4.373,0,0,1,3.366,1.323,5.076,5.076,0,0,1,1.23,3.6v.105A4.925,4.925,0,0,1-67.03-1.129,4.384,4.384,0,0,1-70.374.176a4.434,4.434,0,0,1-3.261-1.217,4.761,4.761,0,0,1-1.327-3.3Zm2.962.185A3.538,3.538,0,0,0-71.6-2.725a1.376,1.376,0,0,0,1.222.615q1.582,0,1.617-2.435v-.3q0-2.558-1.635-2.558Q-71.877-7.4-72-5.194ZM-61.365,0h-2.971V-13.5h2.971Zm5.054,0h-2.979V-9.51h2.979Zm-1.107-13.324h3.129l-2.443,2.76H-59.15Zm6.46,1.45V-9.51h1.564v2.057h-1.564V-3.1a1.111,1.111,0,0,0,.193.747A1.037,1.037,0,0,0-50-2.145a4.345,4.345,0,0,0,.738-.053V-.079a5.466,5.466,0,0,1-1.67.255,3.1,3.1,0,0,1-2.259-.721,2.954,2.954,0,0,1-.729-2.188v-4.72h-1.213V-9.51h1.213v-2.364ZM-45.105,0h-2.971V-9.51h2.971Zm-3.146-11.962A1.322,1.322,0,0,1-47.795-13a1.724,1.724,0,0,1,1.187-.4,1.724,1.724,0,0,1,1.187.4,1.322,1.322,0,0,1,.457,1.037,1.322,1.322,0,0,1-.457,1.037,1.724,1.724,0,0,1-1.187.4,1.724,1.724,0,0,1-1.187-.4A1.322,1.322,0,0,1-48.252-11.962Zm8.991,9.853a1.317,1.317,0,0,0,.967-.338,1.241,1.241,0,0,0,.334-.945h2.777A3.288,3.288,0,0,1-36.3-.826a4.168,4.168,0,0,1-2.887,1,4.22,4.22,0,0,1-3.27-1.3,5.125,5.125,0,0,1-1.2-3.6v-.123A5.792,5.792,0,0,1-43.124-7.4a3.872,3.872,0,0,1,1.534-1.7,4.573,4.573,0,0,1,2.373-.593,4.116,4.116,0,0,1,2.944,1.028,3.647,3.647,0,0,1,1.09,2.786H-37.96A1.626,1.626,0,0,0-38.32-7a1.244,1.244,0,0,0-.967-.4q-1.151,0-1.345,1.468a10.357,10.357,0,0,0-.062,1.283,4.068,4.068,0,0,0,.343,1.986A1.187,1.187,0,0,0-39.261-2.109ZM-28.573,0a3.344,3.344,0,0,1-.281-.853A2.754,2.754,0,0,1-31.14.176a3.374,3.374,0,0,1-2.285-.813,2.588,2.588,0,0,1-.94-2.043,2.66,2.66,0,0,1,1.143-2.338A5.821,5.821,0,0,1-29.9-5.81h.914v-.5q0-1.31-1.134-1.31a.925.925,0,0,0-1.055,1.037h-2.962a2.659,2.659,0,0,1,1.173-2.241,4.927,4.927,0,0,1,2.993-.861A4.323,4.323,0,0,1-27.1-8.8a3.086,3.086,0,0,1,1.081,2.435v4.21a4.311,4.311,0,0,0,.4,2V0Zm-1.854-1.934a1.652,1.652,0,0,0,.918-.237,1.487,1.487,0,0,0,.523-.536V-4.228h-.861q-1.547,0-1.547,1.389a.848.848,0,0,0,.272.655A.986.986,0,0,0-30.428-1.934Zm19.362-2.751a5.735,5.735,0,0,1-1,3.538A3.2,3.2,0,0,1-14.757.176,2.742,2.742,0,0,1-16.91-.782V3.656h-2.962V-9.51H-17.1l.088.879a2.742,2.742,0,0,1,2.241-1.055,3.224,3.224,0,0,1,2.733,1.3,5.805,5.805,0,0,1,.976,3.564Zm-2.962-.185q0-2.531-1.477-2.531a1.394,1.394,0,0,0-1.406.756V-2.9a1.439,1.439,0,0,0,1.424.791q1.415,0,1.459-2.443ZM-4.4,0a3.344,3.344,0,0,1-.281-.853A2.754,2.754,0,0,1-6.97.176,3.374,3.374,0,0,1-9.255-.637a2.588,2.588,0,0,1-.94-2.043A2.66,2.66,0,0,1-9.053-5.019,5.821,5.821,0,0,1-5.73-5.81h.914v-.5q0-1.31-1.134-1.31A.925.925,0,0,0-7-6.583H-9.967A2.659,2.659,0,0,1-8.793-8.824,4.927,4.927,0,0,1-5.8-9.686,4.323,4.323,0,0,1-2.927-8.8,3.086,3.086,0,0,1-1.846-6.363v4.21a4.311,4.311,0,0,0,.4,2V0ZM-6.258-1.934a1.652,1.652,0,0,0,.918-.237,1.487,1.487,0,0,0,.523-.536V-4.228h-.861q-1.547,0-1.547,1.389a.848.848,0,0,0,.272.655A.986.986,0,0,0-6.258-1.934Zm11.8-4.9L4.57-6.9a1.752,1.752,0,0,0-1.793.879V0H-.185V-9.51H2.593l.1,1.222a2.294,2.294,0,0,1,2.083-1.4A2.888,2.888,0,0,1,5.6-9.58ZM11.707,0a3.344,3.344,0,0,1-.281-.853A2.754,2.754,0,0,1,9.141.176,3.374,3.374,0,0,1,6.855-.637a2.588,2.588,0,0,1-.94-2.043A2.66,2.66,0,0,1,7.058-5.019,5.821,5.821,0,0,1,10.38-5.81h.914v-.5q0-1.31-1.134-1.31A.925.925,0,0,0,9.105-6.583H6.144A2.659,2.659,0,0,1,7.317-8.824a4.927,4.927,0,0,1,2.993-.861,4.323,4.323,0,0,1,2.874.888,3.086,3.086,0,0,1,1.081,2.435v4.21a4.311,4.311,0,0,0,.4,2V0ZM9.853-1.934a1.652,1.652,0,0,0,.918-.237,1.487,1.487,0,0,0,.523-.536V-4.228h-.861q-1.547,0-1.547,1.389a.848.848,0,0,0,.272.655A.986.986,0,0,0,9.853-1.934ZM23.511,0H20.54V-13.5h2.971Zm7.181,0a3.344,3.344,0,0,1-.281-.853A2.754,2.754,0,0,1,28.125.176,3.374,3.374,0,0,1,25.84-.637a2.588,2.588,0,0,1-.94-2.043,2.66,2.66,0,0,1,1.143-2.338,5.821,5.821,0,0,1,3.322-.791h.914v-.5q0-1.31-1.134-1.31A.925.925,0,0,0,28.09-6.583H25.128A2.659,2.659,0,0,1,26.3-8.824a4.927,4.927,0,0,1,2.993-.861,4.323,4.323,0,0,1,2.874.888,3.086,3.086,0,0,1,1.081,2.435v4.21a4.311,4.311,0,0,0,.4,2V0ZM28.837-1.934a1.652,1.652,0,0,0,.918-.237,1.487,1.487,0,0,0,.523-.536V-4.228h-.861q-1.547,0-1.547,1.389a.848.848,0,0,0,.272.655A.986.986,0,0,0,28.837-1.934ZM44.35-2.672a.684.684,0,0,0-.4-.606,6.016,6.016,0,0,0-1.5-.475A6.853,6.853,0,0,1,40.623-4.4a3.062,3.062,0,0,1-1.1-.971,2.319,2.319,0,0,1-.378-1.31,2.628,2.628,0,0,1,1.081-2.158,4.453,4.453,0,0,1,2.83-.848,4.934,4.934,0,0,1,3.023.853,2.666,2.666,0,0,1,1.143,2.241H44.253q0-1.143-1.2-1.143a1.194,1.194,0,0,0-.782.259.8.8,0,0,0-.316.646.737.737,0,0,0,.387.642,3.654,3.654,0,0,0,1.235.4,10.671,10.671,0,0,1,1.49.378A2.706,2.706,0,0,1,47.206-2.76,2.491,2.491,0,0,1,46.05-.642a5.068,5.068,0,0,1-2.993.817,5.172,5.172,0,0,1-2.18-.439,3.645,3.645,0,0,1-1.494-1.2,2.707,2.707,0,0,1-.536-1.591h2.769a1.145,1.145,0,0,0,.439.962,1.808,1.808,0,0,0,1.081.3,1.422,1.422,0,0,0,.91-.246A.787.787,0,0,0,44.35-2.672ZM53.191.176a4.889,4.889,0,0,1-3.542-1.305,4.507,4.507,0,0,1-1.354-3.4v-.246a5.84,5.84,0,0,1,.541-2.575,3.955,3.955,0,0,1,1.578-1.727,4.763,4.763,0,0,1,2.461-.611,4.117,4.117,0,0,1,3.164,1.244A4.887,4.887,0,0,1,57.2-4.975v1.151H51.311A2.135,2.135,0,0,0,52-2.566a2.066,2.066,0,0,0,1.389.457,2.662,2.662,0,0,0,2.2-.984l1.354,1.6A3.784,3.784,0,0,1,55.375-.277,5.3,5.3,0,0,1,53.191.176ZM52.857-7.4q-1.3,0-1.547,1.723H54.3v-.229a1.467,1.467,0,0,0-.36-1.1A1.434,1.434,0,0,0,52.857-7.4Zm5.186,2.575a6.421,6.421,0,0,1,.475-2.549A3.821,3.821,0,0,1,59.88-9.083a3.591,3.591,0,0,1,2.065-.6,2.855,2.855,0,0,1,2.32,1l.105-.826h2.689V-.36a4.009,4.009,0,0,1-.584,2.184,3.75,3.75,0,0,1-1.692,1.424,6.219,6.219,0,0,1-2.566.5,5.365,5.365,0,0,1-2.026-.4,3.657,3.657,0,0,1-1.5-1.028L59.933.58a2.716,2.716,0,0,0,2.18.976A1.764,1.764,0,0,0,64.081-.466v-.3a2.781,2.781,0,0,1-2.153.94,3.437,3.437,0,0,1-2.812-1.332A5.517,5.517,0,0,1,58.043-4.72Zm2.971.185a3.383,3.383,0,0,0,.439,1.85,1.387,1.387,0,0,0,1.23.681,1.573,1.573,0,0,0,1.4-.642v-4A1.534,1.534,0,0,0,62.7-7.4a1.4,1.4,0,0,0-1.239.708A3.858,3.858,0,0,0,61.014-4.641ZM74.408-1.028a3.054,3.054,0,0,1-2.54,1.2A3,3,0,0,1,69.5-.734a3.826,3.826,0,0,1-.8-2.615V-9.51h2.962v6.179a1.065,1.065,0,0,0,1.187,1.222,1.548,1.548,0,0,0,1.45-.729V-9.51h2.979V0H74.5Zm10.239-5.8-.976-.07a1.752,1.752,0,0,0-1.793.879V0H78.917V-9.51h2.777l.1,1.222a2.294,2.294,0,0,1,2.083-1.4,2.888,2.888,0,0,1,.826.105ZM88.84,0H85.869V-9.51H88.84ZM85.693-11.962A1.322,1.322,0,0,1,86.15-13a1.724,1.724,0,0,1,1.187-.4,1.724,1.724,0,0,1,1.187.4,1.322,1.322,0,0,1,.457,1.037,1.322,1.322,0,0,1-.457,1.037,1.724,1.724,0,0,1-1.187.4,1.724,1.724,0,0,1-1.187-.4A1.322,1.322,0,0,1,85.693-11.962Zm4.6,7.137a5.809,5.809,0,0,1,.976-3.56,3.211,3.211,0,0,1,2.725-1.3,2.731,2.731,0,0,1,2.145,1V-13.5h2.971V0H96.442l-.149-1.02a2.8,2.8,0,0,1-2.32,1.2,3.205,3.205,0,0,1-2.689-1.3A5.993,5.993,0,0,1,90.29-4.825Zm2.962.185q0,2.531,1.477,2.531a1.458,1.458,0,0,0,1.406-.826V-6.557A1.419,1.419,0,0,0,94.746-7.4q-1.371,0-1.485,2.215ZM106.146,0a3.344,3.344,0,0,1-.281-.853A2.754,2.754,0,0,1,103.579.176a3.374,3.374,0,0,1-2.285-.813,2.588,2.588,0,0,1-.94-2.043A2.66,2.66,0,0,1,101.5-5.019a5.821,5.821,0,0,1,3.322-.791h.914v-.5q0-1.31-1.134-1.31a.925.925,0,0,0-1.055,1.037h-2.962a2.659,2.659,0,0,1,1.173-2.241,4.927,4.927,0,0,1,2.993-.861,4.323,4.323,0,0,1,2.874.888A3.086,3.086,0,0,1,108.7-6.363v4.21a4.311,4.311,0,0,0,.4,2V0Zm-1.854-1.934a1.652,1.652,0,0,0,.918-.237,1.487,1.487,0,0,0,.523-.536V-4.228h-.861q-1.547,0-1.547,1.389a.848.848,0,0,0,.272.655A.986.986,0,0,0,104.291-1.934Zm5.678-2.892a5.809,5.809,0,0,1,.976-3.56,3.211,3.211,0,0,1,2.725-1.3,2.731,2.731,0,0,1,2.145,1V-13.5h2.971V0h-2.663l-.149-1.02a2.8,2.8,0,0,1-2.32,1.2,3.205,3.205,0,0,1-2.689-1.3A5.993,5.993,0,0,1,109.969-4.825Zm2.962.185q0,2.531,1.477,2.531a1.458,1.458,0,0,0,1.406-.826V-6.557a1.419,1.419,0,0,0-1.389-.844q-1.371,0-1.485,2.215ZM-68.08,22.175a5.809,5.809,0,0,1,.976-3.56,3.211,3.211,0,0,1,2.725-1.3,2.731,2.731,0,0,1,2.145,1V13.5h2.971V27h-2.663l-.149-1.02a2.8,2.8,0,0,1-2.32,1.2,3.205,3.205,0,0,1-2.689-1.3A5.993,5.993,0,0,1-68.08,22.175Zm2.962.185q0,2.531,1.477,2.531a1.458,1.458,0,0,0,1.406-.826V20.443a1.419,1.419,0,0,0-1.389-.844q-1.371,0-1.485,2.215Zm12.138,4.816a4.889,4.889,0,0,1-3.542-1.305,4.507,4.507,0,0,1-1.354-3.4v-.246a5.84,5.84,0,0,1,.541-2.575,3.955,3.955,0,0,1,1.578-1.727,4.763,4.763,0,0,1,2.461-.611,4.117,4.117,0,0,1,3.164,1.244,4.887,4.887,0,0,1,1.16,3.467v1.151h-5.889a2.135,2.135,0,0,0,.694,1.257,2.066,2.066,0,0,0,1.389.457,2.662,2.662,0,0,0,2.2-.984l1.354,1.6A3.784,3.784,0,0,1-50.8,26.723,5.3,5.3,0,0,1-52.98,27.176Zm-.334-7.576q-1.3,0-1.547,1.723h2.988v-.229a1.467,1.467,0,0,0-.36-1.1A1.434,1.434,0,0,0-53.314,19.6Zm13.14,7.4h-2.971V13.5h2.971Zm7.181,0a3.344,3.344,0,0,1-.281-.853,2.754,2.754,0,0,1-2.285,1.028,3.374,3.374,0,0,1-2.285-.813,2.588,2.588,0,0,1-.94-2.043,2.66,2.66,0,0,1,1.143-2.338,5.821,5.821,0,0,1,3.322-.791h.914v-.5q0-1.31-1.134-1.31A.925.925,0,0,0-35.6,20.417h-2.962a2.659,2.659,0,0,1,1.173-2.241,4.927,4.927,0,0,1,2.993-.861,4.323,4.323,0,0,1,2.874.888,3.086,3.086,0,0,1,1.081,2.435v4.21a4.311,4.311,0,0,0,.4,2V27Zm-1.854-1.934a1.652,1.652,0,0,0,.918-.237,1.487,1.487,0,0,0,.523-.536V22.772h-.861q-1.547,0-1.547,1.389a.848.848,0,0,0,.272.655A.986.986,0,0,0-34.849,25.066ZM-21.19,27h-2.971V17.49h2.971Zm-3.146-11.962A1.322,1.322,0,0,1-23.88,14a1.724,1.724,0,0,1,1.187-.4,1.724,1.724,0,0,1,1.187.4,1.322,1.322,0,0,1,.457,1.037,1.322,1.322,0,0,1-.457,1.037,1.724,1.724,0,0,1-1.187.4,1.724,1.724,0,0,1-1.187-.4A1.322,1.322,0,0,1-24.337,15.038Zm7.69,2.452.1,1.116a3.225,3.225,0,0,1,2.716-1.292,2.713,2.713,0,0,1,2.219.888,4.226,4.226,0,0,1,.76,2.672V27h-2.971V21a1.6,1.6,0,0,0-.29-1.059A1.342,1.342,0,0,0-15.17,19.6a1.413,1.413,0,0,0-1.292.686V27h-2.962V17.49ZM-8.561,27V19.547H-9.94V17.49h1.38v-.756A3.286,3.286,0,0,1-7.6,14.212a3.785,3.785,0,0,1,2.689-.9,5.889,5.889,0,0,1,1.389.185l.009,2.18a2.706,2.706,0,0,0-.729-.079q-1.345,0-1.345,1.16v.729h1.854v2.057H-5.59V27Zm5.493-4.843a5.613,5.613,0,0,1,.554-2.536A3.96,3.96,0,0,1-.923,17.912a4.791,4.791,0,0,1,2.435-.6,4.373,4.373,0,0,1,3.366,1.323,5.076,5.076,0,0,1,1.23,3.6v.105a4.925,4.925,0,0,1-1.235,3.529,4.384,4.384,0,0,1-3.344,1.305,4.434,4.434,0,0,1-3.261-1.217,4.761,4.761,0,0,1-1.327-3.3Zm2.962.185a3.538,3.538,0,0,0,.413,1.934,1.376,1.376,0,0,0,1.222.615q1.582,0,1.617-2.435v-.3q0-2.558-1.635-2.558Q.026,19.6-.1,21.806Zm13.271-2.171-.976-.07a1.752,1.752,0,0,0-1.793.879V27H7.436V17.49h2.777l.1,1.222a2.294,2.294,0,0,1,2.083-1.4,2.888,2.888,0,0,1,.826.105Zm3.867-2.681.1,1.116a3.27,3.27,0,0,1,2.716-1.292,2.407,2.407,0,0,1,2.435,1.433,3.165,3.165,0,0,1,2.795-1.433q2.892,0,2.971,3.5V27H25.075V21a1.813,1.813,0,0,0-.246-1.063,1.048,1.048,0,0,0-.9-.334,1.4,1.4,0,0,0-1.31.782l.009.123V27H19.661V21.015a1.906,1.906,0,0,0-.237-1.081,1.045,1.045,0,0,0-.905-.334,1.42,1.42,0,0,0-1.3.782V27H14.256V17.49ZM35.095,27a3.344,3.344,0,0,1-.281-.853,2.754,2.754,0,0,1-2.285,1.028,3.374,3.374,0,0,1-2.285-.813,2.588,2.588,0,0,1-.94-2.043,2.66,2.66,0,0,1,1.143-2.338,5.821,5.821,0,0,1,3.322-.791h.914v-.5q0-1.31-1.134-1.31a.925.925,0,0,0-1.055,1.037H29.531A2.659,2.659,0,0,1,30.7,18.176a4.927,4.927,0,0,1,2.993-.861,4.323,4.323,0,0,1,2.874.888,3.086,3.086,0,0,1,1.081,2.435v4.21a4.311,4.311,0,0,0,.4,2V27ZM33.24,25.066a1.652,1.652,0,0,0,.918-.237,1.487,1.487,0,0,0,.523-.536V22.772H33.82q-1.547,0-1.547,1.389a.848.848,0,0,0,.272.655A.986.986,0,0,0,33.24,25.066Zm10.072-.176a1.317,1.317,0,0,0,.967-.338,1.241,1.241,0,0,0,.334-.945h2.777a3.288,3.288,0,0,1-1.121,2.566,4.168,4.168,0,0,1-2.887,1,4.22,4.22,0,0,1-3.27-1.3,5.125,5.125,0,0,1-1.2-3.6v-.123A5.792,5.792,0,0,1,39.45,19.6a3.872,3.872,0,0,1,1.534-1.7,4.573,4.573,0,0,1,2.373-.593A4.116,4.116,0,0,1,46.3,18.343a3.647,3.647,0,0,1,1.09,2.786H44.613A1.626,1.626,0,0,0,44.253,20a1.244,1.244,0,0,0-.967-.4q-1.151,0-1.345,1.468a10.357,10.357,0,0,0-.062,1.283,4.068,4.068,0,0,0,.343,1.986A1.187,1.187,0,0,0,43.313,24.891ZM51.768,27H48.8V17.49h2.971ZM48.621,15.038A1.322,1.322,0,0,1,49.078,14a1.943,1.943,0,0,1,2.373,0,1.405,1.405,0,0,1,0,2.074,1.943,1.943,0,0,1-2.373,0A1.322,1.322,0,0,1,48.621,15.038Zm4.6,7.119a5.613,5.613,0,0,1,.554-2.536,3.96,3.96,0,0,1,1.591-1.709,4.791,4.791,0,0,1,2.435-.6,4.373,4.373,0,0,1,3.366,1.323,5.076,5.076,0,0,1,1.23,3.6v.105a4.925,4.925,0,0,1-1.235,3.529,4.384,4.384,0,0,1-3.344,1.305,4.434,4.434,0,0,1-3.261-1.217,4.761,4.761,0,0,1-1.327-3.3Zm2.962.185a3.538,3.538,0,0,0,.413,1.934,1.376,1.376,0,0,0,1.222.615q1.582,0,1.617-2.435v-.3q0-2.558-1.635-2.558-1.485,0-1.608,2.206ZM58.2,13.5H61.33l-2.443,2.76H56.47Zm8.218,3.99.1,1.116a3.225,3.225,0,0,1,2.716-1.292,2.713,2.713,0,0,1,2.219.888,4.226,4.226,0,0,1,.76,2.672V27H69.24V21a1.6,1.6,0,0,0-.29-1.059A1.342,1.342,0,0,0,67.9,19.6a1.413,1.413,0,0,0-1.292.686V27H63.642V17.49Z" transform="translate(445 4973)" fill="#fff"/>
      <rect id="Rectángulo_44681" data-name="Rectángulo 44681" width="315" height="104" rx="8" transform="translate(643 4928)" fill="#d5cef8"/>
      <path id="Trazado_658471" data-name="Trazado 658471" d="M8.077,14.846H3.013L1.876,18H.232L4.848,5.914H6.242L10.866,18H9.23ZM3.495,13.534H7.6L5.545,7.881Zm8.791,3.661a.962.962,0,0,1,.237-.664.9.9,0,0,1,.71-.266.928.928,0,0,1,.718.266.942.942,0,0,1,.245.664.891.891,0,0,1-.245.639.945.945,0,0,1-.718.257.854.854,0,0,1-.946-.9Zm4.989-5.254.614-6.026h6.192V7.333H19.191l-.365,3.3a3.9,3.9,0,0,1,2.017-.523A3.334,3.334,0,0,1,23.466,11.2a4.278,4.278,0,0,1,.971,2.951,4.129,4.129,0,0,1-1.009,2.943,3.676,3.676,0,0,1-2.818,1.075A3.82,3.82,0,0,1,18,17.278a3.545,3.545,0,0,1-1.154-2.457h1.453a2.439,2.439,0,0,0,.739,1.565,2.3,2.3,0,0,0,1.577.527,2.072,2.072,0,0,0,1.681-.73,3.054,3.054,0,0,0,.61-2.017,2.8,2.8,0,0,0-.66-1.947,2.245,2.245,0,0,0-1.756-.735,2.532,2.532,0,0,0-1.577.44l-.407.332Zm9.031,5.254a.962.962,0,0,1,.237-.664.9.9,0,0,1,.71-.266.928.928,0,0,1,.718.266.942.942,0,0,1,.245.664.891.891,0,0,1-.245.639.945.945,0,0,1-.718.257.854.854,0,0,1-.946-.9Zm9.33.805H34.091V7.765L31,8.9V7.508l4.4-1.652h.241Zm4.69-.805a.962.962,0,0,1,.237-.664.9.9,0,0,1,.71-.266.928.928,0,0,1,.718.266.942.942,0,0,1,.245.664.891.891,0,0,1-.245.639.945.945,0,0,1-.718.257.854.854,0,0,1-.946-.9Zm18.187-4.848a7.476,7.476,0,0,1-.6,3.1,4.527,4.527,0,0,1-1.693,2.021,4.673,4.673,0,0,1-6.8-2,7.174,7.174,0,0,1-.627-3.009v-.872A7.388,7.388,0,0,1,49.4,8.5a4.482,4.482,0,0,1,4.25-2.756,4.685,4.685,0,0,1,2.561.7,4.519,4.519,0,0,1,1.706,2.034,7.513,7.513,0,0,1,.6,3.1Zm-1.585-.78a5.419,5.419,0,0,0-.863-3.3,2.847,2.847,0,0,0-2.416-1.15,2.817,2.817,0,0,0-2.378,1.15,5.308,5.308,0,0,0-.892,3.192v.888a5.427,5.427,0,0,0,.876,3.275,3.069,3.069,0,0,0,4.8.066,5.4,5.4,0,0,0,.872-3.225ZM65,10.4a4.6,4.6,0,0,0-.755-.058,2.024,2.024,0,0,0-2.05,1.287V18H60.662V9.019h1.494l.025,1.038a2.391,2.391,0,0,1,2.142-1.2A1.569,1.569,0,0,1,65,8.969Zm3.08,7.6H66.547V9.019h1.536ZM66.423,6.636a.917.917,0,0,1,.228-.631.857.857,0,0,1,.677-.257.87.87,0,0,1,.681.257.907.907,0,0,1,.232.631.877.877,0,0,1-.232.623.886.886,0,0,1-.681.249.872.872,0,0,1-.677-.249A.886.886,0,0,1,66.423,6.636Zm7.844,11.53a3.924,3.924,0,0,1-2.972-1.2,4.452,4.452,0,0,1-1.146-3.208v-.282a5.39,5.39,0,0,1,.51-2.386,3.982,3.982,0,0,1,1.428-1.644,3.59,3.59,0,0,1,1.988-.594A3.364,3.364,0,0,1,76.8,10.006a5,5,0,0,1,.971,3.3v.639H71.686a3.193,3.193,0,0,0,.776,2.146,2.44,2.44,0,0,0,1.888.818,2.675,2.675,0,0,0,1.378-.332,3.462,3.462,0,0,0,.988-.88l.938.73A3.772,3.772,0,0,1,74.267,18.166Zm-.191-8.052a2.048,2.048,0,0,0-1.561.677,3.288,3.288,0,0,0-.78,1.9h4.5v-.116a2.925,2.925,0,0,0-.631-1.814A1.928,1.928,0,0,0,74.076,10.114ZM81,9.019l.05,1.129a3.273,3.273,0,0,1,2.689-1.295q2.847,0,2.872,3.212V18H85.075V12.057a2.068,2.068,0,0,0-.444-1.436,1.78,1.78,0,0,0-1.357-.465,2.216,2.216,0,0,0-1.312.4,2.706,2.706,0,0,0-.88,1.046V18H79.546V9.019ZM91.01,6.844V9.019h1.677v1.187H91.01v5.57a1.244,1.244,0,0,0,.224.809.944.944,0,0,0,.764.27,3.718,3.718,0,0,0,.73-.1V18a4.452,4.452,0,0,1-1.179.166A1.912,1.912,0,0,1,90,17.543a2.675,2.675,0,0,1-.523-1.768v-5.57H87.839V9.019h1.635V6.844ZM100.024,18a3.226,3.226,0,0,1-.216-.946,3.426,3.426,0,0,1-2.557,1.112,3.17,3.17,0,0,1-2.179-.751,2.43,2.43,0,0,1-.851-1.905,2.539,2.539,0,0,1,1.067-2.179,5.029,5.029,0,0,1,3-.776h1.494v-.706a1.725,1.725,0,0,0-.481-1.282,1.935,1.935,0,0,0-1.419-.477A2.239,2.239,0,0,0,96.5,10.5a1.223,1.223,0,0,0-.556,1H94.4a2.119,2.119,0,0,1,.477-1.3,3.258,3.258,0,0,1,1.295-.992,4.356,4.356,0,0,1,1.8-.365,3.551,3.551,0,0,1,2.432.776,2.8,2.8,0,0,1,.913,2.137V15.9a5.054,5.054,0,0,0,.315,1.967V18Zm-2.548-1.17a2.7,2.7,0,0,0,1.37-.374,2.259,2.259,0,0,0,.938-.971V13.642h-1.2q-2.822,0-2.822,1.652a1.4,1.4,0,0,0,.481,1.129A1.85,1.85,0,0,0,97.476,16.83Zm9.853.083a2.212,2.212,0,0,0,1.436-.5,1.752,1.752,0,0,0,.681-1.245H110.9a2.785,2.785,0,0,1-.531,1.469,3.5,3.5,0,0,1-1.307,1.112,3.772,3.772,0,0,1-1.731.415,3.7,3.7,0,0,1-2.918-1.224,4.877,4.877,0,0,1-1.083-3.349v-.257A5.407,5.407,0,0,1,103.81,11a3.667,3.667,0,0,1,1.382-1.585,3.926,3.926,0,0,1,2.129-.564,3.6,3.6,0,0,1,2.511.9,3.234,3.234,0,0,1,1.067,2.349h-1.453a2.116,2.116,0,0,0-.66-1.432,2.053,2.053,0,0,0-1.465-.56,2.149,2.149,0,0,0-1.814.843,3.957,3.957,0,0,0-.643,2.436v.291a3.878,3.878,0,0,0,.639,2.391A2.16,2.16,0,0,0,107.329,16.913ZM114.293,18h-1.536V9.019h1.536Zm-1.66-11.364a.917.917,0,0,1,.228-.631.857.857,0,0,1,.677-.257.87.87,0,0,1,.681.257.907.907,0,0,1,.232.631.877.877,0,0,1-.232.623.886.886,0,0,1-.681.249.872.872,0,0,1-.677-.249A.886.886,0,0,1,112.633,6.636Zm3.71,6.79a5.3,5.3,0,0,1,.519-2.374,3.87,3.87,0,0,1,1.444-1.627,3.932,3.932,0,0,1,2.113-.573,3.788,3.788,0,0,1,2.968,1.27A4.886,4.886,0,0,1,124.52,13.5v.108a5.351,5.351,0,0,1-.5,2.353,3.813,3.813,0,0,1-1.436,1.623,3.977,3.977,0,0,1-2.146.581,3.778,3.778,0,0,1-2.959-1.27,4.861,4.861,0,0,1-1.133-3.362Zm1.544.183a3.842,3.842,0,0,0,.693,2.4A2.349,2.349,0,0,0,122.3,16a4.2,4.2,0,0,0,.689-2.569,3.836,3.836,0,0,0-.7-2.395,2.23,2.23,0,0,0-1.864-.917,2.205,2.205,0,0,0-1.834.9A4.17,4.17,0,0,0,117.888,13.609Zm3.229-8.359h1.859l-2.225,2.44h-1.237ZM127.9,9.019l.05,1.129a3.273,3.273,0,0,1,2.689-1.295q2.847,0,2.872,3.212V18h-1.536V12.057a2.068,2.068,0,0,0-.444-1.436,1.78,1.78,0,0,0-1.357-.465,2.216,2.216,0,0,0-1.312.4,2.706,2.706,0,0,0-.88,1.046V18h-1.536V9.019Zm11.762,4.416a5.261,5.261,0,0,1,.979-3.324,3.333,3.333,0,0,1,5.063-.178V5.25h1.536V18h-1.411l-.075-.963a3.127,3.127,0,0,1-2.565,1.129,3.068,3.068,0,0,1-2.544-1.278,5.321,5.321,0,0,1-.984-3.337Zm1.536.174A3.984,3.984,0,0,0,141.827,16a2.039,2.039,0,0,0,1.743.863,2.24,2.24,0,0,0,2.133-1.312V11.426a2.257,2.257,0,0,0-2.117-1.27,2.049,2.049,0,0,0-1.76.872A4.386,4.386,0,0,0,141.2,13.609Zm12.152,4.557a3.924,3.924,0,0,1-2.972-1.2,4.452,4.452,0,0,1-1.146-3.208v-.282a5.39,5.39,0,0,1,.51-2.386,3.982,3.982,0,0,1,1.428-1.644,3.59,3.59,0,0,1,1.988-.594,3.364,3.364,0,0,1,2.723,1.154,5,5,0,0,1,.971,3.3v.639h-6.084a3.193,3.193,0,0,0,.776,2.146,2.44,2.44,0,0,0,1.888.818,2.675,2.675,0,0,0,1.378-.332,3.462,3.462,0,0,0,.988-.88l.938.73A3.772,3.772,0,0,1,153.349,18.166Zm-.191-8.052a2.048,2.048,0,0,0-1.561.677,3.288,3.288,0,0,0-.78,1.9h4.5v-.116a2.925,2.925,0,0,0-.631-1.814A1.928,1.928,0,0,0,153.158,10.114ZM164.5,18h-1.536V5.25H164.5Zm8,0a3.226,3.226,0,0,1-.216-.946,3.426,3.426,0,0,1-2.557,1.112,3.17,3.17,0,0,1-2.179-.751,2.43,2.43,0,0,1-.851-1.905,2.539,2.539,0,0,1,1.067-2.179,5.029,5.029,0,0,1,3-.776h1.494v-.706a1.725,1.725,0,0,0-.481-1.282,1.935,1.935,0,0,0-1.419-.477,2.239,2.239,0,0,0-1.378.415,1.223,1.223,0,0,0-.556,1h-1.544a2.119,2.119,0,0,1,.477-1.3,3.258,3.258,0,0,1,1.295-.992,4.356,4.356,0,0,1,1.8-.365,3.551,3.551,0,0,1,2.432.776,2.8,2.8,0,0,1,.913,2.137V15.9a5.054,5.054,0,0,0,.315,1.967V18Zm-2.548-1.17a2.7,2.7,0,0,0,1.37-.374,2.259,2.259,0,0,0,.938-.971V13.642h-1.2q-2.822,0-2.822,1.652a1.4,1.4,0,0,0,.481,1.129A1.85,1.85,0,0,0,169.958,16.83Zm10.7,1.17V5.914h3.412a5.492,5.492,0,0,1,2.789.7A4.716,4.716,0,0,1,188.731,8.6a6.457,6.457,0,0,1,.668,2.955v.772a6.48,6.48,0,0,1-.66,3,4.642,4.642,0,0,1-1.884,1.976A5.842,5.842,0,0,1,184,18Zm1.594-10.774V16.7h1.677a3.65,3.65,0,0,0,2.868-1.146,4.73,4.73,0,0,0,1.025-3.262v-.706a4.8,4.8,0,0,0-.967-3.2,3.443,3.443,0,0,0-2.743-1.158ZM193.234,18H191.7V9.019h1.536Zm-1.66-11.364a.917.917,0,0,1,.228-.631.857.857,0,0,1,.677-.257.87.87,0,0,1,.681.257.907.907,0,0,1,.232.631.877.877,0,0,1-.232.623.886.886,0,0,1-.681.249.872.872,0,0,1-.677-.249A.886.886,0,0,1,191.574,6.636Zm8.458,3.76a4.6,4.6,0,0,0-.755-.058,2.024,2.024,0,0,0-2.05,1.287V18h-1.536V9.019h1.494l.025,1.038a2.391,2.391,0,0,1,2.142-1.2,1.569,1.569,0,0,1,.681.116Zm5.138,7.77a3.924,3.924,0,0,1-2.972-1.2,4.452,4.452,0,0,1-1.146-3.208v-.282a5.39,5.39,0,0,1,.51-2.386,3.982,3.982,0,0,1,1.428-1.644,3.59,3.59,0,0,1,1.988-.594,3.364,3.364,0,0,1,2.723,1.154,5,5,0,0,1,.971,3.3v.639h-6.084a3.193,3.193,0,0,0,.776,2.146,2.44,2.44,0,0,0,1.888.818,2.675,2.675,0,0,0,1.378-.332,3.462,3.462,0,0,0,.988-.88l.938.73A3.772,3.772,0,0,1,205.17,18.166Zm-.191-8.052a2.048,2.048,0,0,0-1.561.677,3.288,3.288,0,0,0-.78,1.9h4.5v-.116a2.925,2.925,0,0,0-.631-1.814A1.928,1.928,0,0,0,204.979,10.114Zm9.073,6.8a2.212,2.212,0,0,0,1.436-.5,1.752,1.752,0,0,0,.681-1.245h1.453a2.785,2.785,0,0,1-.531,1.469,3.5,3.5,0,0,1-1.307,1.112,3.772,3.772,0,0,1-1.731.415,3.7,3.7,0,0,1-2.918-1.224,4.877,4.877,0,0,1-1.083-3.349v-.257A5.407,5.407,0,0,1,210.533,11a3.667,3.667,0,0,1,1.382-1.585,3.926,3.926,0,0,1,2.129-.564,3.6,3.6,0,0,1,2.511.9,3.234,3.234,0,0,1,1.067,2.349h-1.453a2.116,2.116,0,0,0-.66-1.432,2.053,2.053,0,0,0-1.465-.56,2.149,2.149,0,0,0-1.814.843,3.957,3.957,0,0,0-.643,2.436v.291a3.878,3.878,0,0,0,.639,2.391A2.16,2.16,0,0,0,214.052,16.913Zm8.9,0a2.212,2.212,0,0,0,1.436-.5,1.752,1.752,0,0,0,.681-1.245h1.453a2.785,2.785,0,0,1-.531,1.469,3.5,3.5,0,0,1-1.307,1.112,3.772,3.772,0,0,1-1.731.415,3.7,3.7,0,0,1-2.918-1.224,4.877,4.877,0,0,1-1.083-3.349v-.257A5.407,5.407,0,0,1,219.431,11a3.667,3.667,0,0,1,1.382-1.585,3.926,3.926,0,0,1,2.129-.564,3.6,3.6,0,0,1,2.511.9,3.234,3.234,0,0,1,1.067,2.349h-1.453a2.116,2.116,0,0,0-.66-1.432,2.053,2.053,0,0,0-1.465-.56,2.149,2.149,0,0,0-1.814.843,3.957,3.957,0,0,0-.643,2.436v.291a3.878,3.878,0,0,0,.639,2.391A2.16,2.16,0,0,0,222.951,16.913ZM229.915,18h-1.536V9.019h1.536Zm-1.66-11.364a.917.917,0,0,1,.228-.631.857.857,0,0,1,.677-.257.87.87,0,0,1,.681.257.907.907,0,0,1,.232.631.877.877,0,0,1-.232.623.886.886,0,0,1-.681.249.872.872,0,0,1-.677-.249A.886.886,0,0,1,228.255,6.636Zm3.71,6.79a5.3,5.3,0,0,1,.519-2.374,3.87,3.87,0,0,1,1.444-1.627,3.932,3.932,0,0,1,2.113-.573,3.788,3.788,0,0,1,2.968,1.27,4.886,4.886,0,0,1,1.133,3.378v.108a5.351,5.351,0,0,1-.5,2.353,3.813,3.813,0,0,1-1.436,1.623,3.977,3.977,0,0,1-2.146.581A3.778,3.778,0,0,1,233.1,16.9a4.861,4.861,0,0,1-1.133-3.362Zm1.544.183a3.842,3.842,0,0,0,.693,2.4A2.349,2.349,0,0,0,237.917,16a4.2,4.2,0,0,0,.689-2.569,3.836,3.836,0,0,0-.7-2.395,2.23,2.23,0,0,0-1.864-.917,2.205,2.205,0,0,0-1.834.9A4.17,4.17,0,0,0,233.509,13.609Zm3.229-8.359H238.6l-2.225,2.44h-1.237Zm6.782,3.769.05,1.129a3.273,3.273,0,0,1,2.689-1.295q2.847,0,2.872,3.212V18H247.6V12.057a2.068,2.068,0,0,0-.444-1.436,1.78,1.78,0,0,0-1.357-.465,2.216,2.216,0,0,0-1.312.4,2.706,2.706,0,0,0-.88,1.046V18h-1.536V9.019ZM8.749,37.609a5.378,5.378,0,0,1-.938,3.3,3.006,3.006,0,0,1-2.54,1.253A3.294,3.294,0,0,1,2.7,41.128v4.325H1.162V33.019h1.4l.075,1a3.163,3.163,0,0,1,2.606-1.162,3.063,3.063,0,0,1,2.561,1.22,5.437,5.437,0,0,1,.942,3.4Zm-1.536-.174a3.968,3.968,0,0,0-.647-2.4,2.086,2.086,0,0,0-1.776-.88A2.257,2.257,0,0,0,2.7,35.393v4.292a2.262,2.262,0,0,0,2.108,1.229,2.076,2.076,0,0,0,1.756-.876A4.332,4.332,0,0,0,7.213,37.435ZM16.245,42a3.226,3.226,0,0,1-.216-.946,3.426,3.426,0,0,1-2.557,1.112,3.17,3.17,0,0,1-2.179-.751,2.43,2.43,0,0,1-.851-1.905,2.539,2.539,0,0,1,1.067-2.179,5.029,5.029,0,0,1,3-.776H16v-.706a1.725,1.725,0,0,0-.481-1.282,1.935,1.935,0,0,0-1.419-.477,2.239,2.239,0,0,0-1.378.415,1.223,1.223,0,0,0-.556,1H10.625a2.119,2.119,0,0,1,.477-1.3,3.258,3.258,0,0,1,1.295-.992,4.356,4.356,0,0,1,1.8-.365,3.551,3.551,0,0,1,2.432.776,2.8,2.8,0,0,1,.913,2.137V39.9a5.054,5.054,0,0,0,.315,1.967V42ZM13.7,40.83a2.7,2.7,0,0,0,1.37-.374A2.259,2.259,0,0,0,16,39.485V37.642H14.8q-2.822,0-2.822,1.652a1.4,1.4,0,0,0,.481,1.129A1.85,1.85,0,0,0,13.7,40.83ZM24.288,34.4a4.6,4.6,0,0,0-.755-.058,2.024,2.024,0,0,0-2.05,1.287V42H19.947V33.019h1.494l.025,1.038a2.391,2.391,0,0,1,2.142-1.2,1.569,1.569,0,0,1,.681.116ZM30.912,42a3.226,3.226,0,0,1-.216-.946,3.426,3.426,0,0,1-2.557,1.112,3.17,3.17,0,0,1-2.179-.751,2.43,2.43,0,0,1-.851-1.905,2.539,2.539,0,0,1,1.067-2.179,5.029,5.029,0,0,1,3-.776h1.494v-.706a1.725,1.725,0,0,0-.481-1.282,1.935,1.935,0,0,0-1.419-.477,2.239,2.239,0,0,0-1.378.415,1.223,1.223,0,0,0-.556,1H25.292a2.119,2.119,0,0,1,.477-1.3,3.258,3.258,0,0,1,1.295-.992,4.356,4.356,0,0,1,1.8-.365,3.551,3.551,0,0,1,2.432.776,2.8,2.8,0,0,1,.913,2.137V39.9a5.054,5.054,0,0,0,.315,1.967V42Zm-2.548-1.17a2.7,2.7,0,0,0,1.37-.374,2.259,2.259,0,0,0,.938-.971V37.642h-1.2q-2.822,0-2.822,1.652a1.4,1.4,0,0,0,.481,1.129A1.85,1.85,0,0,0,28.364,40.83ZM40.491,42H38.956V29.25h1.536Zm8,0a3.226,3.226,0,0,1-.216-.946,3.426,3.426,0,0,1-2.557,1.112,3.17,3.17,0,0,1-2.179-.751,2.43,2.43,0,0,1-.851-1.905,2.539,2.539,0,0,1,1.067-2.179,5.029,5.029,0,0,1,3-.776h1.494v-.706a1.725,1.725,0,0,0-.481-1.282,1.935,1.935,0,0,0-1.419-.477,2.239,2.239,0,0,0-1.378.415,1.223,1.223,0,0,0-.556,1H42.874a2.119,2.119,0,0,1,.477-1.3,3.258,3.258,0,0,1,1.295-.992,4.356,4.356,0,0,1,1.8-.365,3.551,3.551,0,0,1,2.432.776,2.8,2.8,0,0,1,.913,2.137V39.9a5.054,5.054,0,0,0,.315,1.967V42Zm-2.548-1.17a2.7,2.7,0,0,0,1.37-.374,2.259,2.259,0,0,0,.938-.971V37.642h-1.2q-2.822,0-2.822,1.652a1.4,1.4,0,0,0,.481,1.129A1.85,1.85,0,0,0,45.945,40.83Zm19.623-.415a3.682,3.682,0,0,1-1.714,1.316,6.924,6.924,0,0,1-2.561.436,4.966,4.966,0,0,1-2.623-.693A4.618,4.618,0,0,1,56.9,39.5a6.809,6.809,0,0,1-.643-2.963V35.484a6.356,6.356,0,0,1,1.274-4.233,4.44,4.44,0,0,1,3.582-1.5,4.586,4.586,0,0,1,3.046.967,4.213,4.213,0,0,1,1.411,2.743H63.974a2.633,2.633,0,0,0-2.855-2.4,2.822,2.822,0,0,0-2.428,1.125,5.488,5.488,0,0,0-.834,3.258v.988a5.144,5.144,0,0,0,.93,3.233,3.014,3.014,0,0,0,2.515,1.2,5.543,5.543,0,0,0,1.569-.2,2.425,2.425,0,0,0,1.112-.672V37.277h-2.8V35.982h4.383Zm6.143,1.751a3.924,3.924,0,0,1-2.972-1.2,4.452,4.452,0,0,1-1.146-3.208v-.282a5.39,5.39,0,0,1,.51-2.386,3.982,3.982,0,0,1,1.428-1.644,3.59,3.59,0,0,1,1.988-.594,3.364,3.364,0,0,1,2.723,1.154,5,5,0,0,1,.971,3.3v.639H69.129a3.193,3.193,0,0,0,.776,2.146,2.44,2.44,0,0,0,1.888.818,2.675,2.675,0,0,0,1.378-.332,3.462,3.462,0,0,0,.988-.88l.938.73A3.772,3.772,0,0,1,71.71,42.166Zm-.191-8.052a2.048,2.048,0,0,0-1.561.677,3.288,3.288,0,0,0-.78,1.9h4.5v-.116a2.925,2.925,0,0,0-.631-1.814A1.928,1.928,0,0,0,71.52,34.114Zm10.7,5.5a1.131,1.131,0,0,0-.469-.967,4.514,4.514,0,0,0-1.635-.594,7.731,7.731,0,0,1-1.851-.6,2.633,2.633,0,0,1-1.013-.83,1.986,1.986,0,0,1-.328-1.146,2.33,2.33,0,0,1,.934-1.868,3.647,3.647,0,0,1,2.386-.764,3.753,3.753,0,0,1,2.478.789,2.5,2.5,0,0,1,.95,2.017H82.128a1.386,1.386,0,0,0-.535-1.087,2.006,2.006,0,0,0-1.349-.457,2.1,2.1,0,0,0-1.312.365,1.15,1.15,0,0,0-.473.955.932.932,0,0,0,.44.838,5.413,5.413,0,0,0,1.59.54,8.283,8.283,0,0,1,1.864.614,2.718,2.718,0,0,1,1.058.859,2.112,2.112,0,0,1,.344,1.224,2.3,2.3,0,0,1-.963,1.93,4.039,4.039,0,0,1-2.5.726,4.523,4.523,0,0,1-1.909-.382,3.105,3.105,0,0,1-1.3-1.067,2.571,2.571,0,0,1-.469-1.482h1.536a1.59,1.59,0,0,0,.618,1.224,2.4,2.4,0,0,0,1.523.452,2.476,2.476,0,0,0,1.4-.353A1.084,1.084,0,0,0,82.219,39.618Zm5.62-8.774v2.175h1.677v1.187H87.839v5.57a1.244,1.244,0,0,0,.224.809.944.944,0,0,0,.764.27,3.718,3.718,0,0,0,.73-.1V42a4.452,4.452,0,0,1-1.179.166,1.912,1.912,0,0,1-1.552-.623,2.675,2.675,0,0,1-.523-1.768v-5.57H84.668V33.019H86.3V30.844ZM92.977,42H91.441V33.019h1.536Zm-1.66-11.364a.917.917,0,0,1,.228-.631.857.857,0,0,1,.677-.257.87.87,0,0,1,.681.257.907.907,0,0,1,.232.631.877.877,0,0,1-.232.623.886.886,0,0,1-.681.249.872.872,0,0,1-.677-.249A.886.886,0,0,1,91.317,30.636Zm3.71,6.79a5.3,5.3,0,0,1,.519-2.374,3.87,3.87,0,0,1,1.444-1.627,3.932,3.932,0,0,1,2.113-.573,3.788,3.788,0,0,1,2.968,1.27A4.886,4.886,0,0,1,103.2,37.5v.108a5.351,5.351,0,0,1-.5,2.353,3.813,3.813,0,0,1-1.436,1.623,3.977,3.977,0,0,1-2.146.581A3.778,3.778,0,0,1,96.16,40.9a4.861,4.861,0,0,1-1.133-3.362Zm1.544.183a3.842,3.842,0,0,0,.693,2.4A2.349,2.349,0,0,0,100.979,40a4.2,4.2,0,0,0,.689-2.569,3.836,3.836,0,0,0-.7-2.395,2.23,2.23,0,0,0-1.864-.917,2.205,2.205,0,0,0-1.834.9A4.17,4.17,0,0,0,96.571,37.609ZM99.8,29.25h1.859l-2.225,2.44H98.2Zm6.782,3.769.05,1.129a3.273,3.273,0,0,1,2.689-1.295q2.847,0,2.872,3.212V42h-1.536V36.057a2.068,2.068,0,0,0-.444-1.436,1.78,1.78,0,0,0-1.357-.465,2.216,2.216,0,0,0-1.312.4,2.706,2.706,0,0,0-.88,1.046V42h-1.536V33.019Zm11.762,4.416a5.261,5.261,0,0,1,.979-3.324,3.333,3.333,0,0,1,5.063-.178V29.25h1.536V42h-1.411l-.075-.963a3.127,3.127,0,0,1-2.565,1.129,3.068,3.068,0,0,1-2.544-1.278,5.321,5.321,0,0,1-.984-3.337Zm1.536.174A3.984,3.984,0,0,0,120.511,40a2.039,2.039,0,0,0,1.743.863,2.24,2.24,0,0,0,2.133-1.312V35.426a2.257,2.257,0,0,0-2.117-1.27,2.049,2.049,0,0,0-1.76.872A4.386,4.386,0,0,0,119.88,37.609Zm12.152,4.557a3.924,3.924,0,0,1-2.972-1.2,4.452,4.452,0,0,1-1.146-3.208v-.282a5.39,5.39,0,0,1,.51-2.386,3.982,3.982,0,0,1,1.428-1.644,3.59,3.59,0,0,1,1.988-.594,3.364,3.364,0,0,1,2.723,1.154,5,5,0,0,1,.971,3.3v.639h-6.084a3.193,3.193,0,0,0,.776,2.146,2.44,2.44,0,0,0,1.888.818,2.675,2.675,0,0,0,1.378-.332,3.462,3.462,0,0,0,.988-.88l.938.73A3.772,3.772,0,0,1,132.032,42.166Zm-.191-8.052a2.048,2.048,0,0,0-1.561.677,3.288,3.288,0,0,0-.78,1.9H134v-.116a2.925,2.925,0,0,0-.631-1.814A1.928,1.928,0,0,0,131.841,34.114ZM143.188,42h-1.536V29.25h1.536Zm8,0a3.226,3.226,0,0,1-.216-.946,3.426,3.426,0,0,1-2.557,1.112,3.17,3.17,0,0,1-2.179-.751,2.43,2.43,0,0,1-.851-1.905,2.539,2.539,0,0,1,1.067-2.179,5.029,5.029,0,0,1,3-.776h1.494v-.706a1.725,1.725,0,0,0-.481-1.282,1.935,1.935,0,0,0-1.419-.477,2.239,2.239,0,0,0-1.378.415,1.223,1.223,0,0,0-.556,1h-1.544a2.119,2.119,0,0,1,.477-1.3,3.258,3.258,0,0,1,1.295-.992,4.356,4.356,0,0,1,1.8-.365,3.551,3.551,0,0,1,2.432.776,2.8,2.8,0,0,1,.913,2.137V39.9a5.054,5.054,0,0,0,.315,1.967V42Zm-2.548-1.17a2.7,2.7,0,0,0,1.37-.374,2.259,2.259,0,0,0,.938-.971V37.642h-1.2q-2.822,0-2.822,1.652a1.4,1.4,0,0,0,.481,1.129A1.85,1.85,0,0,0,148.642,40.83ZM162.9,36.613a7.494,7.494,0,0,1-2.984-1.448,2.768,2.768,0,0,1-.934-2.121,2.923,2.923,0,0,1,1.141-2.362,4.536,4.536,0,0,1,2.968-.934,4.951,4.951,0,0,1,2.22.481,3.651,3.651,0,0,1,1.511,1.328,3.4,3.4,0,0,1,.535,1.851h-1.6a2.2,2.2,0,0,0-.7-1.722,2.842,2.842,0,0,0-1.967-.627,2.907,2.907,0,0,0-1.839.519,1.729,1.729,0,0,0-.66,1.44,1.556,1.556,0,0,0,.627,1.249,6.152,6.152,0,0,0,2.133.934,9.879,9.879,0,0,1,2.357.934,3.577,3.577,0,0,1,1.262,1.191,3.04,3.04,0,0,1,.411,1.6,2.824,2.824,0,0,1-1.146,2.353,4.884,4.884,0,0,1-3.063.884,5.681,5.681,0,0,1-2.324-.477,3.911,3.911,0,0,1-1.664-1.307A3.191,3.191,0,0,1,158.6,38.5h1.6a2.082,2.082,0,0,0,.809,1.731,3.408,3.408,0,0,0,2.162.635,3.133,3.133,0,0,0,1.934-.515,1.672,1.672,0,0,0,.672-1.4,1.641,1.641,0,0,0-.623-1.374A7.178,7.178,0,0,0,162.9,36.613Zm10.011,5.553a3.924,3.924,0,0,1-2.972-1.2,4.452,4.452,0,0,1-1.146-3.208v-.282a5.39,5.39,0,0,1,.51-2.386,3.982,3.982,0,0,1,1.428-1.644,3.59,3.59,0,0,1,1.988-.594,3.364,3.364,0,0,1,2.723,1.154,5,5,0,0,1,.971,3.3v.639h-6.084a3.193,3.193,0,0,0,.776,2.146,2.44,2.44,0,0,0,1.888.818,2.675,2.675,0,0,0,1.378-.332,3.462,3.462,0,0,0,.988-.88l.938.73A3.772,3.772,0,0,1,172.914,42.166Zm-.191-8.052a2.048,2.048,0,0,0-1.561.677,3.288,3.288,0,0,0-.78,1.9h4.5v-.116a2.925,2.925,0,0,0-.631-1.814A1.928,1.928,0,0,0,172.723,34.114Zm5.1,3.32a5.279,5.279,0,0,1,.971-3.341,3.348,3.348,0,0,1,5.138-.079l.075-1h1.4v8.766a3.654,3.654,0,0,1-1.033,2.748,3.814,3.814,0,0,1-2.777,1,4.619,4.619,0,0,1-1.9-.415,3.272,3.272,0,0,1-1.419-1.137l.8-.921a3,3,0,0,0,2.416,1.22,2.353,2.353,0,0,0,1.747-.631,2.411,2.411,0,0,0,.627-1.776V41.1a3.156,3.156,0,0,1-2.515,1.063A3.068,3.068,0,0,1,178.8,40.9,5.55,5.55,0,0,1,177.828,37.435Zm1.544.174A4.027,4.027,0,0,0,179.994,40a2.023,2.023,0,0,0,1.743.867,2.249,2.249,0,0,0,2.133-1.32v-4.1a2.276,2.276,0,0,0-2.117-1.287,2.041,2.041,0,0,0-1.751.872A4.386,4.386,0,0,0,179.372,37.609Zm13.9,3.5a3.262,3.262,0,0,1-2.631,1.054,2.792,2.792,0,0,1-2.187-.834,3.611,3.611,0,0,1-.76-2.469V33.019h1.536v5.8q0,2.042,1.66,2.042a2.3,2.3,0,0,0,2.341-1.312V33.019h1.536V42h-1.461Zm8.168-6.715a4.6,4.6,0,0,0-.755-.058,2.024,2.024,0,0,0-2.05,1.287V42H197.1V33.019H198.6l.025,1.038a2.391,2.391,0,0,1,2.142-1.2,1.569,1.569,0,0,1,.681.116Zm3.08,7.6h-1.536V33.019h1.536Zm-1.66-11.364a.917.917,0,0,1,.228-.631.857.857,0,0,1,.677-.257.87.87,0,0,1,.681.257.907.907,0,0,1,.232.631.877.877,0,0,1-.232.623.886.886,0,0,1-.681.249.872.872,0,0,1-.677-.249A.886.886,0,0,1,202.863,30.636Zm3.744,6.8a5.261,5.261,0,0,1,.979-3.324,3.333,3.333,0,0,1,5.063-.178V29.25h1.536V42h-1.411l-.075-.963a3.127,3.127,0,0,1-2.565,1.129,3.068,3.068,0,0,1-2.544-1.278,5.321,5.321,0,0,1-.984-3.337Zm1.536.174A3.984,3.984,0,0,0,208.773,40a2.039,2.039,0,0,0,1.743.863,2.24,2.24,0,0,0,2.133-1.312V35.426a2.257,2.257,0,0,0-2.117-1.27,2.049,2.049,0,0,0-1.76.872A4.386,4.386,0,0,0,208.142,37.609ZM222.112,42a3.226,3.226,0,0,1-.216-.946,3.426,3.426,0,0,1-2.557,1.112,3.17,3.17,0,0,1-2.179-.751,2.43,2.43,0,0,1-.851-1.905,2.539,2.539,0,0,1,1.067-2.179,5.029,5.029,0,0,1,3-.776h1.494v-.706a1.725,1.725,0,0,0-.481-1.282,1.935,1.935,0,0,0-1.419-.477,2.239,2.239,0,0,0-1.378.415,1.223,1.223,0,0,0-.556,1h-1.544a2.119,2.119,0,0,1,.477-1.3,3.258,3.258,0,0,1,1.295-.992,4.356,4.356,0,0,1,1.8-.365,3.551,3.551,0,0,1,2.432.776,2.8,2.8,0,0,1,.913,2.137V39.9a5.054,5.054,0,0,0,.315,1.967V42Zm-2.548-1.17a2.7,2.7,0,0,0,1.37-.374,2.259,2.259,0,0,0,.938-.971V37.642h-1.2q-2.822,0-2.822,1.652a1.4,1.4,0,0,0,.481,1.129A1.85,1.85,0,0,0,219.564,40.83Zm5.877-3.4a5.261,5.261,0,0,1,.979-3.324,3.333,3.333,0,0,1,5.063-.178V29.25h1.536V42h-1.411l-.075-.963a3.127,3.127,0,0,1-2.565,1.129,3.068,3.068,0,0,1-2.544-1.278,5.321,5.321,0,0,1-.984-3.337Zm1.536.174A3.984,3.984,0,0,0,227.607,40a2.039,2.039,0,0,0,1.743.863,2.24,2.24,0,0,0,2.133-1.312V35.426a2.257,2.257,0,0,0-2.117-1.27,2.049,2.049,0,0,0-1.76.872A4.386,4.386,0,0,0,226.977,37.609Zm12.26-.174a5.261,5.261,0,0,1,.979-3.324,3.333,3.333,0,0,1,5.063-.178V29.25h1.536V42H245.4l-.075-.963a3.127,3.127,0,0,1-2.565,1.129,3.068,3.068,0,0,1-2.544-1.278,5.321,5.321,0,0,1-.984-3.337Zm1.536.174A3.984,3.984,0,0,0,241.4,40a2.039,2.039,0,0,0,1.743.863,2.24,2.24,0,0,0,2.133-1.312V35.426a2.257,2.257,0,0,0-2.117-1.27,2.049,2.049,0,0,0-1.76.872A4.386,4.386,0,0,0,240.772,37.609Zm12.152,4.557a3.924,3.924,0,0,1-2.972-1.2,4.452,4.452,0,0,1-1.146-3.208v-.282a5.39,5.39,0,0,1,.51-2.386,3.982,3.982,0,0,1,1.428-1.644,3.59,3.59,0,0,1,1.988-.594,3.364,3.364,0,0,1,2.723,1.154,5,5,0,0,1,.971,3.3v.639h-6.084a3.193,3.193,0,0,0,.776,2.146,2.44,2.44,0,0,0,1.888.818,2.675,2.675,0,0,0,1.378-.332,3.462,3.462,0,0,0,.988-.88l.938.73A3.772,3.772,0,0,1,252.925,42.166Zm-.191-8.052a2.048,2.048,0,0,0-1.561.677,3.288,3.288,0,0,0-.78,1.9h4.5v-.116a2.925,2.925,0,0,0-.631-1.814A1.928,1.928,0,0,0,252.734,34.114ZM2.831,66H1.295V53.25H2.831Zm8,0a3.226,3.226,0,0,1-.216-.946A3.426,3.426,0,0,1,8.06,66.166a3.17,3.17,0,0,1-2.179-.751A2.43,2.43,0,0,1,5.03,63.51,2.539,2.539,0,0,1,6.1,61.331a5.029,5.029,0,0,1,3-.776h1.494v-.706a1.725,1.725,0,0,0-.481-1.282,1.935,1.935,0,0,0-1.419-.477,2.239,2.239,0,0,0-1.378.415,1.223,1.223,0,0,0-.556,1H5.213a2.119,2.119,0,0,1,.477-1.3,3.258,3.258,0,0,1,1.295-.992,4.356,4.356,0,0,1,1.8-.365,3.551,3.551,0,0,1,2.432.776,2.8,2.8,0,0,1,.913,2.137V63.9a5.054,5.054,0,0,0,.315,1.967V66ZM8.284,64.83a2.7,2.7,0,0,0,1.37-.374,2.259,2.259,0,0,0,.938-.971V61.642h-1.2q-2.822,0-2.822,1.652a1.4,1.4,0,0,0,.481,1.129A1.85,1.85,0,0,0,8.284,64.83ZM20.412,66H18.876V57.019h1.536Zm-1.66-11.364a.917.917,0,0,1,.228-.631.857.857,0,0,1,.677-.257.87.87,0,0,1,.681.257.907.907,0,0,1,.232.631.877.877,0,0,1-.232.623.886.886,0,0,1-.681.249.872.872,0,0,1-.677-.249A.886.886,0,0,1,18.751,54.636Zm5.57,2.382.05,1.129a3.273,3.273,0,0,1,2.689-1.295q2.847,0,2.872,3.212V66H28.4V60.057a2.068,2.068,0,0,0-.444-1.436,1.78,1.78,0,0,0-1.357-.465,2.216,2.216,0,0,0-1.312.4A2.706,2.706,0,0,0,24.4,59.6V66H22.869V57.019ZM33,66V58.206H31.584V57.019H33V56.1a3.058,3.058,0,0,1,.772-2.233,2.916,2.916,0,0,1,2.183-.789,4.03,4.03,0,0,1,1.054.141l-.083,1.245a4.41,4.41,0,0,0-.83-.075,1.5,1.5,0,0,0-1.154.436,1.764,1.764,0,0,0-.407,1.249v.946h1.917v1.187H34.54V66Zm4.74-4.574a5.3,5.3,0,0,1,.519-2.374,3.87,3.87,0,0,1,1.444-1.627,3.932,3.932,0,0,1,2.113-.573,3.788,3.788,0,0,1,2.968,1.27A4.886,4.886,0,0,1,45.92,61.5v.108a5.351,5.351,0,0,1-.5,2.353,3.813,3.813,0,0,1-1.436,1.623,3.977,3.977,0,0,1-2.146.581,3.778,3.778,0,0,1-2.959-1.27,4.861,4.861,0,0,1-1.133-3.362Zm1.544.183a3.842,3.842,0,0,0,.693,2.4A2.349,2.349,0,0,0,43.7,64a4.2,4.2,0,0,0,.689-2.569,3.836,3.836,0,0,0-.7-2.395,2.23,2.23,0,0,0-1.864-.917,2.205,2.205,0,0,0-1.834.9A4.17,4.17,0,0,0,39.288,61.609Zm12.9-3.212a4.6,4.6,0,0,0-.755-.058,2.024,2.024,0,0,0-2.05,1.287V66H47.846V57.019H49.34l.025,1.038a2.391,2.391,0,0,1,2.142-1.2,1.569,1.569,0,0,1,.681.116Zm2.855-1.378.042,1a3.317,3.317,0,0,1,2.665-1.162A2.568,2.568,0,0,1,60.313,58.3a3.4,3.4,0,0,1,1.166-1.046,3.445,3.445,0,0,1,1.7-.4q2.955,0,3,3.129V66H64.646V60.073a2.062,2.062,0,0,0-.44-1.44,1.937,1.937,0,0,0-1.478-.477,2.036,2.036,0,0,0-1.419.51,2.071,2.071,0,0,0-.656,1.374V66H59.11V60.115a1.713,1.713,0,0,0-1.917-1.959,2.055,2.055,0,0,0-2.067,1.287V66H53.59V57.019Zm19,8.981a3.226,3.226,0,0,1-.216-.946,3.426,3.426,0,0,1-2.557,1.112,3.17,3.17,0,0,1-2.179-.751,2.43,2.43,0,0,1-.851-1.905,2.539,2.539,0,0,1,1.067-2.179,5.029,5.029,0,0,1,3-.776H73.8v-.706a1.725,1.725,0,0,0-.481-1.282,1.935,1.935,0,0,0-1.419-.477,2.239,2.239,0,0,0-1.378.415,1.223,1.223,0,0,0-.556,1H68.423a2.119,2.119,0,0,1,.477-1.3,3.258,3.258,0,0,1,1.295-.992,4.356,4.356,0,0,1,1.8-.365,3.551,3.551,0,0,1,2.432.776,2.8,2.8,0,0,1,.913,2.137V63.9a5.054,5.054,0,0,0,.315,1.967V66Zm-2.548-1.17a2.7,2.7,0,0,0,1.37-.374,2.259,2.259,0,0,0,.938-.971V61.642H72.6q-2.822,0-2.822,1.652a1.4,1.4,0,0,0,.481,1.129A1.85,1.85,0,0,0,71.495,64.83Zm9.853.083a2.212,2.212,0,0,0,1.436-.5,1.752,1.752,0,0,0,.681-1.245h1.453a2.785,2.785,0,0,1-.531,1.469,3.5,3.5,0,0,1-1.307,1.112,3.772,3.772,0,0,1-1.731.415,3.7,3.7,0,0,1-2.918-1.224,4.877,4.877,0,0,1-1.083-3.349v-.257A5.407,5.407,0,0,1,77.828,59a3.667,3.667,0,0,1,1.382-1.585,3.926,3.926,0,0,1,2.129-.564,3.6,3.6,0,0,1,2.511.9,3.234,3.234,0,0,1,1.067,2.349H83.464a2.116,2.116,0,0,0-.66-1.432,2.053,2.053,0,0,0-1.465-.56,2.149,2.149,0,0,0-1.814.843,3.957,3.957,0,0,0-.643,2.436v.291a3.878,3.878,0,0,0,.639,2.391A2.16,2.16,0,0,0,81.348,64.913ZM88.312,66H86.776V57.019h1.536Zm-1.66-11.364a.917.917,0,0,1,.228-.631.857.857,0,0,1,.677-.257.87.87,0,0,1,.681.257.907.907,0,0,1,.232.631.877.877,0,0,1-.232.623.886.886,0,0,1-.681.249.872.872,0,0,1-.677-.249A.886.886,0,0,1,86.652,54.636Zm3.71,6.79a5.3,5.3,0,0,1,.519-2.374,3.87,3.87,0,0,1,1.444-1.627,3.932,3.932,0,0,1,2.113-.573,3.788,3.788,0,0,1,2.968,1.27A4.886,4.886,0,0,1,98.539,61.5v.108a5.351,5.351,0,0,1-.5,2.353A3.813,3.813,0,0,1,96.6,65.585a3.977,3.977,0,0,1-2.146.581A3.778,3.778,0,0,1,91.5,64.9a4.861,4.861,0,0,1-1.133-3.362Zm1.544.183a3.842,3.842,0,0,0,.693,2.4A2.349,2.349,0,0,0,96.314,64,4.2,4.2,0,0,0,97,61.426a3.836,3.836,0,0,0-.7-2.395,2.23,2.23,0,0,0-1.864-.917,2.205,2.205,0,0,0-1.834.9A4.17,4.17,0,0,0,91.906,61.609Zm3.229-8.359h1.859L94.77,55.69H93.533Zm6.782,3.769.05,1.129a3.273,3.273,0,0,1,2.689-1.295q2.847,0,2.872,3.212V66h-1.536V60.057a2.068,2.068,0,0,0-.444-1.436,1.78,1.78,0,0,0-1.357-.465,2.216,2.216,0,0,0-1.312.4A2.706,2.706,0,0,0,102,59.6V66h-1.536V57.019Z" transform="translate(664 4946)" fill="#12263f"/>
      <path id="Trazado_599134" data-name="Trazado 599134" d="M-4315-6730h147" transform="translate(5273 11710.5)" fill="none" stroke="#36257b" stroke-width="2"/>
      <path id="Trazado_599135" data-name="Trazado 599135" d="M-4315-6730h43" transform="translate(4915 11710.5)" fill="none" stroke="#36257b" stroke-width="2"/>
      <path id="Trazado_599136" data-name="Trazado 599136" d="M-4168-6665v-145.815" transform="translate(5273 11718.314)" fill="none" stroke="#36257b" stroke-width="2"/>
      <g id="Rectángulo_44682" data-name="Rectángulo 44682" transform="translate(1000 4822)" fill="#fff" stroke="#1dbbd2" stroke-width="2">
        <rect width="315" height="86" rx="8" stroke="none"/>
        <rect x="1" y="1" width="313" height="84" rx="7" fill="none"/>
      </g>
      <g id="Rectángulo_44683" data-name="Rectángulo 44683" transform="translate(1000 5053)" fill="#fff" stroke="#1dbbd2" stroke-width="2">
        <rect width="315" height="87" rx="8" stroke="none"/>
        <rect x="1" y="1" width="313" height="85" rx="7" fill="none"/>
      </g>
      <path id="Trazado_658472" data-name="Trazado 658472" d="M8.077,14.846H3.013L1.876,18H.232L4.848,5.914H6.242L10.866,18H9.23ZM3.495,13.534H7.6L5.545,7.881Zm8.791,3.661a.962.962,0,0,1,.237-.664.9.9,0,0,1,.71-.266.928.928,0,0,1,.718.266.942.942,0,0,1,.245.664.891.891,0,0,1-.245.639.945.945,0,0,1-.718.257.854.854,0,0,1-.946-.9Zm4.989-5.254.614-6.026h6.192V7.333H19.191l-.365,3.3a3.9,3.9,0,0,1,2.017-.523A3.334,3.334,0,0,1,23.466,11.2a4.278,4.278,0,0,1,.971,2.951,4.129,4.129,0,0,1-1.009,2.943,3.676,3.676,0,0,1-2.818,1.075A3.82,3.82,0,0,1,18,17.278a3.545,3.545,0,0,1-1.154-2.457h1.453a2.439,2.439,0,0,0,.739,1.565,2.3,2.3,0,0,0,1.577.527,2.072,2.072,0,0,0,1.681-.73,3.054,3.054,0,0,0,.61-2.017,2.8,2.8,0,0,0-.66-1.947,2.245,2.245,0,0,0-1.756-.735,2.532,2.532,0,0,0-1.577.44l-.407.332Zm9.031,5.254a.962.962,0,0,1,.237-.664.9.9,0,0,1,.71-.266.928.928,0,0,1,.718.266.942.942,0,0,1,.245.664.891.891,0,0,1-.245.639.945.945,0,0,1-.718.257.854.854,0,0,1-.946-.9Zm9.33.805H34.091V7.765L31,8.9V7.508l4.4-1.652h.241Zm4.69-.805a.962.962,0,0,1,.237-.664.9.9,0,0,1,.71-.266.928.928,0,0,1,.718.266.942.942,0,0,1,.245.664.891.891,0,0,1-.245.639.945.945,0,0,1-.718.257.854.854,0,0,1-.946-.9Zm9.33.805H48.111V7.765L45.015,8.9V7.508l4.4-1.652h.241Zm4.69-.805a.962.962,0,0,1,.237-.664.9.9,0,0,1,.71-.266.928.928,0,0,1,.718.266.942.942,0,0,1,.245.664.891.891,0,0,1-.245.639.945.945,0,0,1-.718.257.854.854,0,0,1-.946-.9ZM87,13.269V18H85.4V5.914H89.86a4.478,4.478,0,0,1,3.109,1.013,3.433,3.433,0,0,1,1.125,2.681,3.388,3.388,0,0,1-1.1,2.71,4.678,4.678,0,0,1-3.15.95Zm0-1.3H89.86a2.867,2.867,0,0,0,1.959-.6A2.2,2.2,0,0,0,92.5,9.625,2.271,2.271,0,0,0,91.819,7.9a2.685,2.685,0,0,0-1.868-.672H87Zm8.375,1.461a5.3,5.3,0,0,1,.519-2.374,3.87,3.87,0,0,1,1.444-1.627,3.932,3.932,0,0,1,2.113-.573,3.788,3.788,0,0,1,2.968,1.27,4.886,4.886,0,0,1,1.133,3.378v.108a5.351,5.351,0,0,1-.5,2.353,3.813,3.813,0,0,1-1.436,1.623,3.977,3.977,0,0,1-2.146.581,3.778,3.778,0,0,1-2.959-1.27,4.861,4.861,0,0,1-1.133-3.362Zm1.544.183a3.842,3.842,0,0,0,.693,2.4A2.349,2.349,0,0,0,101.324,16a4.2,4.2,0,0,0,.689-2.569,3.836,3.836,0,0,0-.7-2.395,2.23,2.23,0,0,0-1.864-.917,2.205,2.205,0,0,0-1.834.9A4.17,4.17,0,0,0,96.916,13.609ZM107.143,18h-1.536V5.25h1.536Zm4.125,0h-1.544V9.019h1.544Zm.017-12.742h1.859L110.919,7.7h-1.237Zm4.6,1.585V9.019h1.677v1.187h-1.677v5.57a1.244,1.244,0,0,0,.224.809.944.944,0,0,0,.764.27,3.718,3.718,0,0,0,.73-.1V18a4.452,4.452,0,0,1-1.179.166,1.912,1.912,0,0,1-1.552-.623,2.675,2.675,0,0,1-.523-1.768v-5.57h-1.635V9.019h1.635V6.844ZM121.021,18h-1.536V9.019h1.536Zm-1.66-11.364a.917.917,0,0,1,.228-.631.857.857,0,0,1,.677-.257.87.87,0,0,1,.681.257.907.907,0,0,1,.232.631.877.877,0,0,1-.232.623.886.886,0,0,1-.681.249.872.872,0,0,1-.677-.249A.886.886,0,0,1,119.361,6.636Zm7.72,10.276a2.212,2.212,0,0,0,1.436-.5,1.752,1.752,0,0,0,.681-1.245h1.453a2.785,2.785,0,0,1-.531,1.469,3.5,3.5,0,0,1-1.307,1.112,3.772,3.772,0,0,1-1.731.415,3.7,3.7,0,0,1-2.918-1.224,4.877,4.877,0,0,1-1.083-3.349v-.257A5.407,5.407,0,0,1,123.562,11a3.667,3.667,0,0,1,1.382-1.585,3.926,3.926,0,0,1,2.129-.564,3.6,3.6,0,0,1,2.511.9,3.234,3.234,0,0,1,1.067,2.349H129.2a2.116,2.116,0,0,0-.66-1.432,2.053,2.053,0,0,0-1.465-.56,2.149,2.149,0,0,0-1.814.843,3.957,3.957,0,0,0-.643,2.436v.291a3.878,3.878,0,0,0,.639,2.391A2.16,2.16,0,0,0,127.081,16.913ZM137.922,18a3.226,3.226,0,0,1-.216-.946,3.426,3.426,0,0,1-2.557,1.112,3.17,3.17,0,0,1-2.179-.751,2.43,2.43,0,0,1-.851-1.905,2.539,2.539,0,0,1,1.067-2.179,5.029,5.029,0,0,1,3-.776h1.494v-.706a1.725,1.725,0,0,0-.481-1.282,1.935,1.935,0,0,0-1.419-.477,2.239,2.239,0,0,0-1.378.415,1.223,1.223,0,0,0-.556,1H132.3a2.119,2.119,0,0,1,.477-1.3,3.258,3.258,0,0,1,1.295-.992,4.356,4.356,0,0,1,1.8-.365,3.551,3.551,0,0,1,2.432.776,2.8,2.8,0,0,1,.913,2.137V15.9a5.054,5.054,0,0,0,.315,1.967V18Zm-2.548-1.17a2.7,2.7,0,0,0,1.37-.374,2.259,2.259,0,0,0,.938-.971V13.642h-1.2q-2.822,0-2.822,1.652a1.4,1.4,0,0,0,.481,1.129A1.85,1.85,0,0,0,135.374,16.83Zm18.046-3.221a5.378,5.378,0,0,1-.938,3.3,3.006,3.006,0,0,1-2.54,1.253,3.294,3.294,0,0,1-2.573-1.038v4.325h-1.536V9.019h1.4l.075,1a3.163,3.163,0,0,1,2.606-1.162,3.063,3.063,0,0,1,2.561,1.22,5.437,5.437,0,0,1,.942,3.4Zm-1.536-.174a3.968,3.968,0,0,0-.647-2.4,2.086,2.086,0,0,0-1.776-.88,2.257,2.257,0,0,0-2.092,1.237v4.292a2.262,2.262,0,0,0,2.108,1.229,2.076,2.076,0,0,0,1.756-.876A4.332,4.332,0,0,0,151.884,13.435ZM160.915,18a3.226,3.226,0,0,1-.216-.946,3.426,3.426,0,0,1-2.557,1.112,3.17,3.17,0,0,1-2.179-.751,2.43,2.43,0,0,1-.851-1.905,2.539,2.539,0,0,1,1.067-2.179,5.029,5.029,0,0,1,3-.776h1.494v-.706a1.725,1.725,0,0,0-.481-1.282,1.935,1.935,0,0,0-1.419-.477,2.239,2.239,0,0,0-1.378.415,1.223,1.223,0,0,0-.556,1H155.3a2.119,2.119,0,0,1,.477-1.3,3.258,3.258,0,0,1,1.295-.992,4.356,4.356,0,0,1,1.8-.365,3.551,3.551,0,0,1,2.432.776,2.8,2.8,0,0,1,.913,2.137V15.9a5.054,5.054,0,0,0,.315,1.967V18Zm-2.548-1.17a2.7,2.7,0,0,0,1.37-.374,2.259,2.259,0,0,0,.938-.971V13.642h-1.2q-2.822,0-2.822,1.652a1.4,1.4,0,0,0,.481,1.129A1.85,1.85,0,0,0,158.367,16.83ZM168.958,10.4a4.6,4.6,0,0,0-.755-.058,2.024,2.024,0,0,0-2.05,1.287V18h-1.536V9.019h1.494l.025,1.038a2.391,2.391,0,0,1,2.142-1.2,1.569,1.569,0,0,1,.681.116Zm6.624,7.6a3.226,3.226,0,0,1-.216-.946,3.426,3.426,0,0,1-2.557,1.112,3.17,3.17,0,0,1-2.179-.751,2.43,2.43,0,0,1-.851-1.905,2.539,2.539,0,0,1,1.067-2.179,5.029,5.029,0,0,1,3-.776h1.494v-.706a1.725,1.725,0,0,0-.481-1.282,1.935,1.935,0,0,0-1.419-.477,2.239,2.239,0,0,0-1.378.415,1.223,1.223,0,0,0-.556,1h-1.544a2.119,2.119,0,0,1,.477-1.3,3.258,3.258,0,0,1,1.295-.992,4.356,4.356,0,0,1,1.8-.365,3.551,3.551,0,0,1,2.432.776,2.8,2.8,0,0,1,.913,2.137V15.9a5.054,5.054,0,0,0,.315,1.967V18Zm-2.548-1.17a2.7,2.7,0,0,0,1.37-.374,2.259,2.259,0,0,0,.938-.971V13.642h-1.2q-2.822,0-2.822,1.652a1.4,1.4,0,0,0,.481,1.129A1.85,1.85,0,0,0,173.034,16.83ZM185.162,18h-1.536V5.25h1.536Zm8,0a3.226,3.226,0,0,1-.216-.946,3.426,3.426,0,0,1-2.557,1.112,3.17,3.17,0,0,1-2.179-.751,2.43,2.43,0,0,1-.851-1.905,2.539,2.539,0,0,1,1.067-2.179,5.029,5.029,0,0,1,3-.776h1.494v-.706a1.725,1.725,0,0,0-.481-1.282,1.935,1.935,0,0,0-1.419-.477,2.239,2.239,0,0,0-1.378.415,1.223,1.223,0,0,0-.556,1h-1.544a2.119,2.119,0,0,1,.477-1.3,3.258,3.258,0,0,1,1.295-.992,4.356,4.356,0,0,1,1.8-.365,3.551,3.551,0,0,1,2.432.776,2.8,2.8,0,0,1,.913,2.137V15.9a5.054,5.054,0,0,0,.315,1.967V18Zm-2.548-1.17a2.7,2.7,0,0,0,1.37-.374,2.259,2.259,0,0,0,.938-.971V13.642h-1.2q-2.822,0-2.822,1.652a1.4,1.4,0,0,0,.481,1.129A1.85,1.85,0,0,0,190.615,16.83ZM6.392,39.618a1.131,1.131,0,0,0-.469-.967,4.514,4.514,0,0,0-1.635-.594,7.731,7.731,0,0,1-1.851-.6,2.633,2.633,0,0,1-1.013-.83A1.986,1.986,0,0,1,1.1,35.484a2.33,2.33,0,0,1,.934-1.868,3.647,3.647,0,0,1,2.386-.764,3.753,3.753,0,0,1,2.478.789,2.5,2.5,0,0,1,.95,2.017H6.3a1.386,1.386,0,0,0-.535-1.087,2.006,2.006,0,0,0-1.349-.457,2.1,2.1,0,0,0-1.312.365,1.15,1.15,0,0,0-.473.955.932.932,0,0,0,.44.838,5.413,5.413,0,0,0,1.59.54,8.283,8.283,0,0,1,1.864.614,2.718,2.718,0,0,1,1.058.859,2.112,2.112,0,0,1,.344,1.224,2.3,2.3,0,0,1-.963,1.93,4.039,4.039,0,0,1-2.5.726,4.523,4.523,0,0,1-1.909-.382,3.105,3.105,0,0,1-1.3-1.067,2.571,2.571,0,0,1-.469-1.482H2.324a1.59,1.59,0,0,0,.618,1.224,2.4,2.4,0,0,0,1.523.452,2.476,2.476,0,0,0,1.4-.353A1.084,1.084,0,0,0,6.392,39.618Zm7.263,2.548a3.924,3.924,0,0,1-2.972-1.2,4.452,4.452,0,0,1-1.146-3.208v-.282a5.39,5.39,0,0,1,.51-2.386,3.982,3.982,0,0,1,1.428-1.644,3.59,3.59,0,0,1,1.988-.594,3.364,3.364,0,0,1,2.723,1.154,5,5,0,0,1,.971,3.3v.639H11.073a3.193,3.193,0,0,0,.776,2.146,2.44,2.44,0,0,0,1.888.818,2.675,2.675,0,0,0,1.378-.332,3.462,3.462,0,0,0,.988-.88l.938.73A3.772,3.772,0,0,1,13.655,42.166Zm-.191-8.052a2.048,2.048,0,0,0-1.561.677,3.288,3.288,0,0,0-.78,1.9h4.5v-.116a2.925,2.925,0,0,0-.631-1.814A1.928,1.928,0,0,0,13.464,34.114Zm5.1,3.32a5.279,5.279,0,0,1,.971-3.341,3.106,3.106,0,0,1,2.573-1.241,3.09,3.09,0,0,1,2.565,1.162l.075-1h1.4v8.766a3.654,3.654,0,0,1-1.033,2.748,3.814,3.814,0,0,1-2.777,1,4.619,4.619,0,0,1-1.9-.415,3.272,3.272,0,0,1-1.419-1.137l.8-.921a3,3,0,0,0,2.416,1.22,2.353,2.353,0,0,0,1.747-.631,2.411,2.411,0,0,0,.627-1.776V41.1A3.156,3.156,0,0,1,22.1,42.166a3.068,3.068,0,0,1-2.552-1.27A5.55,5.55,0,0,1,18.569,37.435Zm1.544.174A4.027,4.027,0,0,0,20.735,40a2.023,2.023,0,0,0,1.743.867,2.249,2.249,0,0,0,2.133-1.32v-4.1A2.276,2.276,0,0,0,22.5,34.156a2.041,2.041,0,0,0-1.751.872A4.386,4.386,0,0,0,20.113,37.609Zm13.9,3.5a3.262,3.262,0,0,1-2.631,1.054,2.792,2.792,0,0,1-2.187-.834,3.611,3.611,0,0,1-.76-2.469V33.019h1.536v5.8q0,2.042,1.66,2.042a2.3,2.3,0,0,0,2.341-1.312V33.019h1.536V42H34.05ZM42.185,34.4a4.6,4.6,0,0,0-.755-.058,2.024,2.024,0,0,0-2.05,1.287V42H37.843V33.019h1.494l.025,1.038a2.391,2.391,0,0,1,2.142-1.2,1.569,1.569,0,0,1,.681.116Zm3.08,7.6H43.729V33.019h1.536ZM43.6,30.636a.917.917,0,0,1,.228-.631.857.857,0,0,1,.677-.257.87.87,0,0,1,.681.257.907.907,0,0,1,.232.631.877.877,0,0,1-.232.623.886.886,0,0,1-.681.249.872.872,0,0,1-.677-.249A.886.886,0,0,1,43.6,30.636Zm3.744,6.8a5.261,5.261,0,0,1,.979-3.324,3.333,3.333,0,0,1,5.063-.178V29.25h1.536V42H53.515l-.075-.963a3.127,3.127,0,0,1-2.565,1.129,3.068,3.068,0,0,1-2.544-1.278,5.321,5.321,0,0,1-.984-3.337Zm1.536.174A3.984,3.984,0,0,0,49.514,40a2.039,2.039,0,0,0,1.743.863,2.24,2.24,0,0,0,2.133-1.312V35.426a2.257,2.257,0,0,0-2.117-1.27,2.049,2.049,0,0,0-1.76.872A4.386,4.386,0,0,0,48.883,37.609ZM62.854,42a3.226,3.226,0,0,1-.216-.946,3.426,3.426,0,0,1-2.557,1.112,3.17,3.17,0,0,1-2.179-.751,2.43,2.43,0,0,1-.851-1.905,2.539,2.539,0,0,1,1.067-2.179,5.029,5.029,0,0,1,3-.776h1.494v-.706a1.725,1.725,0,0,0-.481-1.282,1.935,1.935,0,0,0-1.419-.477,2.239,2.239,0,0,0-1.378.415,1.223,1.223,0,0,0-.556,1H57.234a2.119,2.119,0,0,1,.477-1.3,3.258,3.258,0,0,1,1.295-.992,4.356,4.356,0,0,1,1.8-.365,3.551,3.551,0,0,1,2.432.776,2.8,2.8,0,0,1,.913,2.137V39.9a5.054,5.054,0,0,0,.315,1.967V42Zm-2.548-1.17a2.7,2.7,0,0,0,1.37-.374,2.259,2.259,0,0,0,.938-.971V37.642h-1.2q-2.822,0-2.822,1.652a1.4,1.4,0,0,0,.481,1.129A1.85,1.85,0,0,0,60.305,40.83Zm5.877-3.4a5.261,5.261,0,0,1,.979-3.324,3.333,3.333,0,0,1,5.063-.178V29.25h1.536V42H72.35l-.075-.963a3.127,3.127,0,0,1-2.565,1.129,3.068,3.068,0,0,1-2.544-1.278,5.321,5.321,0,0,1-.984-3.337Zm1.536.174A3.984,3.984,0,0,0,68.349,40a2.039,2.039,0,0,0,1.743.863,2.24,2.24,0,0,0,2.133-1.312V35.426a2.257,2.257,0,0,0-2.117-1.27,2.049,2.049,0,0,0-1.76.872A4.386,4.386,0,0,0,67.718,37.609Zm12.26-.174a5.261,5.261,0,0,1,.979-3.324,3.333,3.333,0,0,1,5.063-.178V29.25h1.536V42H86.146l-.075-.963a3.127,3.127,0,0,1-2.565,1.129,3.068,3.068,0,0,1-2.544-1.278,5.321,5.321,0,0,1-.984-3.337Zm1.536.174A3.984,3.984,0,0,0,82.145,40a2.039,2.039,0,0,0,1.743.863,2.24,2.24,0,0,0,2.133-1.312V35.426a2.257,2.257,0,0,0-2.117-1.27,2.049,2.049,0,0,0-1.76.872A4.386,4.386,0,0,0,81.514,37.609Zm12.152,4.557a3.924,3.924,0,0,1-2.972-1.2,4.452,4.452,0,0,1-1.146-3.208v-.282a5.39,5.39,0,0,1,.51-2.386,3.982,3.982,0,0,1,1.428-1.644,3.59,3.59,0,0,1,1.988-.594A3.364,3.364,0,0,1,96.2,34.006a5,5,0,0,1,.971,3.3v.639H91.084a3.193,3.193,0,0,0,.776,2.146,2.44,2.44,0,0,0,1.888.818,2.675,2.675,0,0,0,1.378-.332,3.462,3.462,0,0,0,.988-.88l.938.73A3.772,3.772,0,0,1,93.666,42.166Zm-.191-8.052a2.048,2.048,0,0,0-1.561.677,3.288,3.288,0,0,0-.78,1.9h4.5v-.116A2.925,2.925,0,0,0,95,34.758,1.928,1.928,0,0,0,93.475,34.114ZM104.822,42h-1.536V29.25h1.536Zm8,0a3.226,3.226,0,0,1-.216-.946,3.426,3.426,0,0,1-2.557,1.112,3.17,3.17,0,0,1-2.179-.751,2.43,2.43,0,0,1-.851-1.905,2.539,2.539,0,0,1,1.067-2.179,5.029,5.029,0,0,1,3-.776h1.494v-.706a1.725,1.725,0,0,0-.481-1.282,1.935,1.935,0,0,0-1.419-.477,2.239,2.239,0,0,0-1.378.415,1.223,1.223,0,0,0-.556,1H107.2a2.119,2.119,0,0,1,.477-1.3,3.258,3.258,0,0,1,1.295-.992,4.356,4.356,0,0,1,1.8-.365,3.551,3.551,0,0,1,2.432.776,2.8,2.8,0,0,1,.913,2.137V39.9a5.054,5.054,0,0,0,.315,1.967V42Zm-2.548-1.17a2.7,2.7,0,0,0,1.37-.374,2.259,2.259,0,0,0,.938-.971V37.642h-1.2q-2.822,0-2.822,1.652a1.4,1.4,0,0,0,.481,1.129A1.85,1.85,0,0,0,110.276,40.83ZM122.4,42h-1.536V33.019H122.4Zm-1.66-11.364a.917.917,0,0,1,.228-.631.857.857,0,0,1,.677-.257.87.87,0,0,1,.681.257.907.907,0,0,1,.232.631.877.877,0,0,1-.232.623.886.886,0,0,1-.681.249.872.872,0,0,1-.677-.249A.886.886,0,0,1,120.743,30.636Zm5.57,2.382.05,1.129a3.273,3.273,0,0,1,2.689-1.295q2.847,0,2.872,3.212V42h-1.536V36.057a2.068,2.068,0,0,0-.444-1.436,1.78,1.78,0,0,0-1.357-.465,2.216,2.216,0,0,0-1.312.4,2.706,2.706,0,0,0-.88,1.046V42H124.86V33.019ZM135,42V34.206h-1.419V33.019H135V32.1a3.058,3.058,0,0,1,.772-2.233,2.916,2.916,0,0,1,2.183-.789,4.03,4.03,0,0,1,1.054.141l-.083,1.245a4.41,4.41,0,0,0-.83-.075,1.5,1.5,0,0,0-1.154.436,1.764,1.764,0,0,0-.407,1.249v.946h1.917v1.187h-1.917V42Zm4.74-4.574a5.3,5.3,0,0,1,.519-2.374,3.87,3.87,0,0,1,1.444-1.627,3.932,3.932,0,0,1,2.113-.573,3.788,3.788,0,0,1,2.968,1.27,4.886,4.886,0,0,1,1.133,3.378v.108a5.351,5.351,0,0,1-.5,2.353,3.813,3.813,0,0,1-1.436,1.623,3.977,3.977,0,0,1-2.146.581,3.778,3.778,0,0,1-2.959-1.27,4.861,4.861,0,0,1-1.133-3.362Zm1.544.183a3.842,3.842,0,0,0,.693,2.4A2.349,2.349,0,0,0,145.687,40a4.2,4.2,0,0,0,.689-2.569,3.836,3.836,0,0,0-.7-2.395,2.23,2.23,0,0,0-1.864-.917,2.205,2.205,0,0,0-1.834.9A4.17,4.17,0,0,0,141.279,37.609Zm12.9-3.212a4.6,4.6,0,0,0-.755-.058,2.024,2.024,0,0,0-2.05,1.287V42h-1.536V33.019h1.494l.025,1.038a2.391,2.391,0,0,1,2.142-1.2,1.569,1.569,0,0,1,.681.116Zm2.855-1.378.042,1a3.317,3.317,0,0,1,2.665-1.162,2.568,2.568,0,0,1,2.565,1.444,3.4,3.4,0,0,1,1.166-1.046,3.445,3.445,0,0,1,1.7-.4q2.955,0,3,3.129V42h-1.536V36.073a2.062,2.062,0,0,0-.44-1.44,1.937,1.937,0,0,0-1.478-.477,2.036,2.036,0,0,0-1.419.51,2.071,2.071,0,0,0-.656,1.374V42H161.1V36.115a1.713,1.713,0,0,0-1.917-1.959,2.055,2.055,0,0,0-2.067,1.287V42h-1.536V33.019Zm19,8.981a3.226,3.226,0,0,1-.216-.946,3.426,3.426,0,0,1-2.557,1.112,3.17,3.17,0,0,1-2.179-.751,2.43,2.43,0,0,1-.851-1.905,2.539,2.539,0,0,1,1.067-2.179,5.029,5.029,0,0,1,3-.776h1.494v-.706a1.725,1.725,0,0,0-.481-1.282,1.935,1.935,0,0,0-1.419-.477,2.239,2.239,0,0,0-1.378.415,1.223,1.223,0,0,0-.556,1h-1.544a2.119,2.119,0,0,1,.477-1.3,3.258,3.258,0,0,1,1.295-.992,4.356,4.356,0,0,1,1.8-.365,3.551,3.551,0,0,1,2.432.776,2.8,2.8,0,0,1,.913,2.137V39.9a5.054,5.054,0,0,0,.315,1.967V42Zm-2.548-1.17a2.7,2.7,0,0,0,1.37-.374,2.259,2.259,0,0,0,.938-.971V37.642h-1.2q-2.822,0-2.822,1.652a1.4,1.4,0,0,0,.481,1.129A1.85,1.85,0,0,0,173.486,40.83Zm9.853.083a2.212,2.212,0,0,0,1.436-.5,1.752,1.752,0,0,0,.681-1.245h1.453a2.785,2.785,0,0,1-.531,1.469,3.5,3.5,0,0,1-1.307,1.112,3.772,3.772,0,0,1-1.731.415,3.7,3.7,0,0,1-2.918-1.224,4.877,4.877,0,0,1-1.083-3.349v-.257A5.407,5.407,0,0,1,179.82,35a3.667,3.667,0,0,1,1.382-1.585,3.926,3.926,0,0,1,2.129-.564,3.6,3.6,0,0,1,2.511.9,3.234,3.234,0,0,1,1.067,2.349h-1.453a2.116,2.116,0,0,0-.66-1.432,2.053,2.053,0,0,0-1.465-.56,2.149,2.149,0,0,0-1.814.843,3.957,3.957,0,0,0-.643,2.436v.291a3.878,3.878,0,0,0,.639,2.391A2.16,2.16,0,0,0,183.339,40.913ZM190.3,42h-1.536V33.019H190.3Zm-1.66-11.364a.917.917,0,0,1,.228-.631.857.857,0,0,1,.677-.257.87.87,0,0,1,.681.257.907.907,0,0,1,.232.631.877.877,0,0,1-.232.623.886.886,0,0,1-.681.249.872.872,0,0,1-.677-.249A.886.886,0,0,1,188.644,30.636Zm3.71,6.79a5.3,5.3,0,0,1,.519-2.374,3.87,3.87,0,0,1,1.444-1.627,3.932,3.932,0,0,1,2.113-.573,3.788,3.788,0,0,1,2.968,1.27A4.886,4.886,0,0,1,200.53,37.5v.108a5.351,5.351,0,0,1-.5,2.353,3.813,3.813,0,0,1-1.436,1.623,3.977,3.977,0,0,1-2.146.581,3.778,3.778,0,0,1-2.959-1.27,4.861,4.861,0,0,1-1.133-3.362Zm1.544.183a3.842,3.842,0,0,0,.693,2.4A2.349,2.349,0,0,0,198.306,40a4.2,4.2,0,0,0,.689-2.569,3.836,3.836,0,0,0-.7-2.395,2.23,2.23,0,0,0-1.864-.917,2.205,2.205,0,0,0-1.834.9A4.17,4.17,0,0,0,193.9,37.609Zm3.229-8.359h1.859l-2.225,2.44h-1.237Zm6.782,3.769.05,1.129a3.273,3.273,0,0,1,2.689-1.295q2.847,0,2.872,3.212V42h-1.536V36.057a2.068,2.068,0,0,0-.444-1.436,1.78,1.78,0,0,0-1.357-.465,2.216,2.216,0,0,0-1.312.4,2.706,2.706,0,0,0-.88,1.046V42h-1.536V33.019Z" transform="translate(1021 4840)" fill="#12263f"/>
      <path id="Trazado_658473" data-name="Trazado 658473" d="M8.077,14.846H3.013L1.876,18H.232L4.848,5.914H6.242L10.866,18H9.23ZM3.495,13.534H7.6L5.545,7.881Zm8.791,3.661a.962.962,0,0,1,.237-.664.9.9,0,0,1,.71-.266.928.928,0,0,1,.718.266.942.942,0,0,1,.245.664.891.891,0,0,1-.245.639.945.945,0,0,1-.718.257.854.854,0,0,1-.946-.9Zm4.989-5.254.614-6.026h6.192V7.333H19.191l-.365,3.3a3.9,3.9,0,0,1,2.017-.523A3.334,3.334,0,0,1,23.466,11.2a4.278,4.278,0,0,1,.971,2.951,4.129,4.129,0,0,1-1.009,2.943,3.676,3.676,0,0,1-2.818,1.075A3.82,3.82,0,0,1,18,17.278a3.545,3.545,0,0,1-1.154-2.457h1.453a2.439,2.439,0,0,0,.739,1.565,2.3,2.3,0,0,0,1.577.527,2.072,2.072,0,0,0,1.681-.73,3.054,3.054,0,0,0,.61-2.017,2.8,2.8,0,0,0-.66-1.947,2.245,2.245,0,0,0-1.756-.735,2.532,2.532,0,0,0-1.577.44l-.407.332Zm9.031,5.254a.962.962,0,0,1,.237-.664.9.9,0,0,1,.71-.266.928.928,0,0,1,.718.266.942.942,0,0,1,.245.664.891.891,0,0,1-.245.639.945.945,0,0,1-.718.257.854.854,0,0,1-.946-.9Zm9.33.805H34.091V7.765L31,8.9V7.508l4.4-1.652h.241Zm4.69-.805a.962.962,0,0,1,.237-.664.9.9,0,0,1,.71-.266.928.928,0,0,1,.718.266.942.942,0,0,1,.245.664.891.891,0,0,1-.245.639.945.945,0,0,1-.718.257.854.854,0,0,1-.946-.9Zm12.2.805H44.608V16.9l4.184-4.648a9.939,9.939,0,0,0,1.282-1.714,2.861,2.861,0,0,0,.353-1.365,2.169,2.169,0,0,0-.573-1.552,2,2,0,0,0-1.527-.606,2.372,2.372,0,0,0-1.781.652,2.489,2.489,0,0,0-.635,1.814H44.376a3.565,3.565,0,0,1,1.075-2.7,3.985,3.985,0,0,1,2.876-1.029,3.829,3.829,0,0,1,2.665.884,3.015,3.015,0,0,1,.979,2.353q0,1.785-2.274,4.25l-3.237,3.511h6.068Zm1.818-.805a.962.962,0,0,1,.237-.664.9.9,0,0,1,.71-.266.928.928,0,0,1,.718.266.942.942,0,0,1,.245.664.891.891,0,0,1-.245.639.945.945,0,0,1-.718.257.854.854,0,0,1-.946-.9Zm35.49-4.084H87V18h-1.6V5.914h4a4.736,4.736,0,0,1,3.142.93,3.345,3.345,0,0,1,1.1,2.706,3.254,3.254,0,0,1-.61,1.967,3.642,3.642,0,0,1-1.7,1.253l2.839,5.13V18h-1.71ZM87,11.808h2.449a2.765,2.765,0,0,0,1.888-.614,2.075,2.075,0,0,0,.7-1.644,2.185,2.185,0,0,0-.668-1.718,2.833,2.833,0,0,0-1.93-.606H87Zm12.36,6.358a3.924,3.924,0,0,1-2.972-1.2,4.452,4.452,0,0,1-1.146-3.208v-.282a5.39,5.39,0,0,1,.51-2.386,3.982,3.982,0,0,1,1.428-1.644,3.59,3.59,0,0,1,1.988-.594,3.364,3.364,0,0,1,2.723,1.154,5,5,0,0,1,.971,3.3v.639H96.775a3.193,3.193,0,0,0,.776,2.146,2.44,2.44,0,0,0,1.888.818,2.675,2.675,0,0,0,1.378-.332,3.462,3.462,0,0,0,.988-.88l.938.73A3.772,3.772,0,0,1,99.356,18.166Zm-.191-8.052a2.048,2.048,0,0,0-1.561.677,3.288,3.288,0,0,0-.78,1.9h4.5v-.116a2.925,2.925,0,0,0-.631-1.814A1.928,1.928,0,0,0,99.166,10.114Zm8.326,5.8,2.225-6.9h1.569L108.064,18h-1.17L103.64,9.019h1.569ZM114.431,18H112.9V9.019h1.536Zm-1.66-11.364A.917.917,0,0,1,113,6.005a.857.857,0,0,1,.677-.257.87.87,0,0,1,.681.257.907.907,0,0,1,.232.631.877.877,0,0,1-.232.623.886.886,0,0,1-.681.249A.872.872,0,0,1,113,7.259.886.886,0,0,1,112.771,6.636Zm9.347,8.981a1.131,1.131,0,0,0-.469-.967,4.514,4.514,0,0,0-1.635-.594,7.731,7.731,0,0,1-1.851-.6,2.633,2.633,0,0,1-1.013-.83,1.986,1.986,0,0,1-.328-1.146,2.33,2.33,0,0,1,.934-1.868,3.647,3.647,0,0,1,2.386-.764,3.753,3.753,0,0,1,2.478.789,2.5,2.5,0,0,1,.95,2.017h-1.544a1.386,1.386,0,0,0-.535-1.087,2.006,2.006,0,0,0-1.349-.457,2.1,2.1,0,0,0-1.312.365,1.15,1.15,0,0,0-.473.955.932.932,0,0,0,.44.838,5.413,5.413,0,0,0,1.59.54,8.283,8.283,0,0,1,1.864.614,2.718,2.718,0,0,1,1.058.859,2.112,2.112,0,0,1,.344,1.224,2.3,2.3,0,0,1-.963,1.93,4.039,4.039,0,0,1-2.5.726,4.523,4.523,0,0,1-1.909-.382,3.105,3.105,0,0,1-1.3-1.067,2.571,2.571,0,0,1-.469-1.482h1.536a1.59,1.59,0,0,0,.618,1.224,2.4,2.4,0,0,0,1.523.452,2.476,2.476,0,0,0,1.4-.353A1.084,1.084,0,0,0,122.117,15.618Zm5.2,2.382h-1.536V9.019h1.536Zm-1.66-11.364a.917.917,0,0,1,.228-.631.857.857,0,0,1,.677-.257.87.87,0,0,1,.681.257.907.907,0,0,1,.232.631.877.877,0,0,1-.232.623.886.886,0,0,1-.681.249.872.872,0,0,1-.677-.249A.886.886,0,0,1,125.662,6.636Zm3.71,6.79a5.3,5.3,0,0,1,.519-2.374,3.87,3.87,0,0,1,1.444-1.627,3.932,3.932,0,0,1,2.113-.573,3.788,3.788,0,0,1,2.968,1.27,4.886,4.886,0,0,1,1.133,3.378v.108a5.351,5.351,0,0,1-.5,2.353,3.813,3.813,0,0,1-1.436,1.623,3.977,3.977,0,0,1-2.146.581,3.778,3.778,0,0,1-2.959-1.27,4.861,4.861,0,0,1-1.133-3.362Zm1.544.183a3.842,3.842,0,0,0,.693,2.4A2.349,2.349,0,0,0,135.324,16a4.2,4.2,0,0,0,.689-2.569,3.836,3.836,0,0,0-.7-2.395,2.23,2.23,0,0,0-1.864-.917,2.205,2.205,0,0,0-1.834.9A4.17,4.17,0,0,0,130.916,13.609Zm3.229-8.359H136L133.78,7.69h-1.237Zm6.782,3.769.05,1.129a3.273,3.273,0,0,1,2.689-1.295q2.847,0,2.872,3.212V18H145V12.057a2.068,2.068,0,0,0-.444-1.436,1.78,1.78,0,0,0-1.357-.465,2.216,2.216,0,0,0-1.312.4,2.706,2.706,0,0,0-.88,1.046V18h-1.536V9.019Zm11.762,4.416a5.261,5.261,0,0,1,.979-3.324,3.333,3.333,0,0,1,5.063-.178V5.25h1.536V18h-1.411l-.075-.963a3.127,3.127,0,0,1-2.565,1.129,3.068,3.068,0,0,1-2.544-1.278,5.321,5.321,0,0,1-.984-3.337Zm1.536.174A3.984,3.984,0,0,0,154.855,16a2.039,2.039,0,0,0,1.743.863,2.24,2.24,0,0,0,2.133-1.312V11.426a2.257,2.257,0,0,0-2.117-1.27,2.049,2.049,0,0,0-1.76.872A4.386,4.386,0,0,0,154.225,13.609Zm12.152,4.557a3.924,3.924,0,0,1-2.972-1.2,4.452,4.452,0,0,1-1.146-3.208v-.282a5.39,5.39,0,0,1,.51-2.386A3.982,3.982,0,0,1,164.2,9.446a3.59,3.59,0,0,1,1.988-.594,3.364,3.364,0,0,1,2.723,1.154,5,5,0,0,1,.971,3.3v.639H163.8a3.193,3.193,0,0,0,.776,2.146,2.44,2.44,0,0,0,1.888.818,2.675,2.675,0,0,0,1.378-.332,3.462,3.462,0,0,0,.988-.88l.938.73A3.772,3.772,0,0,1,166.377,18.166Zm-.191-8.052a2.048,2.048,0,0,0-1.561.677,3.288,3.288,0,0,0-.78,1.9h4.5v-.116a2.925,2.925,0,0,0-.631-1.814A1.928,1.928,0,0,0,166.186,10.114ZM177.533,18H176V5.25h1.536Zm8,0a3.226,3.226,0,0,1-.216-.946,3.426,3.426,0,0,1-2.557,1.112,3.17,3.17,0,0,1-2.179-.751,2.43,2.43,0,0,1-.851-1.905,2.539,2.539,0,0,1,1.067-2.179,5.029,5.029,0,0,1,3-.776h1.494v-.706a1.725,1.725,0,0,0-.481-1.282,1.935,1.935,0,0,0-1.419-.477,2.239,2.239,0,0,0-1.378.415,1.223,1.223,0,0,0-.556,1h-1.544a2.119,2.119,0,0,1,.477-1.3,3.258,3.258,0,0,1,1.295-.992,4.356,4.356,0,0,1,1.8-.365,3.551,3.551,0,0,1,2.432.776,2.8,2.8,0,0,1,.913,2.137V15.9a5.054,5.054,0,0,0,.315,1.967V18Zm-2.548-1.17a2.7,2.7,0,0,0,1.37-.374,2.259,2.259,0,0,0,.938-.971V13.642h-1.2q-2.822,0-2.822,1.652a1.4,1.4,0,0,0,.481,1.129A1.85,1.85,0,0,0,182.987,16.83Zm11.48-1.212a1.13,1.13,0,0,0-.469-.967,4.514,4.514,0,0,0-1.635-.594,7.731,7.731,0,0,1-1.851-.6,2.633,2.633,0,0,1-1.013-.83,1.986,1.986,0,0,1-.328-1.146,2.33,2.33,0,0,1,.934-1.868,3.647,3.647,0,0,1,2.386-.764,3.753,3.753,0,0,1,2.478.789,2.5,2.5,0,0,1,.95,2.017h-1.544a1.386,1.386,0,0,0-.535-1.087,2.006,2.006,0,0,0-1.349-.457,2.1,2.1,0,0,0-1.312.365,1.15,1.15,0,0,0-.473.955.932.932,0,0,0,.44.838,5.413,5.413,0,0,0,1.59.54,8.283,8.283,0,0,1,1.864.614,2.718,2.718,0,0,1,1.058.859A2.112,2.112,0,0,1,196,15.51a2.3,2.3,0,0,1-.963,1.93,4.039,4.039,0,0,1-2.5.726,4.523,4.523,0,0,1-1.909-.382,3.105,3.105,0,0,1-1.3-1.067,2.571,2.571,0,0,1-.469-1.482H190.4a1.59,1.59,0,0,0,.618,1.224,2.4,2.4,0,0,0,1.523.452,2.476,2.476,0,0,0,1.4-.353A1.084,1.084,0,0,0,194.467,15.618ZM209.8,13.609a5.378,5.378,0,0,1-.938,3.3,3.006,3.006,0,0,1-2.54,1.253,3.294,3.294,0,0,1-2.573-1.038v4.325h-1.536V9.019h1.4l.075,1A3.163,3.163,0,0,1,206.3,8.853a3.063,3.063,0,0,1,2.561,1.22,5.437,5.437,0,0,1,.942,3.4Zm-1.536-.174a3.968,3.968,0,0,0-.647-2.4,2.086,2.086,0,0,0-1.776-.88,2.257,2.257,0,0,0-2.092,1.237v4.292a2.262,2.262,0,0,0,2.108,1.229,2.076,2.076,0,0,0,1.756-.876A4.332,4.332,0,0,0,208.263,13.435Zm3.08-.008a5.3,5.3,0,0,1,.519-2.374,3.87,3.87,0,0,1,1.444-1.627,3.932,3.932,0,0,1,2.113-.573,3.788,3.788,0,0,1,2.968,1.27,4.886,4.886,0,0,1,1.133,3.378v.108a5.351,5.351,0,0,1-.5,2.353,3.813,3.813,0,0,1-1.436,1.623,3.977,3.977,0,0,1-2.146.581,3.778,3.778,0,0,1-2.959-1.27,4.861,4.861,0,0,1-1.133-3.362Zm1.544.183a3.842,3.842,0,0,0,.693,2.4A2.349,2.349,0,0,0,217.294,16a4.2,4.2,0,0,0,.689-2.569,3.836,3.836,0,0,0-.7-2.395,2.23,2.23,0,0,0-1.864-.917,2.205,2.205,0,0,0-1.834.9A4.17,4.17,0,0,0,212.886,13.609ZM223.113,18h-1.536V5.25h1.536Zm4.125,0h-1.544V9.019h1.544Zm.017-12.742h1.859L226.89,7.7h-1.237Zm4.6,1.585V9.019h1.677v1.187h-1.677v5.57a1.244,1.244,0,0,0,.224.809.944.944,0,0,0,.764.27,3.718,3.718,0,0,0,.73-.1V18a4.452,4.452,0,0,1-1.179.166,1.912,1.912,0,0,1-1.552-.623,2.675,2.675,0,0,1-.523-1.768v-5.57h-1.635V9.019h1.635V6.844ZM236.992,18h-1.536V9.019h1.536Zm-1.66-11.364a.917.917,0,0,1,.228-.631.857.857,0,0,1,.677-.257.87.87,0,0,1,.681.257.907.907,0,0,1,.232.631.877.877,0,0,1-.232.623.886.886,0,0,1-.681.249.872.872,0,0,1-.677-.249A.886.886,0,0,1,235.332,6.636Zm7.72,10.276a2.212,2.212,0,0,0,1.436-.5,1.752,1.752,0,0,0,.681-1.245h1.453a2.785,2.785,0,0,1-.531,1.469,3.5,3.5,0,0,1-1.307,1.112,3.772,3.772,0,0,1-1.731.415,3.7,3.7,0,0,1-2.918-1.224,4.877,4.877,0,0,1-1.083-3.349v-.257A5.407,5.407,0,0,1,239.532,11a3.667,3.667,0,0,1,1.382-1.585,3.926,3.926,0,0,1,2.129-.564,3.6,3.6,0,0,1,2.511.9,3.234,3.234,0,0,1,1.067,2.349h-1.453a2.116,2.116,0,0,0-.66-1.432,2.053,2.053,0,0,0-1.465-.56,2.149,2.149,0,0,0-1.814.843,3.957,3.957,0,0,0-.643,2.436v.291a3.878,3.878,0,0,0,.639,2.391A2.16,2.16,0,0,0,243.051,16.913ZM253.892,18a3.226,3.226,0,0,1-.216-.946,3.426,3.426,0,0,1-2.557,1.112,3.17,3.17,0,0,1-2.179-.751,2.43,2.43,0,0,1-.851-1.905,2.539,2.539,0,0,1,1.067-2.179,5.029,5.029,0,0,1,3-.776h1.494v-.706a1.725,1.725,0,0,0-.481-1.282,1.935,1.935,0,0,0-1.419-.477,2.239,2.239,0,0,0-1.378.415,1.223,1.223,0,0,0-.556,1h-1.544a2.119,2.119,0,0,1,.477-1.3,3.258,3.258,0,0,1,1.295-.992,4.356,4.356,0,0,1,1.8-.365,3.551,3.551,0,0,1,2.432.776,2.8,2.8,0,0,1,.913,2.137V15.9a5.054,5.054,0,0,0,.315,1.967V18Zm-2.548-1.17a2.7,2.7,0,0,0,1.37-.374,2.259,2.259,0,0,0,.938-.971V13.642h-1.2q-2.822,0-2.822,1.652a1.4,1.4,0,0,0,.481,1.129A1.85,1.85,0,0,0,251.344,16.83Zm11.48-1.212a1.131,1.131,0,0,0-.469-.967,4.514,4.514,0,0,0-1.635-.594,7.732,7.732,0,0,1-1.851-.6,2.634,2.634,0,0,1-1.013-.83,1.985,1.985,0,0,1-.328-1.146,2.33,2.33,0,0,1,.934-1.868,3.647,3.647,0,0,1,2.386-.764,3.753,3.753,0,0,1,2.478.789,2.5,2.5,0,0,1,.95,2.017h-1.544a1.386,1.386,0,0,0-.535-1.087,2.006,2.006,0,0,0-1.349-.457,2.1,2.1,0,0,0-1.312.365,1.15,1.15,0,0,0-.473.955.931.931,0,0,0,.44.838,5.413,5.413,0,0,0,1.59.54,8.283,8.283,0,0,1,1.864.614,2.718,2.718,0,0,1,1.058.859,2.112,2.112,0,0,1,.344,1.224,2.3,2.3,0,0,1-.963,1.93,4.039,4.039,0,0,1-2.5.726,4.523,4.523,0,0,1-1.909-.382,3.105,3.105,0,0,1-1.3-1.067,2.571,2.571,0,0,1-.469-1.482h1.536a1.59,1.59,0,0,0,.618,1.224,2.4,2.4,0,0,0,1.523.452,2.476,2.476,0,0,0,1.4-.353A1.084,1.084,0,0,0,262.824,15.618ZM8.749,37.609a5.378,5.378,0,0,1-.938,3.3,3.006,3.006,0,0,1-2.54,1.253A3.294,3.294,0,0,1,2.7,41.128v4.325H1.162V33.019h1.4l.075,1a3.163,3.163,0,0,1,2.606-1.162,3.063,3.063,0,0,1,2.561,1.22,5.437,5.437,0,0,1,.942,3.4Zm-1.536-.174a3.968,3.968,0,0,0-.647-2.4,2.086,2.086,0,0,0-1.776-.88A2.257,2.257,0,0,0,2.7,35.393v4.292a2.262,2.262,0,0,0,2.108,1.229,2.076,2.076,0,0,0,1.756-.876A4.332,4.332,0,0,0,7.213,37.435ZM16.245,42a3.226,3.226,0,0,1-.216-.946,3.426,3.426,0,0,1-2.557,1.112,3.17,3.17,0,0,1-2.179-.751,2.43,2.43,0,0,1-.851-1.905,2.539,2.539,0,0,1,1.067-2.179,5.029,5.029,0,0,1,3-.776H16v-.706a1.725,1.725,0,0,0-.481-1.282,1.935,1.935,0,0,0-1.419-.477,2.239,2.239,0,0,0-1.378.415,1.223,1.223,0,0,0-.556,1H10.625a2.119,2.119,0,0,1,.477-1.3,3.258,3.258,0,0,1,1.295-.992,4.356,4.356,0,0,1,1.8-.365,3.551,3.551,0,0,1,2.432.776,2.8,2.8,0,0,1,.913,2.137V39.9a5.054,5.054,0,0,0,.315,1.967V42ZM13.7,40.83a2.7,2.7,0,0,0,1.37-.374A2.259,2.259,0,0,0,16,39.485V37.642H14.8q-2.822,0-2.822,1.652a1.4,1.4,0,0,0,.481,1.129A1.85,1.85,0,0,0,13.7,40.83ZM24.288,34.4a4.6,4.6,0,0,0-.755-.058,2.024,2.024,0,0,0-2.05,1.287V42H19.947V33.019h1.494l.025,1.038a2.391,2.391,0,0,1,2.142-1.2,1.569,1.569,0,0,1,.681.116ZM30.912,42a3.226,3.226,0,0,1-.216-.946,3.426,3.426,0,0,1-2.557,1.112,3.17,3.17,0,0,1-2.179-.751,2.43,2.43,0,0,1-.851-1.905,2.539,2.539,0,0,1,1.067-2.179,5.029,5.029,0,0,1,3-.776h1.494v-.706a1.725,1.725,0,0,0-.481-1.282,1.935,1.935,0,0,0-1.419-.477,2.239,2.239,0,0,0-1.378.415,1.223,1.223,0,0,0-.556,1H25.292a2.119,2.119,0,0,1,.477-1.3,3.258,3.258,0,0,1,1.295-.992,4.356,4.356,0,0,1,1.8-.365,3.551,3.551,0,0,1,2.432.776,2.8,2.8,0,0,1,.913,2.137V39.9a5.054,5.054,0,0,0,.315,1.967V42Zm-2.548-1.17a2.7,2.7,0,0,0,1.37-.374,2.259,2.259,0,0,0,.938-.971V37.642h-1.2q-2.822,0-2.822,1.652a1.4,1.4,0,0,0,.481,1.129A1.85,1.85,0,0,0,28.364,40.83ZM40.491,42H38.956V29.25h1.536Zm8,0a3.226,3.226,0,0,1-.216-.946,3.426,3.426,0,0,1-2.557,1.112,3.17,3.17,0,0,1-2.179-.751,2.43,2.43,0,0,1-.851-1.905,2.539,2.539,0,0,1,1.067-2.179,5.029,5.029,0,0,1,3-.776h1.494v-.706a1.725,1.725,0,0,0-.481-1.282,1.935,1.935,0,0,0-1.419-.477,2.239,2.239,0,0,0-1.378.415,1.223,1.223,0,0,0-.556,1H42.874a2.119,2.119,0,0,1,.477-1.3,3.258,3.258,0,0,1,1.295-.992,4.356,4.356,0,0,1,1.8-.365,3.551,3.551,0,0,1,2.432.776,2.8,2.8,0,0,1,.913,2.137V39.9a5.054,5.054,0,0,0,.315,1.967V42Zm-2.548-1.17a2.7,2.7,0,0,0,1.37-.374,2.259,2.259,0,0,0,.938-.971V37.642h-1.2q-2.822,0-2.822,1.652a1.4,1.4,0,0,0,.481,1.129A1.85,1.85,0,0,0,45.945,40.83Zm15.688-1.212a1.13,1.13,0,0,0-.469-.967,4.514,4.514,0,0,0-1.635-.594,7.731,7.731,0,0,1-1.851-.6,2.633,2.633,0,0,1-1.013-.83,1.986,1.986,0,0,1-.328-1.146,2.33,2.33,0,0,1,.934-1.868,3.647,3.647,0,0,1,2.386-.764,3.753,3.753,0,0,1,2.478.789,2.5,2.5,0,0,1,.95,2.017H61.542a1.386,1.386,0,0,0-.535-1.087,2.006,2.006,0,0,0-1.349-.457,2.1,2.1,0,0,0-1.312.365,1.15,1.15,0,0,0-.473.955.932.932,0,0,0,.44.838,5.413,5.413,0,0,0,1.59.54,8.283,8.283,0,0,1,1.864.614,2.718,2.718,0,0,1,1.058.859,2.112,2.112,0,0,1,.344,1.224,2.3,2.3,0,0,1-.963,1.93,4.039,4.039,0,0,1-2.5.726,4.523,4.523,0,0,1-1.909-.382,3.105,3.105,0,0,1-1.3-1.067,2.571,2.571,0,0,1-.469-1.482h1.536a1.59,1.59,0,0,0,.618,1.224,2.4,2.4,0,0,0,1.523.452,2.476,2.476,0,0,0,1.4-.353A1.084,1.084,0,0,0,61.633,39.618ZM68.9,42.166a3.924,3.924,0,0,1-2.972-1.2,4.452,4.452,0,0,1-1.146-3.208v-.282a5.39,5.39,0,0,1,.51-2.386,3.982,3.982,0,0,1,1.428-1.644,3.59,3.59,0,0,1,1.988-.594,3.364,3.364,0,0,1,2.723,1.154,5,5,0,0,1,.971,3.3v.639H66.315a3.193,3.193,0,0,0,.776,2.146,2.44,2.44,0,0,0,1.888.818,2.675,2.675,0,0,0,1.378-.332,3.462,3.462,0,0,0,.988-.88l.938.73A3.772,3.772,0,0,1,68.9,42.166Zm-.191-8.052a2.048,2.048,0,0,0-1.561.677,3.288,3.288,0,0,0-.78,1.9h4.5v-.116a2.925,2.925,0,0,0-.631-1.814A1.928,1.928,0,0,0,68.706,34.114Zm5.1,3.32a5.279,5.279,0,0,1,.971-3.341,3.348,3.348,0,0,1,5.138-.079l.075-1h1.4v8.766a3.654,3.654,0,0,1-1.033,2.748,3.814,3.814,0,0,1-2.777,1,4.619,4.619,0,0,1-1.9-.415,3.272,3.272,0,0,1-1.419-1.137l.8-.921a3,3,0,0,0,2.416,1.22,2.353,2.353,0,0,0,1.747-.631,2.411,2.411,0,0,0,.627-1.776V41.1a3.156,3.156,0,0,1-2.515,1.063,3.068,3.068,0,0,1-2.552-1.27A5.55,5.55,0,0,1,73.811,37.435Zm1.544.174A4.027,4.027,0,0,0,75.977,40a2.023,2.023,0,0,0,1.743.867,2.249,2.249,0,0,0,2.133-1.32v-4.1a2.276,2.276,0,0,0-2.117-1.287,2.041,2.041,0,0,0-1.751.872A4.386,4.386,0,0,0,75.354,37.609Zm13.9,3.5a3.262,3.262,0,0,1-2.631,1.054,2.792,2.792,0,0,1-2.187-.834,3.611,3.611,0,0,1-.76-2.469V33.019h1.536v5.8q0,2.042,1.66,2.042a2.3,2.3,0,0,0,2.341-1.312V33.019h1.536V42H89.292ZM97.426,34.4a4.6,4.6,0,0,0-.755-.058,2.024,2.024,0,0,0-2.05,1.287V42H93.085V33.019h1.494l.025,1.038a2.391,2.391,0,0,1,2.142-1.2,1.569,1.569,0,0,1,.681.116Zm3.08,7.6H98.97V33.019h1.536Zm-1.66-11.364a.917.917,0,0,1,.228-.631.857.857,0,0,1,.677-.257.87.87,0,0,1,.681.257.907.907,0,0,1,.232.631.877.877,0,0,1-.232.623.886.886,0,0,1-.681.249.872.872,0,0,1-.677-.249A.886.886,0,0,1,98.846,30.636Zm3.744,6.8a5.261,5.261,0,0,1,.979-3.324,3.333,3.333,0,0,1,5.063-.178V29.25h1.536V42h-1.411l-.075-.963a3.127,3.127,0,0,1-2.565,1.129,3.068,3.068,0,0,1-2.544-1.278,5.321,5.321,0,0,1-.984-3.337Zm1.536.174A3.984,3.984,0,0,0,104.756,40a2.039,2.039,0,0,0,1.743.863,2.24,2.24,0,0,0,2.133-1.312V35.426a2.257,2.257,0,0,0-2.117-1.27,2.049,2.049,0,0,0-1.76.872A4.386,4.386,0,0,0,104.125,37.609ZM118.1,42a3.226,3.226,0,0,1-.216-.946,3.426,3.426,0,0,1-2.557,1.112,3.17,3.17,0,0,1-2.179-.751,2.43,2.43,0,0,1-.851-1.905,2.539,2.539,0,0,1,1.067-2.179,5.029,5.029,0,0,1,3-.776h1.494v-.706a1.725,1.725,0,0,0-.481-1.282,1.935,1.935,0,0,0-1.419-.477,2.239,2.239,0,0,0-1.378.415,1.223,1.223,0,0,0-.556,1h-1.544a2.119,2.119,0,0,1,.477-1.3,3.258,3.258,0,0,1,1.295-.992,4.356,4.356,0,0,1,1.8-.365,3.551,3.551,0,0,1,2.432.776,2.8,2.8,0,0,1,.913,2.137V39.9a5.054,5.054,0,0,0,.315,1.967V42Zm-2.548-1.17a2.7,2.7,0,0,0,1.37-.374,2.259,2.259,0,0,0,.938-.971V37.642h-1.2q-2.822,0-2.822,1.652a1.4,1.4,0,0,0,.481,1.129A1.85,1.85,0,0,0,115.547,40.83Zm5.877-3.4a5.261,5.261,0,0,1,.979-3.324,3.333,3.333,0,0,1,5.063-.178V29.25H129V42h-1.411l-.075-.963a3.127,3.127,0,0,1-2.565,1.129,3.068,3.068,0,0,1-2.544-1.278,5.321,5.321,0,0,1-.984-3.337Zm1.536.174A3.984,3.984,0,0,0,123.59,40a2.039,2.039,0,0,0,1.743.863,2.24,2.24,0,0,0,2.133-1.312V35.426a2.257,2.257,0,0,0-2.117-1.27,2.049,2.049,0,0,0-1.76.872A4.386,4.386,0,0,0,122.959,37.609Zm12.26-.174a5.261,5.261,0,0,1,.979-3.324,3.333,3.333,0,0,1,5.063-.178V29.25H142.8V42h-1.411l-.075-.963a3.127,3.127,0,0,1-2.565,1.129,3.068,3.068,0,0,1-2.544-1.278,5.321,5.321,0,0,1-.984-3.337Zm1.536.174A3.984,3.984,0,0,0,137.386,40a2.039,2.039,0,0,0,1.743.863,2.24,2.24,0,0,0,2.133-1.312V35.426a2.257,2.257,0,0,0-2.117-1.27,2.049,2.049,0,0,0-1.76.872A4.386,4.386,0,0,0,136.755,37.609Zm12.152,4.557a3.924,3.924,0,0,1-2.972-1.2,4.452,4.452,0,0,1-1.146-3.208v-.282a5.39,5.39,0,0,1,.51-2.386,3.982,3.982,0,0,1,1.428-1.644,3.59,3.59,0,0,1,1.988-.594,3.364,3.364,0,0,1,2.723,1.154,5,5,0,0,1,.971,3.3v.639h-6.084a3.193,3.193,0,0,0,.776,2.146,2.44,2.44,0,0,0,1.888.818,2.675,2.675,0,0,0,1.378-.332,3.462,3.462,0,0,0,.988-.88l.938.73A3.772,3.772,0,0,1,148.908,42.166Zm-.191-8.052a2.048,2.048,0,0,0-1.561.677,3.288,3.288,0,0,0-.78,1.9h4.5v-.116a2.925,2.925,0,0,0-.631-1.814A1.928,1.928,0,0,0,148.717,34.114ZM160.064,42h-1.536V29.25h1.536Zm8,0a3.226,3.226,0,0,1-.216-.946,3.426,3.426,0,0,1-2.557,1.112,3.17,3.17,0,0,1-2.179-.751,2.43,2.43,0,0,1-.851-1.905,2.539,2.539,0,0,1,1.067-2.179,5.029,5.029,0,0,1,3-.776h1.494v-.706a1.725,1.725,0,0,0-.481-1.282,1.935,1.935,0,0,0-1.419-.477,2.239,2.239,0,0,0-1.378.415,1.223,1.223,0,0,0-.556,1h-1.544a2.119,2.119,0,0,1,.477-1.3,3.258,3.258,0,0,1,1.295-.992,4.356,4.356,0,0,1,1.8-.365,3.551,3.551,0,0,1,2.432.776,2.8,2.8,0,0,1,.913,2.137V39.9a5.054,5.054,0,0,0,.315,1.967V42Zm-2.548-1.17a2.7,2.7,0,0,0,1.37-.374,2.259,2.259,0,0,0,.938-.971V37.642h-1.2q-2.822,0-2.822,1.652a1.4,1.4,0,0,0,.481,1.129A1.85,1.85,0,0,0,165.518,40.83ZM177.645,42h-1.536V33.019h1.536Zm-1.66-11.364a.917.917,0,0,1,.228-.631.857.857,0,0,1,.677-.257.87.87,0,0,1,.681.257.907.907,0,0,1,.232.631.877.877,0,0,1-.232.623.886.886,0,0,1-.681.249.872.872,0,0,1-.677-.249A.886.886,0,0,1,175.985,30.636Zm5.57,2.382.05,1.129a3.273,3.273,0,0,1,2.689-1.295q2.847,0,2.872,3.212V42H185.63V36.057a2.068,2.068,0,0,0-.444-1.436,1.78,1.78,0,0,0-1.357-.465,2.216,2.216,0,0,0-1.312.4,2.706,2.706,0,0,0-.88,1.046V42H180.1V33.019ZM190.237,42V34.206h-1.419V33.019h1.419V32.1a3.058,3.058,0,0,1,.772-2.233,2.916,2.916,0,0,1,2.183-.789,4.03,4.03,0,0,1,1.054.141l-.083,1.245a4.41,4.41,0,0,0-.83-.075,1.5,1.5,0,0,0-1.154.436,1.764,1.764,0,0,0-.407,1.249v.946h1.917v1.187h-1.917V42Zm4.74-4.574a5.3,5.3,0,0,1,.519-2.374,3.87,3.87,0,0,1,1.444-1.627,3.932,3.932,0,0,1,2.113-.573,3.788,3.788,0,0,1,2.968,1.27,4.886,4.886,0,0,1,1.133,3.378v.108a5.351,5.351,0,0,1-.5,2.353,3.813,3.813,0,0,1-1.436,1.623,3.977,3.977,0,0,1-2.146.581,3.778,3.778,0,0,1-2.959-1.27,4.861,4.861,0,0,1-1.133-3.362Zm1.544.183a3.842,3.842,0,0,0,.693,2.4A2.349,2.349,0,0,0,200.929,40a4.2,4.2,0,0,0,.689-2.569,3.836,3.836,0,0,0-.7-2.395,2.23,2.23,0,0,0-1.864-.917,2.205,2.205,0,0,0-1.834.9A4.17,4.17,0,0,0,196.521,37.609Zm12.9-3.212a4.6,4.6,0,0,0-.755-.058,2.024,2.024,0,0,0-2.05,1.287V42h-1.536V33.019h1.494l.025,1.038a2.391,2.391,0,0,1,2.142-1.2,1.569,1.569,0,0,1,.681.116Zm2.855-1.378.042,1a3.317,3.317,0,0,1,2.665-1.162,2.568,2.568,0,0,1,2.565,1.444,3.4,3.4,0,0,1,1.166-1.046,3.445,3.445,0,0,1,1.7-.4q2.955,0,3,3.129V42H221.88V36.073a2.062,2.062,0,0,0-.44-1.44,1.937,1.937,0,0,0-1.478-.477,2.036,2.036,0,0,0-1.419.51,2.071,2.071,0,0,0-.656,1.374V42h-1.544V36.115a1.713,1.713,0,0,0-1.917-1.959,2.055,2.055,0,0,0-2.067,1.287V42h-1.536V33.019Zm19,8.981a3.226,3.226,0,0,1-.216-.946,3.426,3.426,0,0,1-2.557,1.112,3.17,3.17,0,0,1-2.179-.751,2.43,2.43,0,0,1-.851-1.905,2.539,2.539,0,0,1,1.067-2.179,5.029,5.029,0,0,1,3-.776h1.494v-.706a1.725,1.725,0,0,0-.481-1.282,1.935,1.935,0,0,0-1.419-.477,2.239,2.239,0,0,0-1.378.415,1.223,1.223,0,0,0-.556,1h-1.544a2.119,2.119,0,0,1,.477-1.3,3.258,3.258,0,0,1,1.295-.992,4.356,4.356,0,0,1,1.8-.365,3.551,3.551,0,0,1,2.432.776,2.8,2.8,0,0,1,.913,2.137V39.9a5.054,5.054,0,0,0,.315,1.967V42Zm-2.548-1.17a2.7,2.7,0,0,0,1.37-.374,2.259,2.259,0,0,0,.938-.971V37.642h-1.2q-2.822,0-2.822,1.652a1.4,1.4,0,0,0,.481,1.129A1.85,1.85,0,0,0,228.728,40.83Zm9.853.083a2.212,2.212,0,0,0,1.436-.5,1.752,1.752,0,0,0,.681-1.245h1.453a2.785,2.785,0,0,1-.531,1.469,3.5,3.5,0,0,1-1.307,1.112,3.772,3.772,0,0,1-1.731.415,3.7,3.7,0,0,1-2.918-1.224,4.877,4.877,0,0,1-1.083-3.349v-.257A5.407,5.407,0,0,1,235.062,35a3.667,3.667,0,0,1,1.382-1.585,3.926,3.926,0,0,1,2.129-.564,3.6,3.6,0,0,1,2.511.9,3.234,3.234,0,0,1,1.067,2.349H240.7a2.116,2.116,0,0,0-.66-1.432,2.053,2.053,0,0,0-1.465-.56,2.149,2.149,0,0,0-1.814.843,3.957,3.957,0,0,0-.643,2.436v.291a3.878,3.878,0,0,0,.639,2.391A2.16,2.16,0,0,0,238.581,40.913ZM245.545,42H244.01V33.019h1.536Zm-1.66-11.364a.917.917,0,0,1,.228-.631.857.857,0,0,1,.677-.257.87.87,0,0,1,.681.257.907.907,0,0,1,.232.631.877.877,0,0,1-.232.623.886.886,0,0,1-.681.249.872.872,0,0,1-.677-.249A.886.886,0,0,1,243.885,30.636Zm3.71,6.79a5.3,5.3,0,0,1,.519-2.374,3.87,3.87,0,0,1,1.444-1.627,3.932,3.932,0,0,1,2.113-.573,3.788,3.788,0,0,1,2.968,1.27,4.886,4.886,0,0,1,1.133,3.378v.108a5.351,5.351,0,0,1-.5,2.353,3.813,3.813,0,0,1-1.436,1.623,3.977,3.977,0,0,1-2.146.581,3.778,3.778,0,0,1-2.959-1.27,4.861,4.861,0,0,1-1.133-3.362Zm1.544.183a3.842,3.842,0,0,0,.693,2.4A2.349,2.349,0,0,0,253.547,40a4.2,4.2,0,0,0,.689-2.569,3.836,3.836,0,0,0-.7-2.395,2.23,2.23,0,0,0-1.864-.917,2.205,2.205,0,0,0-1.834.9A4.17,4.17,0,0,0,249.14,37.609Zm3.229-8.359h1.859L252,31.69h-1.237Zm6.782,3.769.05,1.129a3.273,3.273,0,0,1,2.689-1.295q2.847,0,2.872,3.212V42h-1.536V36.057a2.068,2.068,0,0,0-.444-1.436,1.78,1.78,0,0,0-1.357-.465,2.216,2.216,0,0,0-1.312.4,2.706,2.706,0,0,0-.88,1.046V42H257.7V33.019Z" transform="translate(1021 5071)" fill="#12263f"/>
    </g>
  </g>
</svg>
