<svg xmlns="http://www.w3.org/2000/svg" width="85" height="74.429" viewBox="0 0 85 74.429">
  <g id="ordenador-portatil_3_" data-name="ordenador-portatil(3)" transform="translate(0 -31.837)">
    <path id="Trazado_599298" data-name="Trazado 599298" d="M223.731,180.158H196.393a1.276,1.276,0,0,1-1.276-1.276V147.305a1.276,1.276,0,0,1,1.276-1.276h27.337a1.276,1.276,0,0,1,1.276,1.276v31.577A1.276,1.276,0,0,1,223.731,180.158Zm-26.061-2.552h24.785V148.581H197.669Z" transform="translate(-162.725 -95.234)"/>
    <path id="Trazado_599299" data-name="Trazado 599299" d="M106.566,139.226V90.586a5.52,5.52,0,0,0-5.466-5.573H37.751a5.52,5.52,0,0,0-5.466,5.573v48.607" transform="translate(-26.925 -44.348)" fill="#53515e"/>
    <path id="Trazado_599300" data-name="Trazado 599300" d="M224.24,125.053h17.188a6.945,6.945,0,1,0,13.789-.025,3.994,3.994,0,0,0,3.55-3.969V86.086a5.371,5.371,0,0,0-3.223-1.073h-38.07v33.273A6.767,6.767,0,0,0,224.24,125.053Z" transform="translate(-181.369 -44.348)" fill="#474756"/>
    <path id="Trazado_599301" data-name="Trazado 599301" d="M56.2,409.2H7.687v2.633a7.873,7.873,0,0,0,7.872,7.872h66.7a7.873,7.873,0,0,0,7.872-7.872V409.2Z" transform="translate(-6.411 -314.713)" fill="#dfe2ea"/>
    <path id="Trazado_599302" data-name="Trazado 599302" d="M10.387,440.838a7.874,7.874,0,0,0,7.424,5.253h66.7a7.875,7.875,0,0,0,7.424-5.253H10.387Z" transform="translate(-8.663 -341.1)" fill="#c7cad3"/>
    <rect id="Rectángulo_44952" data-name="Rectángulo 44952" width="62.455" height="41.675" transform="translate(11.57 46.791)" fill="#fff"/>
    <path id="Trazado_599303" data-name="Trazado 599303" d="M255.394,121.909H217.473v27.233a6.767,6.767,0,0,0,6.767,6.767h17.188a6.934,6.934,0,0,0,5.81,7.676h2.172a6.934,6.934,0,0,0,5.807-7.7c.06-.007.119-.019.178-.028V121.909Z" transform="translate(-181.369 -75.119)" fill="#e9ebf2"/>
    <circle id="Elipse_5383" data-name="Elipse 5383" cx="2.552" cy="2.552" r="2.552" transform="translate(64.405 79.025)" fill="#00aaf0"/>
    <path id="Trazado_599304" data-name="Trazado 599304" d="M269.011,39.524H241.152a3.341,3.341,0,0,0-3.341,3.341V79.742a3.341,3.341,0,0,0,3.341,3.341h21.842l2.3,2.3,2.3-2.3h1.424a3.341,3.341,0,0,0,3.341-3.341V42.865A3.34,3.34,0,0,0,269.011,39.524Z" transform="translate(-198.331 -6.411)" fill="#aae1ff"/>
    <path id="Trazado_599305" data-name="Trazado 599305" d="M269.011,39.524H241.152a3.341,3.341,0,0,0-3.341,3.341V53.136h34.541V42.865A3.341,3.341,0,0,0,269.011,39.524Z" transform="translate(-198.331 -6.411)" fill="#6f4bef"/>
    <circle id="Elipse_5384" data-name="Elipse 5384" cx="2.633" cy="2.633" r="2.633" transform="translate(44.502 37.389)" fill="#fff082"/>
    <path id="Trazado_599306" data-name="Trazado 599306" d="M115.893,164.337h-8.922a.849.849,0,0,1-.849-.849v-8.922a.849.849,0,0,1,.849-.849h8.922a.849.849,0,0,1,.849.849v8.922A.849.849,0,0,1,115.893,164.337Z" transform="translate(-88.504 -101.646)" fill="#2ff980"/>
    <path id="Trazado_599307" data-name="Trazado 599307" d="M83.724,93.209H80.916V46.238A6.828,6.828,0,0,0,75.3,39.486V36.454a4.622,4.622,0,0,0-4.617-4.617H42.821A4.622,4.622,0,0,0,38.2,36.454v9.06H11.57a1.276,1.276,0,0,0-1.276,1.276V88.466a1.276,1.276,0,0,0,1.276,1.276H74.025A1.276,1.276,0,0,0,75.3,88.466V82.627a1.276,1.276,0,0,0-2.552,0V87.19h-59.9V48.067H38.2V73.331a4.622,4.622,0,0,0,4.617,4.617H64.134l.551.551a3.828,3.828,0,1,0,4.547,0l.553-.553h.895A4.622,4.622,0,0,0,75.3,73.331V42.1a4.288,4.288,0,0,1,3.067,4.139V93.209H17.845a1.276,1.276,0,0,0,0,2.552H79.357a1.247,1.247,0,0,0,.566,0h2.524v1.357a6.6,6.6,0,0,1-6.6,6.6H9.149a6.6,6.6,0,0,1-6.6-6.6V95.761H12.57a1.276,1.276,0,0,0,0-2.552H6.636V46.238a4.249,4.249,0,0,1,4.19-4.3H33.668a1.276,1.276,0,1,0,0-2.552H10.826a6.8,6.8,0,0,0-6.742,6.849V93.208H1.276A1.276,1.276,0,0,0,0,94.485v2.633a9.159,9.159,0,0,0,9.149,9.149h66.7A9.159,9.159,0,0,0,85,97.118V94.485A1.276,1.276,0,0,0,83.724,93.209Zm-40.9-58.819H70.68a2.067,2.067,0,0,1,2.064,2.064v9H40.757v-9A2.067,2.067,0,0,1,42.821,34.389ZM66.958,82.854a1.276,1.276,0,1,1,1.276-1.276A1.278,1.278,0,0,1,66.958,82.854ZM70.68,75.4H69.257a1.276,1.276,0,0,0-.9.374L66.96,77.164l-1.395-1.395a1.276,1.276,0,0,0-.9-.374H42.821a2.067,2.067,0,0,1-2.064-2.064V48H72.745v25.33A2.067,2.067,0,0,1,70.68,75.4Z"/>
    <circle id="Elipse_5385" data-name="Elipse 5385" cx="1.276" cy="1.276" r="1.276" transform="translate(67.869 50.795)"/>
    <path id="Trazado_599308" data-name="Trazado 599308" d="M264.493,148.581h19.066a1.276,1.276,0,0,0,0-2.552H264.493a1.276,1.276,0,0,0,0,2.552Z" transform="translate(-219.519 -95.234)"/>
    <path id="Trazado_599309" data-name="Trazado 599309" d="M130.366,247.238h-6.632a1.276,1.276,0,1,0,0,2.552h6.632a1.276,1.276,0,0,0,0-2.552Z" transform="translate(-102.128 -179.641)"/>
    <circle id="Elipse_5386" data-name="Elipse 5386" cx="1.276" cy="1.276" r="1.276" transform="translate(43.697 56.594)"/>
    <circle id="Elipse_5387" data-name="Elipse 5387" cx="1.276" cy="1.276" r="1.276" transform="translate(16.341 67.596)"/>
    <path id="Trazado_599310" data-name="Trazado 599310" d="M130.366,275.935h-6.632a1.276,1.276,0,1,0,0,2.552h6.632a1.276,1.276,0,1,0,0-2.552Z" transform="translate(-102.128 -203.574)"/>
    <circle id="Elipse_5388" data-name="Elipse 5388" cx="1.276" cy="1.276" r="1.276" transform="translate(16.341 72.361)"/>
    <path id="Trazado_599311" data-name="Trazado 599311" d="M130.366,306.682h-6.632a1.276,1.276,0,1,0,0,2.552h6.632a1.276,1.276,0,1,0,0-2.552Z" transform="translate(-102.128 -229.216)"/>
    <circle id="Elipse_5389" data-name="Elipse 5389" cx="1.276" cy="1.276" r="1.276" transform="translate(16.341 77.466)"/>
    <path id="Trazado_599312" data-name="Trazado 599312" d="M130.366,336.234h-6.632a1.276,1.276,0,1,0,0,2.552h6.632a1.276,1.276,0,1,0,0-2.552Z" transform="translate(-102.128 -253.862)"/>
    <circle id="Elipse_5390" data-name="Elipse 5390" cx="1.276" cy="1.276" r="1.276" transform="translate(16.341 82.372)"/>
    <path id="Trazado_599313" data-name="Trazado 599313" d="M314.306,180.961H295.24a1.276,1.276,0,1,0,0,2.552h19.066a1.276,1.276,0,0,0,0-2.552Z" transform="translate(-245.161 -124.367)"/>
    <path id="Trazado_599314" data-name="Trazado 599314" d="M306.167,210H295.24a1.276,1.276,0,1,0,0,2.552h10.927a1.276,1.276,0,0,0,0-2.552Z" transform="translate(-245.161 -148.585)"/>
    <path id="Trazado_599315" data-name="Trazado 599315" d="M264.277,65.414a3.909,3.909,0,1,0-3.909-3.909A3.914,3.914,0,0,0,264.277,65.414Zm0-5.266a1.357,1.357,0,1,1-1.357,1.357A1.358,1.358,0,0,1,264.277,60.148Z" transform="translate(-217.143 -21.483)"/>
    <path id="Trazado_599316" data-name="Trazado 599316" d="M111.606,147.305a1.276,1.276,0,0,0-1.276-1.276H99.71a1.276,1.276,0,0,0-1.276,1.276v10.62A1.276,1.276,0,0,0,99.71,159.2h10.62a1.276,1.276,0,0,0,1.276-1.276Zm-2.552,9.344h-8.068v-8.068h8.068Z" transform="translate(-82.092 -95.234)"/>
  </g>
</svg>
