<svg xmlns="http://www.w3.org/2000/svg" width="85" height="84.006" viewBox="0 0 85 84.006">
  <g id="ordenador-portatil_5_" data-name="ordenador-portatil(5)" transform="translate(0 -2.994)">
    <path id="Trazado_599329" data-name="Trazado 599329" d="M106.565,168.067v-48.64a5.52,5.52,0,0,0-5.466-5.573H37.751a5.52,5.52,0,0,0-5.466,5.573v48.607" transform="translate(-26.925 -92.456)" fill="#53515e"/>
    <path id="Trazado_599330" data-name="Trazado 599330" d="M56.2,438.04H7.687v2.633a7.873,7.873,0,0,0,7.872,7.872h66.7a7.873,7.873,0,0,0,7.872-7.872V438.04Z" transform="translate(-6.411 -362.822)" fill="#dfe2ea"/>
    <path id="Trazado_599331" data-name="Trazado 599331" d="M10.387,469.68a7.874,7.874,0,0,0,7.424,5.253h66.7a7.875,7.875,0,0,0,7.424-5.253H10.387Z" transform="translate(-8.663 -389.209)" fill="#c7cad3"/>
    <rect id="Rectángulo_44955" data-name="Rectángulo 44955" width="62.455" height="41.675" transform="translate(11.57 27.524)" fill="#fff"/>
    <path id="Trazado_599332" data-name="Trazado 599332" d="M132.776,10.681v9.195a1.847,1.847,0,0,1-1.847,1.847h-5.971a1.847,1.847,0,0,1-1.847-1.847V10.681a11.887,11.887,0,0,0-.1,21.678l-1.626,36.389a6.564,6.564,0,0,0,6.557,6.857h0a6.564,6.564,0,0,0,6.555-6.9l-1.868-36.234a11.889,11.889,0,0,0,.145-21.788ZM129.268,70.3a1.966,1.966,0,1,1,0-2.781A1.966,1.966,0,0,1,129.268,70.3Z" transform="translate(-96.789 -6.411)" fill="#c7cad3"/>
    <g id="Grupo_156709" data-name="Grupo 156709" transform="translate(19.267 12.861)">
      <path id="Trazado_599333" data-name="Trazado 599333" d="M216.916,78.362l.164,3.184a11.888,11.888,0,0,0,6.868-10.777c0-.358-.018-.712-.049-1.062A11.907,11.907,0,0,1,216.916,78.362Z" transform="translate(-200.172 -68.498)" fill="#aaacb2"/>
      <path id="Trazado_599334" data-name="Trazado 599334" d="M148.282,340.327l-.149,3.34a6.564,6.564,0,0,0,6.557,6.857h0a6.564,6.564,0,0,0,6.555-6.9l-.063-1.232a6.566,6.566,0,0,1-6.323,4.8h0a6.585,6.585,0,0,1-6.577-6.863" transform="translate(-142.802 -294.191)" fill="#aaacb2"/>
      <path id="Trazado_599335" data-name="Trazado 599335" d="M123.012,75.514l.169-3.334a11.893,11.893,0,0,1-6.908-9.753,11.9,11.9,0,0,0,6.739,13.087" transform="translate(-116.056 -62.427)" fill="#aaacb2"/>
    </g>
    <path id="Trazado_599336" data-name="Trazado 599336" d="M319.112,11.547h-5.083a.726.726,0,0,0-.694.941l1.224,3.96V41.453h4.023V16.448l1.224-3.96A.726.726,0,0,0,319.112,11.547Z" transform="translate(-261.289 -7.133)" fill="#e9ebf2"/>
    <path id="Trazado_599337" data-name="Trazado 599337" d="M325.425,11.547h-1.283a.725.725,0,0,1,.3.823l-1.224,3.96V41.335h-2.344v.118h4.023V16.448l1.224-3.96A.726.726,0,0,0,325.425,11.547Z" transform="translate(-267.602 -7.133)" fill="#c7cad3"/>
    <path id="Trazado_599338" data-name="Trazado 599338" d="M304.824,199.934a5.306,5.306,0,0,1,3.169-4.857v-2.7a2.221,2.221,0,0,0-2.221-2.221H297.79a2.221,2.221,0,0,0-2.221,2.221v2.7a5.306,5.306,0,0,1,0,9.714v14.34a6.212,6.212,0,0,0,6.212,6.212h0a6.212,6.212,0,0,0,6.212-6.212v-14.34A5.306,5.306,0,0,1,304.824,199.934Z" transform="translate(-246.5 -156.086)" fill="#ffdc64"/>
    <path id="Trazado_599339" data-name="Trazado 599339" d="M326.26,190.151h-1.887a2.218,2.218,0,0,1,1.09,1.909v2.7a5.306,5.306,0,0,0,0,9.714v14.34a6.213,6.213,0,0,1-5.327,6.148,6.216,6.216,0,0,0,8.346-5.836v-14.34a5.306,5.306,0,0,1,0-9.714v-2.705A2.221,2.221,0,0,0,326.26,190.151Z" transform="translate(-266.988 -156.086)" fill="#ffc850"/>
    <g id="Grupo_156710" data-name="Grupo 156710" transform="translate(52.453 50.257)">
      <path id="Trazado_599340" data-name="Trazado 599340" d="M317.369,300.191a.828.828,0,0,1-1.414-.586V288.511a.828.828,0,0,1,1.656,0v11.094A.827.827,0,0,1,317.369,300.191Z" transform="translate(-315.955 -287.683)" fill="#ff6b5c"/>
      <path id="Trazado_599341" data-name="Trazado 599341" d="M342.06,300.191a.828.828,0,0,1-1.414-.586V288.511a.828.828,0,0,1,1.657,0v11.094A.827.827,0,0,1,342.06,300.191Z" transform="translate(-336.547 -287.683)" fill="#ff6b5c"/>
    </g>
    <path id="Trazado_599342" data-name="Trazado 599342" d="M83.724,159.987H80.916V113.016a6.8,6.8,0,0,0-6.742-6.849H61.954a1.276,1.276,0,1,0,0,2.552h12.22a4.249,4.249,0,0,1,4.19,4.3v46.971H1.276A1.276,1.276,0,0,0,0,161.263V163.9a9.159,9.159,0,0,0,9.149,9.149h66.7A9.159,9.159,0,0,0,85,163.9v-2.633A1.276,1.276,0,0,0,83.724,159.987ZM82.448,163.9a6.6,6.6,0,0,1-6.6,6.6H9.149a6.6,6.6,0,0,1-6.6-6.6v-1.357h76.8a1.247,1.247,0,0,0,.566,0h2.524V163.9Z" transform="translate(0 -86.045)"/>
    <path id="Trazado_599343" data-name="Trazado 599343" d="M25.874,70.476A1.276,1.276,0,0,0,27.15,69.2V26.971a4.249,4.249,0,0,1,4.19-4.3h9.551a13.19,13.19,0,0,0,3.732,3.573H32.084a1.276,1.276,0,0,0-1.276,1.276V69.2a1.276,1.276,0,0,0,1.276,1.276h42.8a7.264,7.264,0,0,0,1.816,0H94.54A1.276,1.276,0,0,0,95.816,69.2V42.772a1.276,1.276,0,1,0-2.552,0V67.923H81.469a7.453,7.453,0,0,0,1.815-4.879V48.7a1.276,1.276,0,0,0-.762-1.168,4.03,4.03,0,0,1,0-7.378,1.276,1.276,0,0,0,.762-1.168V36.286a3.5,3.5,0,0,0-3.5-3.5h-.7V28.8H93.263V35.37a1.276,1.276,0,1,0,2.552,0V27.524a1.276,1.276,0,0,0-1.276-1.276H79.083V9.439a2.044,2.044,0,0,0,.1-.259L80.25,5.731a2,2,0,0,0-1.913-2.593H73.254a2,2,0,0,0-1.913,2.593L72.406,9.18a2.017,2.017,0,0,0,.1.259V20.122H63.852A13.167,13.167,0,0,0,57.021,3.1a1.276,1.276,0,0,0-1.8,1.166v9.194a.571.571,0,0,1-.571.571H48.684a.571.571,0,0,1-.57-.571V4.27a1.276,1.276,0,0,0-1.8-1.166A13.142,13.142,0,0,0,39.5,20.122H31.34A6.8,6.8,0,0,0,24.6,26.972V69.2A1.276,1.276,0,0,0,25.874,70.476ZM59.5,62.226,57.776,28.8H72.508v3.989h-.7a3.5,3.5,0,0,0-3.5,3.5v2.7a1.276,1.276,0,0,0,.762,1.168,4.03,4.03,0,0,1,0,7.378,1.276,1.276,0,0,0-.762,1.168v14.34a7.454,7.454,0,0,0,1.815,4.879H57.449A7.764,7.764,0,0,0,59.5,62.226Zm21.232-25.94V38.22a6.582,6.582,0,0,0,0,11.257V63.045a4.944,4.944,0,0,1-4.185,4.879h-1.5a4.944,4.944,0,0,1-4.185-4.879V49.476a6.582,6.582,0,0,0,0-11.257V36.286a.946.946,0,0,1,.945-.945h7.982A.946.946,0,0,1,80.731,36.286Zm-5.671-3.5v-22.2h1.471v22.2Zm2.531-27.1-.726,2.349h-2.14L74,5.69ZM63.312,22.674h9.2v3.573H58.721a13.149,13.149,0,0,0,3.885-3.786A1.269,1.269,0,0,0,63.312,22.674ZM45.561,6.456v7.009a3.126,3.126,0,0,0,3.123,3.123h5.971a3.126,3.126,0,0,0,3.123-3.123V6.456a10.612,10.612,0,0,1-1.924,18.43,1.276,1.276,0,0,0-.771,1.238L56.95,62.358a5.288,5.288,0,1,1-10.563.036l.823-18.421a1.276,1.276,0,0,0-2.55-.114L43.838,62.28a7.767,7.767,0,0,0,2.052,5.644H33.36V28.8H45.333L44.9,38.552a1.276,1.276,0,1,0,2.55.114L48.013,26a1.276,1.276,0,0,0-.745-1.218A10.61,10.61,0,0,1,45.561,6.456Z" transform="translate(-20.514)"/>
    <path id="Trazado_599344" data-name="Trazado 599344" d="M170.981,348.375a3.232,3.232,0,0,0,2.293-.948h0a3.246,3.246,0,1,0-2.293.948Zm-.488-3.729a.69.69,0,1,1,0,.976A.688.688,0,0,1,170.493,344.646Z" transform="translate(-139.892 -282.635)"/>
    <path id="Trazado_599345" data-name="Trazado 599345" d="M314.533,284.986a1.276,1.276,0,0,0-1.276,1.276v11.094a1.276,1.276,0,1,0,2.552,0V286.262A1.276,1.276,0,0,0,314.533,284.986Z" transform="translate(-261.252 -235.177)"/>
    <path id="Trazado_599346" data-name="Trazado 599346" d="M337.948,286.262v11.094a1.276,1.276,0,1,0,2.552,0V286.262a1.276,1.276,0,0,0-2.552,0Z" transform="translate(-281.843 -235.177)"/>
  </g>
</svg>
