<svg id="_x37_6_Pyramid_Graph" xmlns="http://www.w3.org/2000/svg" width="77.587" height="75.171" viewBox="0 0 77.587 75.171">
  <g id="Grupo_953549" data-name="Grupo 953549">
    <g id="Grupo_953548" data-name="Grupo 953548" transform="translate(0.809 8.918)">
      <path id="Trazado_658210" data-name="Trazado 658210" d="M211.073,87.887,201.016,70.564,190.962,87.887Z" transform="translate(-163.032 -70.564)" fill="#475da9"/>
      <path id="Trazado_658211" data-name="Trazado 658211" d="M148.675,243.3l-10.056-17.322H110.685L100.631,243.3Z" transform="translate(-86.666 -201.952)" fill="#475da9"/>
      <path id="Trazado_658212" data-name="Trazado 658212" d="M20.35,381.84,10.3,399.163l75.969-.014L76.217,381.84Z" transform="translate(-10.296 -333.718)" fill="#475da9"/>
    </g>
    <path id="Trazado_658213" data-name="Trazado 658213" d="M211.073,87.887,201.016,70.564,190.962,87.887Z" transform="translate(-162.223 -61.646)" fill="#d1f1f6"/>
    <path id="Trazado_658214" data-name="Trazado 658214" d="M148.675,243.3l-10.056-17.322H110.685L100.631,243.3Z" transform="translate(-85.857 -193.035)" fill="#d5cef8"/>
    <path id="Trazado_658215" data-name="Trazado 658215" d="M20.35,381.84,10.3,399.163l75.969-.014L76.217,381.84Z" transform="translate(-9.487 -324.8)" fill="#fff"/>
    <path id="Trazado_658216" data-name="Trazado 658216" d="M338.21,18.108a3.617,3.617,0,1,1-3.614,3.614A3.615,3.615,0,0,1,338.21,18.108Z" transform="translate(-283.652 -17.3)" fill="#2ff980"/>
    <path id="Trazado_658217" data-name="Trazado 658217" d="M13.91,230.177a3.617,3.617,0,1,0,3.614,3.614,3.615,3.615,0,0,0-3.614-3.614Z" transform="translate(-9.487 -196.584)" fill="#fff"/>
    <path id="Trazado_658218" data-name="Trazado 658218" d="M451.941,170.406a3.617,3.617,0,1,1-3.614,3.614A3.615,3.615,0,0,1,451.941,170.406Z" transform="translate(-379.8 -146.053)" fill="#d5cef8"/>
    <path id="Trazado_658219" data-name="Trazado 658219" d="M202.364,30.128l-5.072-8.737a.841.841,0,0,0-1.4,0L185.839,38.714a.809.809,0,0,0,.7,1.214h20.112a.809.809,0,0,0,.7-1.214l-4.046-6.97h9.053a.808.808,0,0,0,.808-.808V21.652a4.423,4.423,0,1,0-1.616,0v8.477Zm2.881,8.184h-17.3l8.652-14.9Zm4.306-21.01a2.806,2.806,0,1,1,2.807,2.811A2.81,2.81,0,0,1,209.551,17.3Z" transform="translate(-157.799 -12.879)" fill="#116fff"/>
    <path id="Trazado_658220" data-name="Trazado 658220" d="M147.784,183.618l5.082-9.651a4.431,4.431,0,1,0-1.534-.555l-4.751,9.022h-6.893l-4.8-8.26a.809.809,0,0,0-.7-.4H106.26a.809.809,0,0,0-.7.4L95.506,191.495a.809.809,0,0,0,.7,1.214h48.044a.809.809,0,0,0,.7-1.214l-4.322-7.445h6.442a.809.809,0,0,0,.715-.432Zm2.983-14.017a2.807,2.807,0,1,1,2.807,2.811A2.809,2.809,0,0,1,150.766,169.6Zm-7.921,21.491H97.609l9.117-15.705h27Z" transform="translate(-81.432 -141.634)" fill="#116fff"/>
    <path id="Trazado_658221" data-name="Trazado 658221" d="M81.842,267.323a.809.809,0,0,0,.7-1.214L72.493,248.8a.809.809,0,0,0-.7-.4H15.927a.809.809,0,0,0-.7.4l-2.694,4.642-2.237-1.18V233.723a4.422,4.422,0,1,0-1.616,0V252.75a.809.809,0,0,0,.431.715l2.61,1.377L5.173,266.122a.809.809,0,0,0,.7,1.214ZM9.488,232.181l-.011,0a2.826,2.826,0,1,1,.021,0Zm6.9,17.832H71.328l9.111,15.693-73.163.013Z" transform="translate(-5.063 -192.166)" fill="#116fff"/>
  </g>
</svg>
