<svg xmlns="http://www.w3.org/2000/svg" width="105" height="105" viewBox="0 0 105 105">
  <g id="Grupo_953693" data-name="Grupo 953693" transform="translate(6511 8862)">
    <rect id="Rectángulo_44600" data-name="Rectángulo 44600" width="105" height="105" transform="translate(-6406 -8757) rotate(180)" fill="#36257b"/>
    <g id="problema" transform="translate(-6491 -8842)">
      <path id="Trazado_598956" data-name="Trazado 598956" d="M32.255,18.439h-2.93L31.4,16.367l-4.509-4.508-2.072,2.072V11H18.439v2.931l-2.072-2.072-4.509,4.508,2.072,2.072H11v6.376h2.93l-2.072,2.071L16.367,31.4l2.072-2.072v2.931h6.376V29.324L26.888,31.4,31.4,26.887l-2.072-2.071h2.93ZM30.129,22.69h-.8a2.125,2.125,0,0,0-1.5,3.628l.57.569-1.5,1.5-.57-.57a2.125,2.125,0,0,0-3.628,1.5v.806H20.565v-.806a2.125,2.125,0,0,0-3.628-1.5l-.57.57-1.5-1.5.57-.569a2.125,2.125,0,0,0-1.5-3.628h-.8V20.565h.8a2.125,2.125,0,0,0,1.5-3.628l-.57-.57,1.5-1.5.57.57a2.125,2.125,0,0,0,3.628-1.5v-.806H22.69v.806a2.125,2.125,0,0,0,3.628,1.5l.57-.57,1.5,1.5-.57.57a2.125,2.125,0,0,0,1.5,3.628h.8Z" transform="translate(-0.373 -0.373)" fill="#fff"/>
      <path id="Trazado_598957" data-name="Trazado 598957" d="M21.251,17A4.251,4.251,0,1,0,25.5,21.251,4.255,4.255,0,0,0,21.251,17Zm0,6.376a2.125,2.125,0,1,1,2.125-2.125A2.128,2.128,0,0,1,21.251,23.376Z" transform="translate(0.004 0.004)" fill="#fff"/>
      <path id="Trazado_598958" data-name="Trazado 598958" d="M64.764,1H54.137a2.128,2.128,0,0,0-2.125,2.125V5.251H45.635V15.878H42.517A21.249,21.249,0,1,0,15.878,42.53V63.7a3.192,3.192,0,0,0,3.188,3.188h6.376A3.192,3.192,0,0,0,28.631,63.7V58.388h17v4.251h6.376v2.125a2.128,2.128,0,0,0,2.125,2.125H64.764a2.128,2.128,0,0,0,2.125-2.125V58.388a2.128,2.128,0,0,0-2.125-2.125H54.137a2.128,2.128,0,0,0-2.125,2.125v2.125H47.76V56.262H28.631V52.011h8.5V47.76h2.125v4.251a2.128,2.128,0,0,0,2.125,2.125H52.011a2.128,2.128,0,0,0,2.125-2.125V45.635a2.128,2.128,0,0,0-2.125-2.125H41.384a2.128,2.128,0,0,0-2.125,2.125H35.008v4.251H28.631V42.529A21.085,21.085,0,0,0,43.063,26.506h2.572V37.133h6.376v2.125a2.128,2.128,0,0,0,2.125,2.125H64.764a2.128,2.128,0,0,0,2.125-2.125V32.882a2.128,2.128,0,0,0-2.125-2.125H54.137a2.128,2.128,0,0,0-2.125,2.125v2.125H47.76V24.38H35.008v2.125h1.509a14.893,14.893,0,1,1-.826-10.627h-.683V18H47.76V7.376h4.251V9.5a2.128,2.128,0,0,0,2.125,2.125H64.764A2.128,2.128,0,0,0,66.89,9.5V3.125A2.128,2.128,0,0,0,64.764,1ZM54.137,58.388H64.764v6.376H54.137ZM41.384,45.635H52.011v6.376H41.384ZM54.137,32.882H64.764v6.376H54.137ZM25.443,64.764H19.067A1.064,1.064,0,0,1,18,63.7V49.886h8.5V63.7A1.064,1.064,0,0,1,25.443,64.764Zm1.063-17H18V43.081a21.3,21.3,0,0,0,4.251.428,21.559,21.559,0,0,0,4.251-.434ZM22.255,5.251A17,17,0,1,0,38.706,26.506H40.9a19.113,19.113,0,1,1-.607-10.627H38.008A17.026,17.026,0,0,0,22.255,5.251ZM54.137,9.5V3.125H64.764V9.5Z" transform="translate(-1 -1)" fill="#fff"/>
      <path id="Trazado_598959" data-name="Trazado 598959" d="M53,5h2.125V7.125H53Z" transform="translate(2.262 -0.749)" fill="#fff"/>
      <path id="Trazado_598960" data-name="Trazado 598960" d="M57,5h2.125V7.125H57Z" transform="translate(2.513 -0.749)" fill="#fff"/>
      <path id="Trazado_598961" data-name="Trazado 598961" d="M62.757,15H52.129A2.128,2.128,0,0,0,50,17.125v2.125H33v2.125H50V23.5a2.128,2.128,0,0,0,2.125,2.125H62.757A2.128,2.128,0,0,0,64.882,23.5V17.125A2.128,2.128,0,0,0,62.757,15ZM52.129,23.5V17.125H62.757V23.5Z" transform="translate(1.008 -0.122)" fill="#fff"/>
      <path id="Trazado_598962" data-name="Trazado 598962" d="M53,19h2.125v2.125H53Z" transform="translate(2.262 0.129)" fill="#fff"/>
      <path id="Trazado_598963" data-name="Trazado 598963" d="M57,19h2.125v2.125H57Z" transform="translate(2.513 0.129)" fill="#fff"/>
      <path id="Trazado_598964" data-name="Trazado 598964" d="M53,33h2.125v2.125H53Z" transform="translate(2.262 1.008)" fill="#fff"/>
      <path id="Trazado_598965" data-name="Trazado 598965" d="M57,33h2.125v2.125H57Z" transform="translate(2.513 1.008)" fill="#fff"/>
      <path id="Trazado_598966" data-name="Trazado 598966" d="M41,45h2.125v2.125H41Z" transform="translate(1.509 1.76)" fill="#fff"/>
      <path id="Trazado_598967" data-name="Trazado 598967" d="M45,45h2.125v2.125H45Z" transform="translate(1.76 1.76)" fill="#fff"/>
      <path id="Trazado_598968" data-name="Trazado 598968" d="M53,57h2.125v2.125H53Z" transform="translate(2.262 2.513)" fill="#fff"/>
      <path id="Trazado_598969" data-name="Trazado 598969" d="M57,57h2.125v2.125H57Z" transform="translate(2.513 2.513)" fill="#fff"/>
    </g>
  </g>
</svg>
