<svg xmlns="http://www.w3.org/2000/svg" width="1030" height="566" viewBox="0 0 1030 566">
  <g id="Grupo_953713" data-name="Grupo 953713" transform="translate(-285 -4773)">
    <path id="Trazado_658856" data-name="Trazado 658856" d="M0,0H1030V566H0Z" transform="translate(285 4773)" fill="#fff"/>
    <path id="Trazado_658857" data-name="Trazado 658857" d="M0,0H105V425H0Z" transform="translate(370 4835)" fill="#f5f3fd"/>
    <path id="Trazado_658858" data-name="Trazado 658858" d="M0,0H105V425H0Z" transform="translate(580 4835)" fill="#f5f3fd"/>
    <path id="Trazado_658859" data-name="Trazado 658859" d="M0,0H105V425H0Z" transform="translate(790 4835)" fill="#f5f3fd"/>
    <path id="Trazado_658860" data-name="Trazado 658860" d="M0,0H105V425H0Z" transform="translate(1000 4835)" fill="#f5f3fd"/>
    <path id="Trazado_658861" data-name="Trazado 658861" d="M0,0H105V425H0Z" transform="translate(1210 4835)" fill="#f5f3fd"/>
    <path id="Trazado_658862" data-name="Trazado 658862" d="M-8.546-6.79h1.154a2.536,2.536,0,0,0,1.71-.573,1.914,1.914,0,0,0,.623-1.5A1.875,1.875,0,0,0-7.176-10.99a2.2,2.2,0,0,0-1.59.569,1.99,1.99,0,0,0-.594,1.507h-1.536A3.083,3.083,0,0,1-9.845-11.3a3.825,3.825,0,0,1,2.669-.95,3.78,3.78,0,0,1,2.681.9,3.269,3.269,0,0,1,.971,2.515A2.653,2.653,0,0,1-4.034-7.3a3.082,3.082,0,0,1-1.39,1.1,2.97,2.97,0,0,1,1.54,1.046A2.9,2.9,0,0,1-3.341-3.37,3.3,3.3,0,0,1-4.4-.789,3.979,3.979,0,0,1-7.168.166,4.084,4.084,0,0,1-9.936-.755,3.056,3.056,0,0,1-11-3.187h1.544A1.975,1.975,0,0,0-8.836-1.66a2.368,2.368,0,0,0,1.668.573,2.324,2.324,0,0,0,1.7-.581,2.239,2.239,0,0,0,.589-1.668,2.032,2.032,0,0,0-.647-1.619,2.821,2.821,0,0,0-1.868-.581H-8.546Zm7.5,5.985a.962.962,0,0,1,.237-.664A.9.9,0,0,1-.1-1.735a.928.928,0,0,1,.718.266.942.942,0,0,1,.245.664.891.891,0,0,1-.245.639A.945.945,0,0,1-.1.091a.917.917,0,0,1-.71-.257A.909.909,0,0,1-1.042-.805ZM3.947-6.06l.614-6.026h6.192v1.419H5.865L5.5-7.371a3.9,3.9,0,0,1,2.017-.523A3.334,3.334,0,0,1,10.139-6.8a4.278,4.278,0,0,1,.971,2.951A4.129,4.129,0,0,1,10.1-.909,3.676,3.676,0,0,1,7.284.166,3.82,3.82,0,0,1,4.669-.722,3.545,3.545,0,0,1,3.515-3.179H4.968a2.439,2.439,0,0,0,.739,1.565,2.3,2.3,0,0,0,1.577.527,2.072,2.072,0,0,0,1.681-.73,3.054,3.054,0,0,0,.61-2.017,2.8,2.8,0,0,0-.66-1.947,2.245,2.245,0,0,0-1.756-.735,2.532,2.532,0,0,0-1.577.44l-.407.332Z" transform="translate(297 4884)" fill="#12263f"/>
    <path id="Trazado_658863" data-name="Trazado 658863" d="M-1.536-6.79H-.382a2.536,2.536,0,0,0,1.71-.573,1.914,1.914,0,0,0,.623-1.5A1.875,1.875,0,0,0-.166-10.99a2.2,2.2,0,0,0-1.59.569,1.99,1.99,0,0,0-.594,1.507H-3.885A3.083,3.083,0,0,1-2.835-11.3a3.825,3.825,0,0,1,2.669-.95,3.78,3.78,0,0,1,2.681.9,3.269,3.269,0,0,1,.971,2.515A2.653,2.653,0,0,1,2.976-7.3a3.082,3.082,0,0,1-1.39,1.1,2.97,2.97,0,0,1,1.54,1.046A2.9,2.9,0,0,1,3.669-3.37,3.3,3.3,0,0,1,2.606-.789,3.979,3.979,0,0,1-.158.166,4.084,4.084,0,0,1-2.926-.755,3.056,3.056,0,0,1-3.993-3.187h1.544A1.975,1.975,0,0,0-1.826-1.66a2.368,2.368,0,0,0,1.668.573,2.324,2.324,0,0,0,1.7-.581,2.239,2.239,0,0,0,.589-1.668,2.032,2.032,0,0,0-.647-1.619A2.821,2.821,0,0,0-.382-5.537H-1.536Z" transform="translate(297 4937)" fill="#12263f"/>
    <path id="Trazado_658864" data-name="Trazado 658864" d="M-2.86,0h-7.919V-1.1l4.184-4.648A9.939,9.939,0,0,0-5.312-7.467,2.861,2.861,0,0,0-4.96-8.832a2.169,2.169,0,0,0-.573-1.552A2,2,0,0,0-7.06-10.99a2.372,2.372,0,0,0-1.781.652,2.489,2.489,0,0,0-.635,1.814h-1.536a3.565,3.565,0,0,1,1.075-2.7A3.985,3.985,0,0,1-7.06-12.252a3.829,3.829,0,0,1,2.665.884,3.015,3.015,0,0,1,.979,2.353q0,1.785-2.274,4.25L-8.927-1.253H-2.86Zm1.818-.805a.962.962,0,0,1,.237-.664A.9.9,0,0,1-.1-1.735a.928.928,0,0,1,.718.266.942.942,0,0,1,.245.664.891.891,0,0,1-.245.639A.945.945,0,0,1-.1.091a.917.917,0,0,1-.71-.257A.909.909,0,0,1-1.042-.805ZM3.947-6.06l.614-6.026h6.192v1.419H5.865L5.5-7.371a3.9,3.9,0,0,1,2.017-.523A3.334,3.334,0,0,1,10.139-6.8a4.278,4.278,0,0,1,.971,2.951A4.129,4.129,0,0,1,10.1-.909,3.676,3.676,0,0,1,7.284.166,3.82,3.82,0,0,1,4.669-.722,3.545,3.545,0,0,1,3.515-3.179H4.968a2.439,2.439,0,0,0,.739,1.565,2.3,2.3,0,0,0,1.577.527,2.072,2.072,0,0,0,1.681-.73,3.054,3.054,0,0,0,.61-2.017,2.8,2.8,0,0,0-.66-1.947,2.245,2.245,0,0,0-1.756-.735,2.532,2.532,0,0,0-1.577.44l-.407.332Z" transform="translate(297 4990)" fill="#12263f"/>
    <path id="Trazado_658865" data-name="Trazado 658865" d="M4.15,0H-3.769V-1.1L.415-5.752A9.939,9.939,0,0,0,1.7-7.467,2.861,2.861,0,0,0,2.05-8.832a2.169,2.169,0,0,0-.573-1.552A2,2,0,0,0-.05-10.99a2.372,2.372,0,0,0-1.781.652,2.489,2.489,0,0,0-.635,1.814H-4a3.565,3.565,0,0,1,1.075-2.7A3.985,3.985,0,0,1-.05-12.252a3.829,3.829,0,0,1,2.665.884,3.015,3.015,0,0,1,.979,2.353q0,1.785-2.274,4.25L-1.917-1.253H4.15Z" transform="translate(297 5043)" fill="#12263f"/>
    <path id="Trazado_658866" data-name="Trazado 658866" d="M-5.732,0H-7.276V-10.235l-3.1,1.137v-1.395l4.4-1.652h.241Zm4.69-.805a.962.962,0,0,1,.237-.664A.9.9,0,0,1-.1-1.735a.928.928,0,0,1,.718.266.942.942,0,0,1,.245.664.891.891,0,0,1-.245.639A.945.945,0,0,1-.1.091a.917.917,0,0,1-.71-.257A.909.909,0,0,1-1.042-.805ZM3.947-6.06l.614-6.026h6.192v1.419H5.865L5.5-7.371a3.9,3.9,0,0,1,2.017-.523A3.334,3.334,0,0,1,10.139-6.8a4.278,4.278,0,0,1,.971,2.951A4.129,4.129,0,0,1,10.1-.909,3.676,3.676,0,0,1,7.284.166,3.82,3.82,0,0,1,4.669-.722,3.545,3.545,0,0,1,3.515-3.179H4.968a2.439,2.439,0,0,0,.739,1.565,2.3,2.3,0,0,0,1.577.527,2.072,2.072,0,0,0,1.681-.73,3.054,3.054,0,0,0,.61-2.017,2.8,2.8,0,0,0-.66-1.947,2.245,2.245,0,0,0-1.756-.735,2.532,2.532,0,0,0-1.577.44l-.407.332Z" transform="translate(297 5096)" fill="#12263f"/>
    <path id="Trazado_658867" data-name="Trazado 658867" d="M1.278,0H-.266V-10.235L-3.362-9.1v-1.395l4.4-1.652h.241Z" transform="translate(297 5149)" fill="#12263f"/>
    <path id="Trazado_658868" data-name="Trazado 658868" d="M-3.2-5.155a7.023,7.023,0,0,1-.921,4.009A3.277,3.277,0,0,1-7,.166,3.3,3.3,0,0,1-9.865-1.116a6.666,6.666,0,0,1-.963-3.831V-7a6.867,6.867,0,0,1,.921-3.959,3.3,3.3,0,0,1,2.889-1.295A3.332,3.332,0,0,1-4.146-11,6.627,6.627,0,0,1-3.2-7.147Zm-1.536-2.1A5.627,5.627,0,0,0-5.283-10.1a1.886,1.886,0,0,0-1.735-.892,1.861,1.861,0,0,0-1.718.888,5.494,5.494,0,0,0-.556,2.731v2.457a5.717,5.717,0,0,0,.569,2.893A1.882,1.882,0,0,0-7-1.087a1.856,1.856,0,0,0,1.689-.88A5.51,5.51,0,0,0-4.736-4.74Zm3.694,6.45a.962.962,0,0,1,.237-.664A.9.9,0,0,1-.1-1.735a.928.928,0,0,1,.718.266.942.942,0,0,1,.245.664.891.891,0,0,1-.245.639A.945.945,0,0,1-.1.091a.917.917,0,0,1-.71-.257A.909.909,0,0,1-1.042-.805ZM3.947-6.06l.614-6.026h6.192v1.419H5.865L5.5-7.371a3.9,3.9,0,0,1,2.017-.523A3.334,3.334,0,0,1,10.139-6.8a4.278,4.278,0,0,1,.971,2.951A4.129,4.129,0,0,1,10.1-.909,3.676,3.676,0,0,1,7.284.166,3.82,3.82,0,0,1,4.669-.722,3.545,3.545,0,0,1,3.515-3.179H4.968a2.439,2.439,0,0,0,.739,1.565,2.3,2.3,0,0,0,1.577.527,2.072,2.072,0,0,0,1.681-.73,3.054,3.054,0,0,0,.61-2.017,2.8,2.8,0,0,0-.66-1.947,2.245,2.245,0,0,0-1.756-.735,2.532,2.532,0,0,0-1.577.44l-.407.332Z" transform="translate(297 5202)" fill="#12263f"/>
    <path id="Trazado_658869" data-name="Trazado 658869" d="M-12.588-6.06l.614-6.026h6.192v1.419h-4.889l-.365,3.3a3.9,3.9,0,0,1,2.017-.523A3.334,3.334,0,0,1-6.4-6.8a4.278,4.278,0,0,1,.971,2.951A4.129,4.129,0,0,1-6.433-.909,3.676,3.676,0,0,1-9.251.166a3.82,3.82,0,0,1-2.615-.888A3.545,3.545,0,0,1-13.02-3.179h1.453a2.439,2.439,0,0,0,.739,1.565,2.3,2.3,0,0,0,1.577.527,2.072,2.072,0,0,0,1.681-.73,3.054,3.054,0,0,0,.61-2.017,2.8,2.8,0,0,0-.66-1.947,2.245,2.245,0,0,0-1.756-.735,2.532,2.532,0,0,0-1.577.44l-.407.332ZM2.918-12.086,6.869-2.225l3.951-9.861h2.067V0H11.293V-4.707l.149-5.08L7.475,0H6.255L2.3-9.762l.158,5.055V0H.859V-12.086Z" transform="translate(423 5303)" fill="#12263f"/>
    <path id="Trazado_658870" data-name="Trazado 658870" d="M-13.02,0h-1.544V-10.235L-17.66-9.1v-1.395l4.4-1.652h.241ZM-.942-5.155a7.023,7.023,0,0,1-.921,4.009A3.277,3.277,0,0,1-4.744.166,3.3,3.3,0,0,1-7.608-1.116a6.666,6.666,0,0,1-.963-3.831V-7a6.867,6.867,0,0,1,.921-3.959A3.3,3.3,0,0,1-4.76-12.252,3.332,3.332,0,0,1-1.888-11,6.627,6.627,0,0,1-.942-7.147Zm-1.536-2.1A5.627,5.627,0,0,0-3.026-10.1,1.886,1.886,0,0,0-4.76-10.99a1.861,1.861,0,0,0-1.718.888,5.494,5.494,0,0,0-.556,2.731v2.457a5.717,5.717,0,0,0,.569,2.893,1.882,1.882,0,0,0,1.722.934,1.856,1.856,0,0,0,1.689-.88A5.51,5.51,0,0,0-2.478-4.74ZM7.691-12.086l3.951,9.861,3.951-9.861H17.66V0H16.066V-4.707l.149-5.08L12.248,0h-1.22L7.068-9.762l.158,5.055V0H5.632V-12.086Z" transform="translate(528 5303)" fill="#12263f"/>
    <path id="Trazado_658871" data-name="Trazado 658871" d="M-11.061-6.79h1.154A2.536,2.536,0,0,0-8.2-7.363a1.914,1.914,0,0,0,.623-1.5A1.875,1.875,0,0,0-9.691-10.99a2.2,2.2,0,0,0-1.59.569,1.99,1.99,0,0,0-.594,1.507H-13.41A3.083,3.083,0,0,1-12.36-11.3a3.825,3.825,0,0,1,2.669-.95,3.78,3.78,0,0,1,2.681.9,3.269,3.269,0,0,1,.971,2.515A2.653,2.653,0,0,1-6.549-7.3,3.082,3.082,0,0,1-7.94-6.2,2.97,2.97,0,0,1-6.4-5.155,2.9,2.9,0,0,1-5.856-3.37,3.3,3.3,0,0,1-6.919-.789,3.979,3.979,0,0,1-9.683.166a4.084,4.084,0,0,1-2.768-.921,3.056,3.056,0,0,1-1.067-2.432h1.544a1.975,1.975,0,0,0,.623,1.527,2.368,2.368,0,0,0,1.668.573,2.324,2.324,0,0,0,1.7-.581,2.239,2.239,0,0,0,.589-1.668,2.032,2.032,0,0,0-.647-1.619,2.821,2.821,0,0,0-1.868-.581h-1.154Zm13.979-5.3L6.869-2.225l3.951-9.861h2.067V0H11.293V-4.707l.149-5.08L7.475,0H6.255L2.3-9.762l.158,5.055V0H.859V-12.086Z" transform="translate(633 5303)" fill="#12263f"/>
    <path id="Trazado_658872" data-name="Trazado 658872" d="M-6.885,0H-8.429V-10.235l-3.1,1.137v-1.395l4.4-1.652h.241ZM11.509,0h-1.6V-5.586H3.814V0H2.22V-12.086H3.814v5.2H9.907v-5.2h1.6Z" transform="translate(738 5303)" fill="#12263f"/>
    <path id="Trazado_658873" data-name="Trazado 658873" d="M-4.013,0h-7.919V-1.1l4.184-4.648A9.939,9.939,0,0,0-6.466-7.467a2.861,2.861,0,0,0,.353-1.365,2.169,2.169,0,0,0-.573-1.552,2,2,0,0,0-1.527-.606,2.372,2.372,0,0,0-1.781.652,2.489,2.489,0,0,0-.635,1.814h-1.536a3.565,3.565,0,0,1,1.075-2.7,3.985,3.985,0,0,1,2.876-1.029,3.829,3.829,0,0,1,2.665.884A3.015,3.015,0,0,1-4.57-9.015q0,1.785-2.274,4.25l-3.237,3.511h6.068ZM11.509,0h-1.6V-5.586H3.814V0H2.22V-12.086H3.814v5.2H9.907v-5.2h1.6Z" transform="translate(842 5303)" fill="#12263f"/>
    <path id="Trazado_658874" data-name="Trazado 658874" d="M-11.227-6.06l.614-6.026H-4.42v1.419H-9.309l-.365,3.3a3.9,3.9,0,0,1,2.017-.523A3.334,3.334,0,0,1-5.034-6.8a4.278,4.278,0,0,1,.971,2.951A4.129,4.129,0,0,1-5.072-.909,3.676,3.676,0,0,1-7.89.166,3.82,3.82,0,0,1-10.5-.722a3.545,3.545,0,0,1-1.154-2.457h1.453a2.439,2.439,0,0,0,.739,1.565,2.3,2.3,0,0,0,1.577.527,2.072,2.072,0,0,0,1.681-.73A3.054,3.054,0,0,0-5.6-3.835a2.8,2.8,0,0,0-.66-1.947,2.245,2.245,0,0,0-1.756-.735,2.532,2.532,0,0,0-1.577.44L-10-5.744ZM11.509,0h-1.6V-5.586H3.814V0H2.22V-12.086H3.814v5.2H9.907v-5.2h1.6Z" transform="translate(947 5303)" fill="#12263f"/>
    <path id="Trazado_658875" data-name="Trazado 658875" d="M-11.658,0H-13.2V-10.235L-16.3-9.1v-1.395l4.4-1.652h.241ZM.76,0H-7.159V-1.1l4.184-4.648A9.939,9.939,0,0,0-1.693-7.467a2.861,2.861,0,0,0,.353-1.365,2.169,2.169,0,0,0-.573-1.552,2,2,0,0,0-1.527-.606,2.372,2.372,0,0,0-1.781.652,2.489,2.489,0,0,0-.635,1.814H-7.392a3.565,3.565,0,0,1,1.075-2.7,3.985,3.985,0,0,1,2.876-1.029,3.829,3.829,0,0,1,2.665.884A3.015,3.015,0,0,1,.2-9.015q0,1.785-2.274,4.25L-5.308-1.253H.76ZM16.282,0h-1.6V-5.586H8.587V0H6.993V-12.086H8.587v5.2H14.68v-5.2h1.6Z" transform="translate(1052 5303)" fill="#12263f"/>
    <path id="Trazado_658876" data-name="Trazado 658876" d="M-6.4,0H-7.944V-10.235L-11.04-9.1v-1.395l4.4-1.652H-6.4ZM2.706,0V-12.086H6.118a5.492,5.492,0,0,1,2.789.7A4.716,4.716,0,0,1,10.779-9.4a6.457,6.457,0,0,1,.668,2.955v.772a6.48,6.48,0,0,1-.66,3A4.642,4.642,0,0,1,8.9-.706,5.842,5.842,0,0,1,6.051,0ZM4.3-10.783V-1.3H5.977A3.648,3.648,0,0,0,8.844-2.45,4.737,4.737,0,0,0,9.87-5.715v-.706a4.812,4.812,0,0,0-.967-3.2,3.441,3.441,0,0,0-2.743-1.159Z" transform="translate(1158 5303)" fill="#12263f"/>
    <path id="Trazado_658877" data-name="Trazado 658877" d="M-3.528,0h-7.919V-1.1l4.184-4.648A9.939,9.939,0,0,0-5.981-7.467a2.861,2.861,0,0,0,.353-1.365A2.169,2.169,0,0,0-6.2-10.384a2,2,0,0,0-1.527-.606,2.372,2.372,0,0,0-1.781.652,2.489,2.489,0,0,0-.635,1.814h-1.536a3.565,3.565,0,0,1,1.075-2.7,3.985,3.985,0,0,1,2.876-1.029,3.829,3.829,0,0,1,2.665.884,3.015,3.015,0,0,1,.979,2.353q0,1.785-2.274,4.25L-9.6-1.253h6.068ZM2.706,0V-12.086H6.118a5.492,5.492,0,0,1,2.789.7A4.716,4.716,0,0,1,10.779-9.4a6.457,6.457,0,0,1,.668,2.955v.772a6.48,6.48,0,0,1-.66,3A4.642,4.642,0,0,1,8.9-.706,5.842,5.842,0,0,1,6.051,0ZM4.3-10.783V-1.3H5.977A3.648,3.648,0,0,0,8.844-2.45,4.737,4.737,0,0,0,9.87-5.715v-.706a4.812,4.812,0,0,0-.967-3.2,3.441,3.441,0,0,0-2.743-1.159Z" transform="translate(1263 5303)" fill="#12263f"/>
    <path id="Trazado_658878" data-name="Trazado 658878" d="M3.81-5.155a7.023,7.023,0,0,1-.921,4.009A3.277,3.277,0,0,1,.008.166,3.3,3.3,0,0,1-2.855-1.116a6.666,6.666,0,0,1-.963-3.831V-7A6.867,6.867,0,0,1-2.9-10.957,3.3,3.3,0,0,1-.008-12.252,3.332,3.332,0,0,1,2.864-11,6.627,6.627,0,0,1,3.81-7.147Zm-1.536-2.1A5.627,5.627,0,0,0,1.727-10.1,1.886,1.886,0,0,0-.008-10.99a1.861,1.861,0,0,0-1.718.888,5.494,5.494,0,0,0-.556,2.731v2.457a5.717,5.717,0,0,0,.569,2.893,1.882,1.882,0,0,0,1.722.934A1.856,1.856,0,0,0,1.7-1.967,5.51,5.51,0,0,0,2.274-4.74Z" transform="translate(297 5254)" fill="#12263f"/>
    <path id="Trazado_599531" data-name="Trazado 599531" d="M-1137.6-6495h8.913" transform="translate(1498.691 11700)" fill="none" stroke="#583ae2" stroke-width="2"/>
    <path id="Trazado_599532" data-name="Trazado 599532" d="M-1137.6-6495h8.913" transform="translate(-6020 6397.604) rotate(90)" fill="none" stroke="#583ae2" stroke-width="2"/>
    <path id="Trazado_599533" data-name="Trazado 599533" d="M-1137.6-6495h8.913" transform="translate(-5915 6397.604) rotate(90)" fill="none" stroke="#583ae2" stroke-width="2"/>
    <path id="Trazado_599534" data-name="Trazado 599534" d="M-1137.6-6495h8.913" transform="translate(-5809 6397.604) rotate(90)" fill="none" stroke="#583ae2" stroke-width="2"/>
    <path id="Trazado_599535" data-name="Trazado 599535" d="M-1137.6-6495h8.913" transform="translate(-5706 6397.604) rotate(90)" fill="none" stroke="#583ae2" stroke-width="2"/>
    <path id="Trazado_599536" data-name="Trazado 599536" d="M-1137.6-6495h8.913" transform="translate(-5601 6397.604) rotate(90)" fill="none" stroke="#583ae2" stroke-width="2"/>
    <path id="Trazado_599537" data-name="Trazado 599537" d="M-1137.6-6495h8.913" transform="translate(-5496 6397.604) rotate(90)" fill="none" stroke="#583ae2" stroke-width="2"/>
    <path id="Trazado_599538" data-name="Trazado 599538" d="M-1137.6-6495h8.913" transform="translate(-5390 6397.604) rotate(90)" fill="none" stroke="#583ae2" stroke-width="2"/>
    <path id="Trazado_599539" data-name="Trazado 599539" d="M-1137.6-6495h8.913" transform="translate(-5285 6397.604) rotate(90)" fill="none" stroke="#583ae2" stroke-width="2"/>
    <path id="Trazado_599540" data-name="Trazado 599540" d="M-1137.6-6495h8.913" transform="translate(1498.691 11647)" fill="none" stroke="#583ae2" stroke-width="2"/>
    <path id="Trazado_599541" data-name="Trazado 599541" d="M-1137.6-6495h8.913" transform="translate(1498.691 11594)" fill="none" stroke="#583ae2" stroke-width="2"/>
    <path id="Trazado_599542" data-name="Trazado 599542" d="M-1137.6-6495h8.913" transform="translate(1498.691 11542)" fill="none" stroke="#583ae2" stroke-width="2"/>
    <path id="Trazado_599543" data-name="Trazado 599543" d="M-1137.6-6495h8.913" transform="translate(1498.691 11490)" fill="none" stroke="#583ae2" stroke-width="2"/>
    <path id="Trazado_599544" data-name="Trazado 599544" d="M-1137.6-6495h8.913" transform="translate(1498.691 11436)" fill="none" stroke="#583ae2" stroke-width="2"/>
    <path id="Trazado_599545" data-name="Trazado 599545" d="M-1137.6-6495h8.913" transform="translate(1498.691 11384)" fill="none" stroke="#583ae2" stroke-width="2"/>
    <g id="Grupo_156759" data-name="Grupo 156759">
      <circle id="Elipse_5406" data-name="Elipse 5406" cx="6" cy="6" r="6" transform="translate(417 5146)" fill="#1dbbd2"/>
      <circle id="Elipse_5407" data-name="Elipse 5407" cx="6" cy="6" r="6" transform="translate(528 5088)" fill="#1dbbd2"/>
      <circle id="Elipse_5408" data-name="Elipse 5408" cx="6" cy="6" r="6" transform="translate(627 5088)" fill="#1dbbd2"/>
      <circle id="Elipse_5409" data-name="Elipse 5409" cx="6" cy="6" r="6" transform="translate(739 5030)" fill="#1dbbd2"/>
      <circle id="Elipse_5410" data-name="Elipse 5410" cx="6" cy="6" r="6" transform="translate(954 4988)" fill="#1dbbd2"/>
      <circle id="Elipse_5411" data-name="Elipse 5411" cx="6" cy="6" r="6" transform="translate(1046 4992)" fill="#1dbbd2"/>
      <circle id="Elipse_5412" data-name="Elipse 5412" cx="6" cy="6" r="6" transform="translate(1158 4934)" fill="#1dbbd2"/>
      <circle id="Elipse_5413" data-name="Elipse 5413" cx="6" cy="6" r="6" transform="translate(1257 4934)" fill="#1dbbd2"/>
      <circle id="Elipse_5414" data-name="Elipse 5414" cx="6" cy="6" r="6" transform="translate(849 5034)" fill="#1dbbd2"/>
    </g>
    <path id="Trazado_599546" data-name="Trazado 599546" d="M-1070.5-6548l112.283-58.741h98.341l113.783-57.7L-638-6658.756l107.281-48.764,87.776,4.876,112.158-56.079H-229.4" transform="translate(1493 11700)" fill="none" stroke="#1dbbd2" stroke-width="2"/>
    <path id="Trazado_658879" data-name="Trazado 658879" d="M0,0H190V40H0Z" transform="translate(1125 5220)" fill="#36257b"/>
    <path id="Trazado_658880" data-name="Trazado 658880" d="M0,0H190V40H0Z" transform="translate(285 4794)" fill="#36257b"/>
    <path id="Trazado_658881" data-name="Trazado 658881" d="M-18.88-10.069h-3.7V0h-2.49V-10.069h-3.652v-2.017h9.845ZM-15.087,0h-2.407V-8.981h2.407Zm-2.548-11.306a1.181,1.181,0,0,1,.361-.888,1.356,1.356,0,0,1,.984-.349,1.36,1.36,0,0,1,.979.349,1.175,1.175,0,0,1,.365.888,1.178,1.178,0,0,1-.369.9,1.363,1.363,0,0,1-.975.349,1.363,1.363,0,0,1-.975-.349A1.178,1.178,0,0,1-17.635-11.306ZM-8.977.166a4.409,4.409,0,0,1-3.217-1.212,4.308,4.308,0,0,1-1.241-3.229v-.232a5.426,5.426,0,0,1,.523-2.42A3.838,3.838,0,0,1-11.43-8.571a4.159,4.159,0,0,1,2.187-.577,3.727,3.727,0,0,1,2.9,1.162,4.722,4.722,0,0,1,1.058,3.3v.979H-11A2.229,2.229,0,0,0-10.3-2.3a2.12,2.12,0,0,0,1.482.531,2.589,2.589,0,0,0,2.167-1l1.179,1.32A3.6,3.6,0,0,1-6.935-.261,4.793,4.793,0,0,1-8.977.166Zm-.274-7.379a1.5,1.5,0,0,0-1.158.484,2.5,2.5,0,0,0-.569,1.384h3.337v-.192a1.786,1.786,0,0,0-.432-1.238A1.547,1.547,0,0,0-9.251-7.213Zm7.579-1.768.075,1A3.156,3.156,0,0,1,.984-9.147a2.4,2.4,0,0,1,2.382,1.37,3.084,3.084,0,0,1,2.7-1.37A2.679,2.679,0,0,1,8.239-8.3a3.911,3.911,0,0,1,.714,2.561V0H6.545V-5.741a1.717,1.717,0,0,0-.3-1.119,1.322,1.322,0,0,0-1.054-.354A1.5,1.5,0,0,0,3.7-6.182L3.706,0h-2.4V-5.732A1.7,1.7,0,0,0,1-6.864,1.335,1.335,0,0,0-.046-7.213a1.554,1.554,0,0,0-1.478.849V0h-2.4V-8.981ZM18.88-4.408a5.387,5.387,0,0,1-.942,3.324A3.021,3.021,0,0,1,15.394.166a2.8,2.8,0,0,1-2.2-.946V3.453H10.8V-8.981H13.02l.083.88a2.819,2.819,0,0,1,2.274-1.046,3.041,3.041,0,0,1,2.582,1.229,5.532,5.532,0,0,1,.921,3.387Zm-2.4-.183a3.554,3.554,0,0,0-.444-1.94,1.445,1.445,0,0,0-1.291-.683,1.57,1.57,0,0,0-1.552.866v3.689a1.6,1.6,0,0,0,1.569.891Q16.481-1.768,16.481-4.591Zm3.511.017a5.327,5.327,0,0,1,.515-2.382,3.768,3.768,0,0,1,1.482-1.619,4.323,4.323,0,0,1,2.245-.573A4.09,4.09,0,0,1,27.2-8.035a4.464,4.464,0,0,1,1.282,3.021L28.5-4.4a4.694,4.694,0,0,1-1.154,3.316,4.011,4.011,0,0,1-3.1,1.249,4.031,4.031,0,0,1-3.1-1.245,4.777,4.777,0,0,1-1.158-3.387Zm2.4.17a3.357,3.357,0,0,0,.481,1.958,1.588,1.588,0,0,0,1.378.678,1.592,1.592,0,0,0,1.361-.669,3.674,3.674,0,0,0,.49-2.141,3.324,3.324,0,0,0-.49-1.945,1.592,1.592,0,0,0-1.378-.69,1.566,1.566,0,0,0-1.361.686A3.735,3.735,0,0,0,22.391-4.4Z" transform="translate(1216 5246)" fill="#fff"/>
    <path id="Trazado_658882" data-name="Trazado 658882" d="M-11.638-4.026a4.277,4.277,0,0,1-1.44,3.071A5.058,5.058,0,0,1-16.5.166,4.548,4.548,0,0,1-20.158-1.4a6.416,6.416,0,0,1-1.332-4.3v-.739A7.245,7.245,0,0,1-20.876-9.5a4.6,4.6,0,0,1,1.756-2.038,4.918,4.918,0,0,1,2.652-.71,4.927,4.927,0,0,1,3.37,1.121,4.6,4.6,0,0,1,1.478,3.146h-2.49a2.524,2.524,0,0,0-.652-1.7,2.413,2.413,0,0,0-1.706-.527,2.116,2.116,0,0,0-1.864.892,5,5,0,0,0-.635,2.768v.913a5.352,5.352,0,0,0,.594,2.864,2.077,2.077,0,0,0,1.872.9,2.458,2.458,0,0,0,1.722-.527,2.381,2.381,0,0,0,.652-1.631Zm1.1-.548a5.327,5.327,0,0,1,.515-2.382A3.768,3.768,0,0,1-8.537-8.575a4.323,4.323,0,0,1,2.245-.573A4.09,4.09,0,0,1-3.324-8.035,4.464,4.464,0,0,1-2.042-5.014l.017.614A4.694,4.694,0,0,1-3.179-1.083,4.011,4.011,0,0,1-6.275.166a4.031,4.031,0,0,1-3.1-1.245,4.777,4.777,0,0,1-1.158-3.387Zm2.4.17a3.357,3.357,0,0,0,.481,1.958,1.588,1.588,0,0,0,1.378.678,1.592,1.592,0,0,0,1.361-.669,3.674,3.674,0,0,0,.49-2.141,3.324,3.324,0,0,0-.49-1.945,1.592,1.592,0,0,0-1.378-.69,1.566,1.566,0,0,0-1.361.686A3.735,3.735,0,0,0-8.135-4.4ZM4.316-2.482a.773.773,0,0,0-.436-.693,4.95,4.95,0,0,0-1.4-.452Q-.722-4.3-.722-6.35a2.468,2.468,0,0,1,.992-2,4,4,0,0,1,2.594-.8A4.307,4.307,0,0,1,5.6-8.342,2.538,2.538,0,0,1,6.624-6.25h-2.4A1.161,1.161,0,0,0,3.893-7.1a1.405,1.405,0,0,0-1.038-.336,1.436,1.436,0,0,0-.938.274.865.865,0,0,0-.332.7.739.739,0,0,0,.378.643A3.885,3.885,0,0,0,3.237-5.4,10.407,10.407,0,0,1,4.748-5a2.482,2.482,0,0,1,1.9,2.416A2.343,2.343,0,0,1,5.595-.594a4.548,4.548,0,0,1-2.723.76,4.75,4.75,0,0,1-2-.4,3.363,3.363,0,0,1-1.374-1.1A2.565,2.565,0,0,1-1-2.855H1.27a1.252,1.252,0,0,0,.473.979,1.877,1.877,0,0,0,1.179.34A1.737,1.737,0,0,0,3.964-1.8.814.814,0,0,0,4.316-2.482Zm6.749-8.708v2.208H12.6v1.76H11.065v4.482a1.07,1.07,0,0,0,.191.714.959.959,0,0,0,.73.216,3.826,3.826,0,0,0,.706-.058V-.05a4.939,4.939,0,0,1-1.453.216A2.29,2.29,0,0,1,8.666-2.382V-7.222H7.354v-1.76H8.666v-2.208ZM18.071.166a4.409,4.409,0,0,1-3.217-1.212,4.308,4.308,0,0,1-1.241-3.229v-.232a5.426,5.426,0,0,1,.523-2.42,3.838,3.838,0,0,1,1.482-1.644,4.159,4.159,0,0,1,2.187-.577,3.727,3.727,0,0,1,2.9,1.162,4.722,4.722,0,0,1,1.058,3.3v.979H16.045a2.229,2.229,0,0,0,.7,1.411,2.12,2.12,0,0,0,1.482.531,2.589,2.589,0,0,0,2.167-1l1.179,1.32A3.6,3.6,0,0,1,20.113-.261,4.793,4.793,0,0,1,18.071.166ZM17.8-7.213a1.5,1.5,0,0,0-1.158.484,2.5,2.5,0,0,0-.569,1.384h3.337v-.192a1.786,1.786,0,0,0-.432-1.238A1.547,1.547,0,0,0,17.8-7.213Z" transform="translate(376 4820)" fill="#fff"/>
    <path id="Trazado_599547" data-name="Trazado 599547" d="M-1123-6865v424.537h945" transform="translate(1493 11700)" fill="none" stroke="#583ae2" stroke-width="2"/>
  </g>
</svg>
