<svg xmlns="http://www.w3.org/2000/svg" width="105" height="105" viewBox="0 0 105 105">
  <g id="Grupo_953693" data-name="Grupo 953693" transform="translate(6138 8601)">
    <rect id="Rectángulo_44597" data-name="Rectángulo 44597" width="105" height="105" transform="translate(-6138 -8601)" fill="#36257b"/>
    <g id="tareas" transform="translate(-6119 -8582)">
      <path id="Trazado_598981" data-name="Trazado 598981" d="M32.794,41.243l1.418-2.755-5.776-5.776-2.5,1.7V13.832L20.865,1.661a2.7,2.7,0,0,0-4.988,0l-5.07,12.17V34.388L8.3,32.72,2.531,38.488l1.418,2.755a16.323,16.323,0,0,0-.993,2.409L0,44.6V52.66l2.954.947a16.179,16.179,0,0,0,.993,2.409L2.53,58.77l5.7,5.7,2.755-1.417a16.179,16.179,0,0,0,2.409.993L14.341,67H22.4l.947-2.954a16.18,16.18,0,0,0,2.409-.993l2.755,1.417,5.7-5.7-1.418-2.755a16.227,16.227,0,0,0,.993-2.409l2.956-.949V44.6l-2.954-.947a16.323,16.323,0,0,0-.993-2.409ZM15.129,15.129V49.71H12.968V15.129ZM23.774,49.71H21.613V15.129h2.161Zm-4.323,0H17.29V15.129h2.161Zm-8.645,5.02a9.7,9.7,0,0,1,0-12.21Zm2.161-2.858H23.774V56.71a9.7,9.7,0,0,1-10.806,0Zm12.968-9.352a9.7,9.7,0,0,1,0,12.21ZM17.872,2.5a.563.563,0,0,1,1,0l4.364,10.474H13.508ZM34.581,51.083l-2.546.815-.158.559a14.022,14.022,0,0,1-1.245,3.023l-.284.506,1.221,2.372L28.1,61.827l-2.372-1.22-.506.284A14.022,14.022,0,0,1,22.2,62.136l-.559.158-.814,2.545H15.918L15.1,62.293l-.559-.158a14.022,14.022,0,0,1-3.023-1.245l-.506-.284-2.372,1.22-3.471-3.47,1.221-2.372-.284-.506a14.022,14.022,0,0,1-1.245-3.023L4.707,51.9l-2.546-.814V46.176l2.546-.815.158-.559A13.929,13.929,0,0,1,6.111,41.78l.283-.507L5.173,38.9l3.4-3.4,2.232,1.484v2.5a11.777,11.777,0,0,0-4.323,9.146,11.887,11.887,0,0,0,23.774,0,11.773,11.773,0,0,0-4.323-9.144V37.033l2.238-1.525,3.4,3.4-1.221,2.371.283.507A13.929,13.929,0,0,1,31.877,44.8l.158.559,2.546.813Z" transform="translate(0 0)" fill="#fff"/>
      <path id="Trazado_598982" data-name="Trazado 598982" d="M46,63.29H63.29V46H46Zm2.161-15.129H61.129V61.129H48.161Z" transform="translate(3.71 3.71)" fill="#fff"/>
      <path id="Trazado_598983" data-name="Trazado 598983" d="M52.218,56.013l-1.4-1.4-1.528,1.528,2.925,2.925,7.248-7.248-1.528-1.528Z" transform="translate(3.975 4.056)" fill="#fff"/>
      <path id="Trazado_598984" data-name="Trazado 598984" d="M46,40.29H63.29V23H46Zm2.161-15.129H61.129V38.129H48.161Z" transform="translate(3.71 1.855)" fill="#fff"/>
      <path id="Trazado_598985" data-name="Trazado 598985" d="M52.218,33.013l-1.4-1.4-1.528,1.528,2.925,2.925,7.248-7.248-1.528-1.528Z" transform="translate(3.975 2.201)" fill="#fff"/>
      <path id="Trazado_598986" data-name="Trazado 598986" d="M46,0V17.29H63.29V0ZM61.129,15.129H48.161V2.161H61.129Z" transform="translate(3.71)" fill="#fff"/>
      <path id="Trazado_598987" data-name="Trazado 598987" d="M59.466,5.821,57.938,4.293l-5.72,5.72-1.4-1.4-1.528,1.528,2.925,2.925Z" transform="translate(3.975 0.346)" fill="#fff"/>
      <path id="Trazado_598988" data-name="Trazado 598988" d="M31,30H45.048v2.161H31Z" transform="translate(2.5 2.419)" fill="#fff"/>
      <path id="Trazado_598989" data-name="Trazado 598989" d="M40.484,36H34v2.161h4.323V56.532h6.484V54.371H40.484Z" transform="translate(2.742 2.903)" fill="#fff"/>
      <path id="Trazado_598990" data-name="Trazado 598990" d="M38.323,25.371H34v2.161h6.484V9.161h4.323V7H38.323Z" transform="translate(2.742 0.565)" fill="#fff"/>
    </g>
  </g>
</svg>
