<svg xmlns="http://www.w3.org/2000/svg" width="105" height="105" viewBox="0 0 105 105">
  <g id="Grupo_953694" data-name="Grupo 953694" transform="translate(6534 8323)">
    <rect id="Rectángulo_44591" data-name="Rectángulo 44591" width="105" height="105" transform="translate(-6429 -8218) rotate(180)" fill="#36257b"/>
    <g id="objetivo_1_" data-name="objetivo(1)" transform="translate(-6516 -8305)">
      <path id="Trazado_598978" data-name="Trazado 598978" d="M44.375,35.856a3.349,3.349,0,0,0-1.252.247,3.355,3.355,0,0,0-3.232-2.487,3.278,3.278,0,0,0-.365.037,17.938,17.938,0,1,0-11.96,1.87v2.833a5.968,5.968,0,0,0-3.79-1.378,2.934,2.934,0,0,0-2.624,4.246A18.381,18.381,0,0,1,23.084,49.4v2.715a7.9,7.9,0,0,0,2.3,5.548l.168.168A3.345,3.345,0,0,0,24.2,60.507v8.964h22.41V60.507a3.348,3.348,0,0,0-1.345-2.672l.168-.168a7.8,7.8,0,0,0,2.3-5.546v-12.9a3.367,3.367,0,0,0-3.36-3.361ZM15.241,17.928A15.687,15.687,0,1,1,37.532,32.15a3.241,3.241,0,0,0-3.243-.57v-.64a13.446,13.446,0,1,0-6.723,0v2.307A15.729,15.729,0,0,1,15.241,17.928Zm19.048,5.809a6.723,6.723,0,1,0-6.723,0v4.874a11.2,11.2,0,1,1,6.723,0ZM27.6,20.93a4.482,4.482,0,1,1,6.651,0,3.343,3.343,0,0,0-6.651,0Zm16.772,46.3H26.446V60.507a1.122,1.122,0,0,1,1.12-1.12H43.253a1.122,1.122,0,0,1,1.12,1.12Zm1.12-15.11a5.571,5.571,0,0,1-1.64,3.962l-1.064,1.063H28.03l-1.064-1.063a5.634,5.634,0,0,1-1.642-3.963V49.4a20.653,20.653,0,0,0-2.167-9.184.693.693,0,0,1,.62-1,3.8,3.8,0,0,1,3.79,3.791V45.94h2.241V21.289a1.12,1.12,0,0,1,2.241,0V45.94h2.241v-11.2a1.12,1.12,0,1,1,2.241,0v11.2h2.241V36.976a1.12,1.12,0,0,1,2.241,0V45.94h2.241V39.217a1.12,1.12,0,1,1,2.241,0Z" transform="translate(1.566)" fill="#fff"/>
      <path id="Trazado_598979" data-name="Trazado 598979" d="M64.048,41.446V32.482h-11.2v3.361H50.6V28H45v2.241h3.361V60.494h4.482v3.361h11.2V54.892h-11.2v3.361H50.6V49.289h2.241v3.361h11.2V43.687h-11.2v3.361H50.6V38.084h2.241v3.361ZM55.084,57.133h6.723v4.482H55.084Zm0-11.2h6.723V50.41H55.084Zm0-11.2h6.723V39.2H55.084Z" transform="translate(5.422 3.374)" fill="#fff"/>
      <path id="Trazado_598980" data-name="Trazado 598980" d="M13.446,35.843H11.2V32.482H0v8.964H11.2V38.084h2.241v8.964H11.2V43.687H0v8.964H11.2V49.289h2.241v8.964H11.2V54.892H0v8.964H11.2V60.494h4.482V30.241h3.361V28h-5.6ZM8.964,39.2H2.241V34.723H8.964Zm0,11.2H2.241V45.928H8.964Zm0,11.2H2.241V57.133H8.964Z" transform="translate(0 3.374)" fill="#fff"/>
    </g>
  </g>
</svg>
