<svg xmlns="http://www.w3.org/2000/svg" width="475" height="261" viewBox="0 0 475 261">
  <g id="Grupo_953714" data-name="Grupo 953714" transform="translate(-375 6644)">
    <path id="Trazado_658883" data-name="Trazado 658883" d="M0,0H475V261H0Z" transform="translate(375 -6644)" fill="#fff"/>
    <path id="Trazado_658886" data-name="Trazado 658886" d="M0,0H48V196H0Z" transform="translate(415 -6615)" fill="#f5f3fd"/>
    <path id="Trazado_658887" data-name="Trazado 658887" d="M0,0H48V196H0Z" transform="translate(512 -6615)" fill="#f5f3fd"/>
    <path id="Trazado_658889" data-name="Trazado 658889" d="M0,0H48V196H0Z" transform="translate(608 -6615)" fill="#f5f3fd"/>
    <path id="Trazado_658892" data-name="Trazado 658892" d="M0,0H48V196H0Z" transform="translate(705 -6615)" fill="#f5f3fd"/>
    <path id="Trazado_658899" data-name="Trazado 658899" d="M0,0H48V196H0Z" transform="translate(802 -6615)" fill="#f5f3fd"/>
    <path id="Trazado_658888" data-name="Trazado 658888" d="M-8.043-6.391h1.086A2.387,2.387,0,0,0-5.348-6.93a1.8,1.8,0,0,0,.586-1.414,1.764,1.764,0,0,0-1.992-2,2.072,2.072,0,0,0-1.5.535,1.873,1.873,0,0,0-.559,1.418h-1.445a2.9,2.9,0,0,1,.988-2.246,3.6,3.6,0,0,1,2.512-.895,3.558,3.558,0,0,1,2.523.852,3.076,3.076,0,0,1,.914,2.367A2.5,2.5,0,0,1-3.8-6.875,2.9,2.9,0,0,1-5.105-5.836a2.8,2.8,0,0,1,1.449.984,2.734,2.734,0,0,1,.512,1.68,3.1,3.1,0,0,1-1,2.43,3.745,3.745,0,0,1-2.6.9A3.844,3.844,0,0,1-9.352-.711a2.877,2.877,0,0,1-1-2.289H-8.9a1.859,1.859,0,0,0,.586,1.438,2.229,2.229,0,0,0,1.57.539,2.187,2.187,0,0,0,1.6-.547,2.108,2.108,0,0,0,.555-1.57A1.912,1.912,0,0,0-5.2-4.664a2.655,2.655,0,0,0-1.758-.547H-8.043ZM-.98-.758a.905.905,0,0,1,.223-.625.848.848,0,0,1,.668-.25.874.874,0,0,1,.676.25.887.887,0,0,1,.23.625.839.839,0,0,1-.23.6A.89.89,0,0,1-.09.086.863.863,0,0,1-.758-.156.855.855,0,0,1-.98-.758ZM3.715-5.7l.578-5.672h5.828v1.336H5.52l-.344,3.1a3.671,3.671,0,0,1,1.9-.492A3.138,3.138,0,0,1,9.543-6.4a4.026,4.026,0,0,1,.914,2.777,3.886,3.886,0,0,1-.949,2.77A3.46,3.46,0,0,1,6.855.156,3.6,3.6,0,0,1,4.395-.68,3.337,3.337,0,0,1,3.309-2.992H4.676a2.3,2.3,0,0,0,.7,1.473,2.162,2.162,0,0,0,1.484.5,1.95,1.95,0,0,0,1.582-.687,2.874,2.874,0,0,0,.574-1.9,2.638,2.638,0,0,0-.621-1.832,2.113,2.113,0,0,0-1.652-.691,2.383,2.383,0,0,0-1.484.414l-.383.313Z" transform="translate(386 -6588)" fill="#12263f"/>
    <path id="Trazado_658890" data-name="Trazado 658890" d="M-1.445-6.391H-.359A2.387,2.387,0,0,0,1.25-6.93a1.8,1.8,0,0,0,.586-1.414,1.764,1.764,0,0,0-1.992-2,2.072,2.072,0,0,0-1.5.535,1.873,1.873,0,0,0-.559,1.418H-3.656a2.9,2.9,0,0,1,.988-2.246,3.6,3.6,0,0,1,2.512-.895,3.558,3.558,0,0,1,2.523.852,3.076,3.076,0,0,1,.914,2.367A2.5,2.5,0,0,1,2.8-6.875,2.9,2.9,0,0,1,1.492-5.836a2.8,2.8,0,0,1,1.449.984,2.734,2.734,0,0,1,.512,1.68,3.1,3.1,0,0,1-1,2.43,3.745,3.745,0,0,1-2.6.9A3.844,3.844,0,0,1-2.754-.711,2.877,2.877,0,0,1-3.758-3H-2.3a1.859,1.859,0,0,0,.586,1.438,2.229,2.229,0,0,0,1.57.539,2.187,2.187,0,0,0,1.6-.547,2.108,2.108,0,0,0,.555-1.57A1.912,1.912,0,0,0,1.4-4.664,2.655,2.655,0,0,0-.359-5.211H-1.445Z" transform="translate(387 -6564)" fill="#12263f"/>
    <path id="Trazado_658891" data-name="Trazado 658891" d="M-2.691,0h-7.453V-1.039l3.938-4.375A9.354,9.354,0,0,0-5-7.027a2.693,2.693,0,0,0,.332-1.285,2.041,2.041,0,0,0-.539-1.461,1.885,1.885,0,0,0-1.437-.57A2.232,2.232,0,0,0-8.32-9.73a2.343,2.343,0,0,0-.6,1.707h-1.445a3.355,3.355,0,0,1,1.012-2.539,3.751,3.751,0,0,1,2.707-.969,3.6,3.6,0,0,1,2.508.832,2.838,2.838,0,0,1,.922,2.215q0,1.68-2.141,4L-8.4-1.18h5.711ZM-.98-.758a.905.905,0,0,1,.223-.625.848.848,0,0,1,.668-.25.874.874,0,0,1,.676.25.887.887,0,0,1,.23.625.839.839,0,0,1-.23.6A.89.89,0,0,1-.09.086.863.863,0,0,1-.758-.156.855.855,0,0,1-.98-.758ZM3.715-5.7l.578-5.672h5.828v1.336H5.52l-.344,3.1a3.671,3.671,0,0,1,1.9-.492A3.138,3.138,0,0,1,9.543-6.4a4.026,4.026,0,0,1,.914,2.777,3.886,3.886,0,0,1-.949,2.77A3.46,3.46,0,0,1,6.855.156,3.6,3.6,0,0,1,4.395-.68,3.337,3.337,0,0,1,3.309-2.992H4.676a2.3,2.3,0,0,0,.7,1.473,2.162,2.162,0,0,0,1.484.5,1.95,1.95,0,0,0,1.582-.687,2.874,2.874,0,0,0,.574-1.9,2.638,2.638,0,0,0-.621-1.832,2.113,2.113,0,0,0-1.652-.691,2.383,2.383,0,0,0-1.484.414l-.383.313Z" transform="translate(386 -6539)" fill="#12263f"/>
    <path id="Trazado_658893" data-name="Trazado 658893" d="M3.906,0H-3.547V-1.039L.391-5.414A9.354,9.354,0,0,0,1.6-7.027,2.693,2.693,0,0,0,1.93-8.312a2.041,2.041,0,0,0-.539-1.461,1.885,1.885,0,0,0-1.437-.57,2.232,2.232,0,0,0-1.676.613,2.343,2.343,0,0,0-.6,1.707H-3.766a3.355,3.355,0,0,1,1.012-2.539,3.751,3.751,0,0,1,2.707-.969,3.6,3.6,0,0,1,2.508.832,2.838,2.838,0,0,1,.922,2.215q0,1.68-2.141,4L-1.8-1.18H3.906Z" transform="translate(387 -6515)" fill="#12263f"/>
    <path id="Trazado_658894" data-name="Trazado 658894" d="M-5.395,0H-6.848V-9.633l-2.914,1.07V-9.875l4.141-1.555h.227ZM-.98-.758a.905.905,0,0,1,.223-.625.848.848,0,0,1,.668-.25.874.874,0,0,1,.676.25.887.887,0,0,1,.23.625.839.839,0,0,1-.23.6A.89.89,0,0,1-.09.086.863.863,0,0,1-.758-.156.855.855,0,0,1-.98-.758ZM3.715-5.7l.578-5.672h5.828v1.336H5.52l-.344,3.1a3.671,3.671,0,0,1,1.9-.492A3.138,3.138,0,0,1,9.543-6.4a4.026,4.026,0,0,1,.914,2.777,3.886,3.886,0,0,1-.949,2.77A3.46,3.46,0,0,1,6.855.156,3.6,3.6,0,0,1,4.395-.68,3.337,3.337,0,0,1,3.309-2.992H4.676a2.3,2.3,0,0,0,.7,1.473,2.162,2.162,0,0,0,1.484.5,1.95,1.95,0,0,0,1.582-.687,2.874,2.874,0,0,0,.574-1.9,2.638,2.638,0,0,0-.621-1.832,2.113,2.113,0,0,0-1.652-.691,2.383,2.383,0,0,0-1.484.414l-.383.313Z" transform="translate(386 -6490)" fill="#12263f"/>
    <path id="Trazado_658895" data-name="Trazado 658895" d="M1.2,0H-.25V-9.633l-2.914,1.07V-9.875L.977-11.43H1.2Z" transform="translate(387 -6466)" fill="#12263f"/>
    <path id="Trazado_658896" data-name="Trazado 658896" d="M-3.012-4.852a6.61,6.61,0,0,1-.867,3.773A3.084,3.084,0,0,1-6.59.156a3.107,3.107,0,0,1-2.7-1.207,6.274,6.274,0,0,1-.906-3.605v-1.93a6.463,6.463,0,0,1,.867-3.727,3.108,3.108,0,0,1,2.719-1.219,3.136,3.136,0,0,1,2.7,1.176,6.237,6.237,0,0,1,.891,3.629ZM-4.457-6.828A5.3,5.3,0,0,0-4.973-9.5a1.775,1.775,0,0,0-1.633-.84,1.751,1.751,0,0,0-1.617.836,5.171,5.171,0,0,0-.523,2.57v2.313A5.381,5.381,0,0,0-8.211-1.9a1.771,1.771,0,0,0,1.621.879A1.747,1.747,0,0,0-5-1.852a5.186,5.186,0,0,0,.543-2.609ZM-.98-.758a.905.905,0,0,1,.223-.625.848.848,0,0,1,.668-.25.874.874,0,0,1,.676.25.887.887,0,0,1,.23.625.839.839,0,0,1-.23.6A.89.89,0,0,1-.09.086.863.863,0,0,1-.758-.156.855.855,0,0,1-.98-.758ZM3.715-5.7l.578-5.672h5.828v1.336H5.52l-.344,3.1a3.671,3.671,0,0,1,1.9-.492A3.138,3.138,0,0,1,9.543-6.4a4.026,4.026,0,0,1,.914,2.777,3.886,3.886,0,0,1-.949,2.77A3.46,3.46,0,0,1,6.855.156,3.6,3.6,0,0,1,4.395-.68,3.337,3.337,0,0,1,3.309-2.992H4.676a2.3,2.3,0,0,0,.7,1.473,2.162,2.162,0,0,0,1.484.5,1.95,1.95,0,0,0,1.582-.687,2.874,2.874,0,0,0,.574-1.9,2.638,2.638,0,0,0-.621-1.832,2.113,2.113,0,0,0-1.652-.691,2.383,2.383,0,0,0-1.484.414l-.383.313Z" transform="translate(386 -6441)" fill="#12263f"/>
    <path id="Trazado_658901" data-name="Trazado 658901" d="M-11.848-5.7l.578-5.672h5.828v1.336h-4.6l-.344,3.1a3.671,3.671,0,0,1,1.9-.492A3.138,3.138,0,0,1-6.02-6.4a4.026,4.026,0,0,1,.914,2.777,3.886,3.886,0,0,1-.949,2.77A3.46,3.46,0,0,1-8.707.156,3.6,3.6,0,0,1-11.168-.68a3.337,3.337,0,0,1-1.086-2.312h1.367a2.3,2.3,0,0,0,.7,1.473,2.162,2.162,0,0,0,1.484.5,1.95,1.95,0,0,0,1.582-.687,2.874,2.874,0,0,0,.574-1.9,2.638,2.638,0,0,0-.621-1.832,2.113,2.113,0,0,0-1.652-.691,2.383,2.383,0,0,0-1.484.414l-.383.313ZM2.746-11.375,6.465-2.094l3.719-9.281h1.945V0h-1.5V-4.43l.141-4.781L7.035,0H5.887L2.16-9.187,2.309-4.43V0H.809V-11.375Z" transform="translate(438 -6393)" fill="#12263f"/>
    <path id="Trazado_658902" data-name="Trazado 658902" d="M-12.254,0h-1.453V-9.633l-2.914,1.07V-9.875l4.141-1.555h.227ZM-.887-4.852a6.61,6.61,0,0,1-.867,3.773A3.084,3.084,0,0,1-4.465.156a3.107,3.107,0,0,1-2.7-1.207,6.274,6.274,0,0,1-.906-3.605v-1.93A6.463,6.463,0,0,1-7.2-10.312,3.108,3.108,0,0,1-4.48-11.531a3.136,3.136,0,0,1,2.7,1.176A6.237,6.237,0,0,1-.887-6.727ZM-2.332-6.828A5.3,5.3,0,0,0-2.848-9.5a1.775,1.775,0,0,0-1.633-.84A1.751,1.751,0,0,0-6.1-9.508a5.171,5.171,0,0,0-.523,2.57v2.313A5.381,5.381,0,0,0-6.086-1.9a1.771,1.771,0,0,0,1.621.879,1.747,1.747,0,0,0,1.59-.828,5.186,5.186,0,0,0,.543-2.609Zm9.57-4.547,3.719,9.281,3.719-9.281h1.945V0h-1.5V-4.43l.141-4.781L11.527,0H10.379L6.652-9.187,6.8-4.43V0H5.3V-11.375Z" transform="translate(486 -6393)" fill="#12263f"/>
    <path id="Trazado_658903" data-name="Trazado 658903" d="M-10.41-6.391h1.086A2.387,2.387,0,0,0-7.715-6.93a1.8,1.8,0,0,0,.586-1.414,1.764,1.764,0,0,0-1.992-2,2.072,2.072,0,0,0-1.5.535,1.873,1.873,0,0,0-.559,1.418h-1.445a2.9,2.9,0,0,1,.988-2.246,3.6,3.6,0,0,1,2.512-.895A3.558,3.558,0,0,1-6.6-10.68a3.076,3.076,0,0,1,.914,2.367,2.5,2.5,0,0,1-.48,1.438A2.9,2.9,0,0,1-7.473-5.836a2.8,2.8,0,0,1,1.449.984,2.734,2.734,0,0,1,.512,1.68,3.1,3.1,0,0,1-1,2.43,3.745,3.745,0,0,1-2.6.9,3.844,3.844,0,0,1-2.605-.867,2.877,2.877,0,0,1-1-2.289h1.453a1.859,1.859,0,0,0,.586,1.438,2.229,2.229,0,0,0,1.57.539,2.187,2.187,0,0,0,1.6-.547,2.108,2.108,0,0,0,.555-1.57,1.912,1.912,0,0,0-.609-1.523,2.655,2.655,0,0,0-1.758-.547H-10.41ZM2.746-11.375,6.465-2.094l3.719-9.281h1.945V0h-1.5V-4.43l.141-4.781L7.035,0H5.887L2.16-9.187,2.309-4.43V0H.809V-11.375Z" transform="translate(535 -6393)" fill="#12263f"/>
    <path id="Trazado_658904" data-name="Trazado 658904" d="M-6.48,0H-7.934V-9.633l-2.914,1.07V-9.875l4.141-1.555h.227ZM10.832,0H9.324V-5.258H3.59V0H2.09V-11.375h1.5v4.891H9.324v-4.891h1.508Z" transform="translate(583 -6393)" fill="#12263f"/>
    <path id="Trazado_658905" data-name="Trazado 658905" d="M-3.777,0H-11.23V-1.039l3.938-4.375A9.354,9.354,0,0,0-6.086-7.027a2.693,2.693,0,0,0,.332-1.285,2.041,2.041,0,0,0-.539-1.461,1.885,1.885,0,0,0-1.437-.57,2.232,2.232,0,0,0-1.676.613A2.343,2.343,0,0,0-10-8.023h-1.445a3.355,3.355,0,0,1,1.012-2.539,3.751,3.751,0,0,1,2.707-.969,3.6,3.6,0,0,1,2.508.832A2.838,2.838,0,0,1-4.3-8.484q0,1.68-2.141,4l-3.047,3.3h5.711ZM10.832,0H9.324V-5.258H3.59V0H2.09V-11.375h1.5v4.891H9.324v-4.891h1.508Z" transform="translate(631 -6393)" fill="#12263f"/>
    <path id="Trazado_658906" data-name="Trazado 658906" d="M-10.566-5.7l.578-5.672H-4.16v1.336h-4.6l-.344,3.1a3.671,3.671,0,0,1,1.9-.492A3.138,3.138,0,0,1-4.738-6.4a4.026,4.026,0,0,1,.914,2.777,3.886,3.886,0,0,1-.949,2.77A3.46,3.46,0,0,1-7.426.156,3.6,3.6,0,0,1-9.887-.68a3.337,3.337,0,0,1-1.086-2.312h1.367a2.3,2.3,0,0,0,.7,1.473,2.162,2.162,0,0,0,1.484.5,1.95,1.95,0,0,0,1.582-.687,2.874,2.874,0,0,0,.574-1.9,2.638,2.638,0,0,0-.621-1.832,2.113,2.113,0,0,0-1.652-.691,2.383,2.383,0,0,0-1.484.414l-.383.313ZM10.832,0H9.324V-5.258H3.59V0H2.09V-11.375h1.5v4.891H9.324v-4.891h1.508Z" transform="translate(680 -6393)" fill="#12263f"/>
    <path id="Trazado_658907" data-name="Trazado 658907" d="M-10.973,0h-1.453V-9.633l-2.914,1.07V-9.875L-11.2-11.43h.227ZM.715,0H-6.738V-1.039L-2.8-5.414A9.354,9.354,0,0,0-1.594-7.027a2.693,2.693,0,0,0,.332-1.285A2.041,2.041,0,0,0-1.8-9.773a1.885,1.885,0,0,0-1.437-.57,2.232,2.232,0,0,0-1.676.613,2.343,2.343,0,0,0-.6,1.707H-6.957a3.355,3.355,0,0,1,1.012-2.539,3.751,3.751,0,0,1,2.707-.969A3.6,3.6,0,0,1-.73-10.7,2.838,2.838,0,0,1,.191-8.484q0,1.68-2.141,4L-5-1.18H.715ZM15.324,0H13.816V-5.258H8.082V0h-1.5V-11.375h1.5v4.891h5.734v-4.891h1.508Z" transform="translate(728 -6393)" fill="#12263f"/>
    <path id="Trazado_658908" data-name="Trazado 658908" d="M-6.023,0H-7.477V-9.633l-2.914,1.07V-9.875L-6.25-11.43h.227Zm8.57,0V-11.375H5.758a5.169,5.169,0,0,1,2.625.656,4.438,4.438,0,0,1,1.762,1.867,6.078,6.078,0,0,1,.629,2.781v.727a6.1,6.1,0,0,1-.621,2.82A4.369,4.369,0,0,1,8.379-.664,5.5,5.5,0,0,1,5.7,0Zm1.5-10.148v8.922H5.625a3.434,3.434,0,0,0,2.7-1.079,4.458,4.458,0,0,0,.965-3.073v-.665a4.529,4.529,0,0,0-.91-3.014A3.239,3.239,0,0,0,5.8-10.148Z" transform="translate(777 -6393)" fill="#12263f"/>
    <path id="Trazado_658909" data-name="Trazado 658909" d="M-3.32,0h-7.453V-1.039l3.938-4.375A9.354,9.354,0,0,0-5.629-7.027,2.693,2.693,0,0,0-5.3-8.312a2.041,2.041,0,0,0-.539-1.461,1.885,1.885,0,0,0-1.437-.57,2.232,2.232,0,0,0-1.676.613,2.343,2.343,0,0,0-.6,1.707h-1.445A3.355,3.355,0,0,1-9.98-10.562a3.751,3.751,0,0,1,2.707-.969,3.6,3.6,0,0,1,2.508.832,2.838,2.838,0,0,1,.922,2.215q0,1.68-2.141,4l-3.047,3.3H-3.32ZM2.547,0V-11.375H5.758a5.169,5.169,0,0,1,2.625.656,4.438,4.438,0,0,1,1.762,1.867,6.078,6.078,0,0,1,.629,2.781v.727a6.1,6.1,0,0,1-.621,2.82A4.369,4.369,0,0,1,8.379-.664,5.5,5.5,0,0,1,5.7,0Zm1.5-10.148v8.922H5.625a3.434,3.434,0,0,0,2.7-1.079,4.458,4.458,0,0,0,.965-3.073v-.665a4.529,4.529,0,0,0-.91-3.014A3.239,3.239,0,0,0,5.8-10.148Z" transform="translate(826 -6393)" fill="#12263f"/>
    <path id="Trazado_658900" data-name="Trazado 658900" d="M3.586-4.852a6.61,6.61,0,0,1-.867,3.773A3.084,3.084,0,0,1,.008.156a3.107,3.107,0,0,1-2.7-1.207,6.274,6.274,0,0,1-.906-3.605v-1.93a6.463,6.463,0,0,1,.867-3.727A3.108,3.108,0,0,1-.008-11.531a3.136,3.136,0,0,1,2.7,1.176,6.237,6.237,0,0,1,.891,3.629ZM2.141-6.828A5.3,5.3,0,0,0,1.625-9.5a1.775,1.775,0,0,0-1.633-.84,1.751,1.751,0,0,0-1.617.836,5.171,5.171,0,0,0-.523,2.57v2.313A5.381,5.381,0,0,0-1.613-1.9a1.771,1.771,0,0,0,1.621.879A1.747,1.747,0,0,0,1.6-1.852a5.186,5.186,0,0,0,.543-2.609Z" transform="translate(387 -6417)" fill="#12263f"/>
    <path id="Trazado_599531" data-name="Trazado 599531" d="M-1137.6-6495h4.106" transform="translate(1547.912 50.139)" fill="none" stroke="#583ae2" stroke-width="2"/>
    <path id="Trazado_599532" data-name="Trazado 599532" d="M0,0H4.106" transform="translate(462.784 -6419.524) rotate(90)" fill="none" stroke="#583ae2" stroke-width="2"/>
    <path id="Trazado_599533" data-name="Trazado 599533" d="M0,0H4.106" transform="translate(511.154 -6419.524) rotate(90)" fill="none" stroke="#583ae2" stroke-width="2"/>
    <path id="Trazado_599534" data-name="Trazado 599534" d="M0,0H4.106" transform="translate(559.984 -6419.524) rotate(90)" fill="none" stroke="#583ae2" stroke-width="2"/>
    <path id="Trazado_599535" data-name="Trazado 599535" d="M0,0H4.106" transform="translate(607.433 -6419.524) rotate(90)" fill="none" stroke="#583ae2" stroke-width="2"/>
    <path id="Trazado_599536" data-name="Trazado 599536" d="M0,0H4.106" transform="translate(655.802 -6419.524) rotate(90)" fill="none" stroke="#583ae2" stroke-width="2"/>
    <path id="Trazado_599537" data-name="Trazado 599537" d="M0,0H4.106" transform="translate(704.172 -6419.524) rotate(90)" fill="none" stroke="#583ae2" stroke-width="2"/>
    <path id="Trazado_599538" data-name="Trazado 599538" d="M0,0H4.106" transform="translate(753.003 -6419.524) rotate(90)" fill="none" stroke="#583ae2" stroke-width="2"/>
    <path id="Trazado_599539" data-name="Trazado 599539" d="M0,0H4.106" transform="translate(801.373 -6419.524) rotate(90)" fill="none" stroke="#583ae2" stroke-width="2"/>
    <path id="Trazado_599540" data-name="Trazado 599540" d="M-1137.6-6495h4.106" transform="translate(1547.912 25.724)" fill="none" stroke="#583ae2" stroke-width="2"/>
    <path id="Trazado_599541" data-name="Trazado 599541" d="M-1137.6-6495h4.106" transform="translate(1547.912 1.309)" fill="none" stroke="#583ae2" stroke-width="2"/>
    <path id="Trazado_599542" data-name="Trazado 599542" d="M-1137.6-6495h4.106" transform="translate(1547.912 -22.646)" fill="none" stroke="#583ae2" stroke-width="2"/>
    <path id="Trazado_599543" data-name="Trazado 599543" d="M-1137.6-6495h4.106" transform="translate(1547.912 -46.601)" fill="none" stroke="#583ae2" stroke-width="2"/>
    <path id="Trazado_599544" data-name="Trazado 599544" d="M-1137.6-6495h4.106" transform="translate(1547.912 -71.477)" fill="none" stroke="#583ae2" stroke-width="2"/>
    <path id="Trazado_599545" data-name="Trazado 599545" d="M-1137.6-6495h4.106" transform="translate(1547.912 -95.431)" fill="none" stroke="#583ae2" stroke-width="2"/>
    <g id="Grupo_156759" data-name="Grupo 156759" transform="translate(436.065 -6570.162)">
      <circle id="Elipse_5406" data-name="Elipse 5406" cx="3" cy="3" r="3" transform="translate(-0.065 97.162)" fill="#1dbbd2"/>
      <circle id="Elipse_5407" data-name="Elipse 5407" cx="2.5" cy="2.5" r="2.5" transform="translate(51.935 71.162)" fill="#1dbbd2"/>
      <circle id="Elipse_5408" data-name="Elipse 5408" cx="2.5" cy="2.5" r="2.5" transform="translate(96.935 71.162)" fill="#1dbbd2"/>
      <circle id="Elipse_5409" data-name="Elipse 5409" cx="3" cy="3" r="3" transform="translate(147.935 44.162)" fill="#1dbbd2"/>
      <circle id="Elipse_5410" data-name="Elipse 5410" cx="2.5" cy="2.5" r="2.5" transform="translate(247.935 25.162)" fill="#1dbbd2"/>
      <ellipse id="Elipse_5411" data-name="Elipse 5411" cx="3" cy="2.5" rx="3" ry="2.5" transform="translate(289.935 27.162)" fill="#1dbbd2"/>
      <circle id="Elipse_5412" data-name="Elipse 5412" cx="2.5" cy="2.5" r="2.5" transform="translate(341.935 0.162)" fill="#1dbbd2"/>
      <ellipse id="Elipse_5413" data-name="Elipse 5413" cx="3" cy="2.5" rx="3" ry="2.5" transform="translate(386.935 0.162)" fill="#1dbbd2"/>
      <ellipse id="Elipse_5414" data-name="Elipse 5414" cx="3" cy="2.5" rx="3" ry="2.5" transform="translate(198.935 46.162)" fill="#1dbbd2"/>
    </g>
    <path id="Trazado_599546" data-name="Trazado 599546" d="M-1070.5-6661.65l51.725-27.06h45.3l52.416-26.582,49.8,2.621,49.421-22.464,40.435,2.246,51.667-25.833h46.706" transform="translate(1509.099 192.374)" fill="none" stroke="#1dbbd2" stroke-width="2"/>
    <path id="Trazado_658897" data-name="Trazado 658897" d="M0,0H97V25H0Z" transform="translate(753 -6444)" fill="#36257b"/>
    <path id="Trazado_658884" data-name="Trazado 658884" d="M0,0H88V25H0Z" transform="translate(375 -6640)" fill="#36257b"/>
    <path id="Trazado_658898" data-name="Trazado 658898" d="M-17.77-9.477h-3.484V0H-23.6V-9.477h-3.437v-1.9h9.266ZM-14.2,0h-2.266V-8.453H-14.2Zm-2.4-10.641a1.112,1.112,0,0,1,.34-.836,1.277,1.277,0,0,1,.926-.328,1.28,1.28,0,0,1,.922.328,1.105,1.105,0,0,1,.344.836,1.108,1.108,0,0,1-.348.844,1.283,1.283,0,0,1-.918.328A1.283,1.283,0,0,1-16.25-9.8,1.108,1.108,0,0,1-16.6-10.641ZM-8.449.156A4.15,4.15,0,0,1-11.477-.984a4.054,4.054,0,0,1-1.168-3.039v-.219a5.106,5.106,0,0,1,.492-2.277,3.612,3.612,0,0,1,1.395-1.547A3.914,3.914,0,0,1-8.7-8.609a3.508,3.508,0,0,1,2.73,1.094,4.444,4.444,0,0,1,1,3.1v.922h-5.383A2.1,2.1,0,0,0-9.7-2.164a2,2,0,0,0,1.395.5,2.437,2.437,0,0,0,2.039-.945l1.109,1.242A3.389,3.389,0,0,1-6.527-.246,4.511,4.511,0,0,1-8.449.156Zm-.258-6.945a1.411,1.411,0,0,0-1.09.455,2.357,2.357,0,0,0-.535,1.3h3.141v-.181A1.681,1.681,0,0,0-7.6-6.377,1.456,1.456,0,0,0-8.707-6.789Zm7.133-1.664.07.945a2.971,2.971,0,0,1,2.43-1.1A2.255,2.255,0,0,1,3.168-7.32,2.9,2.9,0,0,1,5.707-8.609a2.521,2.521,0,0,1,2.047.8A3.681,3.681,0,0,1,8.426-5.4V0H6.16V-5.4a1.616,1.616,0,0,0-.281-1.053,1.245,1.245,0,0,0-.992-.333,1.409,1.409,0,0,0-1.406.971L3.488,0H1.23V-5.4A1.6,1.6,0,0,0,.941-6.46a1.257,1.257,0,0,0-.984-.329,1.463,1.463,0,0,0-1.391.8V0H-3.691V-8.453Zm19.344,4.3a5.07,5.07,0,0,1-.887,3.129A2.843,2.843,0,0,1,14.488.156a2.633,2.633,0,0,1-2.07-.891V3.25H10.16v-11.7h2.094l.078.828a2.654,2.654,0,0,1,2.141-.984A2.862,2.862,0,0,1,16.9-7.453a5.207,5.207,0,0,1,.867,3.188Zm-2.258-.172a3.345,3.345,0,0,0-.418-1.826,1.36,1.36,0,0,0-1.215-.643,1.478,1.478,0,0,0-1.461.815V-2.5a1.5,1.5,0,0,0,1.477.839Q15.512-1.664,15.512-4.321Zm3.3.016A5.013,5.013,0,0,1,19.3-6.547,3.546,3.546,0,0,1,20.7-8.07a4.069,4.069,0,0,1,2.113-.539A3.849,3.849,0,0,1,25.6-7.562a4.2,4.2,0,0,1,1.207,2.844l.016.578A4.418,4.418,0,0,1,25.738-1.02,3.775,3.775,0,0,1,22.824.156a3.793,3.793,0,0,1-2.918-1.172A4.5,4.5,0,0,1,18.816-4.2Zm2.258.16A3.16,3.16,0,0,0,21.527-2.3a1.5,1.5,0,0,0,1.3.638,1.5,1.5,0,0,0,1.281-.63,3.457,3.457,0,0,0,.461-2.015,3.128,3.128,0,0,0-.461-1.831,1.5,1.5,0,0,0-1.3-.649,1.474,1.474,0,0,0-1.281.646A3.516,3.516,0,0,0,21.074-4.144Z" transform="translate(803 -6427)" fill="#fff"/>
    <path id="Trazado_658885" data-name="Trazado 658885" d="M-10.953-3.789A4.025,4.025,0,0,1-12.309-.9,4.76,4.76,0,0,1-15.531.156a4.28,4.28,0,0,1-3.441-1.473,6.038,6.038,0,0,1-1.254-4.043v-.7a6.819,6.819,0,0,1,.578-2.891A4.332,4.332,0,0,1-18-10.863a4.629,4.629,0,0,1,2.5-.668,4.637,4.637,0,0,1,3.172,1.055,4.326,4.326,0,0,1,1.391,2.961h-2.344a2.376,2.376,0,0,0-.613-1.6,2.271,2.271,0,0,0-1.605-.5,1.991,1.991,0,0,0-1.754.84,4.707,4.707,0,0,0-.6,2.605V-5.3a5.038,5.038,0,0,0,.559,2.7,1.954,1.954,0,0,0,1.762.852,2.314,2.314,0,0,0,1.621-.5A2.241,2.241,0,0,0-13.3-3.789ZM-9.914-4.3A5.013,5.013,0,0,1-9.43-6.547,3.546,3.546,0,0,1-8.035-8.07a4.069,4.069,0,0,1,2.113-.539A3.849,3.849,0,0,1-3.129-7.562,4.2,4.2,0,0,1-1.922-4.719l.016.578A4.418,4.418,0,0,1-2.992-1.02,3.775,3.775,0,0,1-5.906.156,3.793,3.793,0,0,1-8.824-1.016,4.5,4.5,0,0,1-9.914-4.2Zm2.258.16A3.16,3.16,0,0,0-7.2-2.3a1.5,1.5,0,0,0,1.3.638,1.5,1.5,0,0,0,1.281-.63,3.457,3.457,0,0,0,.461-2.015A3.128,3.128,0,0,0-4.625-6.14a1.5,1.5,0,0,0-1.3-.649A1.474,1.474,0,0,0-7.2-6.144,3.516,3.516,0,0,0-7.656-4.144ZM4.063-2.336a.727.727,0,0,0-.41-.652,4.659,4.659,0,0,0-1.316-.426Q-.68-4.047-.68-5.977A2.323,2.323,0,0,1,.254-7.855,3.766,3.766,0,0,1,2.7-8.609a4.053,4.053,0,0,1,2.574.758,2.388,2.388,0,0,1,.965,1.969H3.977a1.092,1.092,0,0,0-.312-.8A1.322,1.322,0,0,0,2.688-7a1.351,1.351,0,0,0-.883.258.814.814,0,0,0-.312.656.7.7,0,0,0,.355.605,3.657,3.657,0,0,0,1.2.4A9.8,9.8,0,0,1,4.469-4.7,2.336,2.336,0,0,1,6.258-2.43,2.2,2.2,0,0,1,5.266-.559,4.28,4.28,0,0,1,2.7.156,4.47,4.47,0,0,1,.816-.223,3.166,3.166,0,0,1-.477-1.262,2.414,2.414,0,0,1-.945-2.687H1.2a1.179,1.179,0,0,0,.445.922,1.766,1.766,0,0,0,1.109.32,1.635,1.635,0,0,0,.98-.246A.766.766,0,0,0,4.063-2.336Zm6.352-8.2v2.078h1.445V-6.8H10.414v4.219a1.007,1.007,0,0,0,.18.672.9.9,0,0,0,.688.2,3.6,3.6,0,0,0,.664-.055V-.047a4.648,4.648,0,0,1-1.367.2,2.156,2.156,0,0,1-2.422-2.4V-6.8H6.922V-8.453H8.156v-2.078ZM17.008.156A4.15,4.15,0,0,1,13.98-.984a4.054,4.054,0,0,1-1.168-3.039v-.219A5.106,5.106,0,0,1,13.3-6.52,3.612,3.612,0,0,1,14.7-8.066a3.914,3.914,0,0,1,2.059-.543,3.508,3.508,0,0,1,2.73,1.094,4.444,4.444,0,0,1,1,3.1v.922H15.1a2.1,2.1,0,0,0,.66,1.328,2,2,0,0,0,1.395.5A2.437,2.437,0,0,0,19.2-2.609L20.3-1.367A3.389,3.389,0,0,1,18.93-.246,4.511,4.511,0,0,1,17.008.156ZM16.75-6.789a1.411,1.411,0,0,0-1.09.455,2.357,2.357,0,0,0-.535,1.3h3.141v-.181a1.681,1.681,0,0,0-.406-1.165A1.456,1.456,0,0,0,16.75-6.789Z" transform="translate(415 -6622)" fill="#fff"/>
    <path id="Trazado_599547" data-name="Trazado 599547" d="M-1123-6865v195.569h435.328" transform="translate(1537.414 249.693)" fill="none" stroke="#583ae2" stroke-width="2"/>
  </g>
</svg>
