<svg xmlns="http://www.w3.org/2000/svg" width="85" height="79.864" viewBox="0 0 85 79.864">
  <g id="ordenador-portatil_4_" data-name="ordenador-portatil(4)" transform="translate(0 -15.468)">
    <path id="Trazado_599317" data-name="Trazado 599317" d="M106.565,155.593v-48.64a5.52,5.52,0,0,0-5.466-5.573H37.751a5.52,5.52,0,0,0-5.466,5.573V155.56" transform="translate(-26.925 -71.65)" fill="#53515e"/>
    <path id="Trazado_599318" data-name="Trazado 599318" d="M396.236,101.38H386.173a5.52,5.52,0,0,1,5.466,5.573v48.635l10.063,0v-48.64A5.52,5.52,0,0,0,396.236,101.38Z" transform="translate(-322.062 -71.65)" fill="#474756"/>
    <path id="Trazado_599319" data-name="Trazado 599319" d="M56.2,425.566H7.687V428.2a7.873,7.873,0,0,0,7.872,7.872h66.7a7.873,7.873,0,0,0,7.872-7.872v-2.633Z" transform="translate(-6.411 -342.016)" fill="#dfe2ea"/>
    <path id="Trazado_599320" data-name="Trazado 599320" d="M144.808,140.073a34.892,34.892,0,0,0,17.041-15.737A46.876,46.876,0,0,0,167.3,101.38H122.319a46.877,46.877,0,0,0,5.448,22.955A34.893,34.893,0,0,0,144.808,140.073Z" transform="translate(-102.01 -71.65)" fill="#474756"/>
    <path id="Trazado_599321" data-name="Trazado 599321" d="M10.387,457.206a7.874,7.874,0,0,0,7.424,5.253h66.7a7.875,7.875,0,0,0,7.424-5.253H10.387Z" transform="translate(-8.663 -368.403)" fill="#c7cad3"/>
    <rect id="Rect치ngulo_44953" data-name="Rect치ngulo 44953" width="62.455" height="41.675" transform="translate(11.57 35.856)" fill="#fff"/>
    <g id="Grupo_156706" data-name="Grupo 156706" transform="translate(20.609 35.856)">
      <rect id="Rect치ngulo_44954" data-name="Rect치ngulo 44954" width="4.449" height="41.675" transform="translate(48.968 0.001)" fill="#e9ebf2"/>
      <path id="Trazado_599322" data-name="Trazado 599322" d="M124.139,138.277a44.654,44.654,0,0,0,5.147,16.83,34.893,34.893,0,0,0,17.041,15.737,34.892,34.892,0,0,0,17.041-15.737,44.655,44.655,0,0,0,5.147-16.83Z" transform="translate(-124.139 -138.277)" fill="#e9ebf2"/>
    </g>
    <path id="SVGCleanerId_0" d="M176.328,26.7,158.507,23.15,140.685,26.7a1.206,1.206,0,0,0-.882.974c-.853,3.9-3.149,17.494,3.729,29.995a30.66,30.66,0,0,0,14.975,13.829,30.662,30.662,0,0,0,14.975-13.829c6.878-12.5,4.581-26.094,3.729-29.995A1.206,1.206,0,0,0,176.328,26.7Z" transform="translate(-115.709 -6.407)" fill="#00aaf0"/>
    <g id="Grupo_156707" data-name="Grupo 156707" transform="translate(23.033 16.743)">
      <path id="SVGCleanerId_0_1_" d="M176.328,26.7,158.507,23.15,140.685,26.7a1.206,1.206,0,0,0-.882.974c-.853,3.9-3.149,17.494,3.729,29.995a30.66,30.66,0,0,0,14.975,13.829,30.662,30.662,0,0,0,14.975-13.829c6.878-12.5,4.581-26.094,3.729-29.995A1.206,1.206,0,0,0,176.328,26.7Z" transform="translate(-138.743 -23.15)" fill="#00aaf0"/>
    </g>
    <path id="Trazado_599323" data-name="Trazado 599323" d="M277.111,44.321a48.833,48.833,0,0,0-.617-16.65,1.206,1.206,0,0,0-.882-.974L257.791,23.15V44.321Z" transform="translate(-214.994 -6.407)" fill="#00aaf0"/>
    <g id="Grupo_156708" data-name="Grupo 156708" transform="translate(23.034 16.743)">
      <path id="Trazado_599324" data-name="Trazado 599324" d="M139.8,27.671a48.831,48.831,0,0,0-.617,16.65h19.32V23.15L140.687,26.7A1.206,1.206,0,0,0,139.8,27.671Z" transform="translate(-138.745 -23.15)" fill="#d5cef8"/>
      <path id="Trazado_599325" data-name="Trazado 599325" d="M257.791,150.674v27.174a30.662,30.662,0,0,0,14.975-13.829,38.762,38.762,0,0,0,4.345-13.345Z" transform="translate(-238.027 -129.503)" fill="#d5cef8"/>
    </g>
    <path id="Trazado_599326" data-name="Trazado 599326" d="M276.5,27.671a1.206,1.206,0,0,0-.882-.974L257.793,23.15v1.174L269.716,26.7a1.206,1.206,0,0,1,.882.974,48.831,48.831,0,0,1,.617,16.65h5.9A48.831,48.831,0,0,0,276.5,27.671Z" transform="translate(-214.995 -6.407)" fill="#0398e2"/>
    <path id="Trazado_599327" data-name="Trazado 599327" d="M271.214,150.674a38.759,38.759,0,0,1-4.345,13.345,32,32,0,0,1-9.076,10.474v3.355a30.662,30.662,0,0,0,14.975-13.829,38.763,38.763,0,0,0,4.345-13.345Z" transform="translate(-214.995 -112.76)" fill="#583ae2" opacity="0.28"/>
    <path id="Trazado_599328" data-name="Trazado 599328" d="M83.724,82.274H80.916V35.3a6.8,6.8,0,0,0-6.742-6.849h-5.94a1.276,1.276,0,1,0,0,2.552h5.94a4.249,4.249,0,0,1,4.19,4.3V82.274H6.636V35.3a4.249,4.249,0,0,1,4.19-4.3h10.93c-.012,1.435.038,2.958.173,4.545q.092,1.1.24,2.2A39.953,39.953,0,0,0,26.7,51.874a34.089,34.089,0,0,0,6.5,8.445,1.276,1.276,0,1,0,1.748-1.86,31.543,31.543,0,0,1-6.016-7.816A36.915,36.915,0,0,1,24.984,39.19H41.522v23.9a27.323,27.323,0,0,1-2.552-1.476,1.276,1.276,0,0,0-1.395,2.137,29.2,29.2,0,0,0,4.733,2.511,1.839,1.839,0,0,0,1.5-.225q.777-.343,1.533-.734a30.464,30.464,0,0,0,2.937-1.732A31.865,31.865,0,0,0,53.2,59.523a33.808,33.808,0,0,0,4.773-6.078,37.538,37.538,0,0,0,3.473-7.306,42.054,42.054,0,0,0,1.937-8.06c.044-.315.086-.632.124-.948h9.244V76.255h-59.9V37.132h4.627a1.276,1.276,0,1,0,0-2.552h-5.9a1.276,1.276,0,0,0-1.276,1.276V77.531a1.276,1.276,0,0,0,1.276,1.276H74.025A1.276,1.276,0,0,0,75.3,77.531V35.856a1.276,1.276,0,0,0-1.276-1.276H63.739a50.1,50.1,0,0,0-.89-13.1,3.583,3.583,0,0,0-.608-1.569,2.345,2.345,0,0,0-1.374-.868L43.047,15.491,43,15.484l-.05-.007-.038,0-.036,0h-.012l-.048,0h-.039l-.043,0h-.012l-.04,0-.039,0-.046.007-.049.007L24.727,19.038a2.356,2.356,0,0,0-1.427.936,3.677,3.677,0,0,0-.554,1.5,49.119,49.119,0,0,0-.906,6.984H10.826A6.8,6.8,0,0,0,4.084,35.3V82.274H1.276A1.276,1.276,0,0,0,0,83.55v2.633a9.159,9.159,0,0,0,9.149,9.149h66.7A9.159,9.159,0,0,0,85,86.183V83.55A1.276,1.276,0,0,0,83.724,82.274ZM60.249,21.517l0,.019.006.028q.018.085.038.175l.018.087.027.13.025.121.021.1.031.155.012.06a48.3,48.3,0,0,1,.549,14.24H44.073V18.3ZM58.036,47.836a33.36,33.36,0,0,1-4.284,7.209,29.942,29.942,0,0,1-5.9,5.718,27.76,27.76,0,0,1-3.78,2.328V39.19H60.611a38.656,38.656,0,0,1-1.817,6.764q-.353.951-.759,1.882ZM41.521,18.3v18.34H24.615a48.3,48.3,0,0,1,.55-14.245l.01-.053c.011-.055.021-.108.032-.161l.02-.1.026-.127.025-.12.02-.1.037-.17.007-.031c0-.007,0-.013,0-.019ZM82.448,86.183a6.6,6.6,0,0,1-6.6,6.6H9.149a6.6,6.6,0,0,1-6.6-6.6V84.826h76.8a1.247,1.247,0,0,0,.567,0h2.524v1.357Z" transform="translate(0 0)"/>
  </g>
</svg>
