<svg xmlns="http://www.w3.org/2000/svg" xmlns:xlink="http://www.w3.org/1999/xlink" width="1030" height="637" viewBox="0 0 1030 637">
  <defs>
    <radialGradient id="radial-gradient" cx="0" cy="0.985" r="1.459" gradientTransform="matrix(0.993, 0.122, -0.099, 0.809, 0.098, 0.188)" gradientUnits="objectBoundingBox">
      <stop offset="0" stop-color="#0f1"/>
      <stop offset="0.525" stop-color="#fd0"/>
      <stop offset="0.606" stop-color="#ffc700"/>
      <stop offset="1" stop-color="red"/>
    </radialGradient>
  </defs>
  <g id="Grupo_953714" data-name="Grupo 953714" transform="translate(-285 -9406)">
    <g id="Trazado_658910" data-name="Trazado 658910" transform="translate(285 9427)" fill="#36257b">
      <path d="M 189.5 39.5 L 0.5 39.5 L 0.5 0.5 L 189.5 0.5 L 189.5 39.5 Z" stroke="none"/>
      <path d="M 1 1 L 1 39 L 189 39 L 189 1 L 1 1 M 0 0 L 190 0 L 190 40 L 0 40 L 0 0 Z" stroke="none" fill="#707070"/>
    </g>
    <g id="Trazado_658911" data-name="Trazado 658911" transform="translate(1125 9976)" fill="#36257b">
      <path d="M 189.5 39.5 L 0.5 39.5 L 0.5 0.5 L 189.5 0.5 L 189.5 39.5 Z" stroke="none"/>
      <path d="M 1 1 L 1 39 L 189 39 L 189 1 L 1 1 M 0 0 L 190 0 L 190 40 L 0 40 L 0 0 Z" stroke="none" fill="#707070"/>
    </g>
    <path id="Trazado_658912" data-name="Trazado 658912" d="M-27.438,0h-2.49V-12.086h2.49Zm4.4-8.981.075,1a3.156,3.156,0,0,1,2.582-1.17A2.4,2.4,0,0,1-18-7.778a3.084,3.084,0,0,1,2.7-1.37,2.679,2.679,0,0,1,2.175.851,3.911,3.911,0,0,1,.714,2.561V0h-2.407V-5.741a1.717,1.717,0,0,0-.3-1.119,1.322,1.322,0,0,0-1.054-.354,1.5,1.5,0,0,0-1.494,1.032L-17.66,0h-2.4V-5.732a1.7,1.7,0,0,0-.307-1.132,1.335,1.335,0,0,0-1.046-.349,1.554,1.554,0,0,0-1.478.849V0h-2.4V-8.981ZM-2.486-4.408a5.387,5.387,0,0,1-.942,3.324A3.021,3.021,0,0,1-5.972.166a2.8,2.8,0,0,1-2.2-.946V3.453h-2.4V-8.981h2.225l.083.88A2.819,2.819,0,0,1-5.989-9.147,3.041,3.041,0,0,1-3.407-7.919a5.532,5.532,0,0,1,.921,3.387Zm-2.4-.183a3.554,3.554,0,0,0-.444-1.94A1.445,1.445,0,0,0-6.62-7.213a1.57,1.57,0,0,0-1.552.866v3.689A1.6,1.6,0,0,0-6.6-1.768Q-4.885-1.768-4.885-4.591ZM4.2,0a2.664,2.664,0,0,1-.241-.805A2.9,2.9,0,0,1,1.7.166,3.189,3.189,0,0,1-.49-.6a2.456,2.456,0,0,1-.867-1.926A2.538,2.538,0,0,1-.3-4.715,5.222,5.222,0,0,1,2.76-5.487h1.1V-6a1.48,1.48,0,0,0-.32-1,1.257,1.257,0,0,0-1.009-.374,1.429,1.429,0,0,0-.95.291.987.987,0,0,0-.344.8h-2.4A2.41,2.41,0,0,1-.677-7.728,3.182,3.182,0,0,1,.685-8.77,4.961,4.961,0,0,1,2.66-9.147,3.92,3.92,0,0,1,5.3-8.313a2.918,2.918,0,0,1,.975,2.345v3.893A4.294,4.294,0,0,0,6.628-.141V0ZM2.22-1.668A2.066,2.066,0,0,0,3.2-1.905a1.554,1.554,0,0,0,.664-.635V-4.084h-.9q-1.8,0-1.917,1.245L1.042-2.7a.96.96,0,0,0,.315.739A1.225,1.225,0,0,0,2.22-1.668Zm9.629-.1a1.573,1.573,0,0,0,1.079-.365A1.28,1.28,0,0,0,13.36-3.1h2.25a3.077,3.077,0,0,1-.5,1.673A3.286,3.286,0,0,1,13.771-.253a4.2,4.2,0,0,1-1.88.419A3.9,3.9,0,0,1,8.853-1.058,4.845,4.845,0,0,1,7.74-4.441V-4.6a4.79,4.79,0,0,1,1.1-3.312,3.854,3.854,0,0,1,3.03-1.237,3.778,3.778,0,0,1,2.7.959A3.4,3.4,0,0,1,15.61-5.636H13.36a1.648,1.648,0,0,0-.432-1.139,1.439,1.439,0,0,0-1.1-.438,1.445,1.445,0,0,0-1.266.611,3.541,3.541,0,0,0-.427,1.983v.249a3.586,3.586,0,0,0,.423,2A1.463,1.463,0,0,0,11.849-1.768Zm8-9.421v2.208h1.536v1.76H19.851v4.482a1.07,1.07,0,0,0,.191.714.959.959,0,0,0,.73.216,3.826,3.826,0,0,0,.706-.058V-.05a4.939,4.939,0,0,1-1.453.216,2.29,2.29,0,0,1-2.573-2.548V-7.222H16.141v-1.76h1.312v-2.208ZM22.1-4.574a5.327,5.327,0,0,1,.515-2.382A3.768,3.768,0,0,1,24.1-8.575a4.323,4.323,0,0,1,2.245-.573A4.09,4.09,0,0,1,29.31-8.035a4.464,4.464,0,0,1,1.282,3.021l.017.614a4.694,4.694,0,0,1-1.154,3.316,4.011,4.011,0,0,1-3.1,1.249,4.031,4.031,0,0,1-3.1-1.245A4.777,4.777,0,0,1,22.1-4.466Zm2.4.17a3.357,3.357,0,0,0,.481,1.958,1.588,1.588,0,0,0,1.378.678,1.592,1.592,0,0,0,1.361-.669,3.674,3.674,0,0,0,.49-2.141,3.324,3.324,0,0,0-.49-1.945,1.592,1.592,0,0,0-1.378-.69,1.566,1.566,0,0,0-1.361.686A3.735,3.735,0,0,0,24.5-4.4Z" transform="translate(374 9452)" fill="#fff"/>
    <path id="Trazado_658913" data-name="Trazado 658913" d="M-44.7-4.258V0h-2.49V-12.086h4.715a5.455,5.455,0,0,1,2.395.5,3.67,3.67,0,0,1,1.59,1.415,3.946,3.946,0,0,1,.556,2.088,3.47,3.47,0,0,1-1.216,2.8,5.065,5.065,0,0,1-3.366,1.025Zm0-2.017h2.225a2.187,2.187,0,0,0,1.507-.465,1.691,1.691,0,0,0,.519-1.328A1.994,1.994,0,0,0-40.969-9.5a1.953,1.953,0,0,0-1.444-.564H-44.7Zm13.364-.457a6.517,6.517,0,0,0-.863-.066,1.757,1.757,0,0,0-1.785.921V0h-2.4V-8.981h2.266l.066,1.071a2.223,2.223,0,0,1,2-1.237,2.514,2.514,0,0,1,.747.108Zm.481,2.158a5.327,5.327,0,0,1,.515-2.382,3.768,3.768,0,0,1,1.482-1.619,4.323,4.323,0,0,1,2.245-.573,4.09,4.09,0,0,1,2.968,1.112,4.464,4.464,0,0,1,1.282,3.021l.017.614A4.694,4.694,0,0,1-23.5-1.083a4.011,4.011,0,0,1-3.1,1.249,4.031,4.031,0,0,1-3.1-1.245A4.777,4.777,0,0,1-30.85-4.466Zm2.4.17a3.357,3.357,0,0,0,.481,1.958,1.588,1.588,0,0,0,1.378.678,1.592,1.592,0,0,0,1.361-.669,3.674,3.674,0,0,0,.49-2.141,3.324,3.324,0,0,0-.49-1.945,1.592,1.592,0,0,0-1.378-.69,1.566,1.566,0,0,0-1.361.686A3.735,3.735,0,0,0-28.451-4.4Zm15.68,0a5.439,5.439,0,0,1-.921,3.366A3.052,3.052,0,0,1-16.265.166,2.8,2.8,0,0,1-18.6-.955L-18.706,0h-2.158V-12.75h2.4v4.574a2.732,2.732,0,0,1,2.183-.971A3.077,3.077,0,0,1-13.7-7.94a5.446,5.446,0,0,1,.934,3.4Zm-2.4-.183A3.593,3.593,0,0,0-15.6-6.585a1.458,1.458,0,0,0-1.287-.629,1.582,1.582,0,0,0-1.577.941v3.555a1.6,1.6,0,0,0,1.594.949,1.482,1.482,0,0,0,1.527-1.149A5.944,5.944,0,0,0-15.17-4.591ZM-6.089,0a2.664,2.664,0,0,1-.241-.805A2.9,2.9,0,0,1-8.6.166,3.189,3.189,0,0,1-10.783-.6a2.456,2.456,0,0,1-.867-1.926,2.538,2.538,0,0,1,1.058-2.191,5.222,5.222,0,0,1,3.059-.772h1.1V-6a1.48,1.48,0,0,0-.32-1,1.257,1.257,0,0,0-1.009-.374,1.429,1.429,0,0,0-.95.291.987.987,0,0,0-.344.8h-2.4a2.41,2.41,0,0,1,.481-1.444A3.182,3.182,0,0,1-9.608-8.77a4.961,4.961,0,0,1,1.976-.378A3.92,3.92,0,0,1-5-8.313a2.918,2.918,0,0,1,.975,2.345v3.893A4.294,4.294,0,0,0-3.665-.141V0ZM-8.073-1.668a2.066,2.066,0,0,0,.979-.237,1.554,1.554,0,0,0,.664-.635V-4.084h-.9q-1.8,0-1.917,1.245l-.008.141a.96.96,0,0,0,.315.739A1.225,1.225,0,0,0-8.073-1.668ZM5.914-4.408a5.439,5.439,0,0,1-.921,3.366A3.052,3.052,0,0,1,2.42.166,2.8,2.8,0,0,1,.087-.955L-.021,0H-2.179V-12.75H.22v4.574A2.732,2.732,0,0,1,2.4-9.147,3.077,3.077,0,0,1,4.98-7.94a5.446,5.446,0,0,1,.934,3.4Zm-2.4-.183a3.593,3.593,0,0,0-.432-1.994A1.458,1.458,0,0,0,1.8-7.213,1.582,1.582,0,0,0,.22-6.273v3.555a1.6,1.6,0,0,0,1.594.949A1.482,1.482,0,0,0,3.341-2.917,5.944,5.944,0,0,0,3.515-4.591ZM9.924,0H7.516V-8.981H9.924ZM7.375-11.306a1.181,1.181,0,0,1,.361-.888,1.356,1.356,0,0,1,.984-.349,1.36,1.36,0,0,1,.979.349,1.175,1.175,0,0,1,.365.888,1.178,1.178,0,0,1-.369.9,1.363,1.363,0,0,1-.975.349,1.363,1.363,0,0,1-.975-.349A1.178,1.178,0,0,1,7.375-11.306ZM14.431,0H12.024V-12.75h2.407Zm4.507,0H16.531V-8.981h2.407ZM16.39-11.306a1.181,1.181,0,0,1,.361-.888,1.356,1.356,0,0,1,.984-.349,1.36,1.36,0,0,1,.979.349,1.175,1.175,0,0,1,.365.888,1.178,1.178,0,0,1-.369.9,1.363,1.363,0,0,1-.975.349,1.363,1.363,0,0,1-.975-.349A1.178,1.178,0,0,1,16.39-11.306Zm4.15,6.749A5.413,5.413,0,0,1,21.482-7.9,3.057,3.057,0,0,1,24.06-9.147a2.751,2.751,0,0,1,2.167.979V-12.75h2.407V0H26.467l-.116-.955A2.823,2.823,0,0,1,24.043.166,3.049,3.049,0,0,1,21.5-1.083,5.587,5.587,0,0,1,20.54-4.557Zm2.4.171a3.565,3.565,0,0,0,.44,1.943,1.432,1.432,0,0,0,1.278.675,1.6,1.6,0,0,0,1.569-.942V-6.271a1.582,1.582,0,0,0-1.552-.942Q22.939-7.213,22.939-4.386ZM35.7,0a2.664,2.664,0,0,1-.241-.805,2.9,2.9,0,0,1-2.266.971A3.189,3.189,0,0,1,31-.6a2.456,2.456,0,0,1-.867-1.926,2.538,2.538,0,0,1,1.058-2.191,5.222,5.222,0,0,1,3.059-.772h1.1V-6a1.48,1.48,0,0,0-.32-1,1.257,1.257,0,0,0-1.009-.374,1.429,1.429,0,0,0-.95.291.987.987,0,0,0-.344.8h-2.4a2.41,2.41,0,0,1,.481-1.444A3.182,3.182,0,0,1,32.178-8.77a4.961,4.961,0,0,1,1.976-.378,3.92,3.92,0,0,1,2.635.834,2.918,2.918,0,0,1,.975,2.345v3.893a4.294,4.294,0,0,0,.357,1.934V0ZM33.714-1.668a2.066,2.066,0,0,0,.979-.237,1.554,1.554,0,0,0,.664-.635V-4.084h-.9q-1.8,0-1.917,1.245l-.008.141a.96.96,0,0,0,.315.739A1.225,1.225,0,0,0,33.714-1.668Zm5.52-2.889A5.413,5.413,0,0,1,40.176-7.9a3.057,3.057,0,0,1,2.577-1.245,2.751,2.751,0,0,1,2.167.979V-12.75h2.407V0H45.16l-.116-.955A2.823,2.823,0,0,1,42.737.166a3.049,3.049,0,0,1-2.544-1.249A5.587,5.587,0,0,1,39.234-4.557Zm2.4.171a3.565,3.565,0,0,0,.44,1.943,1.432,1.432,0,0,0,1.278.675A1.6,1.6,0,0,0,44.92-2.71V-6.271a1.582,1.582,0,0,0-1.552-.942Q41.633-7.213,41.633-4.386Z" transform="translate(1220 10001)" fill="#fff"/>
    <path id="Trazado_658914" data-name="Trazado 658914" d="M0,0H792V481H0Z" transform="translate(404 9485)" fill="url(#radial-gradient)"/>
    <path id="Trazado_657995" data-name="Trazado 657995" d="M-998-2211v511.865" transform="translate(1402.957 11677.988)" fill="none" stroke="#342376" stroke-width="2"/>
    <path id="Trazado_657996" data-name="Trazado 657996" d="M0,0V816.463" transform="translate(1208.232 9965.659) rotate(90)" fill="none" stroke="#342376" stroke-width="2"/>
    <g id="Grupo_953464" data-name="Grupo 953464" transform="translate(790 1980)">
      <path id="Trazado_657988" data-name="Trazado 657988" d="M42.5,0A42.5,42.5,0,1,1,0,42.5,42.5,42.5,0,0,1,42.5,0Z" transform="translate(293 7536)" fill="#fff" opacity="0.9"/>
    </g>
    <path id="Trazado_657997" data-name="Trazado 657997" d="M-1288-2753l-11.544,31.087,58.069-.012L-1252.151-2753Z" transform="translate(2396 12269)" fill="#36257b" opacity="0.55"/>
    <g id="Grupo_953468" data-name="Grupo 953468" transform="translate(801.31 1991.311)">
      <path id="Trazado_657988-2" data-name="Trazado 657988" d="M31.19,0A31.19,31.19,0,1,1,0,31.19,31.19,31.19,0,0,1,31.19,0Z" transform="translate(293 7536)" fill="red"/>
    </g>
    <path id="Trazado_658915" data-name="Trazado 658915" d="M0,0H36V36H0Z" transform="translate(1108 9516)" fill="#36257b"/>
    <path id="Trazado_658916" data-name="Trazado 658916" d="M1.876,0H-.664V-9.8L-3.7-8.868v-2.048l5.3-1.9h.272Z" transform="translate(1126 9540)" fill="#fff"/>
    <g id="Grupo_953464-2" data-name="Grupo 953464" transform="translate(144 2327)" opacity="0.9">
      <path id="Trazado_657988-3" data-name="Trazado 657988" d="M42.5,0A42.5,42.5,0,1,1,0,42.5,42.5,42.5,0,0,1,42.5,0Z" transform="translate(293 7536)" fill="#fff"/>
    </g>
    <path id="Trazado_657997-2" data-name="Trazado 657997" d="M-1288-2753l-11.544,31.087,58.069-.012L-1252.151-2753Z" transform="translate(1750 12616)" fill="#36257b" opacity="0.55"/>
    <g id="Grupo_953468-2" data-name="Grupo 953468" transform="translate(155.31 2338.311)">
      <path id="Trazado_657988-4" data-name="Trazado 657988" d="M31.19,0A31.19,31.19,0,1,1,0,31.19,31.19,31.19,0,0,1,31.19,0Z" transform="translate(293 7536)" fill="#21fa0e"/>
    </g>
    <path id="Trazado_658917" data-name="Trazado 658917" d="M0,0H36V36H0Z" transform="translate(462 9863)" fill="#36257b"/>
    <path id="Trazado_658918" data-name="Trazado 658918" d="M-1.709-7.523H-.356a1.907,1.907,0,0,0,1.433-.483A1.771,1.771,0,0,0,1.542-9.29a1.566,1.566,0,0,0-.461-1.2,1.788,1.788,0,0,0-1.27-.431,1.874,1.874,0,0,0-1.222.4A1.279,1.279,0,0,0-1.9-9.483h-2.54a3.124,3.124,0,0,1,.541-1.8,3.6,3.6,0,0,1,1.512-1.244,5.045,5.045,0,0,1,2.14-.448A4.785,4.785,0,0,1,2.931-12,3.314,3.314,0,0,1,4.083-9.325a2.693,2.693,0,0,1-.536,1.617A3.483,3.483,0,0,1,2.14-6.574a3.18,3.18,0,0,1,1.613,1.16,3.147,3.147,0,0,1,.532,1.828A3.369,3.369,0,0,1,3.041-.853,5,5,0,0,1-.25.176,4.741,4.741,0,0,1-3.384-.835,3.3,3.3,0,0,1-4.6-3.507h2.54a1.472,1.472,0,0,0,.541,1.178,1.992,1.992,0,0,0,1.332.457A2,2,0,0,0,1.23-2.351a1.654,1.654,0,0,0,.514-1.27q0-1.916-2.109-1.916H-1.709Z" transform="translate(480 9887)" fill="#fff"/>
    <g id="Grupo_953469" data-name="Grupo 953469" transform="translate(465 2147)" opacity="0.9">
      <path id="Trazado_657988-5" data-name="Trazado 657988" d="M42.5,0A42.5,42.5,0,1,1,0,42.5,42.5,42.5,0,0,1,42.5,0Z" transform="translate(293 7536)" fill="#fff"/>
    </g>
    <path id="Trazado_657998" data-name="Trazado 657998" d="M-1288-2753l-11.544,31.087,58.069-.012L-1252.151-2753Z" transform="translate(2071 12436)" fill="#36257b" opacity="0.55"/>
    <g id="Grupo_953470" data-name="Grupo 953470" transform="translate(476.31 2158.311)">
      <path id="Trazado_657988-6" data-name="Trazado 657988" d="M31.19,0A31.19,31.19,0,1,1,0,31.19,31.19,31.19,0,0,1,31.19,0Z" transform="translate(293 7536)" fill="#ffdc00"/>
    </g>
    <path id="Trazado_658919" data-name="Trazado 658919" d="M0,0H36V36H0Z" transform="translate(783 9683)" fill="#36257b"/>
    <path id="Trazado_658920" data-name="Trazado 658920" d="M4.478,0H-4.293V-1.74l4.14-4.412A10.212,10.212,0,0,0,1.107-7.778,2.612,2.612,0,0,0,1.516-9.1a1.955,1.955,0,0,0-.431-1.34,1.555,1.555,0,0,0-1.23-.488,1.677,1.677,0,0,0-1.358.593A2.35,2.35,0,0,0-2-8.771H-4.548a4.2,4.2,0,0,1,.558-2.136,3.934,3.934,0,0,1,1.578-1.516A4.8,4.8,0,0,1-.1-12.973a4.54,4.54,0,0,1,3.072.949A3.358,3.358,0,0,1,4.065-9.343a4.3,4.3,0,0,1-.492,1.934A10.745,10.745,0,0,1,1.885-5.115L-1.024-2.048h5.5Z" transform="translate(801 9707)" fill="#fff"/>
    <g id="Grupo_953469-2" data-name="Grupo 953469" transform="translate(144 1980)">
      <path id="Trazado_657988-7" data-name="Trazado 657988" d="M42.5,0A42.5,42.5,0,1,1,0,42.5,42.5,42.5,0,0,1,42.5,0Z" transform="translate(293 7536)" fill="#fff" opacity="0.9"/>
    </g>
    <path id="Trazado_657998-2" data-name="Trazado 657998" d="M-1288-2753l-11.544,31.087,58.069-.012L-1252.151-2753Z" transform="translate(1750 12269)" fill="#36257b" opacity="0.55"/>
    <g id="Grupo_953470-2" data-name="Grupo 953470" transform="translate(155.31 1991.311)">
      <path id="Trazado_657988-8" data-name="Trazado 657988" d="M31.19,0A31.19,31.19,0,1,1,0,31.19,31.19,31.19,0,0,1,31.19,0Z" transform="translate(293 7536)" fill="#ff8700"/>
    </g>
    <path id="Trazado_658921" data-name="Trazado 658921" d="M0,0H36V36H0Z" transform="translate(462 9516)" fill="#36257b"/>
    <path id="Trazado_658922" data-name="Trazado 658922" d="M3.221-4.816h1.45v2.048H3.221V0H.681V-2.769H-4.566l-.114-1.6L.655-12.8H3.221Zm-5.37,0H.681V-9.334l-.167.29Z" transform="translate(480 9540)" fill="#fff"/>
    <path id="Trazado_658923" data-name="Trazado 658923" d="M0,0H1030V637H0Z" transform="translate(285 9406)" fill="none"/>
  </g>
</svg>
