<svg xmlns="http://www.w3.org/2000/svg" xmlns:xlink="http://www.w3.org/1999/xlink" width="525" height="403" viewBox="0 0 525 403">
  <defs>
    <radialGradient id="radial-gradient" cx="0" cy="0.985" r="1.459" gradientTransform="matrix(0.993, 0.122, -0.099, 0.809, 0.098, 0.188)" gradientUnits="objectBoundingBox">
      <stop offset="0" stop-color="#0f1"/>
      <stop offset="0.525" stop-color="#fd0"/>
      <stop offset="0.606" stop-color="#ffc700"/>
      <stop offset="1" stop-color="red"/>
    </radialGradient>
  </defs>
  <g id="Grupo_953715" data-name="Grupo 953715" transform="translate(-350 1739.312)">
    <path id="Trazado_658924" data-name="Trazado 658924" d="M0,0H525V403H0Z" transform="translate(350 -1739.312)" fill="none"/>
    <path id="Trazado_658925" data-name="Trazado 658925" d="M0,0H102.755V29.192H0Z" transform="translate(375 -1714.503)" fill="#36257b"/>
    <path id="Trazado_658926" data-name="Trazado 658926" d="M-27.438,0h-2.49V-12.086h2.49Zm4.4-8.981.075,1a3.156,3.156,0,0,1,2.582-1.17A2.4,2.4,0,0,1-18-7.778a3.084,3.084,0,0,1,2.7-1.37,2.679,2.679,0,0,1,2.175.851,3.911,3.911,0,0,1,.714,2.561V0h-2.407V-5.741a1.717,1.717,0,0,0-.3-1.119,1.322,1.322,0,0,0-1.054-.354,1.5,1.5,0,0,0-1.494,1.032L-17.66,0h-2.4V-5.732a1.7,1.7,0,0,0-.307-1.132,1.335,1.335,0,0,0-1.046-.349,1.554,1.554,0,0,0-1.478.849V0h-2.4V-8.981ZM-2.486-4.408a5.387,5.387,0,0,1-.942,3.324A3.021,3.021,0,0,1-5.972.166a2.8,2.8,0,0,1-2.2-.946V3.453h-2.4V-8.981h2.225l.083.88A2.819,2.819,0,0,1-5.989-9.147,3.041,3.041,0,0,1-3.407-7.919a5.532,5.532,0,0,1,.921,3.387Zm-2.4-.183a3.554,3.554,0,0,0-.444-1.94A1.445,1.445,0,0,0-6.62-7.213a1.57,1.57,0,0,0-1.552.866v3.689A1.6,1.6,0,0,0-6.6-1.768Q-4.885-1.768-4.885-4.591ZM4.2,0a2.664,2.664,0,0,1-.241-.805A2.9,2.9,0,0,1,1.7.166,3.189,3.189,0,0,1-.49-.6a2.456,2.456,0,0,1-.867-1.926A2.538,2.538,0,0,1-.3-4.715,5.222,5.222,0,0,1,2.76-5.487h1.1V-6a1.48,1.48,0,0,0-.32-1,1.257,1.257,0,0,0-1.009-.374,1.429,1.429,0,0,0-.95.291.987.987,0,0,0-.344.8h-2.4A2.41,2.41,0,0,1-.677-7.728,3.182,3.182,0,0,1,.685-8.77,4.961,4.961,0,0,1,2.66-9.147,3.92,3.92,0,0,1,5.3-8.313a2.918,2.918,0,0,1,.975,2.345v3.893A4.294,4.294,0,0,0,6.628-.141V0ZM2.22-1.668A2.066,2.066,0,0,0,3.2-1.905a1.554,1.554,0,0,0,.664-.635V-4.084h-.9q-1.8,0-1.917,1.245L1.042-2.7a.96.96,0,0,0,.315.739A1.225,1.225,0,0,0,2.22-1.668Zm9.629-.1a1.573,1.573,0,0,0,1.079-.365A1.28,1.28,0,0,0,13.36-3.1h2.25a3.077,3.077,0,0,1-.5,1.673A3.286,3.286,0,0,1,13.771-.253a4.2,4.2,0,0,1-1.88.419A3.9,3.9,0,0,1,8.853-1.058,4.845,4.845,0,0,1,7.74-4.441V-4.6a4.79,4.79,0,0,1,1.1-3.312,3.854,3.854,0,0,1,3.03-1.237,3.778,3.778,0,0,1,2.7.959A3.4,3.4,0,0,1,15.61-5.636H13.36a1.648,1.648,0,0,0-.432-1.139,1.439,1.439,0,0,0-1.1-.438,1.445,1.445,0,0,0-1.266.611,3.541,3.541,0,0,0-.427,1.983v.249a3.586,3.586,0,0,0,.423,2A1.463,1.463,0,0,0,11.849-1.768Zm8-9.421v2.208h1.536v1.76H19.851v4.482a1.07,1.07,0,0,0,.191.714.959.959,0,0,0,.73.216,3.826,3.826,0,0,0,.706-.058V-.05a4.939,4.939,0,0,1-1.453.216,2.29,2.29,0,0,1-2.573-2.548V-7.222H16.141v-1.76h1.312v-2.208ZM22.1-4.574a5.327,5.327,0,0,1,.515-2.382A3.768,3.768,0,0,1,24.1-8.575a4.323,4.323,0,0,1,2.245-.573A4.09,4.09,0,0,1,29.31-8.035a4.464,4.464,0,0,1,1.282,3.021l.017.614a4.694,4.694,0,0,1-1.154,3.316,4.011,4.011,0,0,1-3.1,1.249,4.031,4.031,0,0,1-3.1-1.245A4.777,4.777,0,0,1,22.1-4.466Zm2.4.17a3.357,3.357,0,0,0,.481,1.958,1.588,1.588,0,0,0,1.378.678,1.592,1.592,0,0,0,1.361-.669,3.674,3.674,0,0,0,.49-2.141,3.324,3.324,0,0,0-.49-1.945,1.592,1.592,0,0,0-1.378-.69,1.566,1.566,0,0,0-1.361.686A3.735,3.735,0,0,0,24.5-4.4Z" transform="translate(425.515 -1694)" fill="#fff"/>
    <path id="Trazado_658927" data-name="Trazado 658927" d="M0,0H467.154V283.713H0Z" transform="translate(382.215 -1675)" fill="url(#radial-gradient)"/>
    <path id="Trazado_658224" data-name="Trazado 658224" d="M-998-2211v301.918" transform="translate(1380.779 525.688)" fill="none" stroke="#342376" stroke-width="2"/>
    <path id="Trazado_658223" data-name="Trazado 658223" d="M0,0V481.583" transform="translate(856.583 -1391.175) rotate(90)" fill="none" stroke="#342376" stroke-width="2"/>
    <g id="Grupo_953464" data-name="Grupo 953464" transform="translate(752.122 -1663.019)">
      <path id="Trazado_657988" data-name="Trazado 657988" d="M39.878,0A39.878,39.878,0,1,1,0,39.878,39.878,39.878,0,0,1,39.878,0Z" transform="translate(0 0)" fill="#fff" opacity="0.9"/>
    </g>
    <path id="Trazado_657997" data-name="Trazado 657997" d="M-1288.712-2753l-10.831,29.169,54.486-.012L-1255.076-2753Z" transform="translate(2064.292 1089.981)" fill="#36257b" opacity="0.55"/>
    <g id="Grupo_953468" data-name="Grupo 953468" transform="translate(762.735 -1652.406)">
      <path id="Trazado_657988-2" data-name="Trazado 657988" d="M29.265,0A29.265,29.265,0,1,1,0,29.265,29.265,29.265,0,0,1,29.265,0Z" transform="translate(0 0)" fill="red"/>
    </g>
    <path id="Trazado_658928" data-name="Trazado 658928" d="M0,0H34V34H0Z" transform="translate(775.842 -1663)" fill="#36257b"/>
    <path id="Trazado_658929" data-name="Trazado 658929" d="M1.772,0h-2.4V-9.26l-2.864.884V-10.31L1.515-12.1h.257Z" transform="translate(791.842 -1642)" fill="#fff"/>
    <g id="Grupo_953464-2" data-name="Grupo 953464" transform="translate(398 -1484.755)" opacity="0.9">
      <path id="Trazado_657988-3" data-name="Trazado 657988" d="M39.878,0A39.878,39.878,0,1,1,0,39.878,39.878,39.878,0,0,1,39.878,0Z" transform="translate(0 0)" fill="#fff"/>
    </g>
    <path id="Trazado_657997-2" data-name="Trazado 657997" d="M-1288.712-2753l-10.831,29.169,54.486-.012L-1255.076-2753Z" transform="translate(1710.17 1268.245)" fill="#36257b" opacity="0.55"/>
    <g id="Grupo_953468-2" data-name="Grupo 953468" transform="translate(408.612 -1474.143)">
      <path id="Trazado_657988-4" data-name="Trazado 657988" d="M29.265,0A29.265,29.265,0,1,1,0,29.265,29.265,29.265,0,0,1,29.265,0Z" transform="translate(0 0)" fill="#21fa0e"/>
    </g>
    <path id="Trazado_658930" data-name="Trazado 658930" d="M0,0H34V34H0Z" transform="translate(421 -1485)" fill="#36257b"/>
    <path id="Trazado_658931" data-name="Trazado 658931" d="M-1.615-7.105H-.336a1.8,1.8,0,0,0,1.353-.457,1.673,1.673,0,0,0,.44-1.212,1.479,1.479,0,0,0-.436-1.137,1.689,1.689,0,0,0-1.2-.407,1.77,1.77,0,0,0-1.154.378,1.208,1.208,0,0,0-.465.984H-4.2a2.95,2.95,0,0,1,.51-1.7,3.4,3.4,0,0,1,1.428-1.175,4.765,4.765,0,0,1,2.021-.423,4.519,4.519,0,0,1,3,.917A3.13,3.13,0,0,1,3.856-8.807,2.543,2.543,0,0,1,3.349-7.28,3.29,3.29,0,0,1,2.021-6.209a3,3,0,0,1,1.523,1.1,2.972,2.972,0,0,1,.5,1.727A3.181,3.181,0,0,1,2.872-.805,4.723,4.723,0,0,1-.237.166,4.478,4.478,0,0,1-3.2-.789a3.118,3.118,0,0,1-1.15-2.523h2.4A1.39,1.39,0,0,0-1.436-2.2a1.881,1.881,0,0,0,1.258.432A1.89,1.89,0,0,0,1.162-2.22a1.562,1.562,0,0,0,.486-1.2q0-1.81-1.992-1.81h-1.27Z" transform="translate(438 -1464)" fill="#fff"/>
    <g id="Grupo_953469" data-name="Grupo 953469" transform="translate(575 -1573.51)" opacity="0.9">
      <path id="Trazado_657988-5" data-name="Trazado 657988" d="M39.878,0A39.878,39.878,0,1,1,0,39.878,39.878,39.878,0,0,1,39.878,0Z" transform="translate(0 0)" fill="#fff"/>
    </g>
    <path id="Trazado_657998" data-name="Trazado 657998" d="M-1288.712-2753l-10.831,29.169,54.486-.012L-1255.076-2753Z" transform="translate(1887.17 1179.49)" fill="#36257b" opacity="0.55"/>
    <g id="Grupo_953470" data-name="Grupo 953470" transform="translate(585.612 -1562.898)">
      <path id="Trazado_657988-6" data-name="Trazado 657988" d="M29.265,0A29.265,29.265,0,1,1,0,29.265,29.265,29.265,0,0,1,29.265,0Z" transform="translate(0 0)" fill="#ffdc00"/>
    </g>
    <path id="Trazado_658932" data-name="Trazado 658932" d="M0,0H33V34H0Z" transform="translate(598.798 -1574)" fill="#36257b"/>
    <path id="Trazado_658933" data-name="Trazado 658933" d="M4.229,0H-4.055V-1.644l3.91-4.167A9.645,9.645,0,0,0,1.046-7.346a2.467,2.467,0,0,0,.386-1.245,1.846,1.846,0,0,0-.407-1.266,1.468,1.468,0,0,0-1.162-.461,1.584,1.584,0,0,0-1.282.56,2.219,2.219,0,0,0-.469,1.473H-4.3A3.962,3.962,0,0,1-3.769-10.3a3.715,3.715,0,0,1,1.49-1.432A4.529,4.529,0,0,1-.1-12.252a4.288,4.288,0,0,1,2.9.9A3.172,3.172,0,0,1,3.839-8.824,4.064,4.064,0,0,1,3.374-7,10.148,10.148,0,0,1,1.781-4.831l-2.748,2.9h5.2Z" transform="translate(614.798 -1553)" fill="#fff"/>
    <g id="Grupo_953469-2" data-name="Grupo 953469" transform="translate(398 -1663.019)">
      <path id="Trazado_657988-7" data-name="Trazado 657988" d="M39.878,0A39.878,39.878,0,1,1,0,39.878,39.878,39.878,0,0,1,39.878,0Z" transform="translate(0 0)" fill="#fff" opacity="0.9"/>
    </g>
    <path id="Trazado_657998-2" data-name="Trazado 657998" d="M-1288.712-2753l-10.831,29.169,54.486-.012L-1255.076-2753Z" transform="translate(1710.17 1089.981)" fill="#36257b" opacity="0.55"/>
    <g id="Grupo_953470-2" data-name="Grupo 953470" transform="translate(408.612 -1652.406)">
      <path id="Trazado_657988-8" data-name="Trazado 657988" d="M29.265,0A29.265,29.265,0,1,1,0,29.265,29.265,29.265,0,0,1,29.265,0Z" transform="translate(0 0)" fill="#ff8700"/>
    </g>
    <path id="Trazado_658934" data-name="Trazado 658934" d="M0,0H34V34H0Z" transform="translate(421 -1663)" fill="#36257b"/>
    <path id="Trazado_658935" data-name="Trazado 658935" d="M3.042-4.549h1.37v1.934H3.042V0H.643V-2.615H-4.312L-4.42-4.125l5.039-7.96H3.042Zm-5.072,0H.643V-8.815l-.158.274Z" transform="translate(438 -1642)" fill="#fff"/>
    <path id="Trazado_658936" data-name="Trazado 658936" d="M0,0H122V30H0Z" transform="translate(728 -1385.175)" fill="#36257b"/>
    <path id="Trazado_658937" data-name="Trazado 658937" d="M-44.7-4.258V0h-2.49V-12.086h4.715a5.455,5.455,0,0,1,2.395.5,3.67,3.67,0,0,1,1.59,1.415,3.946,3.946,0,0,1,.556,2.088,3.47,3.47,0,0,1-1.216,2.8,5.065,5.065,0,0,1-3.366,1.025Zm0-2.017h2.225a2.187,2.187,0,0,0,1.507-.465,1.691,1.691,0,0,0,.519-1.328A1.994,1.994,0,0,0-40.969-9.5a1.953,1.953,0,0,0-1.444-.564H-44.7Zm13.364-.457a6.517,6.517,0,0,0-.863-.066,1.757,1.757,0,0,0-1.785.921V0h-2.4V-8.981h2.266l.066,1.071a2.223,2.223,0,0,1,2-1.237,2.514,2.514,0,0,1,.747.108Zm.481,2.158a5.327,5.327,0,0,1,.515-2.382,3.768,3.768,0,0,1,1.482-1.619,4.323,4.323,0,0,1,2.245-.573,4.09,4.09,0,0,1,2.968,1.112,4.464,4.464,0,0,1,1.282,3.021l.017.614A4.694,4.694,0,0,1-23.5-1.083a4.011,4.011,0,0,1-3.1,1.249,4.031,4.031,0,0,1-3.1-1.245A4.777,4.777,0,0,1-30.85-4.466Zm2.4.17a3.357,3.357,0,0,0,.481,1.958,1.588,1.588,0,0,0,1.378.678,1.592,1.592,0,0,0,1.361-.669,3.674,3.674,0,0,0,.49-2.141,3.324,3.324,0,0,0-.49-1.945,1.592,1.592,0,0,0-1.378-.69,1.566,1.566,0,0,0-1.361.686A3.735,3.735,0,0,0-28.451-4.4Zm15.68,0a5.439,5.439,0,0,1-.921,3.366A3.052,3.052,0,0,1-16.265.166,2.8,2.8,0,0,1-18.6-.955L-18.706,0h-2.158V-12.75h2.4v4.574a2.732,2.732,0,0,1,2.183-.971A3.077,3.077,0,0,1-13.7-7.94a5.446,5.446,0,0,1,.934,3.4Zm-2.4-.183A3.593,3.593,0,0,0-15.6-6.585a1.458,1.458,0,0,0-1.287-.629,1.582,1.582,0,0,0-1.577.941v3.555a1.6,1.6,0,0,0,1.594.949,1.482,1.482,0,0,0,1.527-1.149A5.944,5.944,0,0,0-15.17-4.591ZM-6.089,0a2.664,2.664,0,0,1-.241-.805A2.9,2.9,0,0,1-8.6.166,3.189,3.189,0,0,1-10.783-.6a2.456,2.456,0,0,1-.867-1.926,2.538,2.538,0,0,1,1.058-2.191,5.222,5.222,0,0,1,3.059-.772h1.1V-6a1.48,1.48,0,0,0-.32-1,1.257,1.257,0,0,0-1.009-.374,1.429,1.429,0,0,0-.95.291.987.987,0,0,0-.344.8h-2.4a2.41,2.41,0,0,1,.481-1.444A3.182,3.182,0,0,1-9.608-8.77a4.961,4.961,0,0,1,1.976-.378A3.92,3.92,0,0,1-5-8.313a2.918,2.918,0,0,1,.975,2.345v3.893A4.294,4.294,0,0,0-3.665-.141V0ZM-8.073-1.668a2.066,2.066,0,0,0,.979-.237,1.554,1.554,0,0,0,.664-.635V-4.084h-.9q-1.8,0-1.917,1.245l-.008.141a.96.96,0,0,0,.315.739A1.225,1.225,0,0,0-8.073-1.668ZM5.914-4.408a5.439,5.439,0,0,1-.921,3.366A3.052,3.052,0,0,1,2.42.166,2.8,2.8,0,0,1,.087-.955L-.021,0H-2.179V-12.75H.22v4.574A2.732,2.732,0,0,1,2.4-9.147,3.077,3.077,0,0,1,4.98-7.94a5.446,5.446,0,0,1,.934,3.4Zm-2.4-.183a3.593,3.593,0,0,0-.432-1.994A1.458,1.458,0,0,0,1.8-7.213,1.582,1.582,0,0,0,.22-6.273v3.555a1.6,1.6,0,0,0,1.594.949A1.482,1.482,0,0,0,3.341-2.917,5.944,5.944,0,0,0,3.515-4.591ZM9.924,0H7.516V-8.981H9.924ZM7.375-11.306a1.181,1.181,0,0,1,.361-.888,1.356,1.356,0,0,1,.984-.349,1.36,1.36,0,0,1,.979.349,1.175,1.175,0,0,1,.365.888,1.178,1.178,0,0,1-.369.9,1.363,1.363,0,0,1-.975.349,1.363,1.363,0,0,1-.975-.349A1.178,1.178,0,0,1,7.375-11.306ZM14.431,0H12.024V-12.75h2.407Zm4.507,0H16.531V-8.981h2.407ZM16.39-11.306a1.181,1.181,0,0,1,.361-.888,1.356,1.356,0,0,1,.984-.349,1.36,1.36,0,0,1,.979.349,1.175,1.175,0,0,1,.365.888,1.178,1.178,0,0,1-.369.9,1.363,1.363,0,0,1-.975.349,1.363,1.363,0,0,1-.975-.349A1.178,1.178,0,0,1,16.39-11.306Zm4.15,6.749A5.413,5.413,0,0,1,21.482-7.9,3.057,3.057,0,0,1,24.06-9.147a2.751,2.751,0,0,1,2.167.979V-12.75h2.407V0H26.467l-.116-.955A2.823,2.823,0,0,1,24.043.166,3.049,3.049,0,0,1,21.5-1.083,5.587,5.587,0,0,1,20.54-4.557Zm2.4.171a3.565,3.565,0,0,0,.44,1.943,1.432,1.432,0,0,0,1.278.675,1.6,1.6,0,0,0,1.569-.942V-6.271a1.582,1.582,0,0,0-1.552-.942Q22.939-7.213,22.939-4.386ZM35.7,0a2.664,2.664,0,0,1-.241-.805,2.9,2.9,0,0,1-2.266.971A3.189,3.189,0,0,1,31-.6a2.456,2.456,0,0,1-.867-1.926,2.538,2.538,0,0,1,1.058-2.191,5.222,5.222,0,0,1,3.059-.772h1.1V-6a1.48,1.48,0,0,0-.32-1,1.257,1.257,0,0,0-1.009-.374,1.429,1.429,0,0,0-.95.291.987.987,0,0,0-.344.8h-2.4a2.41,2.41,0,0,1,.481-1.444A3.182,3.182,0,0,1,32.178-8.77a4.961,4.961,0,0,1,1.976-.378,3.92,3.92,0,0,1,2.635.834,2.918,2.918,0,0,1,.975,2.345v3.893a4.294,4.294,0,0,0,.357,1.934V0ZM33.714-1.668a2.066,2.066,0,0,0,.979-.237,1.554,1.554,0,0,0,.664-.635V-4.084h-.9q-1.8,0-1.917,1.245l-.008.141a.96.96,0,0,0,.315.739A1.225,1.225,0,0,0,33.714-1.668Zm5.52-2.889A5.413,5.413,0,0,1,40.176-7.9a3.057,3.057,0,0,1,2.577-1.245,2.751,2.751,0,0,1,2.167.979V-12.75h2.407V0H45.16l-.116-.955A2.823,2.823,0,0,1,42.737.166a3.049,3.049,0,0,1-2.544-1.249A5.587,5.587,0,0,1,39.234-4.557Zm2.4.171a3.565,3.565,0,0,0,.44,1.943,1.432,1.432,0,0,0,1.278.675A1.6,1.6,0,0,0,44.92-2.71V-6.271a1.582,1.582,0,0,0-1.552-.942Q41.633-7.213,41.633-4.386Z" transform="translate(789 -1364.175)" fill="#fff"/>
  </g>
</svg>
