<svg xmlns="http://www.w3.org/2000/svg" width="85" height="84.895" viewBox="0 0 85 84.895">
  <g id="ordenador-portatil_6_" data-name="ordenador-portatil(6)" transform="translate(0 -0.32)">
    <path id="Trazado_599347" data-name="Trazado 599347" d="M364.886,39.035H358a1.7,1.7,0,0,1-1.7-1.7V13.046a5.14,5.14,0,0,1,5.14-5.14h0a5.14,5.14,0,0,1,5.14,5.14V37.339A1.7,1.7,0,0,1,364.886,39.035Z" transform="translate(-297.15 -6.326)" fill="#c7cad3"/>
    <path id="Trazado_599348" data-name="Trazado 599348" d="M106.5,170.7v-48.66a5.523,5.523,0,0,0-5.468-5.575H37.661a5.523,5.523,0,0,0-5.468,5.575v48.627" transform="translate(-26.848 -96.866)" fill="#53515e"/>
    <path id="Trazado_599349" data-name="Trazado 599349" d="M56.117,440.788H7.586v2.634a7.876,7.876,0,0,0,7.876,7.876h66.73a7.876,7.876,0,0,0,7.876-7.876v-2.634Z" transform="translate(-6.327 -367.343)" fill="#dfe2ea"/>
    <path id="Trazado_599350" data-name="Trazado 599350" d="M10.287,472.441a7.878,7.878,0,0,0,7.427,5.255h66.73a7.877,7.877,0,0,0,7.427-5.255H10.287Z" transform="translate(-8.579 -393.741)" fill="#c7cad3"/>
    <path id="Trazado_599351" data-name="Trazado 599351" d="M361.442,7.907h0a5.14,5.14,0,0,0-5.139,5.14V37.34a1.7,1.7,0,0,0,1.7,1.7h1.709V13.047h0a5.141,5.141,0,0,1,3.437-4.85A5.128,5.128,0,0,0,361.442,7.907Z" transform="translate(-297.15 -6.327)" fill="#b3b5bc"/>
    <path id="Trazado_599352" data-name="Trazado 599352" d="M126.693,158.175h32.783a4.766,4.766,0,0,0,4.766-4.766V116.47H121.927v36.939A4.766,4.766,0,0,0,126.693,158.175Z" transform="translate(-101.685 -96.866)" fill="#474756"/>
    <rect id="Rectángulo_44956" data-name="Rectángulo 44956" width="62.482" height="41.693" transform="translate(11.556 25.731)" fill="#fff"/>
    <path id="Trazado_599353" data-name="Trazado 599353" d="M143.731,13.047a5.14,5.14,0,0,1,5.14-5.14H106.182a4.766,4.766,0,0,0-4.766,4.766v50.2a4.766,4.766,0,0,0,4.766,4.766h32.783a4.766,4.766,0,0,0,4.766-4.766V13.047Z" transform="translate(-84.579 -6.327)" fill="#dfe2ea"/>
    <path id="Trazado_599354" data-name="Trazado 599354" d="M145.163,53.9h-8.135a2.3,2.3,0,0,1-2.3-2.3V43.463a2.3,2.3,0,0,1,2.3-2.3h8.135a2.3,2.3,0,0,1,2.3,2.3V51.6A2.3,2.3,0,0,1,145.163,53.9Z" transform="translate(-112.362 -34.062)" fill="#86e56e"/>
    <path id="Trazado_599355" data-name="Trazado 599355" d="M145.163,162.177h-8.135a2.3,2.3,0,0,1-2.3-2.3v-8.135a2.3,2.3,0,0,1,2.3-2.3h8.135a2.3,2.3,0,0,1,2.3,2.3v8.135A2.3,2.3,0,0,1,145.163,162.177Z" transform="translate(-112.362 -124.365)" fill="#1dbbd2"/>
    <path id="Trazado_599356" data-name="Trazado 599356" d="M145.163,270.455h-8.135a2.3,2.3,0,0,1-2.3-2.3V260.02a2.3,2.3,0,0,1,2.3-2.3h8.135a2.3,2.3,0,0,1,2.3,2.3v8.135A2.3,2.3,0,0,1,145.163,270.455Z" transform="translate(-112.362 -214.668)" fill="#86e56e"/>
    <g id="Grupo_156711" data-name="Grupo 156711" transform="translate(25.27 10.931)">
      <path id="Trazado_599357" data-name="Trazado 599357" d="M156.627,68.908a1.259,1.259,0,0,0,1.781,0l2.529-2.529a1.259,1.259,0,0,0-1.781-1.781l-1.638,1.638-.365-.365a1.259,1.259,0,0,0-1.781,1.781Z" transform="translate(-154.54 -64.23)" fill="#fff"/>
      <path id="Trazado_599358" data-name="Trazado 599358" d="M159.156,281.156l-1.638,1.638-.365-.365a1.259,1.259,0,0,0-1.781,1.781l1.256,1.256a1.259,1.259,0,0,0,1.781,0l2.529-2.529a1.259,1.259,0,0,0-1.781-1.781Z" transform="translate(-154.54 -244.836)" fill="#fff"/>
      <path id="Trazado_599359" data-name="Trazado 599359" d="M157.416,169.62l1.268-1.268a1.259,1.259,0,0,0-1.781-1.781l-1.268,1.268-1.268-1.268a1.259,1.259,0,1,0-1.781,1.781l1.268,1.268-1.268,1.268a1.259,1.259,0,1,0,1.781,1.781l1.268-1.268,1.268,1.268a1.259,1.259,0,1,0,1.781-1.781Z" transform="translate(-152.217 -149.273)" fill="#fff"/>
    </g>
    <g id="Grupo_156712" data-name="Grupo 156712" transform="translate(38.591 9.368)">
      <path id="Trazado_599360" data-name="Trazado 599360" d="M246.749,57.337H233.713a1.259,1.259,0,0,1,0-2.519h13.036a1.259,1.259,0,1,1,0,2.519Z" transform="translate(-232.454 -54.818)" fill="#c7cad3"/>
      <path id="Trazado_599361" data-name="Trazado 599361" d="M241.951,88.945h-8.238a1.259,1.259,0,0,1,0-2.519h8.238a1.259,1.259,0,0,1,0,2.519Z" transform="translate(-232.454 -81.179)" fill="#c7cad3"/>
      <path id="Trazado_599362" data-name="Trazado 599362" d="M246.749,165.919H233.713a1.259,1.259,0,0,1,0-2.519h13.036a1.259,1.259,0,1,1,0,2.519Z" transform="translate(-232.454 -145.374)" fill="#c7cad3"/>
      <path id="Trazado_599363" data-name="Trazado 599363" d="M241.951,197.527h-8.238a1.259,1.259,0,0,1,0-2.519h8.238a1.259,1.259,0,1,1,0,2.519Z" transform="translate(-232.454 -171.734)" fill="#c7cad3"/>
      <path id="Trazado_599364" data-name="Trazado 599364" d="M246.749,273.883H233.713a1.259,1.259,0,0,1,0-2.519h13.036a1.259,1.259,0,0,1,0,2.519Z" transform="translate(-232.454 -235.414)" fill="#c7cad3"/>
      <path id="Trazado_599365" data-name="Trazado 599365" d="M241.951,305.491h-8.238a1.259,1.259,0,0,1,0-2.519h8.238a1.259,1.259,0,0,1,0,2.519Z" transform="translate(-232.454 -261.775)" fill="#c7cad3"/>
    </g>
    <path id="Trazado_599366" data-name="Trazado 599366" d="M83.741,72.186H80.915V25.179a6.79,6.79,0,0,0-6.728-6.835h-3.5V6.72a6.406,6.406,0,0,0-6.4-6.4H21.6a6.032,6.032,0,0,0-6.026,6.026V12.19a1.259,1.259,0,0,0,2.519,0V6.347A3.511,3.511,0,0,1,21.6,2.84H59.208a6.365,6.365,0,0,0-1.316,3.88h0V19.446a1.149,1.149,0,0,0,0,.314v5.814a1.149,1.149,0,0,0,0,.314V56.542a3.511,3.511,0,0,1-3.507,3.507H21.6A3.511,3.511,0,0,1,18.1,56.542V17.135a1.259,1.259,0,0,0-2.519,0v1.21H10.813a6.789,6.789,0,0,0-6.728,6.835V67.424a1.259,1.259,0,0,0,2.519,0V25.179a4.268,4.268,0,0,1,4.209-4.316h4.764v3.609h-4.02A1.259,1.259,0,0,0,10.3,25.731V67.424a1.259,1.259,0,0,0,1.259,1.259H74.038A1.259,1.259,0,0,0,75.3,67.424V40.986a1.259,1.259,0,0,0-2.519,0V66.165H12.816V26.991h2.761V56.542A6.032,6.032,0,0,0,21.6,62.568H54.386a6.032,6.032,0,0,0,6.026-6.026V26.991H72.779v6.59a1.259,1.259,0,1,0,2.519,0v-7.85a1.259,1.259,0,0,0-1.259-1.259H60.411V20.863H74.187A4.268,4.268,0,0,1,78.4,25.179V72.186H1.259A1.259,1.259,0,0,0,0,73.445v2.634a9.145,9.145,0,0,0,9.135,9.135h66.73A9.145,9.145,0,0,0,85,76.079V73.445A1.259,1.259,0,0,0,83.741,72.186ZM68.172,6.72V18.344H60.411V6.72h0a3.88,3.88,0,0,1,7.761,0ZM82.481,76.079A6.624,6.624,0,0,1,75.865,82.7H9.135a6.624,6.624,0,0,1-6.616-6.616V74.7H79.374a1.226,1.226,0,0,0,.562,0h2.545v1.375Z" transform="translate(0 0)"/>
    <path id="Trazado_599367" data-name="Trazado 599367" d="M130.7,48.83h8.135a3.563,3.563,0,0,0,3.559-3.559V37.136a3.563,3.563,0,0,0-3.559-3.559H130.7a3.563,3.563,0,0,0-3.559,3.559v8.135A3.563,3.563,0,0,0,130.7,48.83Zm-1.04-11.693a1.041,1.041,0,0,1,1.04-1.04h8.135a1.041,1.041,0,0,1,1.04,1.04v8.135a1.041,1.041,0,0,1-1.04,1.04H130.7a1.041,1.041,0,0,1-1.04-1.04Z" transform="translate(-106.035 -27.735)"/>
    <path id="Trazado_599368" data-name="Trazado 599368" d="M156.627,68.908a1.259,1.259,0,0,0,1.781,0l2.529-2.529a1.259,1.259,0,0,0-1.781-1.781l-1.638,1.638-.365-.365a1.259,1.259,0,0,0-1.781,1.781Z" transform="translate(-129.27 -53.299)"/>
    <path id="Trazado_599369" data-name="Trazado 599369" d="M127.143,153.549a3.563,3.563,0,0,0,3.559,3.559h8.135a3.563,3.563,0,0,0,3.559-3.559v-8.135a3.563,3.563,0,0,0-3.559-3.559H130.7a3.563,3.563,0,0,0-3.559,3.559Zm2.519-8.134a1.041,1.041,0,0,1,1.04-1.04h8.135a1.041,1.041,0,0,1,1.04,1.04v8.135a1.041,1.041,0,0,1-1.04,1.04H130.7a1.041,1.041,0,0,1-1.04-1.04Z" transform="translate(-106.035 -118.038)"/>
    <path id="Trazado_599370" data-name="Trazado 599370" d="M127.143,261.829a3.563,3.563,0,0,0,3.559,3.559h8.135a3.563,3.563,0,0,0,3.559-3.559v-8.135a3.563,3.563,0,0,0-3.559-3.559H130.7a3.563,3.563,0,0,0-3.559,3.559Zm2.519-8.135a1.041,1.041,0,0,1,1.04-1.04h8.135a1.041,1.041,0,0,1,1.04,1.04v8.135a1.041,1.041,0,0,1-1.04,1.04H130.7a1.041,1.041,0,0,1-1.04-1.04Z" transform="translate(-106.035 -208.342)"/>
    <path id="Trazado_599371" data-name="Trazado 599371" d="M156.627,285.466a1.259,1.259,0,0,0,1.781,0l2.529-2.529a1.259,1.259,0,0,0-1.781-1.781l-1.638,1.638-.365-.365a1.259,1.259,0,0,0-1.781,1.781Z" transform="translate(-129.27 -233.905)"/>
    <path id="Trazado_599372" data-name="Trazado 599372" d="M152.587,172.669a1.259,1.259,0,0,0,1.781,0l1.268-1.268,1.268,1.268a1.259,1.259,0,1,0,1.781-1.781l-1.268-1.268,1.268-1.268a1.259,1.259,0,1,0-1.781-1.781l-1.268,1.268-1.268-1.268a1.259,1.259,0,0,0-1.781,1.781l1.268,1.268-1.268,1.268A1.259,1.259,0,0,0,152.587,172.669Z" transform="translate(-126.947 -138.343)"/>
    <path id="Trazado_599373" data-name="Trazado 599373" d="M233.713,57.338h13.036a1.259,1.259,0,1,0,0-2.519H233.713a1.259,1.259,0,0,0,0,2.519Z" transform="translate(-193.863 -45.45)"/>
    <path id="Trazado_599374" data-name="Trazado 599374" d="M233.713,88.945h8.238a1.259,1.259,0,0,0,0-2.519h-8.238a1.259,1.259,0,0,0,0,2.519Z" transform="translate(-193.863 -71.81)"/>
    <path id="Trazado_599375" data-name="Trazado 599375" d="M233.713,165.919h13.036a1.259,1.259,0,1,0,0-2.519H233.713a1.259,1.259,0,0,0,0,2.519Z" transform="translate(-193.863 -136.005)"/>
    <path id="Trazado_599376" data-name="Trazado 599376" d="M233.713,197.527h8.238a1.259,1.259,0,1,0,0-2.519h-8.238a1.259,1.259,0,0,0,0,2.519Z" transform="translate(-193.863 -162.366)"/>
    <path id="Trazado_599377" data-name="Trazado 599377" d="M233.713,273.883h13.036a1.259,1.259,0,0,0,0-2.519H233.713a1.259,1.259,0,0,0,0,2.519Z" transform="translate(-193.863 -226.046)"/>
    <path id="Trazado_599378" data-name="Trazado 599378" d="M233.713,305.491h8.238a1.259,1.259,0,0,0,0-2.519h-8.238a1.259,1.259,0,0,0,0,2.519Z" transform="translate(-193.863 -252.406)"/>
  </g>
</svg>
