<svg xmlns="http://www.w3.org/2000/svg" xmlns:xlink="http://www.w3.org/1999/xlink" width="295" height="227" viewBox="0 0 295 227">
  <defs>
    <clipPath id="clip-path">
      <rect id="Rectángulo_44975" data-name="Rectángulo 44975" width="261.793" height="184.285" fill="none"/>
    </clipPath>
    <clipPath id="clip-path-2">
      <path id="Trazado_599399" data-name="Trazado 599399" d="M133.439,170.419c-14.06,7.928-25.82,12.759-41.822,15.277l-.165.026h0L82.5,187.131l-.526,6.517-.155,1.927h0l-.061.759c-.012.151-.021.3-.032.453h0a97.348,97.348,0,0,0-.218,10.631h0a106.136,106.136,0,0,0,1.834,16.257h0q.434,2.275.964,4.538h0q.785,3.361,1.772,6.683.5,1.685,1.057,3.357h0q.077.233.155.466h0q1.047,3.12,2.269,6.186.986,2.477,2.083,4.911h0c.144.321.287.643.435.963h0a121.3,121.3,0,0,0,5.813,11.066h0q.837,1.411,1.71,2.8h0q1.12,1.777,2.3,3.512.553.813,1.119,1.616,1.641,2.329,3.388,4.57c.145.186.289.374.435.559a112.388,112.388,0,0,0,9.388,10.476q2.6,2.553,5.347,4.911h0a99.154,99.154,0,0,0,11.1,8.263h13.055a103.447,103.447,0,0,0,20.86-17.775,116.407,116.407,0,0,0,10.973-14.205h0a121.153,121.153,0,0,0,9.885-18.309q.4-.914.777-1.834h0q2.246-5.426,3.947-11.035h0q.525-1.735.994-3.481h0q.142-.527.28-1.056h0q.785-3.031,1.4-6.091v0h0q.212-1.055.4-2.113h0q.4-2.234.715-4.475h0q.152-1.1.279-2.2v0h0c.042-.362.086-.723.124-1.085v0h0c.022-.206.041-.412.062-.618v0h0q.048-.481.093-.963h0q.105-1.149.187-2.3v0c.024-.341.042-.683.062-1.024v0q.034-.569.062-1.139v-.011h0c.023-.485.046-.97.062-1.454v-.007h0c.014-.429.022-.859.031-1.288v-.018h0q.041-2.07,0-4.134h0v-.026c-.007-.333-.02-.666-.031-1v0c-.01-.31-.017-.62-.03-.929h0v-.01c-.017-.4-.04-.8-.062-1.2h0v-.011q-.053-.959-.124-1.916h0c-.011-.145-.019-.29-.031-.435h0v-.005l0-.044-.059-.728h0v0l-.678-8.386-9.021-1.5c-16.066-2.679-27.791-7.323-41.927-15.294l-5.759-3.247Z" transform="translate(-81.448 -167.172)" fill="none"/>
    </clipPath>
    <linearGradient id="linear-gradient" x1="0.05" y1="0.968" x2="0.051" y2="0.968" gradientUnits="objectBoundingBox">
      <stop offset="0" stop-color="#5da8dc"/>
      <stop offset="1" stop-color="#405da9"/>
    </linearGradient>
    <clipPath id="clip-path-3">
      <path id="Trazado_599400" data-name="Trazado 599400" d="M163.072,247.505a122.629,122.629,0,0,1-20.585,5.375q-.017.333-.031.666v.2h-.008q-.013.315-.023.632v.239h-.007q-.015.494-.024.989v.441h-.007q-.014,1.15,0,2.3h0v.284q.009.479.023.959h.008v.278c.009.27.019.54.031.811h0v.014q.012.273.024.546h.007v.13c.007.143.014.286.022.429h.009v.158c.008.144.016.288.025.432h.006v.094q.015.233.03.465h0v.012c.009.131.018.262.028.393h0v.044c.008.11.016.219.024.329h.007v.086c.008.1.015.192.023.287h.009v.1c.007.09.015.18.023.269h.009v.1q.012.138.024.276h.007v.082c.009.1.018.194.027.291h0v.04q.029.307.06.613h0v.025c.009.085.017.17.026.255h.005v.052c.008.076.017.152.024.228h.007v.06l.024.22h.007v.067c.008.071.016.141.024.212h.007v.061l.025.219h.006v.05l.027.229h0v.033c.01.082.02.164.03.246h0v.008q.03.245.062.49h0v0l.028.213h0v.027l.025.19h.006v.046q.013.1.027.2h0v.025l.026.192h0v.035l.025.182h.006v.039l.025.179h.006v.038c.009.06.017.12.026.179h.005v.038l.027.18h0v.03l.028.188h0v.019q.045.3.093.6h0v0l.029.184h0v.013l.028.173h0v.02l.027.166h0v.023l.027.163h0v.026c.009.053.017.107.026.161h0v.027l.027.159h0v.023l.028.164h0v.018l.029.169h0v.013l.031.174h0v0l.061.339h0v.009q.03.166.06.333h0v.009l.062.333h0v0l.029.152h0v.014l.027.142h0v.02l.026.135h.005v.027l.025.129h.006v.033l.024.122h.007v.036l.024.119h.007v.037l.03.149h0v.008l.029.148h0v.008l.03.147h0v.006l.031.15h0q.061.295.122.589h0v.009q.029.136.058.271h0v.021l.029.134h0v.011l.025.113h.006v.029l.028.127h0v.015l.024.109h.007v.032l.027.123h0v.018l.024.106h.007v.033l.028.122h0v.015l.025.11h.006v.027l.029.128h0v.009l.026.115h0v.021c.02.086.04.172.06.259h0v.008l.093.4h0l.03.123h0v.007l.028.118h0v.012l.027.112h0v.017l.026.107h.005v.022l.025.1h.006v.025l.025.1h.006v.026l.025.1h.007v.028l.024.1h.007v.03l.024.095h.007v.031l.024.094h.008v.029l.024.1h.007v.027l.024.1h.007v.026l.025.1h.006v.024l.025.1h.006v.022l.027.1h0v.017l.028.107h0v.012l.029.112h0v.007l.031.117h0v0q.061.233.123.464h0v0l.057.213h.005v.02l.028.1h0v.01l.057.208h.005v.019l.029.1h0v.009l.023.085h.008v.029l.026.1h0v.018l.03.107h0v0l.025.089h.006v.021l.029.1h0v.008l.024.086h.007v.025l.028.1h0v.011l.059.207h0v.011q.092.322.186.642h0c.03.1.06.207.091.31h0v.007l.025.086h.006v.019l.06.2h0v.008l.026.086h.005v.018l.06.2h0v.006l.026.087h0v.015l.024.078h.007v.023l.06.194h0v.007l.026.087h0v.014q.046.148.092.3h0v0l.028.09h0v.009c.051.163.1.326.155.488h0v0l.029.091h0v.006l.028.087h0v.009l.027.084h0v.013q.346,1.071.714,2.132h0l.152.434h0v.011l.029.083h0v.005c.028.081.058.163.087.243h.007v.018l.027.075h0v.012l.028.081h0v.006l.031.087h0l.056.155h.006v.017l.028.077h0v.009l.031.084h0l.056.154h.006v.016l.028.077h0v.009l.031.084h0l.092.249h0v0q.092.247.184.494h0v.006l.092.243h0v0l.057.151h.005v.013l.031.08h0l.059.155h0v.007l.057.148h.005v.014l.031.08h0l.024.061h.008v.02l.029.073h0v.006l.058.149h0v.009l.057.146h.005v.013l.056.142h.007V292l.03.077h0v0l.061.154h0v0l.061.153h0v0l.089.223.1.24h0q.107.264.214.528h0v.007l.061.148h0v0c.051.124.1.247.154.371h0v0q.169.4.34.806h0v0l.091.213h0v0l.091.213h0v0l.093.213h0q.108.248.217.5h0l.124.279h0l.153.341h0v.006c.041.091.081.182.122.273h0v0c.051.113.1.225.154.338h0v0q.185.4.372.806h0v0c.072.155.144.31.218.464h0l.029.062h0v0l.028.058h0v.007q.139.293.28.584h0q.632,1.312,1.3,2.611h0v.007l.029.055h0v0l.03.058h0v0q.306.591.62,1.18h0v0l.214.4h0v0l.031.057h0l.186.342h0q.17.311.34.62h0v0l.154.277h0v0l.154.277h0v0l.122.216h0v0q.307.544.62,1.084h0v0l.124.214h0l.091.154h0v0l.217.369h0q.276.467.556.932h0V308l.09.15h0v0l.092.151h0v0q.17.279.342.558h0l.154.248h0v0l.154.247h0v0l.154.247h0v0c.071.114.143.227.215.34h0v0q.216.341.434.68h0c.134.207.267.414.4.621h0v0l.06.091h0v0l.06.09h0v0l.059.09h0v0q.307.466.619.928h0v0l.06.09h0v0l.061.091h0l.062.092h0c.113.166.227.331.341.5h0v0q.246.357.495.713h0v0c.072.1.143.205.215.307h0v0l.152.214h0v0q.308.434.621.865h0l.248.341h0l.09.123h0v.005q.17.231.342.461h0q.231.311.464.621h0v0l.092.122h0l.093.123h0l.093.124h0l.214.28h0v0l.093.121h0l.311.4h0l.34.435h0v0l.12.154h0v.005c.113.144.228.287.342.43h0l.124.155h0q.262.327.527.652h0v0l.277.34h0v0l.152.184h0v0l.28.338h0l.155.186.341.4h0l.182.216h0v.005l.183.213h0v0q.4.467.8.928h0v0l.214.245h0v0l.246.276h0v0l.248.277h0l.279.31h0l.31.341h0l.028.031h0v0c.113.124.227.246.34.369h0v0c.124.134.248.269.373.4q.263.281.528.56h0l.029.031h0v0l.027.029h0v0l.026.027h.005v.006q1.174,1.232,2.39,2.419h0v0l.028.027h0v0l.029.028h0v0l.03.029h0v0l.03.03h0l.031.03h0q.63.612,1.271,1.212h0v0l.03.028h0l.4.372h0v0l.03.028h0q.355.328.714.652h0l.275.248h.005v0l.029.026h0v0l.278.247h0l.28.248h0l.248.217h0l.465.4h0l.216.186h0q.4.344.808.682h0l.336.279h.006v0l.182.151h0v0l.186.152h0l.153.124h0v0q.248.2.5.4h0l.429.342h.006v0l.151.12h.005v0l.154.121h0l.279.217h0q.464.36.932.714h0l.123.093h0l.124.092h0q.356.266.713.528h0l.34.248h0l.211.154h.006v0l.212.151h.005v0q.525.375,1.056.742h0l.089.061h0v0l.085.059h.008v.006c.134.092.269.183.4.274h0l.091.062h0v0l.278.188.1-.065h0q.3-.2.589-.4v0h.007l.087-.059v0h0l.089-.062h0l.311-.216v0h0q.31-.216.619-.435h0l.217-.155h0l.216-.154h0l.122-.089v0h.006l.212-.154h0q.546-.4,1.086-.8v-.006h.008l.116-.088v-.005h.007l.118-.09v0h0l.12-.091v0h0l.122-.093h0q.342-.262.683-.527h0l.154-.12v0h.006l.119-.093h0l.154-.123v0h0l.153-.122v0h0q.31-.247.619-.5h0l.34-.277v0h0l.152-.124h0l.186-.154h0l.185-.153v0h0q.389-.323.775-.651h0l.216-.184v0h0l.214-.185v0h0q.358-.308.713-.621h0l.279-.247h0l.278-.247h0l.03-.027v0h0l.275-.248h0q.375-.339.745-.682v0h0q.217-.2.433-.4v0h0l.03-.028v0h0q.688-.645,1.364-1.305h0l.031-.03h0l.03-.03v0h0l.03-.029v0h0l.029-.028v0h0q.689-.676,1.365-1.365v0h0l.029-.03h0l.029-.03h0l.03-.031h0q.375-.384.746-.771v-.006H200l.026-.027v0h0l.027-.029v0h0l.029-.031h0q.454-.477.9-.96v0h0l.028-.03h0l.341-.37v0h0l.339-.373q.266-.293.528-.588v0h0l.246-.276v0h0l.214-.244v0h0l.027-.031.218-.248h0q.2-.232.4-.466l.187-.217h0l.155-.18v-.006h.005l.026-.03h0l.154-.183v0h0q.327-.386.65-.776v0h0l.154-.186h0l.124-.15V320.3h0l.151-.184v0h0c.093-.113.185-.227.278-.341h0q.313-.385.621-.773v0h0l.121-.152v0h0l.122-.154h0l.217-.276v0h0c.113-.145.227-.289.339-.435h0q.2-.262.4-.526v0h0l.091-.119v-.006h0q.469-.616.928-1.239v0h0l.09-.122v0h0l.091-.124h0c.052-.071.1-.142.155-.213v0h0l.09-.123h0l.248-.342h0c.1-.144.207-.29.31-.434h0l.154-.217h0l.217-.307v0h0q.359-.511.713-1.025h0l.062-.09v0h0q.234-.341.464-.684h0l.062-.092h0q.187-.278.372-.558h0l.061-.092h0l.061-.093h0q.235-.356.466-.713v0h0q.25-.386.5-.773v0h0c.072-.113.144-.225.215-.338v0h0l.153-.245v0h0q.281-.449.557-.9v0h0c.082-.135.166-.269.248-.4h0l.093-.155h0l.093-.154h0l.093-.154h0l.093-.155h0q.2-.34.4-.681v0h0c.072-.123.145-.245.216-.368v0h0c.072-.124.143-.248.215-.372h0q.188-.325.372-.651h0c.093-.164.187-.328.279-.493v0h0c.052-.092.1-.184.153-.275v0h0q.25-.449.5-.9h0l.186-.341h0l.031-.057v-.005h0c.072-.134.144-.268.215-.4h0q.33-.619.652-1.241v0h0l.03-.059v0h0l.029-.057v0h0l.029-.056v-.006h0q.588-1.145,1.147-2.3h0q.141-.292.28-.584v-.007h0l.028-.058v0h0l.029-.061h0q.109-.231.217-.462v0h0l.029-.062h0q.189-.4.373-.806v0h0c.051-.112.1-.225.154-.337v0h0c.052-.113.1-.227.154-.341h0l.124-.277v0h0q.172-.386.341-.774v0h0l.092-.21v-.008h0q.235-.542.463-1.086v0h0l.154-.371v0h0l.061-.147V293.6h0l.09-.217h0l.062-.152v0h0l.061-.149v-.006h0c.062-.152.125-.3.186-.457s.123-.309.185-.464v-.011h0l.057-.145v-.01h0l.058-.149v-.006h0l.06-.152v0h0l.03-.077v-.017h.007l.056-.142v-.013h0l.057-.149v-.007h0l.028-.074v-.019h.008l.024-.062h0l.031-.081v-.013h0l.058-.149v-.006h0c.031-.08.06-.16.091-.241v-.008h0q.14-.369.277-.74v-.006h0c.03-.082.061-.165.091-.247v0h0l.03-.084v-.009h0l.028-.076v-.017h.006l.056-.154h0l.031-.085v-.009h0l.028-.076v-.017h.006l.087-.244v0h0l.029-.083v-.011h0l.027-.076v-.017h.006l.087-.246v0h0l.03-.086v-.007h0q.092-.264.184-.528h0l.031-.09v0h0l.03-.088V287.6h0l.029-.085v-.008h0l.028-.083v-.01h0l.027-.08v-.013h0l.027-.078v-.015h0l.026-.077v-.016h.005l.026-.077v-.017h.006l.025-.076v-.017h.006l.025-.076v-.017h.006l.025-.075v-.018h.006l.025-.074v-.019h.007l.024-.075v-.018h.006l.025-.076v-.017h.006l.026-.077v-.016h.005l.026-.079V286.3h0l.026-.08V286.2h0l.027-.081v-.012h0l.027-.083v-.01h0l.028-.086v-.007h0l.029-.09v0h0l.03-.093h0q.094-.292.187-.585v-.005h0l.029-.093.062-.2v-.02h.006l.025-.08v-.013h0l.027-.088v-.005h0l.061-.2v-.021h.007l.024-.08v-.014h0l.027-.087v-.006h0l.06-.2v-.018h.005l.026-.085v-.008h0l.059-.2v-.019h.006l.025-.084v-.009h0l.09-.307v0h0q.109-.372.217-.745h0l.031-.107v-.017h.005l.026-.092h0l.031-.11v-.015h0l.058-.207v-.011h0l.028-.1v-.025h.007l.024-.086v-.008h0l.029-.106v-.018h0c.019-.07.038-.139.057-.209v-.009h0l.029-.1v-.02h.005l.056-.208V281.1h0q.046-.17.091-.34v0h0q.078-.295.154-.589h0l.031-.118v-.007h0l.03-.113v-.011h0l.028-.112V279.8h0l.028-.11v-.015h0l.027-.108v-.016h0l.027-.106v-.018h0l.026-.1v-.02h0l.026-.106v-.018h0l.027-.108v-.016h0l.027-.11v-.015h0l.028-.112V278.8h0l.028-.113v-.011h0l.029-.119v-.005h0l.03-.124q.063-.262.124-.524V277.9h0l.061-.262v-.018h0l.027-.115V277.5h0l.029-.127v-.028h.006l.025-.109v-.015h0l.028-.123v-.033h.007l.023-.1v-.02h0l.027-.118v-.037h.008l.023-.1v-.02h0l.027-.122V276.5h.007l.024-.109v-.016h0l.059-.272V276.1h0q.094-.441.185-.882V275.2h0l.027-.132v-.024h0l.026-.13v-.025h.005l.026-.131v-.024h0l.026-.132v-.023h0l.026-.133v-.022h0l.027-.137v-.019h0l.028-.143v-.012h0l.029-.15v-.036h.007l.024-.126v-.03h.006l.025-.136v-.02h0l.028-.148v-.007h0q.063-.339.123-.678v-.006h0l.03-.169v-.018h0l.028-.159V272.4h0l.026-.154v-.033h.006l.025-.149v-.037h.006l.025-.145v-.042h.007l.024-.146v-.04h.007l.024-.15v-.037h.006l.025-.152v-.034h.006l.026-.16V271.1h0l.027-.171v-.015h0c.01-.061.02-.121.029-.182v0h0c.021-.134.041-.269.061-.4h0l.031-.207V270.1h0l.029-.2v-.049h.007l.024-.168v-.05h.007l.024-.167v-.05h.007l.024-.172V269.2h.006l.025-.182v-.036h0l.026-.193v-.025h0c.009-.071.018-.141.028-.212v-.006h0l.03-.235V268.3h0q.03-.241.06-.482V267.8h0l.029-.24v-.04h0l.026-.223v-.057h.007l.025-.213v-.066h.008c.008-.069.016-.138.023-.208v-.072h.008l.023-.216V266.4h.007l.024-.225v-.055h.005c.009-.085.017-.169.025-.253v-.026h0q.031-.307.06-.613v-.04h0c.009-.1.019-.2.027-.293v-.08h.007c.009-.093.016-.187.024-.28v-.093h.008c.008-.092.016-.184.023-.276v-.1h.008l.023-.295V263.7h.006c.009-.113.017-.227.025-.34v-.034h0q.032-.443.06-.886v-.108h.007q.013-.212.025-.424v-.135h.008c.008-.153.016-.306.023-.459v-.131h.007q.013-.279.024-.557v0h0q.017-.427.031-.855v-.295h.008q.015-.527.023-1.054v-.189h0q.009-.746.007-1.492h-.009v-.907q-.008-.557-.024-1.114h-.007V254.5q-.011-.328-.023-.655h-.008v-.2q-.014-.335-.031-.671h0v-.008l-.005-.1a128.922,128.922,0,0,1-21.673-5.792,152.072,152.072,0,0,1-21.188-9.95,152.4,152.4,0,0,1-22.28,10.386" transform="translate(-142.38 -237.119)" fill="none"/>
    </clipPath>
    <linearGradient id="linear-gradient-2" x1="-0.402" y1="1.255" x2="-0.399" y2="1.255" gradientUnits="objectBoundingBox">
      <stop offset="0" stop-color="#1e9cf7"/>
      <stop offset="0.129" stop-color="#43acf8"/>
      <stop offset="0.358" stop-color="#80c7fa"/>
      <stop offset="0.567" stop-color="#b0dcfc"/>
      <stop offset="0.751" stop-color="#d3ebfd"/>
      <stop offset="0.901" stop-color="#e8f4fe"/>
      <stop offset="1" stop-color="#f0f8ff"/>
    </linearGradient>
    <clipPath id="clip-path-5">
      <path id="Trazado_599421" data-name="Trazado 599421" d="M249.631,330.029a6.78,6.78,0,1,1,6.315,0v11.2h-6.315Zm-7.129-25.02v-.468a10.14,10.14,0,0,1,20.232,0v.017q.012.223.011.451t-.011.451v4.562H242.5Zm9.168-15.688v0h-.027c-.137.008-.273.018-.408.03h-.015c-.193.017-.385.036-.576.06v0h-.019l-.23.031h0q-.2.028-.4.061h-.009l-.178.031h0c-.208.037-.415.077-.62.122v0h-.013l-.267.062h0l-.247.061h-.006l-.118.03h0q-.17.045-.339.093h0q-.156.045-.311.092h0l-.09.028v0h-.011q-.451.142-.891.31h0q-.234.089-.465.186h0l-.216.092h0q-.618.269-1.209.587v0h-.006l-.056.03h0q-.14.076-.278.155h0q-.156.089-.31.182v0h-.008l-.147.091v0h0q-.362.223-.711.465v0h0q-.219.152-.433.31h0q-.2.152-.4.31h0c-.051.041-.1.082-.155.123h0q-.2.167-.4.34v0h0q-.14.122-.278.247h0q-.536.489-1.025,1.024v0h0q-.125.137-.247.277v0h0c-.062.071-.123.143-.184.215v0h0q-.141.168-.277.341h0q-.11.138-.216.279h0l-.093.124h0c-.052.071-.1.142-.155.214v0h0q-.077.108-.152.217h0l-.062.09v0h0q-.093.138-.184.278v0h0q-.226.349-.434.71v.005h0q-.061.107-.121.216v0h0q-.127.23-.247.465h0l-.03.059v0h0l-.03.06v0h0l-.03.062h0q-.112.227-.217.459v.007h0l-.028.061h0c-.032.071-.062.143-.093.214v0h0q-.079.185-.154.372h0a15.383,15.383,0,0,0-.5,1.459v0h0c-.032.112-.063.226-.093.339v0h0c-.021.081-.042.162-.062.244v0h0q-.049.2-.092.4h0q-.068.318-.124.639v.013h0c-.01.06-.019.119-.029.179v.007h0q-.033.211-.061.424V303h0c-.011.082-.02.164-.03.247v0h0c-.025.223-.046.448-.062.674v.041h0c-.007.1-.013.2-.018.3l-.007.137v5.707q-.1.016-.19.034v0h-.024l-.131.027v0h-.017q-.18.04-.356.089v0h-.015q-.1.029-.2.061h0l-.09.029v0h-.006l-.087.03h0c-.083.029-.165.06-.246.092h0c-.072.029-.143.058-.214.089v0h-.01a6.753,6.753,0,0,0-.829.435h0l-.093.058v0h-.006q-.139.089-.274.185h0l-.122.089v0h-.006l-.119.091v0h0q-.207.162-.4.34v0h0l-.029.026v0H233.2q-.158.147-.306.3v.008h-.008l-.023.024v.007h-.007l-.024.027v0h0l-.027.03h0q-.161.176-.31.364v.009h-.007l-.024.031-.093.123v0h0q-.079.107-.154.216v0h0l-.061.091v0h0q-.148.224-.278.462v0h0l-.028.052v.011h-.006q-.1.179-.181.363v.01h0l-.026.059v0h0c-.021.047-.041.094-.061.141v.015h-.006c-.008.02-.017.04-.025.06v0h0c-.032.08-.063.161-.092.242v.007h0c-.01.027-.019.055-.029.082v.011h0l-.027.08v.013h0l-.027.085v.009h0q-.068.219-.122.446v.021h0c-.009.039-.017.079-.026.118v.006h0q-.034.161-.061.325v.017h0q-.016.1-.029.2v.016h0q-.017.14-.029.282v.029h0c-.013.173-.021.347-.021.523v24.278q0,.237.017.471h.006v.082c.007.087.016.174.026.26h0v.04c.008.059.016.119.025.178h.006v.036c.008.05.017.1.026.151h.006v.027q.027.143.059.284h0v.01c.009.038.018.076.028.114h0v.013c.01.037.02.074.03.112h0v0q.043.155.092.306h0v0l.03.091h0v0c.018.051.036.1.055.153h.007v.019l.028.074h0v.007q.085.218.185.428h0v0c.009.02.018.039.028.059h0v.007l.028.055h0v.007l.028.056h0v.007l.029.055h0v0l.031.058h0c.039.073.08.146.122.217h0v0c.018.03.035.06.053.09h.009v.015l.03.048h0v0l.057.091h0v.007c.039.061.08.121.121.18h0v.005l.062.088h0c.03.041.06.083.091.124h0v0q.119.158.247.308h0l.025.029h.006v.007q.12.14.248.273h0l.03.031h0l.029.03h0v0l.06.06h0v0l.03.029h0l.031.03h0q.132.128.272.248h.008v.006l.029.025h0v0q.15.128.308.247h0v0l.123.091h0q.134.1.272.185h.008v.006l.09.057h0v0c.049.031.1.061.15.091h.005v0q.106.062.215.121h0l.056.03h.006v0l.053.028h.009v0l.053.026h.009v0l.053.026h.009v0l.056.027h.006v0l.06.028h0q.178.082.362.155h.011v0l.154.058h0l.087.031h.006v0l.087.029h.007v0q.149.049.3.091H236v0l.1.028h.02v0l.107.026h.018v0l.121.027h0l.15.03h.005l.17.03h.047v.008l.163.023h.024v0c.088.011.177.02.266.028h.075v.007q.251.019.506.019h30.009q.256,0,.508-.019v-.006h.073q.135-.011.269-.028v0h.021l.166-.024V347.7h.045l.173-.031h0l.153-.031h0l.124-.027v0h.015l.11-.027v0h.017l.108-.029v0h.007q.153-.043.3-.092h0l.09-.03h0l.153-.055v-.007h.019l.074-.028v0h.007q.217-.085.428-.186h0l.06-.029v0h.005l.057-.029v0h.005l.057-.028v0h.005l.057-.03h0c.073-.038.145-.077.215-.118v-.006h.011l.051-.03h0l.092-.055V346.8h.012l.143-.09v0h0q.092-.06.182-.122v0h0l.122-.087v-.006h.008l.116-.087v-.007h.009L272,346.3v0h0c.062-.05.123-.1.183-.152v0h0l.028-.024v-.007h.008a6.865,6.865,0,0,0,.645-.646v-.007h.006l.025-.029v0h0q.078-.091.154-.185h0c.031-.039.062-.078.092-.118v-.007h.005q.045-.059.089-.119V345h0c.052-.071.1-.143.151-.216h0l.061-.093h0q.047-.073.093-.148v-.008h0c.03-.049.06-.1.089-.15v-.005h0a6.742,6.742,0,0,0,.4-.827v-.012h0c.02-.049.038-.1.057-.148v-.008h0l.028-.078v-.015h.005q.065-.181.119-.367v-.006h0c.01-.035.02-.07.029-.1v-.019h.005c.009-.033.017-.065.026-.1v-.026h.006c.009-.033.017-.067.025-.1v-.024h.006c.021-.091.04-.183.057-.276v0h0c.011-.059.021-.118.03-.177v-.04h.006c.009-.061.017-.123.025-.185v0h0q.019-.156.031-.314v-.121h.008c.007-.125.011-.251.011-.378V316.765c0-.134,0-.267-.012-.4h-.006v-.1c-.008-.1-.017-.2-.029-.3h0v-.014c-.008-.068-.018-.136-.028-.2h0v-.018q-.025-.163-.059-.324h0v-.017q-.015-.069-.031-.139h0c-.009-.041-.019-.082-.03-.123h0v-.005q-.067-.266-.155-.524h0c-.047-.136-.1-.271-.153-.4h0v-.006c-.03-.071-.061-.142-.093-.212h0l-.029-.062h0v-.005l-.028-.056h0v-.008q-.044-.09-.09-.179h0v-.006l-.03-.056h0v0q-.058-.108-.12-.214h0v-.007q-.129-.219-.273-.428h-.007v-.01l-.058-.083h0v-.005q-.089-.124-.183-.243h0v0q-.06-.076-.123-.151h0l-.025-.03h-.006v-.007q-.091-.107-.186-.211l-.029-.031h0v0l-.026-.028h0v0l-.025-.026h-.006V312.1l-.024-.025h-.007v-.007l-.023-.024h-.008v-.008l-.023-.023h-.008v-.008l-.023-.023h-.008v-.008q-.175-.173-.363-.334h-.01v-.009l-.027-.022h0v0q-.151-.127-.309-.245h0c-.07-.053-.142-.1-.215-.154h0v0l-.089-.06h0v0c-.079-.052-.16-.1-.241-.153h-.008v0l-.152-.089h0v0c-.177-.1-.36-.193-.546-.278h-.013v-.006l-.056-.025h-.006v0q-.147-.064-.3-.122h-.013v0c-.082-.031-.164-.061-.247-.088h0c-.1-.033-.2-.064-.3-.092h-.011v0l-.1-.028h-.02v-.006l-.1-.025h-.021v-.005q-.212-.051-.429-.088h-.037v-.006l-.161-.025H268.7v0l-.159-.02v-4.485l0-.089v-.065h0q.006-.208.006-.416,0-.181,0-.361h0v-.131c0-.076-.005-.151-.009-.226l0-.024c0-.1-.011-.2-.018-.3h0v-.04q-.024-.339-.062-.675h0v0c-.009-.082-.019-.165-.03-.247h0v-.011q-.028-.213-.061-.424h0v-.007c-.009-.06-.019-.12-.029-.179h0v-.013c-.037-.215-.079-.428-.124-.64h0c-.029-.135-.059-.269-.092-.4h0v-.005q-.03-.122-.061-.243h0v0q-.044-.17-.092-.339h0v0q-.19-.664-.435-1.3h0c-.02-.052-.041-.1-.061-.155h0v0l-.062-.153h0v0c-.059-.145-.121-.29-.185-.433h0v0q-.091-.2-.187-.4l-.03-.062h0l-.03-.061h0v0l-.029-.059h0v0l-.028-.057h0v-.006l-.029-.057h0v0l-.03-.059h0q-.1-.2-.215-.4h0v0q-.165-.3-.341-.586h0v0q-.076-.124-.154-.247h0v0q-.15-.235-.307-.464h0v0c-.02-.029-.04-.059-.061-.088h0v0c-.051-.072-.1-.144-.154-.216h0q-.09-.124-.183-.247h0v0c-.03-.04-.06-.081-.091-.12h0v0q-.182-.235-.373-.463h0c-.061-.073-.122-.145-.184-.217h0v0c-.072-.083-.144-.165-.218-.246q-.529-.587-1.115-1.119h0v0l-.031-.028h0q-.228-.206-.465-.4h0q-.406-.339-.835-.652h0v0q-.541-.394-1.115-.743h0v0l-.152-.09h0v0l-.155-.091h0c-.092-.053-.184-.1-.277-.155h0v0q-.678-.373-1.395-.682h0v0q-.383-.164-.775-.309h0q-.667-.246-1.36-.435h-.008v0c-.2-.055-.411-.106-.618-.153h0c-.143-.033-.287-.064-.432-.093h0c-.109-.022-.218-.042-.329-.062h-.013v0l-.166-.029h-.02v0q-.31-.051-.622-.09h-.031v0c-.081-.01-.162-.018-.244-.027h0q-.367-.039-.739-.062H253.6c-.322-.019-.647-.03-.974-.03s-.638.01-.954.029" transform="translate(-231.038 -289.292)" fill="none"/>
    </clipPath>
    <linearGradient id="linear-gradient-3" x1="-0.582" y1="1.8" x2="-0.579" y2="1.8" xlink:href="#linear-gradient"/>
  </defs>
  <g id="Grupo_156729" data-name="Grupo 156729" transform="translate(-285 -1528)">
    <path id="hacker-working-in-the-darkness" d="M258.97,274.205H364.612A113.36,113.36,0,0,1,485.97,200.344V97.517q-7.339-.5-14.806-.5C365.2,97.013,277.089,173.457,258.97,274.205Z" transform="translate(559.205 1269.03) rotate(90)" fill="#dfdaf8"/>
    <g id="Grupo_156728" data-name="Grupo 156728" transform="translate(12.143 10.061)">
      <ellipse id="Elipse_5395" data-name="Elipse 5395" cx="130.928" cy="10.99" rx="130.928" ry="10.99" transform="translate(306 1700.898)" fill="#9389c3"/>
      <g id="Grupo_156727" data-name="Grupo 156727" transform="translate(306.063 1528)">
        <g id="Grupo_156716" data-name="Grupo 156716">
          <g id="Grupo_156715" data-name="Grupo 156715" clip-path="url(#clip-path)">
            <path id="Trazado_599379" data-name="Trazado 599379" d="M905.864,621.8s-6.31-2.872-5.373-7.316,6.066-3.977,5.373-7.487-4.062-8.974-.787-12.951,8.723-1.594,9.408-7.76c.549-4.971,2.846-8.491,7.3-7.46,4.118.955,7.191,4.146,7.266,11.729.083,8.077,5.772,5.809,5.842,11.758.072,5.992-4.7,5.992-6.568,10.014-.881,1.9,1.416,8.571-5.37,9.472Z" transform="translate(-682.033 -438.311)" fill="#a2cbff"/>
            <path id="Trazado_599380" data-name="Trazado 599380" d="M957.892,591.511s.017.137.039.4c.072.8.216,2.734.216,5.432,0,7.9-1.244,22.33-9.109,33.847a.345.345,0,0,0,.571.389c7.989-11.718,9.225-26.266,9.228-34.236a57.846,57.846,0,0,0-.26-5.911.344.344,0,1,0-.684.078" transform="translate(-718.834 -447.767)" fill="#e7eff9"/>
            <path id="Trazado_599381" data-name="Trazado 599381" d="M956.41,666.545s-1.021-5.648,2.813-7.946,7.744-4.087,7.319-7.791.619-8.076,6.76-8.158c3.8-.05,2.37-4.052,6.227-4.851,2.345-.484,3.891,1.962,4.19,4.365.342,2.737-1.21,5.427.57,7.656,2.3,2.887,3.24,8.273-1.714,9.805s-.539,6.225-7.288,6.919Z" transform="translate(-724.369 -483.074)" fill="#c3dcfa" fill-rule="evenodd"/>
            <path id="Trazado_599382" data-name="Trazado 599382" d="M1001.638,647.988c-.128,3.6-1.726,8.717-4.456,13.6s-6.586,9.548-11.2,12.294a.354.354,0,1,0,.362.608c4.764-2.839,8.68-7.589,11.455-12.555s4.4-10.151,4.544-13.921a.355.355,0,0,0-.71-.027" transform="translate(-746.735 -490.58)" fill="#e7eff9"/>
            <path id="Trazado_599383" data-name="Trazado 599383" d="M795.635,308.378l1.175,2.221a2.344,2.344,0,0,1-.454,2.8,24.159,24.159,0,0,0-3.827,4.62,2.341,2.341,0,0,1-2.664.967l-2.4-.736a2.361,2.361,0,0,0-2.953,1.555l-1.417,4.6a2.359,2.359,0,0,0,1.56,2.951l2.4.741a2.345,2.345,0,0,1,1.657,2.3,24.135,24.135,0,0,0,.56,5.971,2.333,2.333,0,0,1-1.2,2.564L785.85,340.1a2.363,2.363,0,0,0-.986,3.19l2.251,4.255a2.361,2.361,0,0,0,3.189.985l2.223-1.174a2.337,2.337,0,0,1,2.794.452,24.387,24.387,0,0,0,4.616,3.825,2.335,2.335,0,0,1,.97,2.666l-.74,2.4a2.356,2.356,0,0,0,1.56,2.948l4.6,1.421a2.36,2.36,0,0,0,2.95-1.561l.74-2.4a2.336,2.336,0,0,1,2.3-1.654,24.517,24.517,0,0,0,5.968-.56,2.334,2.334,0,0,1,2.568,1.2l1.172,2.221a2.361,2.361,0,0,0,3.189.983l4.256-2.249a2.365,2.365,0,0,0,.985-3.191l-1.175-2.22a2.349,2.349,0,0,1,.454-2.8,24.088,24.088,0,0,0,3.824-4.614,2.344,2.344,0,0,1,2.667-.973l2.4.743a2.362,2.362,0,0,0,2.953-1.561l1.417-4.6a2.364,2.364,0,0,0-1.56-2.954l-2.4-.737a2.338,2.338,0,0,1-1.657-2.3,24.244,24.244,0,0,0-.56-5.967,2.338,2.338,0,0,1,1.2-2.569l2.219-1.174a2.355,2.355,0,0,0,.982-3.189l-2.247-4.257a2.366,2.366,0,0,0-3.193-.983l-2.219,1.176a2.343,2.343,0,0,1-2.8-.455,24.169,24.169,0,0,0-4.613-3.822,2.337,2.337,0,0,1-.97-2.665l.74-2.4a2.362,2.362,0,0,0-1.56-2.955l-4.6-1.417a2.359,2.359,0,0,0-2.953,1.56l-.74,2.4a2.346,2.346,0,0,1-2.3,1.658,23.842,23.842,0,0,0-5.968.558,2.334,2.334,0,0,1-2.565-1.2l-1.178-2.222a2.355,2.355,0,0,0-3.186-.984l-4.258,2.25a2.356,2.356,0,0,0-.979,3.188m13.348,10.32a13.069,13.069,0,1,1-6.288,20.4,13.051,13.051,0,0,1,6.288-20.4" transform="translate(-593.098 -228.049)" fill="#b8afe4" fill-rule="evenodd"/>
            <path id="Trazado_599384" data-name="Trazado 599384" d="M513.758,328.692h43.031a5.465,5.465,0,0,1,5.449,5.448v90.934a5.465,5.465,0,0,1-5.449,5.448H513.758a5.464,5.464,0,0,1-5.449-5.448V334.14a5.464,5.464,0,0,1,5.449-5.448" transform="translate(-385.034 -248.978)" fill="#273373" fill-rule="evenodd"/>
            <rect id="Rectángulo_44958" data-name="Rectángulo 44958" width="46.701" height="76.791" transform="translate(127.244 87.065)" fill="#fff"/>
            <path id="Trazado_599385" data-name="Trazado 599385" d="M522.052,364.913v-8.532h47.976v78.064H522.052V364.913Zm12.723,4.174h22a1.912,1.912,0,0,1,1.734,1.117h10.239v-12.55H523.325V370.2h9.715a1.912,1.912,0,0,1,1.734-1.117m0,16.835h22a1.917,1.917,0,0,1,1.822,1.346h10.152V371.476h-10.13a1.909,1.909,0,0,1-1.843,1.427h-22a1.916,1.916,0,0,1-1.847-1.427h-9.6v15.792h9.625a1.918,1.918,0,0,1,1.825-1.346m0,17.345h22a1.912,1.912,0,0,1,1.71,1.067h10.264V388.541h-10.2a1.913,1.913,0,0,1-1.769,1.2h-22a1.92,1.92,0,0,1-1.772-1.2h-9.678v15.793h9.74a1.908,1.908,0,0,1,1.71-1.067m0,17.09h22a1.914,1.914,0,0,1,1.7,1.041h10.276V405.607H558.638a1.92,1.92,0,0,1-1.859,1.476h-22a1.915,1.915,0,0,1-1.859-1.476h-9.591V421.4h9.749a1.915,1.915,0,0,1,1.7-1.041m-11.45,12.816h45.428v-10.5H558.641a1.915,1.915,0,0,1-1.862,1.5h-22a1.919,1.919,0,0,1-1.865-1.5h-9.585v10.5Z" transform="translate(-395.445 -269.952)" fill="#273373"/>
            <rect id="Rectángulo_44959" data-name="Rectángulo 44959" width="5.945" height="5.946" transform="translate(128.245 168.025)" fill="#4595d0"/>
            <rect id="Rectángulo_44960" data-name="Rectángulo 44960" width="2.995" height="2.993" transform="translate(138.382 169.502)" fill="#00aced"/>
            <rect id="Rectángulo_44961" data-name="Rectángulo 44961" width="2.993" height="2.993" transform="translate(143.526 169.502)" fill="#00aced"/>
            <rect id="Rectángulo_44962" data-name="Rectángulo 44962" width="2.993" height="2.993" transform="translate(148.671 169.502)" fill="#00a451"/>
            <rect id="Rectángulo_44963" data-name="Rectángulo 44963" width="2.993" height="2.993" transform="translate(153.815 169.502)" fill="#00aced"/>
            <rect id="Rectángulo_44964" data-name="Rectángulo 44964" width="2.995" height="2.993" transform="translate(158.96 169.502)" fill="#00a451"/>
            <path id="Trazado_599386" data-name="Trazado 599386" d="M697.136,685.535a2.077,2.077,0,1,1-2.077,2.076,2.075,2.075,0,0,1,2.077-2.076" transform="translate(-526.495 -519.28)" fill="#eb1c24" fill-rule="evenodd"/>
            <path id="Trazado_599387" data-name="Trazado 599387" d="M699.68,710.528a1.262,1.262,0,1,1-1.262,1.262,1.263,1.263,0,0,1,1.262-1.262" transform="translate(-529.038 -538.212)" fill="#00a451" fill-rule="evenodd"/>
            <path id="Trazado_599388" data-name="Trazado 599388" d="M713.239,658.526h54.078a1.969,1.969,0,0,1,1.964,1.964v18.58a1.969,1.969,0,0,1-1.964,1.963H713.239a1.971,1.971,0,0,1-1.965-1.963V660.49a1.971,1.971,0,0,1,1.965-1.964" transform="translate(-538.777 -498.821)" fill="#405da9" fill-rule="evenodd"/>
            <rect id="Rectángulo_44965" data-name="Rectángulo 44965" width="19.034" height="9.441" transform="translate(174.536 162.197)" fill="#fff"/>
            <rect id="Rectángulo_44966" data-name="Rectángulo 44966" width="33.232" height="9.441" transform="translate(195.307 162.197)" fill="#fff"/>
            <rect id="Rectángulo_44967" data-name="Rectángulo 44967" width="2.266" height="2.265" transform="translate(214.776 165.71)" fill="#eb1c24"/>
            <rect id="Rectángulo_44968" data-name="Rectángulo 44968" width="2.265" height="2.265" transform="translate(218.363 165.71)" fill="#00a451"/>
            <rect id="Rectángulo_44969" data-name="Rectángulo 44969" width="2.266" height="2.265" transform="translate(221.95 165.71)" fill="#eb1c24"/>
            <rect id="Rectángulo_44970" data-name="Rectángulo 44970" width="8.168" height="1.659" transform="translate(217.455 182.212)" fill="#273373"/>
            <path id="Trazado_599389" data-name="Trazado 599389" d="M4.2,455.283H96.87c2.273,0,3.531,1.941,4.131,4.132l17.352,63.216c.6,2.19-1.858,4.133-4.132,4.133H18.41c-2.273,0-3.634-1.915-4.132-4.133L.068,459.415c-.5-2.218,1.859-4.132,4.132-4.132" transform="translate(0 -344.868)" fill="#7ba9e3" fill-rule="evenodd"/>
            <path id="Trazado_599390" data-name="Trazado 599390" d="M15.464,455.283h92.671c2.273,0,3.531,1.941,4.131,4.132l17.352,63.216c.6,2.19-1.859,4.133-4.132,4.133H29.676c-2.273,0-3.633-1.915-4.133-4.133l-14.21-63.216c-.5-2.218,1.86-4.132,4.132-4.132" transform="translate(-8.533 -344.868)" fill="#273373" fill-rule="evenodd"/>
            <path id="Trazado_599391" data-name="Trazado 599391" d="M41.927,527.185v0h-.044a1.041,1.041,0,0,1-.173-.029v0H41.7c-.03-.008-.059-.017-.087-.028v0h-.009a1.021,1.021,0,0,1-.177-.088v-.005h-.008a.945.945,0,0,1-.086-.061h0a1.226,1.226,0,0,1-.185-.183v0h0a1.923,1.923,0,0,1-.359-.783l-.291-1.268h0l-1.212-5.284h0l-1.212-5.284h0l-1.212-5.284h0l-.777-3.387h0L34.871,500.2h0l-1.212-5.284h0l-1.212-5.284h0l-1.212-5.284h0l-1.212-5.284h0l-1.212-5.284-.822-3.584a.764.764,0,0,1-.017-.11v-.1h0c0-.01,0-.021,0-.031h0v0A.787.787,0,0,1,28,469.8h0v-.007a.852.852,0,0,1,.061-.148h0v0a1.032,1.032,0,0,1,.152-.215h0v0l.026-.027h0v0c.02-.02.04-.039.061-.057h0a1.346,1.346,0,0,1,.12-.092h0v0a1.325,1.325,0,0,1,.154-.09h0a1.408,1.408,0,0,1,.239-.093h.01v0a1.261,1.261,0,0,1,.336-.047H120a1.1,1.1,0,0,1,.172.013v0h.027a.955.955,0,0,1,.315.121v0h.006a1.158,1.158,0,0,1,.3.276v0h0a1.891,1.891,0,0,1,.246.429v.006h0c.021.051.041.1.06.155h0c.02.058.039.117.056.177L137.036,526c0,.013.007.027.01.041v.027h.005a.7.7,0,0,1,0,.249h-.007v.037a.9.9,0,0,1-.214.4h0v0l-.026.028H136.8v.006c-.019.019-.039.038-.06.057h0v0a1.35,1.35,0,0,1-.213.153h0v0l-.051.028h-.011v.006l-.052.025h-.01v0a1.407,1.407,0,0,1-.148.057h-.008v0a1.321,1.321,0,0,1-.3.06H135.9v0H41.927" transform="translate(-21.185 -355.262)" fill="#2ff980" fill-rule="evenodd"/>
            <path id="Trazado_599392" data-name="Trazado 599392" d="M69.443,729.437H193.949v3.292a3.3,3.3,0,0,1-3.292,3.291H72.735a3.3,3.3,0,0,1-3.292-3.291Z" transform="translate(-52.602 -552.535)" fill="#7ba9e3" fill-rule="evenodd"/>
            <rect id="Rectángulo_44971" data-name="Rectángulo 44971" width="10.425" height="1.659" transform="translate(174.716 182.212)" fill="#273373"/>
            <path id="Trazado_599393" data-name="Trazado 599393" d="M358.621,729.437h92.385v3.292a3.3,3.3,0,0,1-3.292,3.291h-85.8a3.3,3.3,0,0,1-3.292-3.291Z" transform="translate(-271.649 -552.535)" fill="#e3f4fa" fill-rule="evenodd"/>
            <path id="Trazado_599394" data-name="Trazado 599394" d="M510.169,740.027h28.323a.627.627,0,1,1,0,1.253H510.169a.627.627,0,0,1,0-1.253" transform="translate(-385.969 -560.557)" fill="#102b6e" fill-rule="evenodd"/>
            <path id="Trazado_599395" data-name="Trazado 599395" d="M77.529,734.528a1.735,1.735,0,1,1-1.354,1.693,1.552,1.552,0,0,1,1.354-1.693" transform="translate(-57.701 -556.391)" fill="#273373" fill-rule="evenodd"/>
            <rect id="Rectángulo_44972" data-name="Rectángulo 44972" width="16.995" height="1.846" transform="translate(44.49 179.281)" fill="#273373"/>
            <rect id="Rectángulo_44973" data-name="Rectángulo 44973" width="4.341" height="1.846" transform="translate(63.148 179.281)" fill="#273373"/>
            <rect id="Rectángulo_44974" data-name="Rectángulo 44974" width="4.341" height="1.846" transform="translate(69.013 179.281)" fill="#273373"/>
            <path id="Trazado_599396" data-name="Trazado 599396" d="M144.405,651.211H113.194a1.912,1.912,0,0,0-1.354.562v0a1.917,1.917,0,0,0,1.354,3.271h31.211a1.914,1.914,0,0,0,1.355-3.271v0a1.911,1.911,0,0,0-1.355-.562m-31.211-.266h31.211a2.175,2.175,0,0,1,1.541.642h0a2.173,2.173,0,0,1,0,3.081l0,0a2.173,2.173,0,0,1-1.541.64H113.194a2.172,2.172,0,0,1-1.539-.64l0,0a2.172,2.172,0,0,1,0-3.081h0a2.174,2.174,0,0,1,1.539-.642" transform="translate(-84.09 -493.079)" fill="#e3f4fa"/>
            <path id="Trazado_599397" data-name="Trazado 599397" d="M133.744,613.452H102.532a1.918,1.918,0,0,0,0,3.836h31.211a1.913,1.913,0,0,0,1.354-.564h0a1.914,1.914,0,0,0,0-2.709h0a1.906,1.906,0,0,0-1.354-.564m-31.211-.265h31.211a2.185,2.185,0,0,1,1.541.64v0a2.182,2.182,0,0,1-1.541,3.723H102.532a2.178,2.178,0,0,1-1.541-3.723v0a2.182,2.182,0,0,1,1.541-.64" transform="translate(-76.012 -464.478)" fill="#e3f4fa"/>
            <path id="Trazado_599398" data-name="Trazado 599398" d="M124.174,575.687H92.963a1.912,1.912,0,0,0-1.354.564l0,0a1.911,1.911,0,0,0,0,2.707l0,0a1.911,1.911,0,0,0,1.354.562h31.211a1.911,1.911,0,0,0,1.353-.562l0,0a1.907,1.907,0,0,0,0-2.707l0,0a1.912,1.912,0,0,0-1.353-.564m-31.211-.264h31.211a2.182,2.182,0,0,1,0,4.365H92.963a2.182,2.182,0,0,1,0-4.365" transform="translate(-68.765 -435.872)" fill="#e3f4fa"/>
          </g>
        </g>
        <g id="Grupo_156718" data-name="Grupo 156718" transform="translate(19.753 40.542)">
          <g id="Grupo_156717" data-name="Grupo 156717" clip-path="url(#clip-path-2)">
            <rect id="Rectángulo_44976" data-name="Rectángulo 44976" width="172.163" height="166.769" transform="matrix(0.516, -0.857, 0.857, 0.516, -58.114, 96.44)" fill="url(#linear-gradient)"/>
          </g>
        </g>
        <g id="Grupo_156720" data-name="Grupo 156720" transform="translate(34.53 57.506)">
          <g id="Grupo_156719" data-name="Grupo 156719" clip-path="url(#clip-path-3)">
            <rect id="Rectángulo_44977" data-name="Rectángulo 44977" width="85.946" height="101.03" transform="translate(-0.003 0)" fill="url(#linear-gradient-2)"/>
          </g>
        </g>
        <g id="Grupo_156722" data-name="Grupo 156722">
          <g id="Grupo_156721" data-name="Grupo 156721" clip-path="url(#clip-path)">
            <path id="Trazado_599401" data-name="Trazado 599401" d="M713.239,556.531h54.078a1.969,1.969,0,0,1,1.964,1.964v18.58a1.968,1.968,0,0,1-1.964,1.963H713.239a1.97,1.97,0,0,1-1.965-1.963V558.5a1.971,1.971,0,0,1,1.965-1.964" transform="translate(-538.777 -421.562)" fill="#405da9" fill-rule="evenodd"/>
            <rect id="Rectángulo_44978" data-name="Rectángulo 44978" width="19.034" height="9.441" transform="translate(174.536 137.461)" fill="#fff"/>
            <rect id="Rectángulo_44979" data-name="Rectángulo 44979" width="33.232" height="9.441" transform="translate(195.307 137.461)" fill="#fff"/>
            <rect id="Rectángulo_44980" data-name="Rectángulo 44980" width="2.266" height="2.265" transform="translate(214.776 140.974)" fill="#eb1c24"/>
            <rect id="Rectángulo_44981" data-name="Rectángulo 44981" width="2.265" height="2.265" transform="translate(218.363 140.974)" fill="#eb1c24"/>
            <rect id="Rectángulo_44982" data-name="Rectángulo 44982" width="2.266" height="2.265" transform="translate(221.95 140.974)" fill="#00a451"/>
            <rect id="Rectángulo_44983" data-name="Rectángulo 44983" width="8.17" height="2.229" transform="translate(176.97 157.476)" fill="#273373"/>
            <rect id="Rectángulo_44984" data-name="Rectángulo 44984" width="8.168" height="2.229" transform="translate(217.455 157.476)" fill="#273373"/>
            <path id="Trazado_599402" data-name="Trazado 599402" d="M713.239,454.533h54.078a1.969,1.969,0,0,1,1.964,1.964v18.58a1.968,1.968,0,0,1-1.964,1.963H713.239a1.97,1.97,0,0,1-1.965-1.963V456.5a1.971,1.971,0,0,1,1.965-1.964" transform="translate(-538.777 -344.3)" fill="#405da9" fill-rule="evenodd"/>
            <rect id="Rectángulo_44985" data-name="Rectángulo 44985" width="19.034" height="9.441" transform="translate(174.536 112.726)" fill="#fff"/>
            <rect id="Rectángulo_44986" data-name="Rectángulo 44986" width="33.232" height="9.441" transform="translate(195.307 112.726)" fill="#fff"/>
            <rect id="Rectángulo_44987" data-name="Rectángulo 44987" width="2.266" height="2.266" transform="translate(214.776 116.237)" fill="#eb1c24"/>
            <rect id="Rectángulo_44988" data-name="Rectángulo 44988" width="2.265" height="2.266" transform="translate(218.363 116.237)" fill="#eb1c24"/>
            <rect id="Rectángulo_44989" data-name="Rectángulo 44989" width="2.266" height="2.266" transform="translate(221.95 116.237)" fill="#eb1c24"/>
            <rect id="Rectángulo_44990" data-name="Rectángulo 44990" width="8.17" height="2.229" transform="translate(176.97 132.74)" fill="#273373"/>
            <rect id="Rectángulo_44991" data-name="Rectángulo 44991" width="8.168" height="2.229" transform="translate(217.455 132.74)" fill="#273373"/>
            <path id="Trazado_599403" data-name="Trazado 599403" d="M736.107,318.872h11.8c1.473,0,5.1,2.788,5.738,6.426,1.2,5.85.665,18.726-3.478,23.318l-4.7-.061-14.392-3.568V320.692a7.838,7.838,0,0,1,5.03-1.82" transform="translate(-553.777 -241.54)" fill="#2ff980" fill-rule="evenodd"/>
            <path id="Trazado_599404" data-name="Trazado 599404" d="M800.47,319.031c5.828.572,6.372,7.895,6.295,12.467h-6.292Z" transform="translate(-606.341 -241.66)" fill="#2ff980" fill-rule="evenodd"/>
            <path id="Trazado_599405" data-name="Trazado 599405" d="M756.245,370.481l5.723-.044a5.372,5.372,0,0,1-2.353,3.95c-2.356,1.776-9.95,7.487-9.95,7.487h-8.334s1.772-2.271,4.106-2.46,2.428.132,2.428.132c.448-1.189,5.822-6.545,8.381-9.065" transform="translate(-561.544 -280.599)" fill="#f8c3c6" fill-rule="evenodd"/>
            <path id="Trazado_599406" data-name="Trazado 599406" d="M817.413,563.787l.569,4.106,1.467,1.355s1.144-.053,1.278.345a3.676,3.676,0,0,1,0,1.246h-7.507a33.908,33.908,0,0,1-.867-6.817Z" transform="translate(-615.341 -427.058)" fill="#630"/>
            <path id="Trazado_599407" data-name="Trazado 599407" d="M678.3,417.6H703.24a4.435,4.435,0,0,1,.827.077c6.963-.036,7.827,4.472,8.318,9.384l2.807,28.22h-9.45l-3.118-28.723H678.3a4.479,4.479,0,1,1,0-8.958" transform="translate(-510.407 -316.322)" fill="#092978" fill-rule="evenodd"/>
            <path id="Trazado_599408" data-name="Trazado 599408" d="M720.375,521.112l3.426,7.667a6.222,6.222,0,0,1-.8,2.178c-.575.79-.631,1.368-.271,1.844s.457.595.457.595l5.816-6.07-3.053-7.13Z" transform="translate(-545.671 -394.037)" fill="#630"/>
            <rect id="Rectángulo_44992" data-name="Rectángulo 44992" width="14.18" height="2.777" transform="translate(136.277 107.795)" fill="#d3ebfc"/>
            <path id="Trazado_599409" data-name="Trazado 599409" d="M680.923,420.923a6.125,6.125,0,0,1,2.474,2.214c2.052,3.112,11.368,24.106,11.368,24.106l-10.712,0-7.8-17.1c-.323-.712-1.933-3.678-2.08-5.028-.478-4.346,3.13-5.846,6.749-4.186" transform="translate(-510.642 -318.341)" fill="#092978" fill-rule="evenodd"/>
            <path id="Trazado_599410" data-name="Trazado 599410" d="M745.536,282.839c-1.234,2.2.886,5.273,3.491,5.05l0,.7-1.421,2.027L749,292.7l1.458.53,3.522-.907v-6.345c.128-.04.134.192.395.032a2.93,2.93,0,0,0,.737-1.947c-.106-.608-.886-.956-.886-.956.734-1.8,1.312-2.088-.575-3.09s-5.695-.926-5.695-.926l-1.728.579c-.075,1.677.158,1.644-.7,3.171" transform="translate(-564.456 -211.404)" fill="#f8c3c6" fill-rule="evenodd"/>
            <path id="Trazado_599411" data-name="Trazado 599411" d="M758.25,313.356a3.1,3.1,0,0,0,.379-.009,8.965,8.965,0,0,0,3.161-.65,3.334,3.334,0,0,1-1.728,1.848,5.7,5.7,0,0,1-2.21.6l.774-1.1,0-.7Z" transform="translate(-574.059 -236.862)" fill="#dc777b" fill-rule="evenodd"/>
            <path id="Trazado_599412" data-name="Trazado 599412" d="M592.125,168.171a10.193,10.193,0,0,1,5.045,1.328,13.439,13.439,0,0,1,11.582-6.444,13.1,13.1,0,0,1,13.323,12.182,6.842,6.842,0,0,1-2.055,13.4H601.441v-7.182h3.578l-6.062-9.075-6.059,9.075h3.581v7.182h-4.355a10.232,10.232,0,0,1,0-20.464" transform="translate(-440.775 -123.511)" fill="#b8afe4" fill-rule="evenodd"/>
            <path id="Trazado_599413" data-name="Trazado 599413" d="M743.7,260.791c1.455.243,2.633.034,3.522.141a2.548,2.548,0,0,1,1.284.612,6.523,6.523,0,0,1,1.672,3.446s.976-.408,1.293-.205.118.689.071.891-.5.418-.643.544c-.432.375.588.535,1.794-.438,3.857-3.112,2.673-8.047-2.76-9.895-2.2-.75-.659-1.941-2.176-2.262-6.941-1.467-8.371,6.3-4.057,7.165" transform="translate(-561.487 -191.977)" fill="#092978" fill-rule="evenodd"/>
            <path id="Trazado_599414" data-name="Trazado 599414" d="M712.192,325.959c-3.208,2.859-5.07,6.808-6.211,10.951,2.1-.138,4.3-.128,6.382-.195Z" transform="translate(-534.767 -246.908)" fill="#2ff980" fill-rule="evenodd"/>
            <path id="Trazado_599415" data-name="Trazado 599415" d="M756.513,326.443a.386.386,0,1,1-.389.386.387.387,0,0,1,.389-.386m0-2.239a.386.386,0,1,1-.389.386.386.386,0,0,1,.389-.386m-1.492-5.952c-1.337,2.286.124,3.909,1.439,4.642,1.853-1.2,3.522-2.378,3.522-4.642,0,0,.64-.011,1.054,1,.687,1.644-.463,5.339-.463,5.339s-1.287-1.667-2.359-1.757a3.766,3.766,0,0,0-1.766.233c-1.371-1.005-2.306.3-3.221,1.253-.289-2.436-.255-4.187,1.57-6.072Z" transform="translate(-570.454 -241.07)" fill="#fff" fill-rule="evenodd"/>
            <rect id="Rectángulo_44993" data-name="Rectángulo 44993" width="14.18" height="2.777" transform="translate(136.277 91.69)" fill="#d3ebfc"/>
            <path id="Trazado_599416" data-name="Trazado 599416" d="M695.016,358.428H676.969c-.7,0-1.421.587-1.265,1.266l2.695,11.928c.155.679.569,1.266,1.268,1.266h18.045c.7,0,1.417-.587,1.265-1.266l-2.7-11.928c-.155-.679-.569-1.266-1.265-1.266" transform="translate(-511.817 -271.503)" fill="#def1fb" fill-rule="evenodd"/>
            <path id="Trazado_599417" data-name="Trazado 599417" d="M691.684,358.428H673.636c-.7,0-1.42.587-1.265,1.266l2.7,11.928c.152.679.572,1.266,1.265,1.266h18.048c.693,0,1.417-.587,1.265-1.266l-2.7-11.928c-.152-.679-.569-1.266-1.262-1.266" transform="translate(-509.292 -271.503)" fill="#aecbea" fill-rule="evenodd"/>
            <path id="Trazado_599418" data-name="Trazado 599418" d="M716.727,383.221a1.265,1.265,0,1,0,1.368.867,1.157,1.157,0,0,0-1.368-.867" transform="translate(-542.393 -290.25)" fill="#fff" fill-rule="evenodd"/>
            <path id="Trazado_599419" data-name="Trazado 599419" d="M778.414,413.174h-9.167v1.182H779v-.591a.591.591,0,0,0-.591-.591" transform="translate(-582.69 -312.972)" fill="#def1fb" fill-rule="evenodd"/>
            <path id="Trazado_599420" data-name="Trazado 599420" d="M252.787,323.287a6.78,6.78,0,0,1,3.158,12.78v11.205H249.63v-11.2a6.78,6.78,0,0,1,3.157-12.78m-15.075,30.537v0h-.136a6.8,6.8,0,0,1-.7-.059v0h-.026l-.161-.024v-.007h-.039c-.1-.017-.2-.037-.3-.059v0h-.014l-.11-.025v-.006H236.2l-.1-.025V353.6h-.023l-.1-.028v0h-.013l-.205-.062h0l-.092-.03h0l-.089-.031h0l-.155-.056v-.006H235.4l-.078-.03h0a6.68,6.68,0,0,1-.836-.4v0h-.007l-.149-.087v-.006h-.011l-.145-.09v0h-.006q-.139-.089-.274-.185h0l-.122-.089v0h-.005l-.119-.091v0h0q-.207-.162-.4-.34v0h0l-.029-.027v0h0l-.027-.025v-.006h-.007q-.14-.132-.273-.271v-.008h-.008l-.023-.025v-.006h-.005l-.026-.027v0h0l-.028-.03h0q-.161-.176-.31-.364v-.008h-.007l-.087-.113v-.012h-.009l-.022-.03h0L232.3,351v-.01H232.3l-.086-.123h0l-.062-.092h0q-.047-.072-.092-.144v-.011h-.007l-.055-.09v0h0q-.15-.25-.278-.512V350H231.7l-.023-.049v-.013h-.006l-.025-.053v-.009h0l-.027-.06v0h0c-.032-.072-.063-.144-.092-.217h0c-.011-.025-.021-.051-.031-.077V349.5h-.006c-.019-.05-.038-.1-.056-.15v-.006h0l-.029-.082v-.011h0c-.044-.128-.084-.259-.12-.39v-.014h0c-.009-.034-.019-.068-.027-.1v-.022h-.005c-.009-.035-.017-.069-.026-.1v-.02h0c-.009-.04-.018-.08-.026-.119v-.005h0c-.011-.05-.021-.1-.03-.15v-.005h0q-.016-.086-.03-.172V348.1h-.008c-.009-.056-.017-.112-.024-.168v-.018h0q-.017-.14-.029-.281v-.092h-.007c-.01-.153-.016-.306-.016-.462V322.8q0-.253.019-.5h0v-.051q.011-.13.026-.26h0v-.037c.008-.06.016-.12.026-.18h.006v-.039q.037-.232.09-.459h0v-.011q.013-.057.028-.113h0v-.014q.055-.214.123-.422h0v0c.01-.03.02-.06.03-.089h0v0q.07-.2.154-.4h0v0l.024-.057h.007v-.016q.044-.1.091-.2h0v0c.029-.061.059-.122.089-.183h0v-.007l.029-.055h0v0l.03-.058h0c.068-.127.14-.251.216-.372h0v0l.058-.091h0v-.007l.057-.086h.005v-.008l.058-.086h0v-.005q.075-.108.153-.212h0v0c.039-.052.079-.1.119-.153h.005V318.6c.04-.05.081-.1.123-.149h0v0q.135-.159.28-.309l.03-.031h0l.029-.03h0v0l.029-.029h0v0q.193-.194.4-.371h0v0q.15-.128.307-.247h0v0l.123-.091h0q.134-.1.272-.186h.008v0l.09-.057h0v0q.075-.047.151-.091h0v0q.107-.063.215-.121h0l.057-.03h.005v0l.054-.028h.009v0l.053-.027h.009v0l.053-.027h.009v0l.056-.027h.006v0q.135-.064.272-.122h.008v0l.146-.059h.01v0l.155-.058h0l.088-.031h.005v0l.086-.029h.008v0l.09-.029h0q.1-.032.207-.061H236v0q.115-.032.231-.059h.018v0l.12-.027h0l.149-.03h.007l.159-.028v-5.707l.007-.137c0-.094.011-.187.017-.281h0v-.062q.013-.187.031-.373h0v-.007c.009-.091.018-.182.029-.273h0v-.024q.015-.128.031-.256h0v0q.04-.312.093-.62h0v0q.029-.17.062-.338c.01-.052.02-.1.031-.155h0c.019-.093.039-.186.059-.279h0v-.013q.044-.2.093-.391h0q.044-.172.091-.342h0v-.01c.019-.07.04-.139.06-.208h0v-.006q.045-.154.093-.305h0l.029-.092h0v-.005c.009-.029.018-.059.028-.088h0v-.009l.028-.084h0v-.007l.03-.086h0v0l.031-.089h0q.088-.25.184-.5h0v-.007q.1-.263.216-.522h0v0q.06-.139.123-.276h0v0q.284-.62.619-1.21h0v0c.041-.072.082-.143.124-.213h0l.093-.155h0c.05-.083.1-.166.153-.249h0v0q.179-.282.369-.556h0v-.006l.062-.088h0q.077-.109.155-.216h0l.092-.124h0l.093-.123h0q.254-.333.524-.652h0v-.005q.227-.267.465-.523h0l.028-.03h0v0l.026-.027h.005v-.005q.5-.534,1.052-1.021h.005v0l.031-.027h0q.2-.174.4-.342h0v0l.151-.122h0v0q.318-.255.649-.494h0v0q.5-.359,1.026-.682l.155-.093h0q.215-.127.433-.248h0c.134-.074.268-.146.4-.216h0l.184-.093h0l.06-.03h0l.06-.03h0l.061-.03h0q.336-.163.68-.31h0c.2-.087.408-.169.615-.247h.007v0l.246-.09h0q.368-.133.744-.248h0q.211-.065.424-.124h.011v0q.363-.1.733-.183h.013v0l.277-.059h0q.242-.05.486-.093h.011v0l.177-.029h.01q.322-.052.649-.092h.035v0c.2-.023.4-.042.6-.059h.025v0q.627-.049,1.265-.05.411,0,.818.021h0q.217.011.432.028v0h.037q.309.025.616.06v0h.015l.233.031h0q.389.052.772.123h.007q.231.043.46.091v0h.009l.271.062h0q.186.044.37.091v0h.007l.117.03h0q.694.186,1.364.433v0h.006l.242.092v0h0q.232.089.462.186h0q.314.132.621.278h0l.059.028v0h.007q.279.133.552.278h0a16.04,16.04,0,0,1,1.458.87h0q.268.18.528.371v0h0l.121.09v0h0q.2.151.4.309v0h0l.153.122v0h0q.2.167.4.341h0a15.9,15.9,0,0,1,1.211,1.178v0h0q.237.257.464.525v0h0q.206.244.4.5v0h0l.092.12v0h0q.173.228.338.462v0h0q.223.317.432.646v.007h0l.058.093h0q.16.258.311.521v.007h0c.041.072.081.144.12.217h0q.266.485.5.99v0h0q.062.136.122.274v.006h0q.112.258.215.52v.008h0l.059.154h0q.064.169.124.34v0h0l.03.088v.005h0l.029.084v.009h0c.009.027.019.055.028.082v.011h0l.028.087v.007h0l.029.091v0h0q.048.151.092.3v.007h0c.02.069.041.138.06.207v.011h0q.1.362.184.732v.014h0c.021.092.04.185.059.278h0c.011.052.021.1.031.155h0q.033.168.062.338v0h0q.052.307.093.62v0h0q.036.275.062.553v.007h0c.012.124.022.249.031.374v.03h0c.007.1.014.207.019.312l0,.024c0,.075.006.151.009.226v.122h0c0,.123,0,.247,0,.371s0,.271-.006.406h0v.075l0,.089V316.1l.1.012v0h.016l.171.025v.007h.044l.174.031h0c.093.018.186.037.278.059v0h.013l.111.027v0h.015l.109.03h.006q.154.043.3.092h0l.09.031h0q.124.043.247.091v0h.006l.149.06v0h0q.14.059.276.123h0l.06.029v0h0l.058.028v0h.006q.171.086.336.181v.006h.01l.052.03h0q.173.1.34.214v0h.005l.088.061v0h0l.122.087v.006h.009q.122.089.24.184v0h0q.093.075.183.153v0h0l.028.024v.007h.008a6.863,6.863,0,0,1,.676.681v0h0c.042.048.082.1.122.146v.009h.008l.023.029v0h0q.18.225.34.464v0h0l.061.092h0q.1.15.186.306v.005h0l.028.049v.013h.008q.148.265.272.544v.016h.007l.024.056v.006h0q.064.15.122.3v.008h0l.028.077v.016h.006l.025.072v.022h.008q.083.247.148.5v.026h.007c.008.034.016.067.024.1v.023h.005c.009.039.018.078.026.117v.007h0q.015.075.03.151v0h0c.011.059.021.119.03.178v.04h.006c.009.06.017.121.025.182v.036h0c.011.093.02.187.027.282v.091h.006c.008.135.013.271.013.408v24.278c0,.124,0,.246-.01.368h-.008v.131c-.008.1-.018.2-.03.3h0v.012q-.011.088-.024.175h-.008v.05c-.009.056-.018.112-.029.168h0v.014c-.018.1-.039.2-.062.3h0v0c-.009.041-.02.081-.03.122h0v0l-.023.089H274.3v.029c-.009.032-.017.064-.027.1h0v.015q-.067.229-.149.451h-.006v.017l-.029.077h0v0q-.029.076-.061.151h0v0q-.058.14-.122.276h0v0l-.028.059h0v.007l-.027.055h0v.008l-.027.055h0v.008l-.028.054h0v.005l-.03.057h0c-.039.073-.08.145-.121.216h0v.006q-.044.076-.09.15h0v0c-.018.03-.037.059-.055.089h-.007v.01q-.089.137-.184.27h0v0l-.088.121h-.005v.006c-.03.04-.06.079-.091.118h0v0c-.041.051-.082.1-.124.152h0q-.12.143-.247.28h0l-.028.03h0v0l-.026.027h-.005v.005q-.089.092-.181.181h-.006v.006l-.026.025h0v0l-.029.026h0v0l-.031.029h0q-.12.112-.245.217h0v0q-.074.062-.148.122h-.007v.006l-.113.088h-.011v.008l-.03.023h0l-.084.061h-.01v.007l-.122.086h0l-.09.061h0v0l-.092.06h0l-.149.092h-.007v0q-.076.046-.153.089h0q-.266.151-.547.278h-.013v.006l-.058.026h0v0q-.148.065-.3.122h-.011v0l-.071.027h-.023v.008l-.155.054h0q-.149.05-.3.093h-.009v0l-.1.029h-.019v.005l-.1.026h-.02v0l-.113.026h-.011v0q-.152.033-.306.06h-.036v.006l-.164.025H268.7v0a6.779,6.779,0,0,1-.706.059h-.133v0H237.712m4.789-37.765h20.232V311.5q.011-.224.011-.451c0-.152,0-.3-.011-.451v-.016a10.141,10.141,0,0,0-20.232,0v5.48Z" transform="translate(-175.006 -223.707)" fill="#273373" fill-rule="evenodd"/>
          </g>
        </g>
        <g id="Grupo_156724" data-name="Grupo 156724" transform="translate(56.031 70.159)">
          <g id="Grupo_156723" data-name="Grupo 156723" clip-path="url(#clip-path-5)">
            <rect id="Rectángulo_44995" data-name="Rectángulo 44995" width="71.866" height="65.309" transform="translate(-23.657 46.446) rotate(-63.008)" fill="url(#linear-gradient-3)"/>
          </g>
        </g>
        <g id="Grupo_156726" data-name="Grupo 156726">
          <g id="Grupo_953503" data-name="Grupo 953503">
            <path id="Trazado_599422" data-name="Trazado 599422" d="M950.152,587.54h.843a6.407,6.407,0,0,1,6.388,6.386v35h-1.5v-35a4.908,4.908,0,0,0-4.89-4.886h-.843Z" transform="translate(-719.722 -445.051)" fill="#273373" fill-rule="evenodd"/>
            <path id="Trazado_599423" data-name="Trazado 599423" d="M950.152,691.416h.843a6.435,6.435,0,0,1,4.51,1.834,6.154,6.154,0,0,1,1.878,4.413v10.079h-1.5V697.664a4.7,4.7,0,0,0-1.439-3.375,4.918,4.918,0,0,0-3.45-1.4h-.843Z" transform="translate(-719.722 -523.735)" fill="#273373" fill-rule="evenodd"/>
            <path id="Trazado_599424" data-name="Trazado 599424" d="M950.46,492.679a6.417,6.417,0,0,1,4.2,6v58.208h-1.5V498.678a4.872,4.872,0,0,0-1.436-3.451,4.946,4.946,0,0,0-1.265-.916Z" transform="translate(-719.956 -373.195)" fill="#273373" fill-rule="evenodd"/>
            <path id="Trazado_599425" data-name="Trazado 599425" d="M790.936,177.61l.289.543a.572.572,0,0,1-.112.685,5.872,5.872,0,0,0-.936,1.131.575.575,0,0,1-.653.236l-.587-.18a.575.575,0,0,0-.721.38l-.348,1.126a.578.578,0,0,0,.383.722l.587.181a.578.578,0,0,1,.407.563,5.677,5.677,0,0,0,.137,1.461.577.577,0,0,1-.3.628l-.544.288a.576.576,0,0,0-.24.78l.55,1.041a.577.577,0,0,0,.78.241l.541-.287a.576.576,0,0,1,.687.111,5.879,5.879,0,0,0,1.128.936.576.576,0,0,1,.239.653l-.184.588a.578.578,0,0,0,.382.721l1.125.348a.577.577,0,0,0,.721-.382l.183-.588a.57.57,0,0,1,.563-.405,6,6,0,0,0,1.461-.137.573.573,0,0,1,.628.293l.286.543a.577.577,0,0,0,.78.241l1.042-.551a.58.58,0,0,0,.242-.781l-.289-.543a.573.573,0,0,1,.112-.685,5.929,5.929,0,0,0,.936-1.129.574.574,0,0,1,.653-.238l.588.182a.576.576,0,0,0,.721-.382l.348-1.125a.579.579,0,0,0-.382-.723l-.587-.18a.574.574,0,0,1-.407-.564,5.827,5.827,0,0,0-.137-1.461.574.574,0,0,1,.3-.629l.544-.287a.576.576,0,0,0,.239-.78l-.55-1.041a.578.578,0,0,0-.78-.241l-.544.288a.573.573,0,0,1-.684-.112,5.983,5.983,0,0,0-1.128-.935.575.575,0,0,1-.239-.652l.183-.588a.579.579,0,0,0-.382-.723l-1.125-.347a.58.58,0,0,0-.724.382l-.18.588a.572.572,0,0,1-.563.405,5.829,5.829,0,0,0-1.461.136.566.566,0,0,1-.625-.293l-.292-.544a.574.574,0,0,0-.777-.241l-1.041.551a.577.577,0,0,0-.243.78m3.267,2.525a3.2,3.2,0,1,1-1.539,4.99,3.193,3.193,0,0,1,1.539-4.99" transform="translate(-596.776 -133.18)" fill="#b8afe4" fill-rule="evenodd"/>
            <rect id="Rectángulo_44996" data-name="Rectángulo 44996" width="14.18" height="2.778" transform="translate(136.277 157.463)" fill="#d3ebfc"/>
            <rect id="Rectángulo_44997" data-name="Rectángulo 44997" width="14.18" height="2.776" transform="translate(136.277 141.594)" fill="#d3ebfc"/>
            <rect id="Rectángulo_44998" data-name="Rectángulo 44998" width="14.18" height="2.777" transform="translate(136.277 124.458)" fill="#d3ebfc"/>
            <rect id="Rectángulo_44999" data-name="Rectángulo 44999" width="19.045" height="2.38" transform="translate(195.32 176.322)" fill="#273373"/>
            <rect id="Rectángulo_45000" data-name="Rectángulo 45000" width="12.291" height="2.38" transform="translate(216.249 176.322)" fill="#273373"/>
            <rect id="Rectángulo_45001" data-name="Rectángulo 45001" width="19.045" height="2.382" transform="translate(195.32 150.73)" fill="#273373"/>
            <rect id="Rectángulo_45002" data-name="Rectángulo 45002" width="12.291" height="2.382" transform="translate(216.249 150.73)" fill="#273373"/>
            <rect id="Rectángulo_45003" data-name="Rectángulo 45003" width="10.765" height="2.38" transform="translate(203.601 125.637)" fill="#273373"/>
            <rect id="Rectángulo_45004" data-name="Rectángulo 45004" width="12.291" height="2.38" transform="translate(216.249 125.637)" fill="#273373"/>
            <path id="Trazado_599426" data-name="Trazado 599426" d="M557.9,54.084h0a.591.591,0,0,1,.59.59v5.161a.591.591,0,0,1-1.181,0V54.674a.593.593,0,0,1,.591-.59" transform="translate(-422.153 -40.968)" fill="#b1d2fc" fill-rule="evenodd"/>
            <path id="Trazado_599427" data-name="Trazado 599427" d="M553.016,65.314h0a.591.591,0,0,1-.591.59h-5.161a.59.59,0,0,1,0-1.181h5.161a.591.591,0,0,1,.591.59" transform="translate(-414.096 -49.027)" fill="#b1d2fc" fill-rule="evenodd"/>
            <path id="Trazado_599428" data-name="Trazado 599428" d="M297.885,83.431h0a.671.671,0,0,1,.67.668v5.844a.669.669,0,0,1-1.337,0V84.1a.67.67,0,0,1,.667-.668" transform="translate(-225.137 -63.197)" fill="#b1d2fc" fill-rule="evenodd"/>
            <path id="Trazado_599429" data-name="Trazado 599429" d="M292.349,96.146h0a.669.669,0,0,1-.668.668h-5.843a.668.668,0,1,1,0-1.337h5.843a.67.67,0,0,1,.668.669" transform="translate(-216.01 -72.322)" fill="#b1d2fc" fill-rule="evenodd"/>
            <path id="Trazado_599430" data-name="Trazado 599430" d="M380.837,1.965a2.315,2.315,0,0,0-3.269,0l0,0a2.312,2.312,0,0,0,0,3.267v0a2.312,2.312,0,0,0,3.271-3.27ZM379.2,0a3.59,3.59,0,0,1,2.544,1.054h0a3.6,3.6,0,1,1-5.087,5.087h0a3.594,3.594,0,0,1,0-5.087h0A3.59,3.59,0,0,1,379.2,0" transform="translate(-284.513 45)" fill="#1dbbd2"/>
            <path id="Trazado_599431" data-name="Trazado 599431" d="M471.192,116.672a1.585,1.585,0,0,0-2.24,0h0a1.584,1.584,0,0,0,0,2.241h0a1.585,1.585,0,0,0,2.242-2.242Zm-1.12-1.347a2.463,2.463,0,0,1,1.745.723h0a2.466,2.466,0,1,1-3.487,3.489h0a2.467,2.467,0,0,1,0-3.489h0a2.459,2.459,0,0,1,1.744-.723" transform="translate(-354.201 -87.357)" fill="#1dbbd2"/>
            <path id="Trazado_599432" data-name="Trazado 599432" d="M736.216,104.293a1.3,1.3,0,0,0-1.837,0h0a1.3,1.3,0,0,0,0,1.835h0a1.3,1.3,0,0,0,1.837-1.836m-.917-1.1a2.008,2.008,0,0,1,1.427.592h0a2.02,2.02,0,1,1-2.857,2.856h0a2.022,2.022,0,0,1,0-2.856h0a2.022,2.022,0,0,1,1.43-.592" transform="translate(-555.442 -78.165)" fill="#1dbbd2"/>
            <path id="Trazado_599433" data-name="Trazado 599433" d="M194.1,71.981a1.3,1.3,0,0,0-1.835,0h0a1.3,1.3,0,0,0,0,1.834h0a1.3,1.3,0,0,0,1.837-1.836Zm-.917-1.1a2.01,2.01,0,0,1,1.428.592h0a2.019,2.019,0,1,1-2.856,2.855h0a2.016,2.016,0,0,1,0-2.856h0a2.017,2.017,0,0,1,1.428-.592" transform="translate(-144.8 -53.689)" fill="#1dbbd2"/>
            <path id="Trazado_599434" data-name="Trazado 599434" d="M134.519,138.615h0a.618.618,0,0,1,.617.617v5.393a.617.617,0,0,1-1.235,0v-5.393a.62.62,0,0,1,.618-.617" transform="translate(-101.427 -104.998)" fill="#b1d2fc" fill-rule="evenodd"/>
            <path id="Trazado_599435" data-name="Trazado 599435" d="M129.412,150.35h0a.619.619,0,0,1-.617.617H123.4a.617.617,0,0,1,0-1.234h5.394a.619.619,0,0,1,.617.617" transform="translate(-93.007 -113.42)" fill="#b1d2fc" fill-rule="evenodd"/>
            <path id="Trazado_599436" data-name="Trazado 599436" d="M822.541,72.229a1.948,1.948,0,0,0-2.751,0l0,0a1.944,1.944,0,0,0,0,2.752v0a1.946,1.946,0,0,0,2.751-2.754m-1.377-1.655a3.015,3.015,0,0,1,2.142.888h0a3.029,3.029,0,1,1-4.283,4.284h0a3.025,3.025,0,0,1,0-4.284h0a3.026,3.026,0,0,1,2.142-.888" transform="translate(-619.72 -53.458)" fill="#1dbbd2"/>
            <path id="Trazado_599437" data-name="Trazado 599437" d="M623.485,129.763h0a.419.419,0,0,1,.42.419v3.666a.42.42,0,1,1-.839,0v-3.666a.421.421,0,0,1,.419-.419" transform="translate(-471.96 -98.293)" fill="#b1d2fc" fill-rule="evenodd"/>
            <path id="Trazado_599438" data-name="Trazado 599438" d="M620.018,137.74h0a.421.421,0,0,1-.42.419h-3.665a.421.421,0,0,1-.42-.419h0a.422.422,0,0,1,.42-.419H619.6a.421.421,0,0,1,.42.419" transform="translate(-466.24 -104.018)" fill="#b1d2fc" fill-rule="evenodd"/>
          </g>
        </g>
      </g>
    </g>
  </g>
</svg>
