<svg xmlns="http://www.w3.org/2000/svg" xmlns:xlink="http://www.w3.org/1999/xlink" width="190" height="420" viewBox="0 0 190 420">
  <defs>
    <clipPath id="clip-path">
      <rect id="Rect치ngulo_44661" data-name="Rect치ngulo 44661" width="85.093" height="334.422" transform="translate(0 0)" fill="none"/>
    </clipPath>
  </defs>
  <g id="Grupo_156650" data-name="Grupo 156650" transform="translate(-1230 -1997)">
    <rect id="Rect치ngulo_44662" data-name="Rect치ngulo 44662" width="190" height="420" transform="translate(1230 1997)" fill="#fff"/>
    <path id="Trazado_599049" data-name="Trazado 599049" d="M138.219,1252.091c0,7.407-30.942,13.411-69.11,13.411S0,1259.5,0,1252.091s30.942-13.409,69.109-13.409,69.11,6,69.11,13.409" transform="translate(1260 1151.498)" fill="#ddd"/>
    <g id="Grupo_156647" data-name="Grupo 156647" transform="translate(1286.563 2070.386)">
      <g id="Grupo_156647-2" data-name="Grupo 156647" transform="translate(0 0)" clip-path="url(#clip-path)">
        <path id="Trazado_599049-2" data-name="Trazado 599049" d="M164.783,10.088s6.016,5.772,5.371,24.521V91.336a14.893,14.893,0,0,0,4.983,9.656s-39.531,12.083-42.9-6.359V35.794s-1.836-24.758,7.327-29.2c0,0,16.214-6.954,25.222,3.5" transform="translate(-101.427 -3.277)" fill="#2e1106"/>
        <path id="Trazado_599050" data-name="Trazado 599050" d="M138.385,220.831c8.187,4.075,3.81,13.7,3.81,13.7l-10.644,40.3s-9.946,4.23-27.4,2.112c-2.424-3.609-7.406-18.73-9.074-30.275-1.374-9.509-5.644-18.878-.993-24.18,1.781-2.032,15.363-4.061,15.431-4.394l16.032-.067Z" transform="translate(-70.626 -165.382)" fill="#f39672"/>
        <path id="Trazado_599051" data-name="Trazado 599051" d="M112.417,585.731s-5.174,44.586-21.718,69.854c0,0-7.714,13.489-17.114,3.228,0,0-1.507-72.605,10.26-95.064,0,0,33.626-1.727,28.571,21.982" transform="translate(-56.458 -427.589)" fill="#e28262"/>
        <path id="Trazado_599052" data-name="Trazado 599052" d="M92.283,223.38c-5.664-.164-13.192,5.656-13.349,11.552s2.93,21.1,7.245,17.278c8.483-7.514,12.714-12.037,12.872-17.93s-1.1-10.735-6.768-10.9" transform="translate(-60.609 -169.433)" fill="#e28262"/>
        <path id="Trazado_599053" data-name="Trazado 599053" d="M68.376,259.342l10.341-.474,5.4,9.531S73.3,301.957,68.031,308.127c-5.616,6.575-6.172-.807-6.719-3.731,0,0,3.153-39.514,7.064-45.055" transform="translate(-47.082 -196.354)" fill="#e28262"/>
        <path id="Trazado_599054" data-name="Trazado 599054" d="M59.272,1304.785a23.123,23.123,0,0,1-10.37-.836l5.493-3.363s5.962-7.544,7.076-10.21c.713-1.706.915-7.25.915-7.25l6.788.419.015,3.957,2.473,6.012s.228,2.834-4.707,3.405a100.79,100.79,0,0,1-7.683,7.866" transform="translate(-37.552 -973.267)" fill="#e28262"/>
        <path id="Trazado_599055" data-name="Trazado 599055" d="M51.993,1314.332c1.827.889,5.047,1.123,6.716-.627,6.726-7.046,8.078-12.457,8.078-12.457,3.407,3.894,2.506,7.145,2.506,7.145l-.252,1.343-1.94,10.351-.7-.043-1.932-8.553-4.72,7.931c-11.284,1.54-13.976-1.642-13.976-1.642Z" transform="translate(-35.149 -987.012)" fill="#121418"/>
        <path id="Trazado_599056" data-name="Trazado 599056" d="M73.793,943.941s6.963,75.128,7.706,78.635c0,0,6.855,2.422,6.788.419-.151-4.839,6.609-35.8,7.051-43.385.708-12.184-1.2-20.293-7.289-36.671,0,0-11.208-8.085-14.256,1" transform="translate(-56.666 -712.717)" fill="#e28262"/>
        <path id="Trazado_599057" data-name="Trazado 599057" d="M128.006,440.548c-1.3-.245-6.661,2.635-6.661,2.635s-6.7,22.388-6.983,25.794S136.576,490,161.715,479.967c0,0-11.639-31.529-12.352-39.294s-21.357-.126-21.357-.126" transform="translate(-87.816 -331.613)" fill="#e38865"/>
        <path id="Trazado_599058" data-name="Trazado 599058" d="M120.991,454.126s-6.419,20.191-6.983,25.794c-2,19.836,23.793,28.154,48.93,18.119,0,0,1.63-27.27-13.929-46.421,0,0-4.133,3.922-28.018,2.508" transform="translate(-87.463 -342.557)" fill="#15191e"/>
        <path id="Trazado_599059" data-name="Trazado 599059" d="M196.292,672.17l18.179-10.384s-2.948,59.845-5.252,76.654c0,0-10.172,2.946-13.321.769-9.429-23.013-14.891-72.981-14.891-72.981Z" transform="translate(-138.995 -501.972)" fill="#f39672"/>
        <path id="Trazado_599060" data-name="Trazado 599060" d="M205.067,581.816s8.724,2.62,6.919,19.438c-1.764,16.427-30.8,17.986-33.51,1.144-2.918-18.122,11.213-27.726,26.591-20.582" transform="translate(-136.756 -439.514)" fill="#f39672"/>
        <path id="Trazado_599061" data-name="Trazado 599061" d="M183.251,140.913h-17.5c.8-2.652,2.444-9.512-.106-14.182l17.677-12.077s-3.141,20.267-.073,26.259" transform="translate(-127.201 -86.965)" fill="#f39672"/>
        <path id="Trazado_599062" data-name="Trazado 599062" d="M167.012,132.953a12.287,12.287,0,0,0-1.363-6.222l17.677-12.077a135.6,135.6,0,0,0-1.411,15.793c-6.384,2.111-9.01,2.929-14.9,2.506" transform="translate(-127.202 -86.965)" fill="#db765e"/>
        <path id="Trazado_599063" data-name="Trazado 599063" d="M138.993,45.131l-1.06-2.686-2.658-7.925a8.446,8.446,0,0,1-.246-4.269,13.448,13.448,0,0,0,.033-6.7c-1.8-7.244,1.139-11.231,1.139-11.231C139.98,5.376,149.672,4.9,149.672,4.9c12.015.014,13.582,12.035,13.582,12.035,2.318,7.931-3.511,14.923-3.523,14.935-.738.885-.755,2.258-1.079,3.321a10.177,10.177,0,0,1-1.61,3.143,21.821,21.821,0,0,1-5.891,5.456,23.06,23.06,0,0,1-9.127,2.756c-1.222.051-2.423.129-3.03-1.411" transform="translate(-103.266 -3.712)" fill="#f39672"/>
        <path id="Trazado_599064" data-name="Trazado 599064" d="M157.325,32.874c-.216-5.7-.337-5.34-.337-5.34-.209-1.658-3.17,2.095-3.212-.076-.188-9.936-3.883-14.474-5.274-15.166a16.223,16.223,0,0,0-10.738-1.536c-4.779,1.146-4.268,7.815-4.268,7.815C128.193-5.66,154.78.767,154.78.767c12.933,2.812,12.229,15.4,12.229,15.4,2.22,13.353-10.117,21.763-10.117,21.763Z" transform="translate(-101.974 0.005)" fill="#2e1106"/>
        <path id="Trazado_599065" data-name="Trazado 599065" d="M229.584,104.642a2.492,2.492,0,0,0,1.69.438c1.854-.124,3.307-2.014,3.242-4.214s-1.616-3.878-3.468-3.752a3.224,3.224,0,0,0-2.245,1.214c-.845,1.017-.784,2.808-.515,4.029a3.719,3.719,0,0,0,1.3,2.286" transform="translate(-175.166 -73.656)" fill="#f3906b"/>
        <path id="Trazado_599066" data-name="Trazado 599066" d="M237.845,103.122c.052-1.16,2.351-.176,2.042.491a3.49,3.49,0,0,1-.852.957,1.711,1.711,0,0,0-.628,1.3c-.005.064-.009.267.06.309.3.194,1.2-.982,1.394-1.231a1.991,1.991,0,0,0,.177-1.858,1.1,1.1,0,0,0-1.269-.8c-.5.057-1.015.12-.955.77,0,.013.029.12.033.061" transform="translate(-182.612 -77.579)" fill="#e47a5d"/>
        <path id="Trazado_599067" data-name="Trazado 599067" d="M237.706,110.255c-.247-.229-.46-.016-.689.175a1.126,1.126,0,0,0-.369.7,2.812,2.812,0,0,0,.375,1.912,1.373,1.373,0,0,0,1.235.6c.676-.055.846-.687.841-1.283,0-.157-.006-.536-.16-.626s-.27.17-.372.288a.939.939,0,0,1-.562.255,1.2,1.2,0,0,1-1.025-.413.56.56,0,0,1-.111-.175c.018.39.042.474.071.257a1.1,1.1,0,0,1,.115-.282c.142-.277.4-.474.56-.741.078-.121.214-.548.092-.667" transform="translate(-181.696 -83.553)" fill="#e47a5d"/>
        <path id="Trazado_599068" data-name="Trazado 599068" d="M234.159,126.088a1.138,1.138,0,1,0,1.078-1.243,1.157,1.157,0,0,0-1.078,1.243" transform="translate(-179.809 -94.694)" fill="#fff"/>
        <path id="Trazado_599069" data-name="Trazado 599069" d="M116.927,219l-3.4.544s-6.6,13.28-8.162,27.347c1.668,11.545,5.015,29.026,9.074,30.275,13.757,4.233,28.118-2.421,28.118-2.421l6.578-27.331c-17.671-7.157-8.74-28.171-8.74-28.171l-3.711-.925s-13.125,10.014-19.754.682" transform="translate(-80.908 -165.593)" fill="#00a4b6"/>
        <path id="Trazado_599070" data-name="Trazado 599070" d="M98.047,258.677s-6.9,9.949-8.107,15.075c-.791,3.369,4.854,10.957,9.411,12.294,2.491.731,2.549-26.7-1.3-27.369" transform="translate(-69.007 -196.209)" fill="#00a4b6"/>
        <path id="Trazado_599071" data-name="Trazado 599071" d="M226.605,1309.958a23.086,23.086,0,0,1-10.4-.194l5.293-3.695s5.521-7.9,6.481-10.627c.615-1.749.5-7.3.5-7.3h6.8l.241,3.949,2.81,5.847s.391,2.818-4.5,3.692a101.6,101.6,0,0,1-7.222,8.324" transform="translate(-166.025 -977.074)" fill="#f39672"/>
        <path id="Trazado_599072" data-name="Trazado 599072" d="M219.119,1318.474c1.873.774,5.1.809,6.668-1.04,6.311-7.45,7.355-12.933,7.355-12.933,3.622,3.676,2.907,6.977,2.907,6.977l-.174,1.357-1.347,10.453h-.7l-2.415-8.419-4.26,8.209c-11.176,2.235-14.045-.777-14.045-.777Z" transform="translate(-163.644 -989.48)" fill="#121418"/>
        <path id="Trazado_599073" data-name="Trazado 599073" d="M256.457,953.349,241.6,957.925s5.718,72.748,6.377,76.273c0,0,6.82,2.005,6.8,0-.037-4.841,5.956-34.586,6.481-42.168.9-13.031,4.3-21.771-4.805-38.681" transform="translate(-185.526 -723.127)" fill="#f39672"/>
        <path id="Trazado_599074" data-name="Trazado 599074" d="M122.612,568.431l2.934,71.936S87.884,649.435,61.734,637c0,0,2.391-61.539,13.026-81.946,0,0,45.72-4.4,47.852,13.379" transform="translate(-47.406 -420.647)" fill="#15191e"/>
        <path id="Trazado_599075" data-name="Trazado 599075" d="M244.316,232.647c-3.2,4.868-1.4,9.592,1.189,14.732,2.627,5.225,18.645,8.84,17.883,3-1.493-11.488-2.623-18.028-7.541-20.958-4.172-2.484-8.338-1.641-11.531,3.231" transform="translate(-186.297 -172.985)" fill="#f39672"/>
        <path id="Trazado_599076" data-name="Trazado 599076" d="M247.816,265.778l8.056-6.762,9.779,4.34s10.428,33.688,9.7,41.91c-.773,8.76-5.43,3.158-7.538,1.144,0,0-19.99-33.757-20-40.632" transform="translate(-190.298 -196.466)" fill="#f39672"/>
        <path id="Trazado_599077" data-name="Trazado 599077" d="M328.737,431.367s1.271,23.712-2.211,39.558c0,0-4.409,2.725-4.759-.6-.593-5.657-5.158-33.517-4-43.4.375-3.192,10.969,4.442,10.969,4.442" transform="translate(-243.87 -323.235)" fill="#f39672"/>
        <path id="Trazado_599078" data-name="Trazado 599078" d="M309.268,629.087s-1.186.6-.385-2.291l.939-4.519s-.942,7.528-3.416,8.958c0,0-.441.421-.92-.577,0,0,2.1-6.414,2.084-9.022,0,0-.545,7.844-3.332,10.1,0,0-1.414.625-1.394-.922a38.593,38.593,0,0,0,2.337-9.966s-1.665,7.665-3.207,9.79c0,0-1.57.34-1.232-1.48,0,0,1.2-4.593,2.11-9.883,0,0-2.878,2.534-5.069,1.35l6.5-9.875,2.279-1.67,4.759.6.555,5.861a39.277,39.277,0,0,1-1.413,11.9s-.461,1.462-1.2,1.645" transform="translate(-228.667 -461.993)" fill="#f39672"/>
        <path id="Trazado_599079" data-name="Trazado 599079" d="M27.592,356.872l14.123,32.339-28.752-2.76L0,354.712Z" transform="translate(0 -269.053)" fill="#d7eaf5"/>
        <path id="Trazado_599080" data-name="Trazado 599080" d="M14.011,396.181a8.412,8.412,0,0,0,2.015,2.723c1,.825,2.679.575,3.325,1.178,1.125,1.051.327,3.888-2.047,6.735-2.058,2.469-3.576-.762-4.269-2.752-1.024-2.937-.956-4.249.211-6.619Z" transform="translate(-9.456 -300.507)" fill="#e28262"/>
      </g>
    </g>
  </g>
</svg>
